<?xml version="1.0" encoding="utf-8"?>
<!-- Generator: Adobe Illustrator 18.0.0, SVG Export Plug-In . SVG Version: 6.00 Build 0)  -->
<!DOCTYPE svg PUBLIC "-//W3C//DTD SVG 1.1//EN" "http://www.w3.org/Graphics/SVG/1.1/DTD/svg11.dtd">
<svg version="1.1" id="Layer_1" xmlns="http://www.w3.org/2000/svg" xmlns:xlink="http://www.w3.org/1999/xlink" x="0px" y="0px"
	 viewBox="0 0 512 512" enable-background="new 0 0 512 512" xml:space="preserve">
<path d="M421,435.4c-5.2,3.4-5.8,3.5-7.5-2.4c-1.9-6.4-7.7-7.4-12.2-10.3c-0.3-0.2-1.1,0-1.5,0.1c-5.5,1.9-9.6,7.5-9.8,13.3
	c-0.1,4.8,0.1,9.5,2.4,14.1c1.1,2.2,0.7,5,1.2,7.5c0.7,3.2,1.5,6.3,2.4,9.4c0.8,2.6,1.7,5.2,2.6,7.8c-0.3,0.2-0.7,0.4-1,0.6
	c-0.8-0.9-1.8-1.6-2.4-2.6c-5.4-9-10.7-18-15.9-27.1c-0.7-1.2-0.8-2.8-0.7-4.2c0.3-4.4-0.6-8.3-3.3-11.8c-0.6-0.8-1-1.7-1.5-2.6
	c-1.2-1.9-1.5-3.5,0.4-5.4c2.6-2.6,4-11.4,3-15c-2.1,1.4-2.7,3.3-2.7,5.8c0,4.7-1.6,8.4-7.2,9.7c-0.6-1.2-1.6-2.6-1.8-4.1
	c-0.4-3.7-0.6-7.5-0.6-11.2c0-5.7,2-6.7,7-3.7c0-1.4,0-2.6,0-4.1c-1.2,0.4-2.2,0.8-3.5,1.2c2-7.6-0.7-14.5-2.5-21.4
	c-0.6-2.4-2-4.7-2.8-7.1c-1.6-4.9-3.1-9.9-4.5-14.8c-3.5-12.3-11.3-21.8-19.9-31.4c-4.2,3.1-8.2,5.9-12.2,9
	c-0.7,0.5-1.2,1.6-1.4,2.5c-0.6,2.5-2.1,3.7-4.7,3.6c-2.3,0-4.5-0.1-6.8,0c-2.1,0.1-4.2,0.5-6.3,0.5c-1.2,0-2.8-0.1-3.4-0.8
	c-4.1-4.5-8.1-9.1-11.9-13.8c-1-1.2-1.4-3-1.7-4.5c-0.9-5.4-3.6-9.8-6.7-14.2c-0.9-1.3-1.6-3.2-1.4-4.7c0.9-6.8,0.2-13.4-1.9-19.9
	c-0.7-2.2-0.2-4.9,0.1-7.3c0.4-2.2,2.4-2.2,4.2-2.1c2.6,0.2,3.2-1,3-3.1c-1.4,0.5-2.8,1.1-4.1,1.5c-1.3,0.4-2.6,2.2-3.8-0.2
	c-0.6,2.5-1.1,4.8-1.7,7.2c-0.4,1.6-1.4,2.2-3,1.8c-4.4-1-8.8-1.9-13.5-2.9c0.3,0.5,0.4,1.1,0.7,1.4c4.2,3.7,8.1,7.6,14.2,8
	c2.4,0.2,4.9,3.4,4.9,6.1c0,1.6-0.2,3.3-0.5,4.9c-1,4.7-1.9,5.5-6.6,6.2c-3.9,0.6-4.1,0.7-2.6,4.4c1.6,3.8,0.4,7.3-0.6,10.9
	c-2,6.9-2,6.9,2.9,12.3c0.1,0.1,0.3,0,0.5,0c0.7,1.8,1.3,3.5,2.1,5.4c1.1-4.2,2.1-8,3.1-11.9c-0.7,0.1-1.6,0.1-2.3,0.2
	c-0.3,2.1-0.5,4-0.9,5.8c-0.3,1.1-0.9,1.9-2,0.6c-0.5-1-0.9-2.4-1.7-3.1c-3.1-2.7-1.4-5.9-1-8.8c0.1-0.6,1.1-1.3,1.7-1.5
	c3.9-1.1,7.7-0.8,11.5,0.7c1.9,0.8,2.6,2,1.2,3.7c-0.9,1.1-1,2,0,3.1c0.3,0.4,0.5,1,0.6,1.5c1,7.4,5.7,12.6,10.7,17.6
	c1.5,1.5,2,3,2,5c-0.1,6.8-0.9,13.4-3,19.9c-1.7,5.3-5.1,9.2-9.5,12.3c-1,0.7-3,1.3-3.6,0.8c-1.2-0.9-2.6-2.8-2.4-4.1
	c0.5-4,1.2-8.2,2.7-11.9c3.2-7.5,2.8-15,0.3-22.4c-0.8-2.4-3.6-4-5.5-6c-0.2,0.2-0.5,0.3-0.7,0.5c0.5,1.2,1.3,2.3,1.5,3.6
	c0.5,2.4,0.7,4.9,1.1,7.4c0.2,1.1,0.2,2.2,0.6,3.2c2.2,5.6-0.1,12.5-5.1,15.7c-1,0.6-1.8,1.7-2.5,2.7c-1.3,1.9-2.4,3.8-3.6,5.9
	c-2.5-0.9-3.5-2.4-2.8-4.9c-0.2,0-0.5-0.1-0.7-0.1c-2.2,6.2-4.6,12.3-6.6,18.5c-1.4,4.5-6.2,7.4-10.7,5.8c-2.4-0.8-4.6-2.1-6.8-3.4
	c-0.5-0.3-0.9-1.5-0.8-2.2c0.3-2.2,0.9-4.4,1.4-6.8c-1-0.6-2.1-1.4-3.2-2.1c-0.6,0.7-1.5,2.2-1.8,2.1c-1-0.4-2.2-1.2-2.5-2.1
	c-0.7-1.8-1-3.8-1.3-5.8c-0.4-2.4-0.1-5.1-1.1-7.2c-2.8-6.3-0.6-11.3,3.1-16.2c0.9-1.2,1.7-2.4,2.4-3.7c-5.1,3-9.3,12.3-8,17.7
	c1.1,4.5,1.3,9,0,13.5c-0.9,3-0.4,5.5,1.1,8c0.9,1.4,0.8,2.5-0.6,3.5c-2,1.3-3.9,2.6-5.9,3.9c-3.6,2.2-7.2,4.2-10.8,6.4
	c-3.4,2.2-4.2,2-5.7-1.8c-1.1-2.7-1.1-5.1,0.5-7.8c1.1-1.8,1.7-4,1.9-6.2c0.8-7.7,1.3-15.4,2-23.1c0-0.4-0.1-0.8-0.5-1.4
	c-0.9,1.7-1.8,3.5-2.5,5.3c-0.2,0.6-0.2,1.7,0.2,2.2c3.4,5-0.1,9-1.1,13.4c-0.3,0-0.5,0-0.8,0c0-1.8,0-3.6,0-5.6
	c-2.8,1.9-2.1,4-1.3,6.4c0.5,1.6,0.7,3.6,0.2,5.1c-1.4,4.2-3.1,8.3-4.9,12.4c-0.5,1-1.8,1.7-2.7,2.5c-0.8-1-2.2-1.9-2.4-3
	c-0.4-2-0.8-4.3-0.1-6.1c1.3-3.1,0.6-5.6-0.7-8.3c-0.3,0-0.5-0.1-0.8-0.1c-1,6-2.1,12-2.9,18c-0.2,1.8-0.6,3.1-2.4,3.8
	c-3.1,1.1-4.1,0.4-4-2.8c0-1.4,0.2-2.9-0.3-4c-0.5-1.1-1.7-2.4-2.8-2.8c-3.8-1.4-4.9-2.4-5.3-6.4c-0.2-1.9,0-3.8-0.2-5.7
	c-0.3-2.8-1-5.5-1.3-8.3c-0.1-1.5-0.1-3.3,0.6-4.5c1-1.5,1.1-2.5,0.2-3.9c-0.9-1.4-1.5-2.9-2.5-4.2c-2.7-3.3-3.1-7.3-3.6-11.2
	c-1.2-9.7-2.5-19.3-3.1-29c-0.3-5-1.9-9.1-4.9-13c-1.4-1.9,0.2-9.2,2.2-11.5c1.7-1.9,3.3-4,5-6c-0.1-0.4-0.1-0.7-0.2-1.1
	c-3.4-0.5-6.8-1.1-10.3-1.6c-1.2-0.2-2.4-0.1-3.5-0.5c-3.5-1.1-4.3-2.8-3.1-6.2c0.9-2.5,2.2-4.8,3.2-7.3c0.5-1.3,0.9-2.7,1.1-3.3
	c-3-2.1-5.4-4-8-5.7c-6-3.9-7.6-9.4-6-16.1c0.3-1.4,0.5-2.9,0.7-4.3c0.5-3.2,2.1-5.3,5.5-5.8c2.4-0.4,3.8-1.9,4.4-4.3
	c0.4-1.6,0.9-3.2,1-4.8c0-1-0.4-2.3-1.1-3c-2.8-2.7-3.2-7.4-0.3-9.9c2.6-2.2,0.8-3.9,0-5.7c-0.9-1.8-1.9-2.9-4.5-3
	c-4.2-0.1-9.2-0.2-12.2-2.4c-7-5.3-14.8-8.9-22.7-12.4c-1.9-0.8-3-2.1-3.6-4.1c-0.8-2.7-2.1-5.3-2.6-8c-0.3-1.6,0.2-3.7,1.1-5.2
	c1.5-2.7,3.7-5,5.2-7.7c0.6-1.1,0.1-2.9,0.2-4.3c0.1-0.9,0.3-2.4,0.8-2.6c1.6-0.5,3-2.8,5.1-1c1.4,1.3,2.7,2.7,4.2,3.9
	c1.4,1.2,3,1.2,4-0.5c2.4-4.2,5-8.3,6.8-12.7c0.8-1.9,0.1-4.5-0.1-6.7c-0.3-2.5,0.7-3.6,3.1-3.5c8.1,0.4,16.2,0.8,24.3,1.3
	c1.2,0.1,2.4,0.2,3.5,0.4c1.8,0.2,3-0.5,3.6-2.2c0.8-2.1,1.6-4.2,2.6-6.6c-0.9-0.2-1.6-0.5-2.2-0.5c-3.7-0.3-6.6-2.1-8.7-5
	c-0.8-1.1-0.9-2.8-0.8-4.2c0.1-2,0.7-4-1.2-5.5c-1.8-1.5-3.5-0.7-5.3,0.1c-4,1.9-11.2,0.7-14.3-2.4c-2.6-2.6-5.7-5-5.5-9.3
	c0-0.5-0.4-1.1-0.7-1.4c-3.7-3.4-7.4-6.8-11.3-9.9c-0.6-0.5-2.4,0-3.4,0.5c-4.2,2-5.2,1.7-6.9-2.7c-1.2-3-1.6-6.1-0.6-9.3
	c0.5-1.4,1-2.8,1.2-4.2c1.4-7.1,4.9-12.4,12.1-14.7c2.1-0.7,3.5-2.2,4-4.7c0.6-3.2,3.3-4.7,5.9-6c1.4-0.7,3-1.3,4.4-2
	c-0.1-4.5-1.9-6.8-5.8-7.7c-1.9-0.4-3.9-1.4-4.4,1.7c-2.5-2.7-0.6-9,3.7-13c0.9,7.1,6.7,9.2,12,11.6c3.7,1.7,6.6,3.6,7.4,7.9
	c1.1,5.8,6,7.3,10.6,8.6c3.2,0.9,6.7,0.8,10,1.1c0.5,0,1.5-0.5,1.6-0.9c0.2-0.7,0.3-2-0.2-2.4c-1.8-1.8-3.7-3.5-5.7-5
	c-2.7-2-2.9-3.5-0.9-6.1c0.9-1.2,1.7-1.2,3-0.6c6.9,3.3,7.6,3.2,8.4,10.7c0.8,7.7,5.3,12.1,10.5,16.6c5.2,4.5,11.4,5.2,17.7,4.7
	c2.1-0.2,4-2.5,5.8-4.1c0.4-0.3-0.3-2.2-1-3.1c-2.2-3.2-0.5-5.6,1.2-8.1c1-1.5,2.3-1.6,3.1,0.2c1,2.2,2.5,3.4,4.8,4.1
	c1.1,0.4,2.2,1.4,2.8,2.5c2.1,4.2,4,8.6,5.9,12.9c1.1,2.5,1,4.9-0.8,7.1c-1.5,1.9-1.7,3.9-0.7,6.1c0.5,1.2,0.7,2.5,1.1,3.7
	c2.2,6.4,2.3,12.8,0.7,19.4c-0.8,3.2-0.9,6.7-1,10c-0.1,2.3,1.1,3.4,3.8,3.4c2.9,0,5.9,0.7,8.7,1.7c8.5,2.9,16.9,6.1,25.4,9.1
	c0.7,0.3,1.7,0.6,2.3,0.3c6.6-3.2,13.4-1.2,20.1-0.7c6.7,0.6,13.2,0.3,19.8-1.3c5.3-1.2,10.8-1.5,16.2-2c1.2-0.1,2.6,0.3,3.7,0.8
	c8.9,4.2,18.1,3.8,27.6,2.5c6.7-1,13.4-1.7,20.1-2c3.2-0.1,6.5,0.9,9.5,1.9c4,1.3,8,2.7,11.5,5c2.8,1.8,6.6,3.1,7.3,7.5
	c0.2,1.4,1.9,2.5,3.1,3.7c1.6,1.6,3,3.1,1.5,5.4c-1.3,2-4.8,2.7-6.9,1.6c-1.9-1-3.7-2.3-5.8-3.1c-2.5-1-3.6,0-3.1,2.5
	c1.6,8-1.4,15.2-4.5,22c-1.7,3.6-4.4,6.4-3.5,10.8c0.1,0.7-0.9,2-1.7,2.6c-2.2,1.6-4.6,3-7,4.2c-0.8,0.4-2,0-3,0
	c-0.7,0-1.5-0.4-1.9-0.1c-0.4,0.3-0.4,1.2-0.5,1.9c-0.5,3.2-0.8,6.4-1.4,9.6c-0.3,1.7-1.6,2.6-3.4,2.3c-5.3-0.9-10.2,0.5-15.1,2.7
	c-4.3,1.9-8.8,2.5-13.5,0.8c-1.1-0.4-3.2,0.2-4,1.2c-2.8,3.2-5.4,6.7-7.6,10.3c-0.9,1.5-0.9,3.6-1.3,5.4c-0.5,2.3-0.8,4.6-1.4,6.9
	c-0.2,0.8-1,1.9-1.6,2c-3,0.7-3,2.9-2.6,5c0.8,3.9,1.1,8.2,3,11.5c3.9,6.6,5.5,13.8,7,21.1c0.6,3,1.3,6.1,2.2,9
	c0.4,1.4,1.5,2.7,2.8,3.8c1.3-4.9-3.1-10.1,1.4-14.7c2.2,0.6,3.9,2,4.7,4.3c1.3,3.6,2.3,7.3,3.8,10.8c1.1,2.6,2.7,5.1,4.2,7.5
	c0.3,0.5,1.5,1,2,0.8c4.6-2.2,9.5-4.1,12.2-8.8c0.5-0.9,0.8-2.2,0.6-3.2c-0.6-2.6-1.7-5-2.1-7.6c-0.4-2.1-0.6-4.6,0.1-6.5
	c1.7-4.2,3.7-8.2,8.6-10c2.8-1,4.2-5.4,3.6-9.1c-0.4-2.1-1.1-4.3-1.3-6.4c-0.1-1.7,0.4-3.5,0.6-4.9c1.6,1.3,3.1,2.6,4.7,3.8
	c1.7,1.3,3.2,1.6,4.9-0.4c1.5-1.9,3.6-3.3,5.4-5c0,0.3,0.1,0.6,0.1,0.9c1.7,0.1,3.4,0.6,5,0.4c2.6-0.3,2.9,1.2,3.2,3
	c0.5,3.9,0.6,7.9,1.5,11.6c1.1,4.9,2.7,9.6,4.3,14.4c0.8,2.3,0.8,4.4-0.6,6.5c-0.5,0.8-0.8,2.1-0.7,3.1c0.5,6.4,0.5,12.8,1.8,19
	c0.9,4.3,3.5,8.4,5.9,12.2c2.5,3.9,3.5,8.1,4.1,12.6c1,6.7,2.2,13.4,3.1,20.2c0.7,5.5,0.9,11,1.4,16.6c0.3,3.7,0.7,7.4,0.9,11.2
	c0.1,3.1,0,6.1-0.1,9.2c-0.7,12.8-0.1,25.5,4.3,37.7C421,434.3,421,434.9,421,435.4z M280.1,266.2c-2.5,0.5-4.8,1-7.6,1.6
	C277.4,270.5,279.9,270.5,280.1,266.2z M203.9,363.8c-1.1,4.5,0.3,7.8,2,11.1C205.3,371.5,204.7,368,203.9,363.8z"/>
</svg>
