<?xml version="1.0" encoding="utf-8"?>
<!-- Generator: Adobe Illustrator 18.0.0, SVG Export Plug-In . SVG Version: 6.00 Build 0)  -->
<!DOCTYPE svg PUBLIC "-//W3C//DTD SVG 1.1//EN" "http://www.w3.org/Graphics/SVG/1.1/DTD/svg11.dtd">
<svg version="1.1" id="Layer_1" xmlns="http://www.w3.org/2000/svg" xmlns:xlink="http://www.w3.org/1999/xlink" x="0px" y="0px"
	 viewBox="0 0 512 512" enable-background="new 0 0 512 512" xml:space="preserve">
<g>
	<g>
		<path fill="#A7A9AC" d="M143.6,271c0-69.9,56.7-126.5,126.5-126.5v-20.6C189,123.9,123,189.9,123,271c0,81.1,66,147.1,147.1,147.1
			v-20.6C200.2,397.6,143.6,340.9,143.6,271z"/>
		<path fill="#FFFFFF" d="M143.6,271c0,69.9,56.7,126.5,126.5,126.5V377c-58.4,0-105.9-47.5-105.9-105.9
			c0-58.4,47.5-105.9,105.9-105.9v-20.6C200.2,144.5,143.6,201.2,143.6,271z"/>
		<path fill="#A7A9AC" d="M184.8,271c0-47.1,38.3-85.3,85.3-85.3v-20.6c-58.4,0-105.9,47.5-105.9,105.9
			c0,58.4,47.5,105.9,105.9,105.9v-20.6C223.1,356.4,184.8,318.1,184.8,271z"/>
		<path fill="#FFFFFF" d="M184.8,271c0,47,38.3,85.3,85.3,85.3v-20.6c-35.7,0-64.7-29-64.7-64.7c0-35.7,29-64.7,64.7-64.7v-20.6
			C223.1,185.7,184.8,224,184.8,271z"/>
		<path fill="#A7A9AC" d="M226,271c0-24.3,19.8-44.1,44.1-44.1v-20.6c-35.7,0-64.7,29-64.7,64.7c0,35.7,29,64.7,64.7,64.7v-20.6
			C245.8,315.2,226,295.4,226,271z"/>
		<path fill="#FFFFFF" d="M226,271c0,24.3,19.8,44.1,44.1,44.1v-20.6c-13,0-23.5-10.6-23.5-23.5s10.6-23.5,23.5-23.5v-20.6
			C245.8,226.9,226,246.7,226,271z"/>
		<path fill="#A7A9AC" d="M246.6,271c0,13,10.6,23.5,23.5,23.5v-47.1C257.1,247.5,246.6,258.1,246.6,271z"/>
		<path fill="#A7A9AC" d="M270.1,123.9v20.6c69.9,0,126.5,56.6,126.5,126.5c0,69.9-56.6,126.5-126.5,126.5v20.6
			c81.1,0,147.1-66,147.1-147.1C417.2,189.9,351.2,123.9,270.1,123.9z"/>
		<path fill="#FFFFFF" d="M376,271c0,58.4-47.5,105.9-105.9,105.9v20.6c69.9,0,126.5-56.6,126.5-126.5
			c0-69.9-56.6-126.5-126.5-126.5v20.6C328.5,165.1,376,212.6,376,271z"/>
		<path fill="#A7A9AC" d="M376,271c0-58.4-47.5-105.9-105.9-105.9v20.6c47.1,0,85.3,38.3,85.3,85.3c0,47-38.3,85.3-85.3,85.3V377
			C328.5,377,376,329.4,376,271z"/>
		<path fill="#FFFFFF" d="M334.8,271c0,35.7-29,64.7-64.7,64.7v20.6c47.1,0,85.3-38.3,85.3-85.3c0-47.1-38.3-85.3-85.3-85.3v20.6
			C305.8,206.3,334.8,235.3,334.8,271z"/>
		<path fill="#A7A9AC" d="M334.8,271c0-35.7-29-64.7-64.7-64.7v20.6c24.3,0,44.1,19.8,44.1,44.1c0,24.3-19.8,44.1-44.1,44.1v20.6
			C305.8,335.8,334.8,306.7,334.8,271z"/>
		<path fill="#FFFFFF" d="M293.7,271c0,13-10.6,23.5-23.6,23.5v20.6c24.3,0,44.1-19.8,44.1-44.1c0-24.3-19.8-44.1-44.1-44.1v20.6
			C283.1,247.5,293.7,258.1,293.7,271z"/>
		<path fill="#A7A9AC" d="M293.7,271c0-13-10.6-23.5-23.6-23.5v47.1C283.1,294.6,293.7,284,293.7,271z"/>
	</g>
	<path fill="#6D6E71" d="M270,272.9c-13-19.3-36-41.3-36-41.3l-3.5,3.7L227,239C227,239,250,260.9,270,272.9z"/>
	<path fill="#6D6E71" d="M232.4,237.2c0,0,5.5-4.9,3.1-7.1l-40.1-38.1l-10.1,10.6l40.1,38.1C227.9,242.9,232.4,237.2,232.4,237.2z"
		/>
	<polygon fill="#6D6E71" points="150.8,169.7 160.8,159.1 210.3,206 200.2,216.6 	"/>
	<path fill="#414042" d="M162,170.2c0,0,16.2-24.6,1.5-38.4c-10.8-10.2-37.7-36.9-62.4-19.4c-16.2,25.6,11.9,51.1,22.6,61.3
		C138.2,187.7,162,170.2,162,170.2z"/>
	<g>
		<path fill="#FFFFFF" d="M136.2,111.1c-2-1-4.1-1.9-6.2-2.5l1.5,32.7l-32.7,0.2c0.8,2.1,1.8,4.1,2.9,6.1l36.3-0.2L136.2,111.1z"/>
		<path fill="#FFFFFF" d="M150.9,159.7l-1.8-40.5c-2.4-1.9-5-3.7-7.8-5.3l1.7,38.4l-38.4,0.2c1.8,2.7,3.7,5.2,5.7,7.5L150.9,159.7z"
			/>
	</g>
	<path fill="#6D6E71" d="M267.3,279.3c-16.2-8.7-40.3-15.5-40.3-15.5l-1.1,3.9l-1.1,3.9C224.8,271.5,249,278.3,267.3,279.3z"/>
	<path fill="#6D6E71" d="M227.9,268.2c0,0,2.1-5.4-0.5-6.1l-42-11.8l-3.1,11.1l42,11.8C226.8,273.9,227.9,268.2,227.9,268.2z"/>
	<polygon fill="#6D6E71" points="146.1,251.2 149.2,240.1 201,254.7 197.9,265.8 	"/>
	<path fill="#414042" d="M154.1,247.5c0,0,2.2-23.1-13.1-27.4c-11.3-3.1-39.9-11.9-50.7,9.4c-1.9,23.9,27.1,31.2,38.4,34.5
		C143.9,268.4,154.1,247.5,154.1,247.5z"/>
	<g>
		<path fill="#FFFFFF" d="M114.3,215.7c-1.8,0-3.6,0.2-5.3,0.5l13.1,22.3l-22.8,12.2c1.3,1.1,2.8,2.2,4.2,3.2l25.2-13.5L114.3,215.7
			z"/>
		<path fill="#FFFFFF" d="M142.5,244.2l-16.2-27.6c-2.4-0.4-4.9-0.7-7.4-0.9l15.4,26.1l-26.7,14.3c2.2,1.2,4.5,2.2,6.7,3.1
			L142.5,244.2z"/>
	</g>
	<path fill="#6D6E71" d="M272.3,275.1c11.6-17.3,32.3-37,32.3-37l3.2,3.3l3.1,3.3C310.9,244.7,290.2,264.3,272.3,275.1z"/>
	<path fill="#6D6E71" d="M306.1,243c0,0-4.9-4.3-2.8-6.4l35.9-34.2l9,9.5l-36,34.1C310.1,248.2,306.1,243,306.1,243z"/>
	<polygon fill="#6D6E71" points="379.3,182.5 370.3,173 325.9,215.1 335,224.6 	"/>
	<path fill="#414042" d="M369.2,183c0,0-14.5-22.1-1.4-34.4c9.7-9.1,33.8-33.1,56-17.4c14.5,23-10.7,45.8-20.3,55
		C390.5,198.6,369.2,183,369.2,183z"/>
	<g>
		<path fill="#FFFFFF" d="M392.3,130c1.8-0.9,3.7-1.7,5.6-2.3l-1.3,29.3l29.4,0.2c-0.7,1.9-1.6,3.7-2.6,5.5l-32.5-0.2L392.3,130z"/>
		<path fill="#FFFFFF" d="M379.2,173.6l1.6-36.4c2.2-1.7,4.5-3.3,7-4.8l-1.6,34.4l34.4,0.2c-1.6,2.4-3.3,4.6-5.1,6.7L379.2,173.6z"
			/>
	</g>
	<g>
		<polygon fill="#58595B" points="297.7,310.5 271.1,277.3 244.6,310.5 257.9,310.5 257.9,410.6 284.5,410.6 284.4,310.5 		"/>
		<polygon fill="#A7A9AC" points="330.8,335.2 310.8,310.3 290.8,335.2 300.8,335.2 300.8,410.5 320.8,410.5 320.8,335.2 		"/>
		<polygon fill="#A7A9AC" points="211.5,335.4 231.5,310.5 251.5,335.4 241.5,335.4 241.5,410.7 221.5,410.7 221.5,335.4 		"/>
	</g>
	<g>
		<rect x="307.1" y="332" fill="#939598" width="12.1" height="24.1"/>
		<g opacity="0.65">
			<path fill="#CDC5AE" d="M307.1,332.9v5.7c1.9,0.6,4,0.9,6.1,0.9c2.1,0,4.1-0.3,6.1-0.9v-5.7H307.1z"/>
		</g>
		<ellipse fill="#BCBEC0" cx="313.2" cy="304" rx="25.5" ry="31.6"/>
		<ellipse fill="#939598" cx="338.7" cy="307" rx="5.4" ry="5.9"/>
		<ellipse fill="#939598" cx="287.7" cy="307" rx="5.4" ry="5.9"/>
		<path fill="#353744" d="M302.8,275.4c0,0-24-10.5-15.9,28.6h5.5C292.4,304,292.8,281.8,302.8,275.4z"/>
		<path fill="#353744" d="M329.9,284.3c3.6,8.7,3.8,19.7,3.8,19.7h5.5c2.6-8.6,0.4-14.9,0.6-19.7H329.9z"/>
		<path fill="#353744" d="M298.4,277.9c0,0,23.9-27,39.1-2.9c3.1,4.9,9.9,5.8,13.6,1.4c0.1-0.1,0.2-0.2,0.3-0.3
			c0,0-2,21.9-26.2,13.6c-3.5-1.2-6.7-3-9.7-5.2C311.8,281.7,305.1,277.7,298.4,277.9z"/>
		<polygon fill="#EFEEEE" points="341.9,387.8 341.9,343.6 322.6,342.1 313,351.4 305.4,342.1 284.4,343.6 284.4,387.8 		"/>
		<polygon fill="#C6C6C9" points="319.7,340.7 313,351.4 306.8,340.3 300.3,343.2 302.3,352.4 304,360.3 313,353.3 313,353.4 
			321.6,360.8 323.8,352.4 326.1,343.9 		"/>
		<path fill="#353744" d="M342.6,399.2l-0.7-19.5l3.6,17.8l14.8-9.7l-4.1-31.5c-1-7.4-6.8-13.3-14.2-14.1c0,0-0.1,0-0.1,0l-17-0.1
			l-12,41.6l-10.2-41.6h-18.4v0.1c0,0-0.1,0-0.1,0c-7.4,0.8-13.2,6.7-14.2,14.1l-4.1,31.5h17.1l1.2-8.1l0,38.5
			C284.4,418.2,316.5,415.4,342.6,399.2z"/>
		<polygon fill="#62656F" points="330.6,359 337.1,347.3 322.7,341 313.2,378.5 303.7,341 289.3,347.3 295.8,359 288.6,362.9 
			313.2,385.2 337.8,362.9 		"/>
		<g>
			<polygon fill="#EFEEEE" points="319.7,338.7 313,351.4 321.6,358.8 326.1,342 			"/>
			<polygon fill="#EFEEEE" points="306.8,338.3 313,351.4 304,358.4 300.3,341.3 			"/>
		</g>
	</g>
</g>
</svg>
