<?xml version="1.0" encoding="utf-8"?>
<!-- Generator: Adobe Illustrator 18.0.0, SVG Export Plug-In . SVG Version: 6.00 Build 0)  -->
<!DOCTYPE svg PUBLIC "-//W3C//DTD SVG 1.1//EN" "http://www.w3.org/Graphics/SVG/1.1/DTD/svg11.dtd">
<svg version="1.1" id="Layer_1" xmlns="http://www.w3.org/2000/svg" xmlns:xlink="http://www.w3.org/1999/xlink" x="0px" y="0px"
	 viewBox="0 0 512 512" enable-background="new 0 0 512 512" xml:space="preserve">
<g>
	<g>
		<path d="M412.4,176.8c-11.1-2.5-22.2,4.4-24.8,15.5l-23.9,103.9l-180-1.7L140.4,121c-1.4-5.6-5.1-10.3-10.1-13.1L90.9,86.3
			c-10-5.5-22.6-1.9-28.1,8.2c-5.5,10-1.8,22.6,8.2,28.1l31.5,17.3l44.2,176.7l-23.8,18.8c-2.8,2.2-4.5,5.7-4.5,9.3v29.5
			c0,6.5,5.2,11.7,11.6,11.8l33.3,0.5c-4.6,4.3-7.6,10.4-7.6,17.2c0,13.1,10.6,23.6,23.6,23.6c13,0,23.6-10.6,23.6-23.6
			c0-6.6-2.7-12.5-7-16.8l155.9,2.2c-3.2,4-5.2,9.1-5.2,14.6c0,13.1,10.6,23.6,23.6,23.6s23.6-10.6,23.6-23.6
			c0-5.3-1.8-10.1-4.7-14.1l20.3,0.3c0.1,0,0.1,0,0.2,0c6.4,0,11.7-5.2,11.8-11.6c0.1-6.5-5.1-11.9-11.6-12l-268-3.8v-12.2
			l19.7-15.5c1.8,0.6,3.8,0.9,5.7,0.9l212.6,2c0.1,0,0.1,0,0.2,0c9.6,0,18-6.7,20.1-16.1L428,201.5
			C430.5,190.4,423.6,179.3,412.4,176.8z"/>
	</g>
	<g>
		<path d="M322.9,185.1h-19.2v-55.6c0-6.8-5.5-12.3-12.3-12.3h-37c-6.8,0-12.3,5.5-12.3,12.3v55.6h-19.2c-8.5,0-11.3,5.6-6.2,12.4
			l14.3,19.2c5.1,6.8,13.4,18,18.5,24.8l14.3,19.2c5.1,6.8,13.4,6.8,18.5,0l14.3-19.2c5.1-6.8,13.4-18,18.5-24.8l14.3-19.2
			C334.3,190.7,331.5,185.1,322.9,185.1z"/>
	</g>
</g>
</svg>
