<?xml version="1.0" encoding="utf-8"?>
<!-- Generator: Adobe Illustrator 18.0.0, SVG Export Plug-In . SVG Version: 6.00 Build 0)  -->
<!DOCTYPE svg PUBLIC "-//W3C//DTD SVG 1.1//EN" "http://www.w3.org/Graphics/SVG/1.1/DTD/svg11.dtd">
<svg version="1.1" id="Layer_1" xmlns="http://www.w3.org/2000/svg" xmlns:xlink="http://www.w3.org/1999/xlink" x="0px" y="0px"
	 viewBox="0 0 512 512" enable-background="new 0 0 512 512" xml:space="preserve">
<g>
	<g>
		<path fill="#7D7D7D" d="M234.3,158.3c0,30.1-24.4,54.5-54.5,54.5c-30.1,0-54.5-24.4-54.5-54.5c0-30.1,24.4-54.5,54.5-54.5
			C209.9,103.8,234.3,128.2,234.3,158.3z"/>
		<path fill="#010101" d="M179.9,85.3c-40.3,0-73,32.7-73,73c0,40.3,32.7,72.9,73,72.9c40.3,0,73-32.7,73-72.9
			C252.8,118,220.1,85.3,179.9,85.3z M211.2,120.6c8.1-4.7,18.5-1.9,23.2,6.2c4.7,8.1,1.9,18.5-6.2,23.2c-8.1,4.7-18.5,1.9-23.2-6.2
			C200.3,135.6,203.1,125.2,211.2,120.6z M179.9,95.3c9.4,0,17,7.6,17,17c0,9.4-7.6,17-17,17c-9.4,0-17-7.6-17-17
			C162.9,102.9,170.5,95.3,179.9,95.3z M184,150.9c-2.4-1.3-3.2-4.3-1.9-6.7c1.3-2.4,4.3-3.2,6.7-1.9c2.4,1.3,3.2,4.3,1.9,6.7
			C189.3,151.4,186.3,152.3,184,150.9z M190.9,167.2c1.4,2.3,0.6,5.3-1.7,6.7c-2.3,1.4-5.3,0.6-6.7-1.7c-1.4-2.3-0.6-5.3,1.7-6.7
			C186.5,164.1,189.5,164.9,190.9,167.2z M175.7,165.6c2.4,1.3,3.2,4.3,1.9,6.7c-1.3,2.4-4.3,3.2-6.7,1.9c-2.4-1.3-3.2-4.3-1.9-6.7
			C170.4,165.1,173.4,164.3,175.7,165.6z M168.8,149.3c-1.4-2.3-0.6-5.3,1.7-6.7c2.3-1.4,5.4-0.6,6.7,1.7c1.4,2.3,0.6,5.3-1.7,6.7
			C173.2,152.4,170.2,151.6,168.8,149.3z M148.5,196c-8.1,4.7-18.5,1.9-23.2-6.2c-4.7-8.1-1.9-18.5,6.2-23.2
			c8.1-4.7,18.5-1.9,23.2,6.2C159.4,180.9,156.6,191.3,148.5,196z M154.7,143.7c-4.7,8.1-15.1,10.9-23.2,6.2
			c-8.1-4.7-10.9-15.1-6.2-23.2c4.7-8.1,15.1-10.9,23.2-6.2C156.6,125.2,159.4,135.6,154.7,143.7z M166.5,153.5c2.7,0,4.9,2.2,5,4.9
			c0,2.7-2.1,4.9-4.9,5c-2.7,0-4.9-2.1-5-4.9C161.6,155.7,163.8,153.5,166.5,153.5z M179.9,221.3c-9.4,0-17-7.6-17-17
			c0-9.4,7.6-17,17-17c9.4,0,17,7.6,17,17C196.8,213.7,189.2,221.3,179.9,221.3z M193.2,163c-2.7,0-4.9-2.1-5-4.9
			c0-2.7,2.2-4.9,4.9-5c2.7,0,4.9,2.1,5,4.9C198.1,160.8,195.9,163,193.2,163z M234.4,189.8c-4.7,8.1-15.1,10.9-23.2,6.2
			c-8.1-4.7-10.9-15.1-6.2-23.2c4.7-8.1,15.1-10.9,23.2-6.2C236.3,171.3,239.1,181.7,234.4,189.8z"/>
		<path fill="#7D7D7D" d="M179.9,85.3c-40.3,0-73,32.7-73,73c0,40.3,32.7,72.9,73,72.9c40.3,0,73-32.7,73-72.9
			C252.8,118,220.1,85.3,179.9,85.3z M179.9,226.5c-37.7,0-68.3-30.6-68.3-68.3c0-37.7,30.6-68.3,68.3-68.3
			c37.7,0,68.3,30.6,68.3,68.3C248.1,196,217.6,226.5,179.9,226.5z"/>
		<path fill="#7D7D7D" d="M186,158.3c0,3.4-2.8,6.2-6.2,6.2c-3.4,0-6.2-2.8-6.2-6.2c0-3.4,2.8-6.2,6.2-6.2
			C183.3,152.1,186,154.9,186,158.3z"/>
	</g>
	<g>
		<path fill="#7D7D7D" d="M390.5,158.3c0,30.1-24.4,54.5-54.5,54.5c-30.1,0-54.5-24.4-54.5-54.5c0-30.1,24.4-54.5,54.5-54.5
			C366.1,103.8,390.5,128.2,390.5,158.3z"/>
		<path fill="#010101" d="M336,85.3c-40.3,0-73,32.7-73,73c0,40.3,32.7,72.9,73,72.9c40.3,0,73-32.7,73-72.9
			C408.9,118,376.3,85.3,336,85.3z M367.4,120.5c8.1-4.7,18.5-1.9,23.2,6.2c4.7,8.1,1.9,18.5-6.2,23.2c-8.1,4.7-18.5,1.9-23.2-6.2
			C356.5,135.6,359.2,125.2,367.4,120.5z M336,95.3c9.4,0,17,7.6,17,17c0,9.4-7.6,17-17,17c-9.4,0-17-7.6-17-17
			C319,102.9,326.6,95.3,336,95.3z M340.1,150.9c-2.4-1.3-3.2-4.3-1.9-6.7c1.3-2.4,4.3-3.2,6.7-1.9c2.4,1.3,3.2,4.3,1.9,6.7
			C345.5,151.4,342.5,152.3,340.1,150.9z M347,167.2c1.4,2.3,0.6,5.3-1.7,6.7c-2.3,1.4-5.3,0.6-6.7-1.7c-1.4-2.3-0.6-5.3,1.7-6.7
			C342.6,164.1,345.6,164.9,347,167.2z M331.8,165.6c2.4,1.3,3.2,4.3,1.9,6.7c-1.3,2.4-4.3,3.2-6.7,1.9c-2.4-1.3-3.2-4.3-1.9-6.7
			C326.5,165.1,329.5,164.3,331.8,165.6z M325,149.3c-1.4-2.3-0.6-5.3,1.7-6.7c2.3-1.4,5.4-0.6,6.7,1.7c1.4,2.3,0.6,5.3-1.7,6.7
			C329.4,152.4,326.4,151.6,325,149.3z M304.6,196c-8.1,4.7-18.5,1.9-23.2-6.2c-4.7-8.1-1.9-18.5,6.2-23.2
			c8.1-4.7,18.5-1.9,23.2,6.2C315.5,180.9,312.7,191.3,304.6,196z M310.8,143.7c-4.7,8.1-15.1,10.9-23.2,6.2
			c-8.1-4.7-10.9-15.1-6.2-23.2c4.7-8.1,15.1-10.9,23.2-6.2C312.7,125.2,315.5,135.6,310.8,143.7z M322.6,153.5c2.7,0,4.9,2.1,5,4.9
			c0,2.7-2.1,4.9-4.9,5c-2.7,0-4.9-2.1-5-4.9C317.7,155.7,319.9,153.5,322.6,153.5z M336,221.3c-9.4,0-17-7.6-17-17
			c0-9.4,7.6-17,17-17c9.4,0,17,7.6,17,17C352.9,213.7,345.3,221.3,336,221.3z M349.3,163c-2.7,0-4.9-2.1-5-4.9c0-2.7,2.2-4.9,4.9-5
			c2.7,0,4.9,2.1,5,4.9C354.2,160.8,352.1,163,349.3,163z M390.5,189.8c-4.7,8.1-15.1,10.9-23.2,6.2c-8.1-4.7-10.9-15.1-6.2-23.2
			c4.7-8.1,15.1-10.9,23.2-6.2C392.4,171.3,395.2,181.7,390.5,189.8z"/>
		<path fill="#7D7D7D" d="M336,85.3c-40.3,0-73,32.7-73,73c0,40.3,32.7,72.9,73,72.9c40.3,0,73-32.7,73-72.9
			C408.9,118,376.3,85.3,336,85.3z M336,226.5c-37.7,0-68.3-30.6-68.3-68.3c0-37.7,30.6-68.3,68.3-68.3c37.7,0,68.3,30.6,68.3,68.3
			C404.3,196,373.7,226.5,336,226.5z"/>
		<path fill="#7D7D7D" d="M342.1,158.3c0,3.4-2.8,6.2-6.2,6.2c-3.4,0-6.2-2.8-6.2-6.2c0-3.4,2.8-6.2,6.2-6.2
			C339.4,152.1,342.1,154.9,342.1,158.3z"/>
	</g>
	<path fill="#7D7D7D" d="M383.2,376.9c0,7-5.7,12.7-12.7,12.7H145.6c-7,0-12.8-5.7-12.8-12.7v-122c0-7,5.7-12.8,12.8-12.8h224.8
		c7,0,12.7,5.7,12.7,12.8V376.9z"/>
	<path fill="#010101" d="M336,257.3h-10.8c0,0,1.9-102.5,10.8-102.5c8.9,0,10.8,102.5,10.8,102.5H336z"/>
	<path fill="#010101" d="M179.9,257.3h-10.8c0,0,1.9-102.5,10.8-102.5c8.9,0,10.8,102.5,10.8,102.5H179.9z"/>
	<path fill="#010101" d="M132.8,352.2v24.7c0,7,5.7,12.7,12.8,12.7h224.8c7,0,12.7-5.7,12.7-12.7v-24.7H132.8z"/>
	<rect x="305.4" y="291.6" fill="#010101" width="9.6" height="43.8"/>
	<polygon fill="#010101" points="356.9,282.5 350.8,286.3 350.8,340.8 356.9,344.6 406.3,375.6 406.3,313.5 406.3,251.5 	"/>
	<rect x="312.5" y="286.3" fill="#010101" width="38.3" height="54.5"/>
	<rect x="403.8" y="248.4" fill="#7D7D7D" width="17.1" height="130.4"/>
	<path fill="#010101" d="M145.6,254.9v109.2c0,7,5.7,12.8,12.8,12.8h137.1c7,0,12.8-5.7,12.8-12.8V254.9H145.6z"/>
	<path fill="#7D7D7D" d="M145.6,361.8v2.4c0,7,5.7,12.8,12.8,12.8h137.1c7,0,12.8-5.7,12.8-12.8v-2.4H145.6z"/>
	<rect x="160.3" y="269.3" fill="#7D7D7D" width="78.9" height="4.4"/>
	<rect x="160.3" y="277.5" fill="#7D7D7D" width="78.9" height="4.4"/>
	<rect x="160.3" y="285.8" fill="#7D7D7D" width="78.9" height="4.4"/>
	<rect x="160.3" y="294" fill="#7D7D7D" width="78.9" height="4.4"/>
	<rect x="160.3" y="302.2" fill="#7D7D7D" width="78.9" height="4.4"/>
	<rect x="160.3" y="310.5" fill="#7D7D7D" width="78.9" height="4.4"/>
	<rect x="160.3" y="318.7" fill="#7D7D7D" width="78.9" height="4.4"/>
	<rect x="160.3" y="326.9" fill="#7D7D7D" width="78.9" height="4.4"/>
	<rect x="160.3" y="335.2" fill="#7D7D7D" width="78.9" height="4.4"/>
	<rect x="160.3" y="343.4" fill="#7D7D7D" width="78.9" height="4.4"/>
</g>
</svg>
