<?xml version="1.0" encoding="utf-8"?>
<!-- Generator: Adobe Illustrator 18.0.0, SVG Export Plug-In . SVG Version: 6.00 Build 0)  -->
<!DOCTYPE svg PUBLIC "-//W3C//DTD SVG 1.1//EN" "http://www.w3.org/Graphics/SVG/1.1/DTD/svg11.dtd">
<svg version="1.1" id="Layer_1" xmlns="http://www.w3.org/2000/svg" xmlns:xlink="http://www.w3.org/1999/xlink" x="0px" y="0px"
	 viewBox="0 0 512 512" enable-background="new 0 0 512 512" xml:space="preserve">
<g>
	<g>
		<g>
			<path fill="#808285" d="M400.5,399.1H194c-1.6,0-2.9-1.3-2.9-2.9V105.3c0-1.6,1.3-2.9,2.9-2.9h206.6c1.6,0,2.9,1.3,2.9,2.9v290.9
				C403.4,397.8,402.1,399.1,400.5,399.1z"/>
			<path d="M375.9,402.9H218.6c-17.3,0-31.4-14.1-31.4-31.4V130c0-17.3,14.1-31.4,31.4-31.4h157.2c17.3,0,31.4,14.1,31.4,31.4v241.6
				C407.2,388.8,393.2,402.9,375.9,402.9z M218.6,106.2c-13.1,0-23.8,10.7-23.8,23.8v241.6c0,13.1,10.7,23.8,23.8,23.8h157.2
				c13.1,0,23.8-10.7,23.8-23.8V130c0-13.1-10.7-23.8-23.8-23.8H218.6z"/>
		</g>
		<g>
			<path d="M407.7,365.6c-0.2-3.2-0.4-6.3-0.5-9.3c-0.3-17.3-0.3-32.6,0.2-46.7c0.3-10.7-0.1-21.6-0.5-32.1
				c-0.3-7.5-0.5-15-0.6-22.1c0.5-1.1,0.6-2.5,0.1-3.3l0-2.7c0-2.1,0-4.2,0.1-6.4c1-22.9,1.1-47.6,0.3-77.9
				c-0.1-3.7,0.1-8.1,0.4-12.8c0.8-16.2,1.8-36.3-9.2-46.3c-8.6-7.8-22.6-8.8-32.4-8.8c-5.7,0-11.6,0.4-16.8,0.7
				c-4,0.2-7.8,0.5-11.1,0.5c-3.7,0.1-7.4,0.1-11.1,0.1c-11.5,0-23-0.2-34.5-0.5c-11.5-0.2-23-0.5-34.6-0.5c-2.6,0-8.6,0-8.6,0
				c-2.4,0-5.3-0.1-8.4-0.2c-3.8-0.2-8.1-0.3-12.4-0.3c-14.5,0-34.1,1.8-37.7,17.1c-1.9,8-1.4,17.3-1,26.4c0.2,3.9,0.4,7.7,0.4,11.3
				l0,6c-0.1,15.4-0.2,31.4,0.6,47c-38.9,3.4-74.6,25.3-91.2,55.8c-21.3,39.2-15.2,87.4,15.7,122.6c23.1,26.4,56.1,41.6,90.7,41.6
				c7.1,0,14.1-0.7,21.1-1.9c17.2-3.2,33.5-11,47.1-22.7c0.4,0.1,0.8,0.2,1.2,0.2c12,0.2,24,0.5,36,0.8c16.5,0.4,33.6,0.9,50.4,0.9
				c2.7,0,5.9,0.2,9.3,0.5c4,0.3,8.2,0.6,12.3,0.6h0c9,0,21.3-1.4,24.3-13.6C408.8,382.3,408.3,373.8,407.7,365.6z M377.7,395.5
				c-2.8,0-5.7-0.2-8.5-0.5c-2.8-0.2-5.5-0.4-8.2-0.5c-16.9,0-34-0.5-50.5-0.9c-9.8-0.3-19.5-0.5-29.3-0.7
				c7-7.4,12.9-15.7,17.4-24.8l0.1,0.1c2.9-0.1,5.8-0.1,8.6-0.1c12.1,0,24.4,0.6,36.2,1.1c11.9,0.5,24.2,1.1,36.3,1.1
				c7.3,0,13.9-0.2,20.2-0.6l0.1,3.3c0.2,13.4-4.8,20-16.8,22C381.6,395.4,379.8,395.5,377.7,395.5z M302,360.6
				c3.4-8.7,5.6-17.6,6.4-26.6c22.6-0.1,45.6-0.8,67.8-1.4c7.8-0.2,15.6-0.5,23.4-0.7l-0.1,0.2c0,9.8,0.2,19.5,0.4,29.3l0,0.7
				c-6.3,0.4-12.9,0.6-20.2,0.6c-12,0-24.3-0.5-36.1-1.1c-11.9-0.5-24.1-1.1-36.2-1.1C305.6,360.6,303.8,360.6,302,360.6z
				 M306,298.6c6.8,0.3,14.1,0.5,22.3,0.5c11.6,0,23.4-0.4,34.9-0.7c11.4-0.3,23.2-0.7,34.8-0.7l1.7,0c-0.1,8.8-0.1,17.7-0.1,26.5
				c-7.8,0.2-15.5,0.4-23.3,0.7c-22.1,0.6-45,1.3-67.5,1.4l0-0.7c0-0.7,0.1-1.4,0-2.1C308.5,315.3,307.6,306.9,306,298.6z
				 M399.7,290.1l-1.7,0c-11.6,0-23.4,0.4-34.9,0.7c-11.5,0.3-23.3,0.7-34.9,0.7c-8.7,0-16.5-0.2-23.8-0.6
				c-2.8-11.2-6.8-21.7-12.1-31.1c5,0.1,10,0.1,15,0.1h0c24.4,0,49.2-0.9,73.2-1.7l19.4-0.7C399.8,268.4,399.7,279.3,399.7,290.1z
				 M399.9,249.9l-20.5,0.7c-23.7,0.8-48.2,1.7-72.4,1.7c-6.3,0-12.6-0.1-19-0.2h0c-0.1,0-0.3,0-0.4,0
				c-8.1-12.1-18.3-22.3-30.4-30.2c8.2,0,16.4,0.1,24.7,0.1c13.2,0.1,26.3,0.2,39.5,0.2l5.7,0c9.8,0,19.9-0.4,29.6-0.7
				c10-0.4,20.3-0.7,30.4-0.7c4.3,0,8.6,0.1,12.9,0.2C399.9,230.7,399.9,240.3,399.9,249.9z M399.8,213.4c-4.3-0.2-8.6-0.2-12.9-0.2
				c-10.1,0-20.5,0.4-30.5,0.7c-9.7,0.3-19.7,0.7-29.5,0.7l-5.2,0c-13.1,0-26.2-0.1-39.3-0.2c-12.7-0.1-25.3-0.2-38-0.2
				c-0.4,0-0.7,0.1-0.6,0.2c-6.7-3.2-13.7-5.8-20.8-7.7c-7.2-1.6-14.9-2.4-22.7-2.4c-0.9,0-1.8,0-2.7,0c-0.3-6.4-0.5-13.2-0.6-20.7
				c10.8-1,22.3-1.5,36.2-1.5c11.4,0,23,0.3,34.3,0.6c11.2,0.3,22.7,0.6,34,0.6l6.6,0c10.9,0,22.2,0.6,33.1,1.2
				c11,0.6,22.3,1.3,33.4,1.3c9.2,0,17.4-0.4,24.9-1.3l0,2.1c0.1,8.8,0.2,17.6,0.2,26.5V213.4z M373.6,178.6
				c-11.3,0-22.9-0.7-34.1-1.4c-11.2-0.7-22.7-1.3-33.9-1.3c-1.5,0-3,0-4.5,0c-2.7,0-5.4,0.1-8.2,0.1c-10.5,0-21.2-0.3-31.6-0.6
				c-10.4-0.3-21.2-0.6-31.8-0.6c-12.4,0-22.8,0.4-32.5,1.3c0-6,0-12.1,0-18.1c0-3.1-0.2-6.7-0.4-10.4c6.8-0.2,14.1-0.4,22.5-0.4
				c8.2,0,16.3,0.1,24.5,0.2c8.2,0.1,16.3,0.2,24.5,0.2c0,0,0,0,0,0c13.9,0,25.3-0.3,35.7-1.1c5.9-0.4,12.3-0.6,19.4-0.6
				c8.9,0,17.9,0.3,26.7,0.6c8.7,0.3,17.8,0.6,26.7,0.6c8.2,0,15.4-0.3,22.1-0.8c0.1,6.9,0.6,30.7,0.6,30.7
				C391.6,178.1,383.2,178.6,373.6,178.6z M376.8,139.6c-8.9,0-17.9-0.3-26.6-0.6c-8.7-0.3-17.8-0.6-26.7-0.6
				c-7.2,0-13.6,0.2-19.6,0.6c-10.4,0.7-21.8,1.1-35.6,1.1c-8.2,0-16.5-0.1-24.7-0.2c-8.2-0.1-16.5-0.2-24.7-0.2
				c-8.3,0-15.7,0.1-22.5,0.4c-0.3-7.2-0.4-14.6,1.1-20.4c3.3-12.9,12.2-13.1,22.6-13.3c1.8,0,3.7-0.1,5.5-0.2
				c7.3-0.4,15.1-0.7,23.9-0.8l5.8,0c12,0,23.9,0.4,35,0.8c4.6,0.2,9.2,0.2,13.8,0.2c7.7,0,15.4-0.2,23.2-0.4
				c7.7-0.2,15.4-0.4,23.2-0.4c10,0,18.2,0.3,26,0.9c19.8,1.6,21.9,15.6,22.3,32.3C392.1,139.3,384.9,139.6,376.8,139.6z
				 M221.2,214.2c56.2,15.2,91,73,77.6,128.9c-10.7,44.5-48.6,74.3-94.3,74.3c-10.1,0-20.3-1.5-30.3-4.4
				c-44.7-13-87.7-59.6-79.3-112c5-30.7,17.6-51.2,42.4-68.6c19.5-13.7,40.3-20.7,61.6-20.7C206.2,211.7,213.7,212.5,221.2,214.2z"
				/>
		</g>
		<g>
			<g>
				<path fill="#FFFFFF" d="M300.8,330.6c-9.4,57-43.9,89-101.3,89s-104-46.9-104-104.7s46.6-104.7,104-104.7S310.3,273,300.8,330.6
					z"/>
			</g>
			<g>
				<path d="M210.7,314.7l-0.5-0.1c-0.2-11-0.3-22-0.3-32.9c4.2,0.9,9.4,3,12.5,7.4c0.8,1.1,1.9,1.7,3.2,1.7c1.5,0,3-0.9,3.7-2.2
					c0.6-1.1,0.5-2.4-0.3-3.5c-3.7-5.5-10.5-9.4-19-11l0-8.2c0-1-0.3-2-1-2.6c-0.7-0.7-1.7-1.1-2.8-1.1c-1.9,0-3.8,1.3-3.8,3.7
					l0,7.5l-1.1,0c-2.5,0-5,0.2-7.4,0.6l0-7.4c0-1-0.4-2-1-2.6c-0.7-0.7-1.7-1.1-2.8-1.1c-1.9,0-3.8,1.3-3.8,3.7l0,9.3
					c-9.9,3.5-16.2,10-17.8,18.3c-2.1,10.6,6.4,19.1,15.9,22.9c0.6,0.2,1.2,0.4,1.9,0.6l-0.1,31.1c-6.6-2.2-11.2-6.9-13.8-14.5
					c-0.6-1.6-2-2.6-3.7-2.6c-1.3,0-2.6,0.6-3.3,1.6c-0.6,0.9-0.8,2-0.4,3.2c4.1,11.9,10.6,18.3,21.1,20.6l0,18.7c0,1,0.4,2,1,2.6
					c0.7,0.7,1.7,1.1,2.8,1.1c1.9,0,3.8-1.3,3.8-3.7l0-17.9l0.2,0.2c0.7,0,1.5,0,2.2,0c2.6,0,5.2-0.2,7.7-0.5l0.1,2.4
					c0.2,5,0.4,10.1,0.6,15.1c0.1,2.4,2.1,3.7,4,3.7c1.1,0,2.1-0.4,2.8-1.1c0.6-0.7,1-1.6,0.9-2.7c-0.3-6-0.5-12-0.7-18l0-1
					c10.1-2.9,16.4-8.6,18.1-16.8C232.1,326.8,221.9,318,210.7,314.7z M223.2,336.6c-0.5,5.5-8.1,9.1-12.2,10.7
					c-0.3-8.3-0.5-16.5-0.7-24.8c0.1,0,0.2,0.1,0.3,0.2C219.4,327.6,223.6,332.3,223.2,336.6z M201.8,313c-2.3-0.3-4.6-0.7-6.9-1.2
					l-1.1-0.3l0.1-29.9c2.7-0.6,5.4-0.9,8.2-0.9l0.2,0c0,10.8,0.1,21.5,0.2,32.3L201.8,313z M193.8,319l2.5,0.3
					c2.1,0.2,4.3,0.5,6.4,0.8c0.2,9.8,0.5,19.6,0.8,29.4c-1.7,0.3-3.3,0.6-4.6,0.6c-0.6,0-1.2,0-1.8,0c-1.1,0-2.3,0-3.4-0.1
					L193.8,319z M186.3,284.3l0,25c-5.8-2.2-9.3-5.1-10.3-8.5c-0.9-3.1,0.1-6.7,3.1-10.7C180.7,287.8,183.1,285.8,186.3,284.3z"/>
			</g>
			<g>
				<path d="M176.5,398.8c9.8,2.4,19.3,3.7,28.2,3.7h0c27.3,0,49.4-11.1,65.5-33.1c21.3-28.8,20.2-70.8-2.5-104.5
					c-15.4-22.7-42.6-36.9-70.9-36.9c-6.3,0-12.6,0.7-18.6,2.1c-38.4,8.9-68.3,49.4-66.7,90.4C115.9,357.1,143.9,390.7,176.5,398.8z
					 M209.4,395.7c-14.6-0.1-41.6-2.8-59.5-18.8c-16.1-14.5-28.5-37.2-30.8-56.5c-1.6-41.7,31.7-81.2,71.3-84.4
					c2.2-0.2,4.4-0.3,6.6-0.3c38.5,0,71.1,28.5,79.2,69.3c4.5,22.4-2,47.7-16.9,66C246.5,387,228.9,395.7,209.4,395.7L209.4,395.7z"
					/>
			</g>
			<g>
				<path d="M152.3,269.4c-0.9,0-1.8,0.3-2.5,0.9c-11.5,9.6-19,23.2-21,38.1c-0.2,1.2,0.2,2.3,0.9,3.2c0.8,0.9,2.1,1.5,3.3,1.5
					c1.7,0,2.9-1.1,3.2-2.9c1.8-13.7,8.4-25.7,18.9-34.5c1.2-1,1.6-2.3,1.1-3.7C155.7,270.5,154,269.4,152.3,269.4z"/>
			</g>
		</g>
	</g>
	<g>
		<path d="M218.4,112.4C218.4,112.4,218.4,112.4,218.4,112.4c-4.2,0.6-9.9,2-13.8,5.8c-4.1,3.9-4.4,9.2-4.2,14.3
			c0.1,2.4,2.1,3.7,4,3.7c1.1,0,2.1-0.4,2.8-1.1c0.6-0.7,1-1.6,0.9-2.6c-0.1-3.5-0.3-7.2,2.7-9.4c2.9-2.1,6.8-2.9,9.5-3.2
			c1.9-0.3,3-1.6,2.8-3.4C222.9,114.4,221.4,112.4,218.4,112.4z"/>
	</g>
</g>
</svg>
