<?xml version="1.0" encoding="utf-8"?>
<!-- Generator: Adobe Illustrator 18.0.0, SVG Export Plug-In . SVG Version: 6.00 Build 0)  -->
<!DOCTYPE svg PUBLIC "-//W3C//DTD SVG 1.1//EN" "http://www.w3.org/Graphics/SVG/1.1/DTD/svg11.dtd">
<svg version="1.1" id="Layer_1" xmlns="http://www.w3.org/2000/svg" xmlns:xlink="http://www.w3.org/1999/xlink" x="0px" y="0px"
	 viewBox="0 0 512 512" enable-background="new 0 0 512 512" xml:space="preserve">
<g>
	<g>
		<g>
			<g>
				<defs>
					<path id="SVGID_5_" d="M254.3,208.6c31.8,0,61.9,12.2,84.8,34.3c23.4,22.6,36.5,53,37,85.4c0.5,32.5-11.7,63.2-34.3,86.6
						c-11.7,12-25.4,21.4-40.8,27.7c-14.9,6.2-30.6,9.3-46.7,9.3c-31.8,0-61.9-12.2-84.7-34.3c-23.4-22.6-36.5-52.9-37-85.4
						c-0.5-32.5,11.7-63.2,34.3-86.6c11.7-12,25.4-21.4,40.8-27.7C222.4,211.7,238.2,208.6,254.3,208.6L254.3,208.6 M254.3,199.9
						c-34.1,0-68.2,13.3-93.8,39.7c-50.2,51.7-48.9,134.2,2.9,184.3c25.3,24.5,58.1,36.7,90.8,36.7c34.1,0,68.2-13.3,93.8-39.7
						c50.2-51.7,48.9-134.2-2.9-184.3C319.8,212.1,287,199.9,254.3,199.9L254.3,199.9z"/>
				</defs>
				<use xlink:href="#SVGID_5_"  overflow="visible"/>
				<clipPath id="SVGID_2_">
					<use xlink:href="#SVGID_5_"  overflow="visible"/>
				</clipPath>
				<rect x="110.4" y="199.9" clip-path="url(#SVGID_2_)" width="287.8" height="260.7"/>
				<circle clip-path="url(#SVGID_2_)" cx="254.3" cy="330.2" r="130.4"/>
				<circle clip-path="url(#SVGID_2_)" cx="254.3" cy="330.2" r="129.5"/>
				<circle clip-path="url(#SVGID_2_)" cx="254.3" cy="330.2" r="128.5"/>
				<path clip-path="url(#SVGID_2_)" d="M381.8,330.2c0,70.4-57.1,127.5-127.5,127.5c-70.4,0-127.5-57.1-127.5-127.5
					c0-70.4,57.1-127.5,127.5-127.5C324.7,202.7,381.8,259.8,381.8,330.2z"/>
				<circle clip-path="url(#SVGID_2_)" cx="254.3" cy="330.2" r="126.5"/>
				<circle clip-path="url(#SVGID_2_)" cx="254.3" cy="330.2" r="125.5"/>
				<circle clip-path="url(#SVGID_2_)" cx="254.3" cy="330.2" r="124.6"/>
				<circle clip-path="url(#SVGID_2_)" cx="254.3" cy="330.2" r="123.6"/>
				<circle clip-path="url(#SVGID_2_)" cx="254.3" cy="330.2" r="122.6"/>
				<circle clip-path="url(#SVGID_2_)" cx="254.3" cy="330.2" r="121.6"/>
				<circle clip-path="url(#SVGID_2_)" cx="254.3" cy="330.2" r="120.6"/>
				<circle clip-path="url(#SVGID_2_)" cx="254.3" cy="330.2" r="119.7"/>
				<circle clip-path="url(#SVGID_2_)" cx="254.3" cy="330.2" r="118.7"/>
				<circle clip-path="url(#SVGID_2_)" cx="254.3" cy="330.2" r="117.7"/>
				<circle clip-path="url(#SVGID_2_)" cx="254.3" cy="330.2" r="116.7"/>
				<circle clip-path="url(#SVGID_2_)" cx="254.3" cy="330.2" r="115.7"/>
				<circle clip-path="url(#SVGID_2_)" cx="254.3" cy="330.2" r="114.7"/>
				<path clip-path="url(#SVGID_2_)" d="M368.1,330.2c0,62.8-50.9,113.8-113.8,113.8c-62.8,0-113.8-50.9-113.8-113.8
					c0-62.8,50.9-113.8,113.8-113.8C317.1,216.4,368.1,267.4,368.1,330.2z"/>
				<circle clip-path="url(#SVGID_2_)" cx="254.3" cy="330.2" r="112.8"/>
				<circle clip-path="url(#SVGID_2_)" cx="254.3" cy="330.2" r="111.8"/>
				<circle clip-path="url(#SVGID_2_)" cx="254.3" cy="330.2" r="110.8"/>
				<path clip-path="url(#SVGID_2_)" d="M364.1,330.2c0,60.7-49.2,109.8-109.8,109.8c-60.7,0-109.8-49.2-109.8-109.8
					c0-60.7,49.2-109.8,109.8-109.8C314.9,220.4,364.1,269.6,364.1,330.2z"/>
				<circle clip-path="url(#SVGID_2_)" cx="254.3" cy="330.2" r="108.9"/>
				<circle clip-path="url(#SVGID_2_)" cx="254.3" cy="330.2" r="107.9"/>
				<circle clip-path="url(#SVGID_2_)" cx="254.3" cy="330.2" r="106.9"/>
				<path clip-path="url(#SVGID_2_)" d="M360.2,330.2c0,58.5-47.4,105.9-105.9,105.9c-58.5,0-105.9-47.4-105.9-105.9
					c0-58.5,47.4-105.9,105.9-105.9C312.8,224.3,360.2,271.7,360.2,330.2z"/>
				<circle clip-path="url(#SVGID_2_)" cx="254.3" cy="330.2" r="104.9"/>
				<path clip-path="url(#SVGID_2_)" d="M358.2,330.2c0,57.4-46.5,104-104,104c-57.4,0-104-46.5-104-104c0-57.4,46.5-104,104-104
					C311.7,226.3,358.2,272.8,358.2,330.2z"/>
				<circle clip-path="url(#SVGID_2_)" cx="254.3" cy="330.2" r="103"/>
				<path clip-path="url(#SVGID_2_)" d="M356.3,330.2c0,56.3-45.7,102-102,102c-56.3,0-102-45.7-102-102c0-56.3,45.7-102,102-102
					C310.6,228.2,356.3,273.9,356.3,330.2z"/>
				<circle clip-path="url(#SVGID_2_)" cx="254.3" cy="330.2" r="101"/>
				<path clip-path="url(#SVGID_2_)" d="M354.3,330.2c0,55.2-44.8,100-100,100c-55.3,0-100-44.8-100-100c0-55.2,44.8-100,100-100
					C309.5,230.2,354.3,275,354.3,330.2z"/>
				<circle clip-path="url(#SVGID_2_)" cx="254.3" cy="330.2" r="99.1"/>
				<path clip-path="url(#SVGID_2_)" d="M352.4,330.2c0,54.2-43.9,98.1-98.1,98.1c-54.2,0-98.1-43.9-98.1-98.1
					c0-54.2,43.9-98.1,98.1-98.1C308.4,232.1,352.4,276.1,352.4,330.2z"/>
				<circle clip-path="url(#SVGID_2_)" cx="254.3" cy="330.2" r="97.1"/>
				<circle clip-path="url(#SVGID_2_)" cx="254.3" cy="330.2" r="96.1"/>
				<circle clip-path="url(#SVGID_2_)" cx="254.3" cy="330.2" r="95.1"/>
				<circle clip-path="url(#SVGID_2_)" cx="254.3" cy="330.2" r="94.1"/>
				<circle clip-path="url(#SVGID_2_)" cx="254.3" cy="330.2" r="93.2"/>
				<circle clip-path="url(#SVGID_2_)" cx="254.3" cy="330.2" r="92.2"/>
				<circle clip-path="url(#SVGID_2_)" cx="254.3" cy="330.2" r="91.2"/>
				<circle clip-path="url(#SVGID_2_)" cx="254.3" cy="330.2" r="90.2"/>
				<path clip-path="url(#SVGID_2_)" d="M343.5,330.2c0,49.3-40,89.2-89.2,89.2c-49.3,0-89.2-40-89.2-89.2c0-49.3,40-89.2,89.2-89.2
					C303.6,241,343.5,280.9,343.5,330.2z"/>
				<circle clip-path="url(#SVGID_2_)" cx="254.3" cy="330.2" r="88.3"/>
				<path clip-path="url(#SVGID_2_)" d="M341.6,330.2c0,48.2-39.1,87.3-87.3,87.3c-48.2,0-87.3-39.1-87.3-87.3
					c0-48.2,39.1-87.3,87.3-87.3C302.5,242.9,341.6,282,341.6,330.2z"/>
				<circle clip-path="url(#SVGID_2_)" cx="254.3" cy="330.2" r="86.3"/>
				<circle clip-path="url(#SVGID_2_)" cx="254.3" cy="330.2" r="85.3"/>
				<circle clip-path="url(#SVGID_2_)" cx="254.3" cy="330.2" r="84.3"/>
				<circle clip-path="url(#SVGID_2_)" cx="254.3" cy="330.2" r="83.4"/>
				<circle clip-path="url(#SVGID_2_)" cx="254.3" cy="330.2" r="82.4"/>
				<circle clip-path="url(#SVGID_2_)" cx="254.3" cy="330.2" r="81.4"/>
				<circle clip-path="url(#SVGID_2_)" cx="254.3" cy="330.2" r="80.4"/>
				<circle clip-path="url(#SVGID_2_)" cx="254.3" cy="330.2" r="79.4"/>
				<circle clip-path="url(#SVGID_2_)" cx="254.3" cy="330.2" r="78.5"/>
				<circle clip-path="url(#SVGID_2_)" cx="254.3" cy="330.2" r="77.5"/>
				<circle clip-path="url(#SVGID_2_)" cx="254.3" cy="330.2" r="76.5"/>
				<circle clip-path="url(#SVGID_2_)" cx="254.3" cy="330.2" r="75.5"/>
				<circle clip-path="url(#SVGID_2_)" cx="254.3" cy="330.2" r="74.5"/>
				<circle clip-path="url(#SVGID_2_)" cx="254.3" cy="330.2" r="73.6"/>
				<circle clip-path="url(#SVGID_2_)" cx="254.3" cy="330.2" r="72.6"/>
				<circle clip-path="url(#SVGID_2_)" cx="254.3" cy="330.2" r="71.6"/>
				<circle clip-path="url(#SVGID_2_)" cx="254.3" cy="330.2" r="70.6"/>
				<path clip-path="url(#SVGID_2_)" d="M323.9,330.2c0,38.5-31.2,69.6-69.6,69.6c-38.5,0-69.6-31.2-69.6-69.6
					c0-38.5,31.2-69.6,69.6-69.6C292.7,260.6,323.9,291.8,323.9,330.2z"/>
				<circle clip-path="url(#SVGID_2_)" cx="254.3" cy="330.2" r="68.7"/>
				<circle clip-path="url(#SVGID_2_)" cx="254.3" cy="330.2" r="67.7"/>
				<circle clip-path="url(#SVGID_2_)" cx="254.3" cy="330.2" r="66.7"/>
				<circle clip-path="url(#SVGID_2_)" cx="254.3" cy="330.2" r="65.7"/>
				<circle clip-path="url(#SVGID_2_)" cx="254.3" cy="330.2" r="64.7"/>
				<circle clip-path="url(#SVGID_2_)" cx="254.3" cy="330.2" r="63.7"/>
				<circle clip-path="url(#SVGID_2_)" cx="254.3" cy="330.2" r="62.8"/>
				<circle clip-path="url(#SVGID_2_)" cx="254.3" cy="330.2" r="61.8"/>
				<circle clip-path="url(#SVGID_2_)" cx="254.3" cy="330.2" r="60.8"/>
				<circle clip-path="url(#SVGID_2_)" cx="254.3" cy="330.2" r="59.8"/>
				<path clip-path="url(#SVGID_2_)" d="M313.1,330.2c0,32.5-26.3,58.8-58.8,58.8c-32.5,0-58.8-26.3-58.8-58.8
					c0-32.5,26.3-58.8,58.8-58.8C286.8,271.4,313.1,297.7,313.1,330.2z"/>
				<circle clip-path="url(#SVGID_2_)" cx="254.3" cy="330.2" r="57.9"/>
				<circle clip-path="url(#SVGID_2_)" cx="254.3" cy="330.2" r="56.9"/>
				<circle clip-path="url(#SVGID_2_)" cx="254.3" cy="330.2" r="55.9"/>
				<circle clip-path="url(#SVGID_2_)" cx="254.3" cy="330.2" r="54.9"/>
				<circle clip-path="url(#SVGID_2_)" cx="254.3" cy="330.2" r="53.9"/>
				<circle clip-path="url(#SVGID_2_)" cx="254.3" cy="330.2" r="53"/>
				<circle clip-path="url(#SVGID_2_)" cx="254.3" cy="330.2" r="52"/>
				<circle clip-path="url(#SVGID_2_)" cx="254.3" cy="330.2" r="51"/>
				<path clip-path="url(#SVGID_2_)" d="M304.3,330.2c0,27.6-22.4,50-50,50c-27.6,0-50-22.4-50-50c0-27.6,22.4-50,50-50
					C281.9,280.2,304.3,302.6,304.3,330.2z"/>
				<path clip-path="url(#SVGID_2_)" d="M303.3,330.2c0,27.1-22,49-49,49c-27.1,0-49-22-49-49c0-27.1,22-49,49-49
					C281.4,281.2,303.3,303.1,303.3,330.2z"/>
				<circle clip-path="url(#SVGID_2_)" cx="254.3" cy="330.2" r="48.1"/>
				<path clip-path="url(#SVGID_2_)" d="M301.4,330.2c0,26-21.1,47.1-47.1,47.1c-26,0-47.1-21.1-47.1-47.1c0-26,21.1-47.1,47.1-47.1
					C280.3,283.1,301.4,304.2,301.4,330.2z"/>
				<circle clip-path="url(#SVGID_2_)" cx="254.3" cy="330.2" r="46.1"/>
				<path clip-path="url(#SVGID_2_)" d="M299.4,330.2c0,24.9-20.2,45.1-45.1,45.1c-24.9,0-45.1-20.2-45.1-45.1
					c0-24.9,20.2-45.1,45.1-45.1C279.2,285.1,299.4,305.3,299.4,330.2z"/>
				<circle clip-path="url(#SVGID_2_)" cx="254.3" cy="330.2" r="44.1"/>
				<circle clip-path="url(#SVGID_2_)" cx="254.3" cy="330.2" r="43.2"/>
				<circle clip-path="url(#SVGID_2_)" cx="254.3" cy="330.2" r="42.2"/>
				<path clip-path="url(#SVGID_2_)" d="M295.5,330.2c0,22.8-18.4,41.2-41.2,41.2c-22.7,0-41.2-18.4-41.2-41.2
					c0-22.7,18.4-41.2,41.2-41.2C277,289,295.5,307.5,295.5,330.2z"/>
				<circle clip-path="url(#SVGID_2_)" cx="254.3" cy="330.2" r="40.2"/>
				<circle clip-path="url(#SVGID_2_)" cx="254.3" cy="330.2" r="39.2"/>
				<circle clip-path="url(#SVGID_2_)" cx="254.3" cy="330.2" r="38.2"/>
				<circle clip-path="url(#SVGID_2_)" cx="254.3" cy="330.2" r="37.3"/>
				<circle clip-path="url(#SVGID_2_)" cx="254.3" cy="330.2" r="36.3"/>
				<circle clip-path="url(#SVGID_2_)" cx="254.3" cy="330.2" r="35.3"/>
				<circle clip-path="url(#SVGID_2_)" cx="254.3" cy="330.2" r="34.3"/>
				<path clip-path="url(#SVGID_2_)" d="M287.6,330.2c0,18.4-14.9,33.3-33.3,33.3c-18.4,0-33.3-14.9-33.3-33.3
					c0-18.4,14.9-33.3,33.3-33.3C272.7,296.9,287.6,311.8,287.6,330.2z"/>
				<circle clip-path="url(#SVGID_2_)" cx="254.3" cy="330.2" r="32.4"/>
				<circle clip-path="url(#SVGID_2_)" cx="254.3" cy="330.2" r="31.4"/>
				<circle clip-path="url(#SVGID_2_)" cx="254.3" cy="330.2" r="30.4"/>
				<path clip-path="url(#SVGID_2_)" d="M283.7,330.2c0,16.3-13.2,29.4-29.4,29.4c-16.2,0-29.4-13.2-29.4-29.4
					c0-16.2,13.2-29.4,29.4-29.4C270.5,300.8,283.7,314,283.7,330.2z"/>
				<circle clip-path="url(#SVGID_2_)" cx="254.3" cy="330.2" r="28.4"/>
				<circle clip-path="url(#SVGID_2_)" cx="254.3" cy="330.2" r="27.5"/>
				<circle clip-path="url(#SVGID_2_)" cx="254.3" cy="330.2" r="26.5"/>
				<circle clip-path="url(#SVGID_2_)" cx="254.3" cy="330.2" r="25.5"/>
				<circle clip-path="url(#SVGID_2_)" cx="254.3" cy="330.2" r="24.5"/>
				<circle clip-path="url(#SVGID_2_)" cx="254.3" cy="330.2" r="23.5"/>
				<circle clip-path="url(#SVGID_2_)" cx="254.3" cy="330.2" r="22.6"/>
				<circle clip-path="url(#SVGID_2_)" cx="254.3" cy="330.2" r="21.6"/>
				<circle clip-path="url(#SVGID_2_)" cx="254.3" cy="330.2" r="20.6"/>
				<path clip-path="url(#SVGID_2_)" d="M273.9,330.2c0,10.8-8.8,19.6-19.6,19.6c-10.8,0-19.6-8.8-19.6-19.6
					c0-10.8,8.8-19.6,19.6-19.6C265.1,310.6,273.9,319.4,273.9,330.2z"/>
				<circle clip-path="url(#SVGID_2_)" cx="254.3" cy="330.2" r="18.6"/>
				<circle clip-path="url(#SVGID_2_)" cx="254.3" cy="330.2" r="17.7"/>
				<circle clip-path="url(#SVGID_2_)" cx="254.3" cy="330.2" r="16.7"/>
				<circle clip-path="url(#SVGID_2_)" cx="254.3" cy="330.2" r="15.7"/>
				<circle clip-path="url(#SVGID_2_)" cx="254.3" cy="330.2" r="14.7"/>
				<circle clip-path="url(#SVGID_2_)" cx="254.3" cy="330.2" r="13.7"/>
				<circle clip-path="url(#SVGID_2_)" cx="254.3" cy="330.2" r="12.8"/>
				<circle clip-path="url(#SVGID_2_)" cx="254.3" cy="330.2" r="11.8"/>
				<path clip-path="url(#SVGID_2_)" d="M265.1,330.2c0,6-4.8,10.8-10.8,10.8c-6,0-10.8-4.8-10.8-10.8c0-6,4.8-10.8,10.8-10.8
					C260.2,319.4,265.1,324.3,265.1,330.2z"/>
				<path clip-path="url(#SVGID_2_)" d="M264.1,330.2c0,5.4-4.4,9.8-9.8,9.8c-5.4,0-9.8-4.4-9.8-9.8c0-5.4,4.4-9.8,9.8-9.8
					C259.7,320.4,264.1,324.8,264.1,330.2z"/>
				<path clip-path="url(#SVGID_2_)" d="M263.1,330.2c0,4.9-4,8.8-8.8,8.8c-4.9,0-8.8-4-8.8-8.8c0-4.9,4-8.8,8.8-8.8
					C259.2,321.4,263.1,325.3,263.1,330.2z"/>
				<circle clip-path="url(#SVGID_2_)" cx="254.3" cy="330.2" r="7.8"/>
				<circle clip-path="url(#SVGID_2_)" cx="254.3" cy="330.2" r="6.9"/>
				<circle clip-path="url(#SVGID_2_)" cx="254.3" cy="330.2" r="5.9"/>
				<circle clip-path="url(#SVGID_2_)" cx="254.3" cy="330.2" r="4.9"/>
				<circle clip-path="url(#SVGID_2_)" cx="254.3" cy="330.2" r="3.9"/>
				<circle clip-path="url(#SVGID_2_)" cx="254.3" cy="330.2" r="2.9"/>
				<circle clip-path="url(#SVGID_2_)" cx="254.3" cy="330.2" r="2"/>
				<circle clip-path="url(#SVGID_2_)" cx="254.3" cy="330.2" r="1"/>
				<rect x="132" y="208.6" clip-path="url(#SVGID_2_)" width="244.7" height="243.3"/>
				<path clip-path="url(#SVGID_2_)" d="M377.5,330.2v26.3h4.6c-1.7,8.5-4.3,16.7-7.6,24.5c-6.6,15.6-16.2,29.7-28,41.5
					c-11.8,11.8-25.9,21.4-41.5,28c-7.8,3.3-16,5.9-24.5,7.6v-5.3H228v5.3c-8.5-1.7-16.7-4.3-24.5-7.6c-15.6-6.6-29.7-16.1-41.5-28
					c-11.8-11.8-21.3-25.9-28-41.5c-3.3-7.8-5.9-16-7.6-24.5h4.6v-52.6h-4.6c1.7-8.5,4.3-16.7,7.6-24.5c6.6-15.6,16.2-29.7,28-41.5
					c11.8-11.8,25.9-21.4,41.5-28c7.8-3.3,16-5.9,24.5-7.6v5.3h52.6v-5.3c8.5,1.7,16.7,4.3,24.5,7.6c15.6,6.6,29.7,16.2,41.5,28
					c11.8,11.8,21.3,25.9,28,41.5c3.3,7.8,5.9,16,7.6,24.5h-4.6V330.2z"/>
				<path clip-path="url(#SVGID_2_)" d="M377.5,330.2v26.1h3.6c-1.7,8.4-4.3,16.6-7.5,24.3c-6.5,15.5-16,29.4-27.7,41.1
					c-11.7,11.7-25.7,21.2-41.2,27.7c-7.7,3.3-15.9,5.8-24.3,7.5v-4.3h-52.2v4.3c-8.4-1.7-16.6-4.3-24.3-7.5
					c-15.5-6.6-29.4-16-41.2-27.7C151,410,141.6,396.1,135,380.6c-3.3-7.7-5.8-15.9-7.5-24.3h3.6v-52.2h-3.6
					c1.7-8.4,4.3-16.6,7.5-24.3c6.6-15.5,16-29.4,27.7-41.1c11.7-11.7,25.7-21.2,41.2-27.7c7.7-3.3,15.9-5.8,24.3-7.5v4.3h52.2v-4.3
					c8.4,1.7,16.6,4.3,24.3,7.5c15.5,6.6,29.4,16,41.2,27.7c11.7,11.7,21.2,25.7,27.7,41.1c3.3,7.7,5.8,15.9,7.5,24.3h-3.6V330.2z"
					/>
				<circle clip-path="url(#SVGID_2_)" cx="254.3" cy="330.2" r="128.5"/>
				<path clip-path="url(#SVGID_2_)" d="M381.8,330.2c0,70.4-57.1,127.5-127.5,127.5c-70.4,0-127.5-57.1-127.5-127.5
					c0-70.4,57.1-127.5,127.5-127.5C324.7,202.7,381.8,259.8,381.8,330.2z"/>
				<circle clip-path="url(#SVGID_2_)" cx="254.3" cy="330.2" r="126.5"/>
				<circle clip-path="url(#SVGID_2_)" cx="254.3" cy="330.2" r="125.5"/>
				<circle clip-path="url(#SVGID_2_)" cx="254.3" cy="330.2" r="124.6"/>
				<circle clip-path="url(#SVGID_2_)" cx="254.3" cy="330.2" r="123.6"/>
				<circle clip-path="url(#SVGID_2_)" cx="254.3" cy="330.2" r="122.6"/>
				<circle clip-path="url(#SVGID_2_)" cx="254.3" cy="330.2" r="121.6"/>
				<circle clip-path="url(#SVGID_2_)" cx="254.3" cy="330.2" r="120.6"/>
				<circle clip-path="url(#SVGID_2_)" cx="254.3" cy="330.2" r="119.7"/>
				<circle clip-path="url(#SVGID_2_)" cx="254.3" cy="330.2" r="118.7"/>
				<circle clip-path="url(#SVGID_2_)" cx="254.3" cy="330.2" r="117.7"/>
				<circle clip-path="url(#SVGID_2_)" cx="254.3" cy="330.2" r="116.7"/>
				<circle clip-path="url(#SVGID_2_)" cx="254.3" cy="330.2" r="115.7"/>
				<circle clip-path="url(#SVGID_2_)" cx="254.3" cy="330.2" r="114.7"/>
				<path clip-path="url(#SVGID_2_)" d="M368.1,330.2c0,62.8-50.9,113.8-113.8,113.8c-62.8,0-113.8-50.9-113.8-113.8
					c0-62.8,50.9-113.8,113.8-113.8C317.1,216.4,368.1,267.4,368.1,330.2z"/>
				<circle clip-path="url(#SVGID_2_)" cx="254.3" cy="330.2" r="112.8"/>
				<circle clip-path="url(#SVGID_2_)" cx="254.3" cy="330.2" r="111.8"/>
				<circle clip-path="url(#SVGID_2_)" cx="254.3" cy="330.2" r="110.8"/>
				<path clip-path="url(#SVGID_2_)" d="M364.1,330.2c0,60.7-49.2,109.8-109.8,109.8c-60.7,0-109.8-49.2-109.8-109.8
					c0-60.7,49.2-109.8,109.8-109.8C314.9,220.4,364.1,269.6,364.1,330.2z"/>
				<circle clip-path="url(#SVGID_2_)" cx="254.3" cy="330.2" r="108.9"/>
				<circle clip-path="url(#SVGID_2_)" cx="254.3" cy="330.2" r="107.9"/>
				<circle clip-path="url(#SVGID_2_)" cx="254.3" cy="330.2" r="106.9"/>
				<path clip-path="url(#SVGID_2_)" d="M360.2,330.2c0,58.5-47.4,105.9-105.9,105.9c-58.5,0-105.9-47.4-105.9-105.9
					c0-58.5,47.4-105.9,105.9-105.9C312.8,224.3,360.2,271.7,360.2,330.2z"/>
				<circle clip-path="url(#SVGID_2_)" cx="254.3" cy="330.2" r="104.9"/>
				<path clip-path="url(#SVGID_2_)" d="M358.2,330.2c0,57.4-46.5,104-104,104c-57.4,0-104-46.5-104-104c0-57.4,46.5-104,104-104
					C311.7,226.3,358.2,272.8,358.2,330.2z"/>
				<circle clip-path="url(#SVGID_2_)" cx="254.3" cy="330.2" r="103"/>
				<path clip-path="url(#SVGID_2_)" d="M356.3,330.2c0,56.3-45.7,102-102,102c-56.3,0-102-45.7-102-102c0-56.3,45.7-102,102-102
					C310.6,228.2,356.3,273.9,356.3,330.2z"/>
				<circle clip-path="url(#SVGID_2_)" cx="254.3" cy="330.2" r="101"/>
				<path clip-path="url(#SVGID_2_)" d="M354.3,330.2c0,55.2-44.8,100-100,100c-55.3,0-100-44.8-100-100c0-55.2,44.8-100,100-100
					C309.5,230.2,354.3,275,354.3,330.2z"/>
				<circle clip-path="url(#SVGID_2_)" cx="254.3" cy="330.2" r="99.1"/>
				<path clip-path="url(#SVGID_2_)" d="M352.4,330.2c0,54.2-43.9,98.1-98.1,98.1c-54.2,0-98.1-43.9-98.1-98.1
					c0-54.2,43.9-98.1,98.1-98.1C308.4,232.1,352.4,276.1,352.4,330.2z"/>
				<circle clip-path="url(#SVGID_2_)" cx="254.3" cy="330.2" r="97.1"/>
				<circle clip-path="url(#SVGID_2_)" cx="254.3" cy="330.2" r="96.1"/>
				<circle clip-path="url(#SVGID_2_)" cx="254.3" cy="330.2" r="95.1"/>
				<circle clip-path="url(#SVGID_2_)" cx="254.3" cy="330.2" r="94.1"/>
				<circle clip-path="url(#SVGID_2_)" cx="254.3" cy="330.2" r="93.2"/>
				<circle clip-path="url(#SVGID_2_)" cx="254.3" cy="330.2" r="92.2"/>
				<circle clip-path="url(#SVGID_2_)" cx="254.3" cy="330.2" r="91.2"/>
				<circle clip-path="url(#SVGID_2_)" cx="254.3" cy="330.2" r="90.2"/>
				<path clip-path="url(#SVGID_2_)" d="M343.5,330.2c0,49.3-40,89.2-89.2,89.2c-49.3,0-89.2-40-89.2-89.2c0-49.3,40-89.2,89.2-89.2
					C303.6,241,343.5,280.9,343.5,330.2z"/>
				<circle clip-path="url(#SVGID_2_)" cx="254.3" cy="330.2" r="88.3"/>
				<path clip-path="url(#SVGID_2_)" d="M341.6,330.2c0,48.2-39.1,87.3-87.3,87.3c-48.2,0-87.3-39.1-87.3-87.3
					c0-48.2,39.1-87.3,87.3-87.3C302.5,242.9,341.6,282,341.6,330.2z"/>
				<circle clip-path="url(#SVGID_2_)" cx="254.3" cy="330.2" r="86.3"/>
				<circle clip-path="url(#SVGID_2_)" cx="254.3" cy="330.2" r="85.3"/>
				<circle clip-path="url(#SVGID_2_)" cx="254.3" cy="330.2" r="84.3"/>
				<circle clip-path="url(#SVGID_2_)" cx="254.3" cy="330.2" r="83.4"/>
				<circle clip-path="url(#SVGID_2_)" cx="254.3" cy="330.2" r="82.4"/>
				<circle clip-path="url(#SVGID_2_)" cx="254.3" cy="330.2" r="81.4"/>
				<circle clip-path="url(#SVGID_2_)" cx="254.3" cy="330.2" r="80.4"/>
				<circle clip-path="url(#SVGID_2_)" cx="254.3" cy="330.2" r="79.4"/>
				<circle clip-path="url(#SVGID_2_)" cx="254.3" cy="330.2" r="78.5"/>
				<circle clip-path="url(#SVGID_2_)" cx="254.3" cy="330.2" r="77.5"/>
				<circle clip-path="url(#SVGID_2_)" cx="254.3" cy="330.2" r="76.5"/>
				<circle clip-path="url(#SVGID_2_)" cx="254.3" cy="330.2" r="75.5"/>
				<circle clip-path="url(#SVGID_2_)" cx="254.3" cy="330.2" r="74.5"/>
				<circle clip-path="url(#SVGID_2_)" cx="254.3" cy="330.2" r="73.6"/>
				<circle clip-path="url(#SVGID_2_)" cx="254.3" cy="330.2" r="72.6"/>
				<circle clip-path="url(#SVGID_2_)" cx="254.3" cy="330.2" r="71.6"/>
				<circle clip-path="url(#SVGID_2_)" cx="254.3" cy="330.2" r="70.6"/>
				<path clip-path="url(#SVGID_2_)" d="M323.9,330.2c0,38.5-31.2,69.6-69.6,69.6c-38.5,0-69.6-31.2-69.6-69.6
					c0-38.5,31.2-69.6,69.6-69.6C292.7,260.6,323.9,291.8,323.9,330.2z"/>
				<circle clip-path="url(#SVGID_2_)" cx="254.3" cy="330.2" r="68.7"/>
				<circle clip-path="url(#SVGID_2_)" cx="254.3" cy="330.2" r="67.7"/>
				<circle clip-path="url(#SVGID_2_)" cx="254.3" cy="330.2" r="66.7"/>
				<circle clip-path="url(#SVGID_2_)" cx="254.3" cy="330.2" r="65.7"/>
				<circle clip-path="url(#SVGID_2_)" cx="254.3" cy="330.2" r="64.7"/>
				<circle clip-path="url(#SVGID_2_)" cx="254.3" cy="330.2" r="63.7"/>
				<circle clip-path="url(#SVGID_2_)" cx="254.3" cy="330.2" r="62.8"/>
				<circle clip-path="url(#SVGID_2_)" cx="254.3" cy="330.2" r="61.8"/>
				<circle clip-path="url(#SVGID_2_)" cx="254.3" cy="330.2" r="60.8"/>
				<circle clip-path="url(#SVGID_2_)" cx="254.3" cy="330.2" r="59.8"/>
				<path clip-path="url(#SVGID_2_)" d="M313.1,330.2c0,32.5-26.3,58.8-58.8,58.8c-32.5,0-58.8-26.3-58.8-58.8
					c0-32.5,26.3-58.8,58.8-58.8C286.8,271.4,313.1,297.7,313.1,330.2z"/>
				<circle clip-path="url(#SVGID_2_)" cx="254.3" cy="330.2" r="57.9"/>
				<circle clip-path="url(#SVGID_2_)" cx="254.3" cy="330.2" r="56.9"/>
				<circle clip-path="url(#SVGID_2_)" cx="254.3" cy="330.2" r="55.9"/>
				<circle clip-path="url(#SVGID_2_)" cx="254.3" cy="330.2" r="54.9"/>
				<circle clip-path="url(#SVGID_2_)" cx="254.3" cy="330.2" r="53.9"/>
				<circle clip-path="url(#SVGID_2_)" cx="254.3" cy="330.2" r="53"/>
				<circle clip-path="url(#SVGID_2_)" cx="254.3" cy="330.2" r="52"/>
				<circle clip-path="url(#SVGID_2_)" cx="254.3" cy="330.2" r="51"/>
				<path clip-path="url(#SVGID_2_)" d="M304.3,330.2c0,27.6-22.4,50-50,50c-27.6,0-50-22.4-50-50c0-27.6,22.4-50,50-50
					C281.9,280.2,304.3,302.6,304.3,330.2z"/>
				<path clip-path="url(#SVGID_2_)" d="M303.3,330.2c0,27.1-22,49-49,49c-27.1,0-49-22-49-49c0-27.1,22-49,49-49
					C281.4,281.2,303.3,303.1,303.3,330.2z"/>
				<circle clip-path="url(#SVGID_2_)" cx="254.3" cy="330.2" r="48.1"/>
				<path clip-path="url(#SVGID_2_)" d="M301.4,330.2c0,26-21.1,47.1-47.1,47.1c-26,0-47.1-21.1-47.1-47.1c0-26,21.1-47.1,47.1-47.1
					C280.3,283.1,301.4,304.2,301.4,330.2z"/>
				<circle clip-path="url(#SVGID_2_)" cx="254.3" cy="330.2" r="46.1"/>
				<path clip-path="url(#SVGID_2_)" d="M299.4,330.2c0,24.9-20.2,45.1-45.1,45.1c-24.9,0-45.1-20.2-45.1-45.1
					c0-24.9,20.2-45.1,45.1-45.1C279.2,285.1,299.4,305.3,299.4,330.2z"/>
				<circle clip-path="url(#SVGID_2_)" cx="254.3" cy="330.2" r="44.1"/>
				<circle clip-path="url(#SVGID_2_)" cx="254.3" cy="330.2" r="43.2"/>
				<circle clip-path="url(#SVGID_2_)" cx="254.3" cy="330.2" r="42.2"/>
				<path clip-path="url(#SVGID_2_)" d="M295.5,330.2c0,22.8-18.4,41.2-41.2,41.2c-22.7,0-41.2-18.4-41.2-41.2
					c0-22.7,18.4-41.2,41.2-41.2C277,289,295.5,307.5,295.5,330.2z"/>
				<circle clip-path="url(#SVGID_2_)" cx="254.3" cy="330.2" r="40.2"/>
				<circle clip-path="url(#SVGID_2_)" cx="254.3" cy="330.2" r="39.2"/>
				<circle clip-path="url(#SVGID_2_)" cx="254.3" cy="330.2" r="38.2"/>
				<circle clip-path="url(#SVGID_2_)" cx="254.3" cy="330.2" r="37.3"/>
				<circle clip-path="url(#SVGID_2_)" cx="254.3" cy="330.2" r="36.3"/>
				<circle clip-path="url(#SVGID_2_)" cx="254.3" cy="330.2" r="35.3"/>
				<circle clip-path="url(#SVGID_2_)" cx="254.3" cy="330.2" r="34.3"/>
				<path clip-path="url(#SVGID_2_)" d="M287.6,330.2c0,18.4-14.9,33.3-33.3,33.3c-18.4,0-33.3-14.9-33.3-33.3
					c0-18.4,14.9-33.3,33.3-33.3C272.7,296.9,287.6,311.8,287.6,330.2z"/>
				<circle clip-path="url(#SVGID_2_)" cx="254.3" cy="330.2" r="32.4"/>
				<circle clip-path="url(#SVGID_2_)" cx="254.3" cy="330.2" r="31.4"/>
				<circle clip-path="url(#SVGID_2_)" cx="254.3" cy="330.2" r="30.4"/>
				<path clip-path="url(#SVGID_2_)" d="M283.7,330.2c0,16.3-13.2,29.4-29.4,29.4c-16.2,0-29.4-13.2-29.4-29.4
					c0-16.2,13.2-29.4,29.4-29.4C270.5,300.8,283.7,314,283.7,330.2z"/>
				<circle clip-path="url(#SVGID_2_)" cx="254.3" cy="330.2" r="28.4"/>
				<circle clip-path="url(#SVGID_2_)" cx="254.3" cy="330.2" r="27.5"/>
				<circle clip-path="url(#SVGID_2_)" cx="254.3" cy="330.2" r="26.5"/>
				<circle clip-path="url(#SVGID_2_)" cx="254.3" cy="330.2" r="25.5"/>
				<circle clip-path="url(#SVGID_2_)" cx="254.3" cy="330.2" r="24.5"/>
				<circle clip-path="url(#SVGID_2_)" cx="254.3" cy="330.2" r="23.5"/>
				<circle clip-path="url(#SVGID_2_)" cx="254.3" cy="330.2" r="22.6"/>
				<circle clip-path="url(#SVGID_2_)" cx="254.3" cy="330.2" r="21.6"/>
				<circle clip-path="url(#SVGID_2_)" cx="254.3" cy="330.2" r="20.6"/>
				<path clip-path="url(#SVGID_2_)" d="M273.9,330.2c0,10.8-8.8,19.6-19.6,19.6c-10.8,0-19.6-8.8-19.6-19.6
					c0-10.8,8.8-19.6,19.6-19.6C265.1,310.6,273.9,319.4,273.9,330.2z"/>
				<circle clip-path="url(#SVGID_2_)" cx="254.3" cy="330.2" r="18.6"/>
				<circle clip-path="url(#SVGID_2_)" cx="254.3" cy="330.2" r="17.7"/>
				<circle clip-path="url(#SVGID_2_)" cx="254.3" cy="330.2" r="16.7"/>
				<circle clip-path="url(#SVGID_2_)" cx="254.3" cy="330.2" r="15.7"/>
				<circle clip-path="url(#SVGID_2_)" cx="254.3" cy="330.2" r="14.7"/>
				<circle clip-path="url(#SVGID_2_)" cx="254.3" cy="330.2" r="13.7"/>
				<circle clip-path="url(#SVGID_2_)" cx="254.3" cy="330.2" r="12.8"/>
				<circle clip-path="url(#SVGID_2_)" cx="254.3" cy="330.2" r="11.8"/>
				<path clip-path="url(#SVGID_2_)" d="M265.1,330.2c0,6-4.8,10.8-10.8,10.8c-6,0-10.8-4.8-10.8-10.8c0-6,4.8-10.8,10.8-10.8
					C260.2,319.4,265.1,324.3,265.1,330.2z"/>
				<path clip-path="url(#SVGID_2_)" d="M264.1,330.2c0,5.4-4.4,9.8-9.8,9.8c-5.4,0-9.8-4.4-9.8-9.8c0-5.4,4.4-9.8,9.8-9.8
					C259.7,320.4,264.1,324.8,264.1,330.2z"/>
				<path clip-path="url(#SVGID_2_)" d="M263.1,330.2c0,4.9-4,8.8-8.8,8.8c-4.9,0-8.8-4-8.8-8.8c0-4.9,4-8.8,8.8-8.8
					C259.2,321.4,263.1,325.3,263.1,330.2z"/>
				<circle clip-path="url(#SVGID_2_)" cx="254.3" cy="330.2" r="7.8"/>
				<circle clip-path="url(#SVGID_2_)" cx="254.3" cy="330.2" r="6.9"/>
				<circle clip-path="url(#SVGID_2_)" cx="254.3" cy="330.2" r="5.9"/>
				<circle clip-path="url(#SVGID_2_)" cx="254.3" cy="330.2" r="4.9"/>
				<circle clip-path="url(#SVGID_2_)" cx="254.3" cy="330.2" r="3.9"/>
				<circle clip-path="url(#SVGID_2_)" cx="254.3" cy="330.2" r="2.9"/>
				<circle clip-path="url(#SVGID_2_)" cx="254.3" cy="330.2" r="2"/>
				<circle clip-path="url(#SVGID_2_)" cx="254.3" cy="330.2" r="1"/>
			</g>
		</g>
		<g>
			<path d="M131.8,285.1l0,0.2l0,0c-0.1,0.2-0.2,0.4-0.3,0.6C131.6,285.6,131.7,285.4,131.8,285.1 M131.9,284.8
				c-0.1,0.2-0.1,0.3-0.2,0.5l0,0C131.8,285.1,131.9,284.9,131.9,284.8 M131.9,284.8C131.9,284.8,132,284.7,131.9,284.8
				c0,0.1-0.1,0.3-0.2,0.4l0,0C131.8,285.1,131.9,284.9,131.9,284.8 M132,284.7c0.6-1.7,1.3-3.4,1.9-4.9l-0.6,1.5
				c-0.3,0.8-0.6,1.6-0.9,2.4C132.3,284,132.1,284.4,132,284.7C132,284.7,132,284.7,132,284.7 M132.5,283.2c0-0.1,0.1-0.3,0.2-0.4
				c0.1-0.1,0.1-0.3,0.2-0.4c0.1-0.2,0.1-0.3,0.2-0.5c0.3-0.8,0.6-1.5,0.9-2.3l0,0.1c-0.6,1.5-1.3,3.2-1.9,4.9
				C132.2,284.2,132.3,283.7,132.5,283.2 M135.5,276.3c1.2-2.6,1.7-3.6,2.1-4.3l0.2-0.4l-0.1,0.1c0.2-0.3,0.3-0.5,0.4-0.8
				c-0.1,0.2-0.1,0.3-0.2,0.5c-0.2,0.5-0.5,1-0.7,1.5c-0.7,1.3-1.3,2.6-1.8,3.9c-0.3,0.6-0.6,1.2-0.8,1.8
				C134.8,277.7,135.1,277,135.5,276.3 M126.2,355L126.2,355c-0.1-0.4-0.2-0.9-0.2-1.3c0.1,0.6,0.2,1.2,0.4,1.9
				C126.3,355.4,126.2,355.2,126.2,355 M124,337.7c0,0.7,0.1,1.5,0.1,2.2l0,1.1C124.1,340,124.1,338.8,124,337.7 M124.1,320.1
				c-0.2,2.2-0.3,4.4-0.3,6.8c0,0.8,0,1.6-0.1,2.3v0C123.8,325.2,123.8,323.4,124.1,320.1 M123.8,326.9c0,0.5,0,1.1,0,1.6l0,0.7
				C123.8,328.5,123.8,327.7,123.8,326.9 M129.4,292.2c-0.1,0.4-0.2,0.8-0.3,1.2c-0.1,0.3-0.2,0.6-0.2,0.9c-0.1,0.3-0.2,0.5-0.2,0.8
				l-0.1,0.1C128.8,294.2,129.1,293.2,129.4,292.2 M129.5,291.9l0.1-0.2c-0.1,0.2-0.1,0.3-0.2,0.5
				C129.4,292.1,129.4,292,129.5,291.9 M241.6,200.9L241.6,200.9L241.6,200.9c0.2,0,0.3,0,0.4,0l-0.1,0l0.2,0c0.2,0,0.5,0,0.7-0.1
				l0.1,0l0.2,0h0.1c-0.3,0-0.6,0.1-1,0.1c-0.4,0-0.7,0.1-1.1,0.1C241.2,201,241.4,201,241.6,200.9 M241.7,200.9L241.7,200.9
				L241.7,200.9L241.7,200.9 M243.1,200.8L243.1,200.8l0.2,0l0.7-0.1c0,0-0.1,0-0.2,0h0l-0.1,0C243.5,200.8,243.3,200.8,243.1,200.8
				l-0.1,0l-0.2,0c-0.1,0-0.1,0-0.2,0c-0.1,0-0.3,0-0.4,0C242.4,200.9,242.7,200.8,243.1,200.8 M243.3,200.8l0.1,0l0.3,0l0.2,0
				l0.1,0l0.1,0l0.1,0h0.1c0.1,0,0.3,0,0.4,0c-0.2,0-0.5,0-0.7,0.1L243.3,200.8L243.3,200.8 M243.6,200.7c0,0,0,0,0.1,0
				C243.7,200.7,243.6,200.8,243.6,200.7L243.6,200.7 M244.3,200.7l0.3,0c0,0,0,0,0,0c-0.1,0-0.2,0-0.3,0L244.3,200.7 M244.4,200.7
				l0.2,0h0.1c0,0,0,0,0,0L244.4,200.7L244.4,200.7 M244.6,200.7C244.7,200.7,244.7,200.7,244.6,200.7L244.6,200.7
				C244.7,200.7,244.7,200.7,244.6,200.7L244.6,200.7 M245.4,200.6L245.4,200.6L245.4,200.6L245.4,200.6 M231.3,358.5
				c0-0.3-0.2-0.6-0.2-0.9c0-0.1,0-0.3,0-0.4l0-0.4l0-0.1l-0.8-1.2c-0.1-0.1-0.3-0.2-0.4-0.3c-0.3-0.4-0.3-0.4-0.4-0.5
				c-0.2-0.2-0.3-0.3-0.3-1.3l-0.6-0.1c-0.1,0.1-0.1,0.1-0.2,0.1c-0.2,0.1-0.2,0.1-0.3,0.6c0,0.2,0.1,0.3,0.1,0.5
				c0,0.1-0.1,0.3-0.1,0.4l0,0.1c0,0.1,0.2,0.2,0.2,0.4c0,0.2-0.1,0.3-0.1,0.5c0,0.2,0.1,0.3,0.1,0.5c0,0,0,0-0.2,0.3
				c-0.2,0.3-0.2,2.5,0.3,3c0,0,0.8,0.7,1.3,0.8c0.2,0.1,0.2,0.1,1.8,0C231.3,358.8,231.3,358.8,231.3,358.5 M311.2,439.5
				c0.4-0.3,0.7-0.6,1-0.9c-0.3,0-0.7,0-1,0.1c0,0-0.5,0.1-0.7,0.2l-0.3,0l0.1-0.4l0.1-0.1c0.1-0.1,0.2-0.3,0.1-0.3l0,0
				c-0.1,0-0.6,0.1-0.7,0.1c-0.9,0.7-0.9,0.7-0.9,0.7c-0.1,0.2-0.1,0.2-0.4,0.5l-0.2,0.2l-0.3,0.3l0.1,0.2c0,0.3-0.3,0.4-0.4,0.6
				c-0.1,0.2-0.2,0.3-0.3,0.5c-0.1,0.2-0.4,0.3-0.5,0.6l0.1,0l0.1,0l0.3,0c0.3-0.2,0.6-0.4,0.8-0.6l0.1-0.1c0.2,0,0.4,0,0.7,0
				c0.2-0.2,0.5-0.4,0.7-0.6c0.2-0.2,0.5-0.5,0.7-0.6C310.7,439.7,310.9,439.7,311.2,439.5 M313.3,437.9l0.5-0.4
				c0.1-0.1,0.2-0.2,0.2-0.2l0-0.1l0.1-0.2l0.2-0.2l0,0l-0.2,0l0,0h0l0,0l0,0c-0.1,0-0.2,0.1-0.3,0.2l-0.1,0l-0.2,0.1
				c-0.4,0.4-0.4,0.4-0.4,0.5l0.2,0c-0.1,0.1-0.2,0.2-0.3,0.3l-0.2,0.2L313.3,437.9 M309.9,437.7c0.3-0.3,0.7-0.6,1-0.9l-0.1-0.1
				c0,0-0.4,0.1-0.7,0.4c-0.2,0.2-0.2,0.2-0.5,0.7L309.9,437.7 M325.8,438c0.4-0.2,0.7-0.5,1-0.7c-0.1,0-0.1,0-0.2,0
				c0.7-0.5,0.8-0.6,0.8-0.7l-0.3,0.1c-0.5,0.4-1,0.8-1.6,1.1c-1.7,0.9-3.3,2.1-5,2.9c-1.9,0.9-1.9,0.9-2.3,1.1
				c-1.5,0.8-1.7,1-2,1.1h0l0,0h0l0,0h0h0h0l0,0c-0.2,0.1-1.4,0.7-1.8,1.1v0.1c0.3-0.1,0.3-0.1,0.3,0c-0.2,0.2-0.4,0.2-0.5,0.4
				l0.1,0C321.3,440.9,325.3,438.3,325.8,438 M312.5,445.3c0.1-0.1,0.3-0.1,0.4-0.2c0.1-0.1,0.2-0.1,0.3-0.2l-0.2,0
				c0,0-0.1,0-0.2,0.1l-0.2,0.1l-0.1,0l-0.3,0.2L312.5,445.3 M333.5,433c0.3-0.2,0.9-0.7,1-0.8c-0.1,0-0.1,0-0.3,0.2
				c-0.1,0.1-0.2,0.2-0.4,0.3c-0.1,0.1-0.2,0.1-0.2,0l-0.1,0l-0.2,0.1c2-1.6,2-1.6,2.1-1.8c-0.5,0.2-0.7,0.6-1.1,0.8
				c0.5-0.7,1.3-1.1,1.9-1.7l-0.1,0c1.7-1.7,1.7-1.8,1.7-1.8l-0.1,0c-0.2,0.1-0.7,0.5-0.8,0.7c-2.6,2.6-2.6,2.6-4,3.8
				c-0.7,0.5-1.3,1.1-2,1.6c-0.1,0-0.2,0-0.4,0.1c-0.4,0.3-0.8,0.6-1.2,0.9l-0.4,0.3c0.2,0,0.3-0.1,0.5-0.1c-0.9,0.7-1.8,1.3-2.7,2
				l0.3-0.1c1.3-0.9,2.7-1.8,4-2.7l0.2,0l0.1-0.1l0.1,0c0.6-0.4,1.7-1.2,1.7-1.2l0.1-0.1L333.5,433 M351.7,409.5
				c0.2-0.3,0.3-0.8,0.3-0.8l-0.2-0.2c0-0.2,0.2-0.3,0.1-0.4l-0.1,0c-0.1-0.2,0.1-0.4,0.2-0.5c0.5-0.7,0.3-1.6,0.3-1.6l-0.2,0
				l-0.3,0.1c-0.1,0.2-0.2,0.4-0.3,0.7l0,0.1c0,0,0,0,0,0.2c0,0.1,0,0.2-0.3,0.5c-0.1,0.2-0.4,0.5-0.5,0.9c0,0.3,0.1,0.5,0.2,0.7
				c0,0.2,0.1,0.3,0.1,0.5l0,0l0.3,0L351.7,409.5 M320.2,393.5c0.1-0.3,0.1-0.5,0.2-0.7l-0.6-0.2c-0.7,0.2-0.7,0.2-1.5,0.2
				c0.1,0,0.3-0.1,0.3-0.1c-0.2,0-0.5,0.1-0.7,0.4c0,0-0.3,0.6,0,0.8c0.2,0.1,0.3,0,0.4-0.1c0.1-0.1,0.2-0.1,0.9-0.2
				c0.1,0,0.2,0,0.3,0C319.7,393.6,319.9,393.6,320.2,393.5 M332.7,421.8c0.4-0.5,0.8-1,1.2-1.5c0.1-0.4,0.2-0.8,0.3-1.1
				c0.1-0.1,0.2-0.2,0.3-0.4c0.4-0.5,0.9-0.9,1.3-1.5l0-0.1c0.2-0.3,0.4-0.6,0.7-1c0,0,1.4-2.4,0.5-3.7l0.1-0.3
				c0.3-0.5,0.6-1,0.9-1.6c-1.5-0.2-1.5-0.2-1.2-0.9c0.1-0.1,0.1-0.2,0.2-0.3c0.1-0.3,0.1-0.3,0.5-1.1l-0.3,0c0-0.3,0.2-0.5,0.2-0.8
				c-0.5-0.4-0.7-0.5-0.6-1.5c-1.3-1.2-1.3-1.2-0.5-2.6c0,0,0,0,0.1-0.3c0.2-0.7,0.2-0.7,0.3-0.9c0.1-0.1,0.1-0.2,0.2-0.4
				c0,0,0.9-3,0.7-3.8c-0.5-0.2-1.1-0.2-1.6-0.5c0.1-0.4,0.3-0.7,0.3-1.1c0.1-0.1,0.1-0.2,0.1-0.4c0.7-1.8,0.6-3.9,0.3-4.3l-0.3,0
				c-0.2,0.4-0.4,0.7-0.5,1.1c0,0.1-0.1,0.2-0.2,0.4c-1.1,1.1-1.1,1.1-2.4,4c-0.1,0.2-0.2,0.5-0.4,0.9c-0.3,0.5-0.3,0.5-0.9,1.2
				c-0.4,1-0.8,2-1.3,2.9c-0.8,1.3-1.5,1.1-2.6,0.9c-0.3-0.4-0.3-0.4-0.1-0.8c-0.6-0.9-1.4-1.7-2-2.7c-1-0.1-1-0.1-1.2-0.6
				c0.3-0.5,0.5-1,0.7-1.6c0-0.1,0-0.1,0-0.2c-0.1-1.9,1.9-2.1,2.6-3.4l-0.3,0c-0.8-0.2-0.8-0.2-1.2-0.3c-0.1,0-0.2,0-0.5,0
				c-0.7,0.1-1.3-0.3-2-0.3c0,0-1.3-0.9-2-1.2l-0.2,0c-0.1,0-0.2,0-0.4,0c-0.2,0.1-0.4,0.1-0.6,0.1c-0.1,0.2-0.1,0.5-0.2,0.7l0,0.3
				c0.6,0.2,0.6,0.2,1.2,0.5c-0.5,0.9-1.5,0.2-2.1,0.6c-0.7,0.5-1.3,1-2.1,1.4c-0.7,0.4-0.7,0.4-0.9,0.8c0,0.1,0,0.1-0.1,0.4
				c-0.1,0.9-0.5,1.6-0.7,1.8c-0.3,0.5-2,0.6-2.1-0.3c-0.3,0-0.6,0-0.9,0l-0.2-0.2c0-0.2,0-0.4,0.1-0.6c-0.2,0-0.4,0-0.8,0.1
				c-1.1,0.4-1.9,1.1-3,1.6c-1.1,0.6-1.7,1.9-3.2,1.9c-0.1,0.2-0.1,0.4-0.2,0.8c0.3,0.7,0.3,0.7,0.3,0.8c-0.1,0.2-0.1,0.4-0.2,0.7
				c-0.5,0-1,0-1.4,0c0.2-0.4,0.2-0.8,0.3-1.1c-0.3,0-0.6,0-0.9,0c-0.4,0.1-4.4,5.1-4.4,5.1c-0.2,0.2-0.3,0.5-1.3,0.8
				c-1.8,0.7-3.9,0-5.5,1.2c-0.8,0.6-1.9,0.6-2.7,1.2c-0.5,0.4-0.2,1.2-0.8,1.5c-0.3,0.1-0.4,0.2-1.3-0.3c0-0.2,0-0.4-0.1-0.6
				c-0.3,0.6-0.3,0.6-0.8,0.9l-0.1,0.3c0,0.1-0.1,0.2-0.1,0.4c0,0.4,0,0.4-0.2,0.9c0,0.1,0,0.2-0.1,0.4c-0.8,0.6-1.2,1,0,3.6
				c-0.6,0.2-1.1-0.4-1.7,0c-0.1,0.2-0.1,0.4-0.2,0.6c1,2.4,2,4.7,0.9,9.5c-0.1,0.4-0.3,0.8-0.5,1.1c-0.9,0-1.7,0.6-1.9,0.8l0.1,0.3
				c0.2,0,0.4,0,0.6,0.1c0.1,0.1,0.2,0.4,0.2,0.5c0.6,0.4,2.3,1.7,4.3,0c1.3-1.4,1.9-1.3,5-0.7c0.4,0.1,0.7,0.1,1.8-0.9
				c1.3-1.2,2.8-1.7,3.3-1.9c0.6-0.2,0.7,0,1,0.3c2.2-0.1,3.6-3.1,6.2-1.6c0.6,0.5,0.6,0.5,1.2,0.5c0.2,0,0.3,0,0.6,0
				c0.6,0,0.6,0,0.9,0.1c0.1,0.6-0.3,1.1-0.5,1.7c0.2,0,0.4,0,0.6,0.1c0,0,0,0-0.9,2l0.2,0.2c1.1-0.2,4-2.7,4-2.8l0.3,0.1l0,0.3
				c-0.6,0.7-1.5,1.2-2,2l0.3-0.1c0.4-0.4,0.4-0.4,1-0.4c-0.2,0.3-0.4,0.5-0.7,0.9l-0.2,0.2l-0.2,0.3c-0.5,0.5-0.5,0.5-0.7,0.8
				c0.5-0.1,0.8-0.7,1.4-0.5c-0.1,0.3-0.3,0.5-0.5,0.8l0.1,0.3l0.1,0.2l-0.2,0.3c0,0-0.1,0.1-0.3,0.3c-1,1-1,1-0.6,1.8
				c0.8,0,0.8,0,0.9,0.1c0,0.2,0.1,0.4,0.1,0.6c1.1,0.4,2.2-0.7,2.6-1.2c0.1,0,0.3,0,0.5,0.2c-0.2,0.4-0.5,0.6-0.7,1l0.2,0.2
				c5.1-1.7,5.1-1.7,8.1-4.1c0,0,0.1-0.1,0.3-0.4C324.7,427.6,329.3,425.3,332.7,421.8 M358.7,388.2L358.7,388.2l0.1-0.2l0-0.2
				l0.1-0.2l0.1-0.2l0,0l-0.1,0l0,0c-0.1-0.1-0.1-0.1-0.2-0.1c-0.1,0-0.2,0.1-0.3,0.1c-0.1,0.2-0.2,0.4-0.2,0.7c0,0,0,0.2,0,0.3
				c0,0.2,0.2,0.2,0.3,0.2l0.2,0C358.6,388.4,358.6,388.3,358.7,388.2 M355.9,383.6L355.9,383.6c0.1-0.1,0.1-0.2,0.1-0.3
				c0-0.1,0-0.3,0-0.4c0-0.1,0.1-0.2,0.1-0.4l0-0.1l-0.1-0.4c0,0-0.2-0.4-0.3-0.4c-0.1-0.1-0.1-0.2,0-0.3c0.1-0.2,0.1-0.4,0.2-0.5
				l-0.2,0l-0.3,0.1c0,0.6,0,0.6-0.1,0.8c0,0.2-0.2,0.3-0.2,0.5l0.1,0.5c0,0.1,0.2,0.2,0.2,0.3c0.1,0.2,0,0.5,0,0.7l0.1,0.2l0.1,0.1
				L355.9,383.6 M353.5,378.8c0.1-0.2,0-0.3,0-0.5c-0.2,0.1-0.4,0.1-0.6,0.2l-0.5,0.4c-0.2,0.2-0.2,0.6-0.3,0.8l-0.5,0.8l0,0
				c0,0,0,0-1.4,0.1l-0.3,0l-0.3,0c-0.3,0-0.6,0.1-0.9,0.1l-0.2-0.1c-0.1,0.2-0.3,0.4-0.3,0.7c-0.1,0.3-0.1,0.5-0.2,0.8l-0.1,0.2
				c0.3,0,0.6-0.1,1-0.1c0.3,0,0.5,0.2,0.7,0.2l1.1-0.1c0.3-0.2,0.4-0.3,0.4-0.4c0.1-0.1,0.2-0.2,0.2-0.2c0.3,0,0.3,0,0.5-0.1l0.1,0
				l0.2-0.2c0,0,0.4-0.5,0.5-0.8c0.2-0.3,0.2-0.6,0.4-0.9c0.1-0.2,0.3-0.3,0.4-0.5C353.4,379,353.5,378.9,353.5,378.8 M323,386.8
				c0.1-0.3,0.1-0.8,0.1-1c0-0.1-0.1-0.2-0.2-0.4c-0.9,0.4-1.4,0.8-1.4,0.8c0,0-0.3,0.7-0.3,1.1c0,0.1,0,0.3,0,0.4c0.3,0,0.7,0,1,0
				C322.4,387.5,322.8,387.2,323,386.8 M314.5,386.8L314.5,386.8l-0.1-0.4c-0.5,0-1.1,0-1.6,0c0,0.2-0.1,0.3-0.1,0.4
				c0,0.1,0.1,0.2,0.1,0.3l0,0l0.3,0c0.1,0,0.1,0,0.3-0.2c0.2-0.2,0.4,0.1,0.6,0.1l0.2,0C314.3,387,314.3,386.9,314.5,386.8
				 M328.5,382.3l0-0.2c0-0.2-0.2-0.2-0.3-0.3c-0.2,0.1-0.4,0.3-0.6,0.4l-0.3,0.2l-0.3,0.2l0,0c-0.1,0.1-0.1,0.3-0.1,0.4
				c0,0.1-0.1,0.3-0.2,0.4c-0.1,0.2-0.1,0.3-0.2,0.5c-0.1,0.1-0.2,0.2-0.2,0.3l0,0.1l0.1,0c0.2,0,0.4,0,0.5-0.1l0.1,0
				c0,0,0.1,0,0.3-0.2c0.1-0.1,0.1-0.3,0.2-0.4c0.1-0.3,0.3-0.5,0.5-0.7l0.1-0.2C328.4,382.6,328.5,382.4,328.5,382.3 M347.4,390.7
				c0.2-0.4,0.3-0.8,0.5-1.2c0-0.4-0.1-0.4-0.5-0.5c-0.2-0.3,0.1-0.7-0.3-1l-1.7-0.4c0.3-0.8,0.5-1.6,0.8-2.4c-0.6,0-0.7,0-1.2,0.1
				c0.2-0.6,0.4-1.2,0.7-1.8c0.5-0.1,0.6-0.1,1-0.1c0.1-0.2,0.1-0.4,0.1-0.7c-0.3-0.2-0.3-0.5-0.4-0.8c-0.2,0-0.4,0-0.7,0
				c-0.3,0-0.5,0-0.8,0c-0.1-0.6-0.1-1.1-0.2-1.7l0-0.1l-0.2-0.1c-0.2-0.1-0.2-0.1-0.8-1.5c-0.3-0.7-1.1-0.2-1.6-0.6
				c-0.1-0.1-0.1-0.1-0.1-0.5l-0.1-0.1c-0.3,0-0.3,0-0.8-0.1c-0.5-0.1-0.7-0.7-1.2-0.9c-0.5-0.2-1,0.2-1.5,0l-0.1,0h0h0l0,0h0h-0.1
				h0l0,0h0l0,0h0h0h0h0h0h0l-0.1,0c-1.2,0-1.6-1.4-2.6-1.7c-0.1,0-0.1,0-1,0.7c-0.4,0.3-1,0.1-1.4,0.3c-0.7,0.4-0.7,0.5-0.7,0.9
				c-0.2,1.3-1,1.3-2.4,1.2c-0.7-0.1-0.1-1.1-0.8-1.2c-0.5-0.1-0.9,0.3-1.4,0.4c-0.7,0-1.4,0.1-2.1,0.1c-0.1,0.3-0.1,0.5-0.2,0.8
				c0.6,0.3,0.6,0.3,0.3,1.7c0.2,0,0.3,0,0.5-0.1l0-0.3c0.3-0.1,0.5-0.3,0.7-0.4c0.7,0.4,1.6,0.1,2.2,0.9c0.6,0.8,0.6,0.8,0.8,0.8
				c1.3-0.3,2.7,0.2,3.1,1.2c0.8,1.6,0.9,2.2,0.8,2.4c-0.4,1-0.4,1.2-0.9,1.5c-0.6,0.4-1.2,0.5-1.7,1c-0.2,0.2-0.2,0.2-0.2,0.8
				c0,0,0.1,1.2,1.7-0.1c0.2-0.5,0.5-1,1.1-0.7c0.3,0.1,0.4,0.3,0.5,0.5c0.2,0.6,0.3,0.6,0.7,0.8c0.4,0.2,0.7,0.5,1,0.7
				c0.5,0.3,1.7,0.3,2.1,0.2l0.6-0.4c0.3-0.4,0.3-0.8,0.5-1.2c1.2,0.1,1.4-1.3,2.4-1.5l0.1,0c0.2,0.1,1.3,0.7,1.4,1
				c0.5,1.1,0.3,2.3,0.6,3.5l0.1,0c0.2,0,1-0.1,1.7-0.3c0.3-0.1,0.3-0.1,0.6,0.8C346.7,390.9,347.1,390.8,347.4,390.7 M314.9,375.9
				L314.9,375.9L314.9,375.9c-0.1-0.1-0.1-0.1,0-0.9c-0.2,0-0.3,0-0.5,0c-0.4,0-0.7,0-1.1,0l-0.1,0.1c0,0.1-0.1,0.1-0.2,0.1l-0.3,0
				l0,0c-0.1,0.1-0.1,0.3-0.2,0.4c0.1,0.1,0.2,0.2,0.3,0.3c0.1,0,0.2,0,0.4,0c0.1,0,0.2,0,0.4,0c0.2,0,0.5,0.1,0.7,0.1
				C314.5,376,314.7,375.9,314.9,375.9 M332.9,375.1c0-0.2,0.1-0.3,0.1-0.5c-0.2,0-0.5,0-0.7,0c0.2-0.8,0.2-0.9,0.2-1l0-0.3
				c0-0.1,0.1-0.2,0.1-0.4c-0.2,0-0.4,0-0.6,0c-0.2,0-0.3,0-0.5,0c0,0,0,0.4,0,0.7l0,0.3c-0.1,0.4-0.2,0.8-0.3,1.2
				C331.8,375.2,332.3,375.2,332.9,375.1 M324,374L324,374L324,374L324,374 M328.8,375.4L328.8,375.4c0-0.2,0.1-0.3,0.1-0.4
				c-0.1-0.1-0.3,0-0.3-0.2c0-0.3,0-0.4,0.1-0.7c0.3-0.9,0.2-1,0.2-1.2c-0.2-0.4-1.3-0.4-1.3-0.4c-0.6,0.1-1,0.6-1.5,0.6
				c-0.4,0-0.7-0.1-1.1,0.1c-0.1,0-0.6,0.3-0.8,0.5l0.1-0.2c-0.1,0-0.3,0-0.4,0c-0.1,0-0.1,0-0.8,0.4c0,0.1,0,0.3,0,0.4
				c0.3,0.1,0.4,0.1,0.8,0.4c0.1,0.1,0.2,0.2,0.7,0.1c0.6-0.1,0.6,0.4,0.6,0.4c0,0.8,0,0.8,0.4,0.8l0.1,0c0.1,0,0.2,0,0.3,0
				c0,0,0.4-0.1,0.7-0.3c0.3,0,0.6,0.2,0.9,0.2c0.3,0,0.6,0,0.8,0C328.6,375.7,328.7,375.5,328.8,375.4 M324.7,371.8
				c0-0.1,0.1-0.3,0-0.4l-0.4-0.3l-0.1,0c-0.1,0-0.2,0-0.3,0l-0.2,0l-0.1,0.1c-0.1,0.1-0.1,0.3-0.1,0.4c-0.1,0.2-0.2,0.3-0.3,0.5
				l-0.2,0.3c0.5,0.4,0.5,0.4,0.6,0.5l0.6,0C324,372.8,324.6,372.3,324.7,371.8 M322.8,376.3c0.1-0.4,0.2-0.8,0.2-1.2
				c-0.3,0-0.7,0-1,0c0,0.2-0.1,0.4-0.1,0.6l-0.1-0.4c0,0.1,0,0.3-0.1,0.4c0,0.2,0,0.4,0,0.6C322.3,376.3,322.4,376.3,322.8,376.3
				 M322.6,379L322.6,379c0.2-0.8,0.2-0.8,0.3-1.2c-0.4,0-0.8,0-1.2-0.1c-0.2,0-0.4-0.1-0.7-0.1c-0.1,0-0.2,0-0.4,0
				c-0.6-0.1-1.1-0.4-1.7-0.3c-0.3,0-0.3,0-0.7,0.9c0-0.1,0-0.3,0.1-0.4c0,0.2-0.1,0.3-0.2,0.5c0,0.1,0.1,0.2,0.1,0.3
				c0.4,0,0.7,0,1,0c0.3,0,0.5-0.1,0.7-0.1c0.1,0,0.2,0.1,0.3,0.1l0.3,0c0.1,0,0.1,0,1,0.3c0.1,0,0.2,0.3,0.3,0.3
				C322,379,322,379,322.6,379 M316.8,379.2c0-0.2,0.1-0.5,0.1-0.7l0-0.2c0-0.1,0-0.2-0.1-0.2c-0.1,0-0.1-0.1-0.2-0.1
				c-0.2,0-0.4-0.1-0.5-0.1c-0.2,0-0.3-0.1-0.5-0.1l-0.1,0c-0.1,0.2-0.2,0.6-0.2,0.8c0.1,0.1,0.1,0.3,0.2,0.4
				c0.5,0.3,0.5,0.3,0.7,0.3C316.3,379.2,316.5,379.2,316.8,379.2 M321.3,371.1c0.1-0.3,0-0.4-0.1-0.6c-0.1-0.1-0.2-0.2-0.4-0.3l0,0
				l0.1-0.3c0.1-0.1,0.1-0.1,0.2-0.7c-0.4-0.1-0.4-0.1-1.1,0c0-0.2,0.1-0.4,0.1-0.6c0.1-0.5,0.2-0.5,0.4-0.6l0.2-0.2
				c0.1-0.1,0.1-0.1,0.1-0.9c-0.4,0.5-0.4,0.5-1.4,1.4c-0.2,0.2-0.2,0.2-0.5,0.2c-0.1,0-0.2,0-0.2,0.4l0,0.2c0,0.3,0.1,0.7,0,1
				l-0.2,1.1c0,0.1-0.1,0.2-0.2,0.3c-0.2,0.2-0.5,0.9-0.5,0.9l-0.2,1.4c0.1,0,0.2,0,0.3,0c0.1,0,0.2,0.2,0.4,0.2
				c0.1,0,0.1,0,0.7-0.2c0.2-1,0.2-1,0.3-2.1c0.5-0.3,1.5-0.1,1.8-0.1C321.2,371.5,321.3,371.3,321.3,371.1 M311.2,374.7
				c0.2-0.8-1.3-1.7-1.3-1.7c-0.1,0-0.3,0-0.4,0l-0.2,0c0,0-0.5,0.1-0.7,0.5c0,0-0.6,0.9-1.4,1c-0.3,0.1-1.2-0.2-1.2-0.2
				c-0.3-0.1-0.6-0.4-0.9-0.5c-0.1,0-0.2,0-0.4,0c-0.2,0-1.1,0.9-1.1,1.6c0,0.2,0,0.3-0.1,0.3l-0.1,0.1c-0.2,0.2-0.2,0.8-0.2,0.8
				c0,0.3,0,0.3-0.4,0.6l-0.4,0l-0.1,0.1c-0.8,0.8-0.9,1.9,1.2,1.9c0,0.1,0,0.1,0,0.3c0.1,0.7-0.6,1.2-0.7,1.9
				c-0.1,0.4-0.1,0.4,0,0.5l0.1,0.1c0.1,0.1,0.1,0.1,0.3,1.1c0.6-0.4,0.8-0.6,0.8-0.6s0.1-0.2,0.1-0.3c0.1-0.4,0.1-0.9,0.2-1.3
				c0-0.2,0.2-0.3,0.2-0.4c0.1-0.9,0.3-1.7,0.4-2.6c0.4,0,0.8,0,1.1,0c0,0.3-0.1,0.6-0.1,0.9l-0.2,0.4c0,0.1,0,0.3,0,0.4
				c1.5,0.4,1.5,0.4,1.8,0.4c0,0.3-0.1,0.5-0.1,0.8c-0.1,0.3-0.3,0.5-0.4,0.8c0,0.1,0,0.3-0.1,0.4c0,0.2-0.2,0.9,0.7,0.9
				c0.4,0,0.8,0,1.1,0c0.1-0.1,0.1-0.3,0.2-0.4c0-0.2,0.1-0.4,0.1-0.6c0.1-0.4,0.1-0.8,0.1-1c-0.1-0.2-0.3-0.1-0.4-0.2
				c-0.1-0.1-0.2-0.2-0.3-0.3c-0.4-0.5-0.4-0.5-0.1-1.5c0-0.1,0-0.3,0.1-0.4c0.1-0.4,0.1-0.4-0.5-1.1c-0.2-0.2-0.5-0.2-0.7-0.3
				l0-0.4c0.1-0.2,0.1-0.5,0.2-0.7c0.3,0,0.7,0.1,1,0c0.4-0.1,0.7-0.4,1.1-0.5c0.4,0,0.9,0.1,1.3,0l0.1,0
				C311.1,375.1,311.2,374.9,311.2,374.7 M314.8,369.4l0-0.1c-0.1,0-0.2,0-0.4,0c-0.5,0-0.5,0-0.7,0.5c-2.1,0.1-4.1,0.1-6.2,0.1
				c-0.5,0.1-0.6,0.7-1.2,0.8c-1.3,0.2-1.3,0.2-1.4,0.2c-0.1,0-0.3,0.1-0.3,0.2c-0.6,0.5-0.5,1-0.5,1.6c0.5-0.3,1.1-0.5,1.6-0.7
				c0.2-0.1,0.2-0.4,0.4-0.5c0.7-0.4,0.7-0.4,0.9-0.4c0.1,0,0.2,0,0.2,0c0.2-0.1,0.2-0.3,0.4-0.4l0.7,0.2c0.8,0,1.5,0,2.3-0.1
				c0.2,0,0.8,0.3,0.9,0.5c0.1,0.1,0.2,0.2,0.3,0.2c0.4,0,0.5-0.1,0.9-0.3c0.2-0.1,0.2-0.5,0.6-0.4l0.2,0
				C314,370.7,314.5,370.4,314.8,369.4 M308.4,390.9l0,0.1L308.4,390.9 M315.3,388.3L315.3,388.3L315,388c-0.1-0.1-0.1-0.3-0.3-0.4
				c-0.2-0.1-0.5-0.1-0.9-0.1c-0.5,0-0.6,0.2-0.7,0.3c-0.1,0.2-0.1,0.2-0.7,0.3c-0.3,0.1-0.4,0.3-0.7,0.4c-0.2,0.1-0.5,0.1-0.7,0.2
				c-0.1,0-0.1,0.1-0.1,0.2c0,0.1,0,0.3-0.4,0.3c-0.8,0-0.8,0-0.9,0.1c-0.2,0.1-0.3,0.3-0.4,0.5c-0.2,0.2-0.6,0.4-0.6,0.4l-0.1,0.2
				l-0.1,0.2l0,0.1l-0.1-0.2c-0.2,0.6-0.2,0.6,0,0.7c0,0,0.9,0.4,1.2,0.2c0.1-0.1,0.2-0.2,0.3-0.4c0.1-0.2,1.4-1.3,1.4-1.3
				c0.4-0.4,1-0.1,1.5-0.4c0.2-0.2,0.4-0.5,0.7-0.6c0.1,0,0.4-0.2,0.9-0.2c0.8,0.1,0.8,0,0.9-0.3L315.3,388.3 M307.6,393.1
				c0.1-0.2,0.1-0.4,0.1-0.6l-0.1-0.4c-0.3,0.1-0.3,0.1-1.2,0.5c0,0.4,0,0.4,0,0.5C306.9,393.1,307.2,393.1,307.6,393.1
				 M310.7,387.8L310.7,387.8c0-0.1,0-0.3,0-0.4h-0.3c-0.1,0-0.2,0.1-0.3,0.2c-0.1,0.1-0.2,0.1-0.3,0.2c-0.1,0-0.1,0-0.8,0
				c-0.4,0-0.7,0.2-1,0.2c-0.1,0-0.2,0-0.4,0c-0.5,0-0.8,0.3-1.3,0.3c-0.2,0-0.5,0-0.7-0.2c-0.4-0.5-1.7-0.5-2.3-0.2
				c-0.2,0.1-0.4,0.3-0.7,0.4c-0.1,0-0.3,0-0.4,0c0.3,0.2,0.3,0.6,0.7,0.7c0.2,0,0.2,0,2.1,0l0.3,0c1.6,0,1.6,0,1.6,0
				c0.4-0.1,0.7-0.1,1.1-0.2l0.2-0.1c0.2-0.1,0.3-0.3,0.5-0.4l0.6,0C310.3,388.1,310.3,388.1,310.7,387.8 M303.7,391.5l0.1,0
				c0-0.1,0-0.3,0-0.4c-0.6-0.1-0.7-0.2-0.7-0.3c0-0.1,0-0.3,0-0.4l-0.2,0l-0.5-0.1c-0.1-0.1-0.1-0.3-0.2-0.4
				c-0.2,0-0.4-0.2-0.6-0.2c-0.1,0-0.1,0-0.8,0.4c0.2,0.4,0.2,0.4,0.3,0.5c0.2,0.1,0.2,0.3,0.2,0.5c0.1,0.1,0,0.3,0.2,0.4
				C301.9,391.6,302.1,391.6,303.7,391.5 M301.5,388.5L301.5,388.5h-0.1c0-0.2,0.1-0.3,0.1-0.5c-0.7,0-0.7,0-0.9-0.1l-0.1-0.1
				l-0.1,0c-0.1,0-0.2,0-0.3,0c-0.2,0-0.4-0.2-0.6-0.2c-0.1,0-0.3,0-0.5,0.1c-0.1,0-0.1,0-0.3,0.1c-0.2,0.1-0.3,0.2-0.4,0.3l0,0
				c-0.3,0.1-0.6-0.1-1,0c-0.1,0-0.3,0.1-0.3,0.2c-0.2,0.3,0.2,0.8,0.5,0.8c0.2,0,1.3,0,1.3,0c0,0,0.5-0.1,0.7-0.4
				c0.1-0.2,0.1-0.2,0.3-0.2c0.2,0,0.5,0.1,0.7,0.1C300.7,388.6,300.7,388.6,301.5,388.5 M295.4,389L295.4,389
				c-0.2-0.9-0.3-1.2-0.7-1.1c-0.4,0.1-0.6-0.3-0.7-0.7c-1,0-1.9,0-2.9,0c0.2-1.2,1.5-0.9,2.2-1.3c-0.4-0.1-0.8-0.3-1.3-0.3
				l-1.9-0.1c-1-0.1-2-0.6-3.1-0.7c-2.9,0.1-6.9,0.3-9.8,0.4c0,0.2,0,0.3,0,0.5c0.4,0,0.8,0,1.2,0c0,0.3-0.1,0.6,0,0.9
				c1,0,1,0,1.1,0c0.5,0.2,0.6,0.9,1.2,1c0.8,0.1,1.4-0.4,2.2-0.4c0.6,0,1.1-0.2,1.7-0.1c0.4,0.1,0.2,0.6,0.6,0.6
				c0.8,0.2,1.6-0.4,2.3,0.2c1,0.7,1,0.7,2.1,0.8c0.1-0.6,0.1-0.7,0.4-0.7c0.4-0.1,0.6,0.3,1,0.3c0.1,0,0.2,0,0.5,0
				c1.3-0.5,2,1,3.1,1c0.1,0,0.3,0,0.5,0L295.4,389 M271.7,383.4c0-0.1,0-0.3,0-0.4l-0.1-0.3c0-0.1,0-0.3,0-0.4
				c-0.1,0.1-0.2,0.2-0.3,0.4c-0.1,0.1,0,0.3,0,0.4L271.7,383.4 M305,362.4l0.1,0c-0.1-0.8-0.1-0.8-0.3-0.9
				c-0.3-0.2-1.6-0.1-1.6-0.1c-0.3,0-1.1-0.6-1.1-0.6c-0.1-0.3,0.2-0.5,0.1-0.8l-0.6-1.1l-0.8-0.3c-0.4,1.2-1.7,1.4-2.4,2.3
				c-0.7,0.8-0.9,1.9-1.7,2.6c-0.6,0.5-1.4,0.1-2,0.6c-0.5,0.4-1,0.9-1.1,1.4l-0.1,0.2c-0.6,0.4-1,1-1.7,1.3
				c-0.5,0.2-0.7,0.2-1.5,0.2c-0.1,0.7-0.1,1.4-0.2,2.1c-0.7-0.1-1.5,0.3-2.2,0.2c-0.3-0.1-0.4-0.2-0.7-0.7l-0.4-0.2
				c-0.1,0-0.3,0-0.4,0c-0.1,0-0.3,0.1-0.4,0.1c-0.1,1.1-0.1,1.1-0.1,1.2c-0.1,0.3-0.5,0.4-0.6,0.8l-0.2,1.7
				c-0.2,1.4,2.1,1.4,1.7,2.8l0.1,0.2c0,0.1,0,0.3,0,0.4c-0.3,1-0.4,1.5,0.1,2c0.7,0.7,1.7,0.1,2.4,0.4c0.1,0.7,0.4,0.9,0.7,1
				c1.1,0.3,1.9-0.7,2.9-0.5l0.1,0c0.1,0,0.1,0,0.6,0.7c0.3,0.4,0.7-0.4,1.1-0.2c0.1,0,0.4,0.3,0.6,0.6c0.1,0.2,0.1,0.2,0.4,0.3
				c0.2,0.1,0.2,0.1,0.8,0c0.2,0,0.4,0,0.5,0l0.2-0.1c0-0.3,0.1-0.5,0.1-0.8c0.1-0.2,0.1-0.2,0.9-0.7c0.6-0.4,0.4-1.2,0.3-1.4
				c-0.2-0.2-0.3-0.6-0.3-0.6l1.1-1.4c0.2-0.3,0.3-0.4,0.7-1.6c0.4,0,0.8,0,1.1,0c0.1-0.7,0.2-1.4,0.2-2.1c3.3,0,2.3-1.2,2.2-1.4
				c-0.6,0-0.6,0-1.6-0.1c-0.1-0.4-0.1-0.4,0.1-1c0-0.2,0-0.4,0.1-0.7c0.1-0.6-0.3-1.1-0.3-1.7c0.1-0.7,0.1-1.4,0.2-2.2
				c0.9,0,0.9,0,1.5,0C303.2,363.3,303.2,363,305,362.4 M268.5,379.6c0-0.5,0-1.1,0.1-1.6c-0.1-0.1-0.2-0.1-0.3-0.2
				c-0.2-0.1-0.2-0.3-0.4-0.4c0,0-0.4-0.2-0.7-0.1c-0.7,0.1-1-1-1-1c-0.1-0.6,0.2-1.1,0-1.7c-0.1-0.2-0.1-0.2-0.8-0.5
				c-0.4,0.8-0.3,1.4-0.2,1.5c0.2,0.5,1.8,2.5,2,2.7c0.4,0.1,0.4,0.1,0.7,0.5C267.9,379.7,268.1,379.7,268.5,379.6 M262.1,370.6
				l0-0.1l-0.1-0.2C262,370.4,262,370.6,262.1,370.6L262.1,370.6 M263.9,372.4l0-0.4c0-0.5-0.1-0.7-0.2-0.8
				c-0.1-0.1-0.3-0.2-0.4-0.3c-0.2-0.2-0.3-0.5-0.5-0.7l-0.1-0.1c-0.1-0.1-0.3-0.1-0.5-0.2l0,0.1c-0.3,0.4-0.4,0.6,0.4,1.3
				c0.1,0.1,0.3,0.2,0.4,0.4c0.1,0.1,0.3,0.1,0.4,0.3c0.2,0.2,0.3,0.4,0.3,0.5l0.1,0.2L263.9,372.4 M261.1,368.7
				c0-0.1,0.1-0.3,0.1-0.4c-0.2-0.2-0.5-0.2-0.6-0.4l-0.1-0.2c0-0.2,0-0.2-0.1-0.4l-0.4-0.3c0,0.2-0.1,0.3-0.1,0.5
				c0,0.1,0.1,0.2,0.2,0.3l0.1,0.3l0.1,0.3l0,0.2l0,0.1l0,0c0.1,0.1,0.3,0.2,0.5,0.2h0h0h0h0h0h0h0h0L261.1,368.7 M280.7,378.4
				c0,0-0.2-1-0.8-1c-0.8,0-0.7-0.2-0.1-1.1l-0.1-0.2c0,0-1.9-1.7-2.5,0.5c-0.4,0-0.7,0-1.1-0.1c-0.1-0.6,0.5-1.3-0.2-1.8
				c-0.1,0-0.3,0-0.4,0c-0.9,0-0.9,0-1,0c0,0-1.2-0.9-1.2-1.2c0-0.7,0.1-1.4,0-2.1c-1.4,0.1-1.4,0.1-2.2-0.6
				c-0.6-0.6-0.2-1.5-0.6-2.1c-0.1,0.1-0.3,0.2-0.4,0.2c-0.1,0-0.3,0-0.4,0c-0.6,0-1.1,0-1.7-0.8l-0.1-0.4c-0.8-0.3-1.1-1.1-1.7-1.6
				c-1.1-0.9-1.1-0.9-1.3-1c-0.2-0.1-0.5,0-0.7-0.2c-0.3-0.3,0-0.6-0.1-0.9c-0.2,0-0.7-0.1-1.3-1.5c-0.7,0.1-1.2,0.6-1.9,0.4
				c-0.9-0.2-1.3-1.1-2.1-1.3c-0.9,0.3-0.4,0.9,0.7,2.3c0.6,0.8,1.7,1.2,2.4,2c0.6,0.8,0.6,0.8,0.8,1.5c0.2,0.7,0.3,0.9,1,0.8
				c0.6,0,0.9,0.3,1,0.5c0.4,0.6,0.4,0.6,0.4,2c0,0.1,0,0.3,0,0.4c0.5,1.3,2,1.5,2.6,2.6c0.4,0.6,1,1.1,1.2,1.8
				c0.2,0.7,0.2,1.5,0.6,2.2c0.7,1.2,1.9,1.8,2.8,2.9c1,1.3,1,1.3,1.3,1.6c1.2,0.9,1.2,1,1.3,1.4l2.5-0.3c0.2-0.1,0.7-0.8,0.7-0.8
				c0-0.1,0-0.3,0-0.4c0.1-1.1,0.1-1.1,0.4-2.3c0-0.1,0-0.3,0-0.4c0.3-1,1.5-0.4,2.1-0.8L280.7,378.4 M318.2,358.4l0.3-0.4l-0.3-0.8
				c0.1-1.1,0.2-2.1,0.3-3.2c0-0.2-0.2-1.3-0.8-1.4c-0.2,0-0.3,0.1-0.4,0.4c-0.1,0.3-0.1,0.7-0.4,1c0,0-0.6,0.5-0.9,0.3
				c-0.3-0.1-0.7,0.3-1,0.7c-0.2,0.6-0.2,0.7-1.2,0.7c-0.3,0,0-0.4-0.2-0.7c-0.3,0-0.9,0.1-1.2,0.2l0,0.4c-0.3,0.3-0.5,0.3-0.9,0.2
				c-0.9-0.1-1.2,1.1-1.2,1.1c0,0.7-0.1,1.4-0.2,2.1c0.1,0.1,0.2,0.2,0.4,0.3c0.1-0.2,0.3-0.3,0.3-0.4c0-0.1,0-0.3,0-0.4
				c0-0.1,0-0.3,0-0.4c0-0.4,0-0.4,0-0.4l0.9-0.5c0.3-0.1,0.3-0.1,1.9,0c0,0.3,0,0.6-0.1,0.8c-0.1,1-0.1,1,0.1,1.3l0.2,0.1
				c0.2,0.1,0.4,0,0.6,0.1c0.2,0.1,0.3,0.3,0.5,0.4c0.2,0.2,0.2,0.2,0.5,0.1c0.1,0,0.1,0,0.4,0.4c0,0.1,0,0.3,0,0.4
				c0.1,0,0.2-0.1,0.3,0c0.2,0.1,0.2,0.2,0.3,0.3l0.4-0.1c0-0.3,0.1-0.5,0.1-0.8c0-0.5-0.1-0.5-0.2-0.5c-0.1,0-0.1,0-0.2-1.4
				c0.1-0.1,0.2-0.3,0.3-0.3c0.1,0,0.1,0,0.4,0.1c0,0,0.3,0.2,0.7,0.1L318.2,358.4 M314,353.1c0-0.4,0.1-0.8,0.1-1.3
				c0-0.3-0.1-0.5-0.4-0.8c-0.5-0.1-0.5-0.1-0.7-0.3c-0.3-0.3,0.1-0.8-0.2-1.1c0,0-0.5-0.4-0.8-0.4c-0.1,0-0.2,0-0.2-0.1
				c-0.1-0.2-0.1-0.4-0.2-0.6c-0.1-0.2-0.1-0.3-0.1-0.7c0.1-0.5,0.1-0.6-0.5-1.3c-0.3-0.4-0.9-0.4-1.2-0.8c-0.2-0.2-0.3-0.5-0.5-0.7
				l0,0c0,0,0,0-0.7-0.1c-0.2,1.8,0.3,1.8,1.6,1.7c-0.1,1.3-0.1,1.3,0.1,1.6c0,0,0.3,0.8,0.1,1.5c-0.2,0.7-0.2,0.7-0.2,0.8
				c0.5,1.3,1.5,1,1.9,0.9c-0.1,0.1-0.2,0.2-0.3,0.4l-0.2,0.9c0,0.1,0,0.5,0.1,0.6c0.8,0.6,1.4,0.3,1.4,0.3c0.2-0.1-0.1-0.4,0.1-0.5
				C313.1,353.1,313.1,353.1,314,353.1 M317.6,349.3l0-0.1c-0.2-0.9-0.2-1.3-0.6-1.6c-0.4-0.2-0.4-0.2-0.4-0.4c0-0.2,0-0.2-0.1-0.4
				c-0.5-1.1-1.2-1.1-1.2-1.1c-0.2,0-0.2,0-0.2-0.1c-0.1-0.1-0.2-0.3-0.2-0.5c0-0.2,0.1-0.3,0.1-0.4c0-0.4,0-0.8,0-1.3
				c-0.1,0-0.2,0.1-0.4,0.1c-0.1,0-0.2-0.1-0.4-0.1c-0.1,0-0.2,0-0.4,0c-0.1,0-0.2,0-0.3,0c-0.5,0-0.5,0.3-0.6,0.4
				c0,0.1-0.1,0.3-0.5,0.5c0,0-1.1,0.2-1.3,0.2c0.3,0.2,1.2,1,1.2,1c0.4,0.2,0.4,0.2,0.6,0.2l0.2,0c0,0.2,0,0.3,0,0.4
				c0.2,0.2,0.5,0.3,0.7,0.5c0.3,0.4,0,1,0.3,1.4c0.1,0.1,0.3,0.1,0.4,0.2c0.3,0.2,0.5,0.5,0.7,0.8c0.1,0,0.1,0.1,0.2,0.1
				c0.1,0,0.1,0,0.3,0.4c0.1,0.2,0.1,0.2,0.1,1.1c0.5,0,1,0,1.6,0C317.5,350.2,317.5,350.2,317.6,349.3 M307.4,346.8l0-0.2
				c-0.2,0.4-0.2,0.5-0.4,0.7c-0.6,0.7-0.6,0.7-0.5,0.9c0,0.1,0,0.1-0.5,1.1c-0.1,0.2-0.3,0.2-0.4,0.3c-0.2,0.3-0.2,0.7-0.5,0.9
				c-0.1,0.1-0.3,0.1-0.3,0.2c-0.1,0.1-0.1,0.2-0.1,0.3c0,0,0,0.6-0.1,0.7c-0.1,0.2-0.3,0.4-0.4,0.5c-0.1,0.2-0.2,0.5-0.4,0.6
				c-0.2,0.2-0.6,0.1-0.8,0.3c-0.1,0.3-0.3,1-1.1,0.9c-0.4-0.1-0.6,0.5-0.9,1.3l0.2,0.1c0.4,0.2,1.8-0.1,1.7-1.1c0,0,0-1.3,2.3-1.3
				c0.1-2.4,1.2-2.9,1.5-2.9c0.2-0.1,0.3-0.1,0.3-0.3L307.4,346.8 M311.9,337.2V337c0-0.3,0-0.3,0-0.5l-0.1-0.2l-0.1-0.2l0-0.2
				l-0.1-0.3l-0.1-0.3l0-0.2l-0.2-0.2l-0.2-0.2l-0.2-0.2l-0.3-0.1l-0.2,0h0h0h0h0h0h0l0,0h0c-0.1,0-0.2,0-0.2,0l-0.2-0.1l-0.1-0.3
				c-0.5-0.3-0.5-0.3-0.6-0.3c-0.3,0-0.6,0-0.9,0l0,0.2l0,0.2l0,0.2l0,0.2l0,0.3v0.2c0.1,0.3,0.1,0.3,0.1,0.7v0.2l-0.2,0.3
				c-0.1,0.2-0.2,0.5-0.1,1.2c0.1,0.6,0.1,0.6-0.1,0.7c-0.3,0.3-0.7,0.4-1,0.7l-0.2,0.3v0.3l0,0.3c0,0,0.1,0.5,0.8,1
				c0.4,0.4,0.7,0.6,0.7,0.6l0.2,0.2l0.2,0c-0.5,1.1-0.1,1.6,0.1,1.7c0.2,0,0.4,0.1,0.6,0.1c0.3,0,0.6,0,0.8,0c0-0.2,0-0.5,0-0.7
				c0-0.2-0.1-0.4-0.1-0.5c0-0.3,0-0.7,0-1c0-0.4,0.6-0.9,0.7-1l0.2-0.1l0.1-0.2l0.2-0.3c0.5-0.7,0.6-1.6,0.6-1.6v-0.3L311.9,337.2
				 M310.9,320.3c0-0.1,0-0.3,0-0.4c0-0.1-0.2-0.2-0.2-0.4c0-0.2,0-0.4,0.1-0.6c-0.7,0-0.7,0-1,0c-0.3,0-0.3,0.4-0.4,0.5
				c-0.2,0.2-0.4,0.3-0.6,0.5l0,0.1c-0.2,0.3-0.3,0.6-0.5,0.9c-0.1,0-0.3,0.1-0.4,0.1c0,0-0.2,0.8-0.2,1.3c0,1.3,0.1,2.5,0.1,3.8
				c0.4,0,0.8,0,1.2,0c0-1.1,0-1.1,0.1-1.8c0.1-0.2,0.3-0.3,0.4-0.4c0.2-0.5,0.2-0.5,0.2-0.7c0-0.1,0-0.2,0-0.2
				c0.1-0.2,0.3-0.4,0.4-0.6c0.2-0.4,0.2-0.4,0.5-0.8c0,0,0.5-0.6,0.5-0.8C310.9,320.6,310.9,320.5,310.9,320.3 M343.3,272.5
				c0-0.1-0.1-0.3-0.2-0.4l-0.2,0c-0.6,0.4,0.1,1-0.3,1.4c-0.7,0.6-0.7,0.6-1.3,0.7c-0.1,0-0.2,0-0.3,0.1l-0.1,0.1
				c-0.1,0-0.2,0-0.4,0l-0.3,0c-0.2,0.5-0.5,1.1-0.9,1c0,0-0.6-0.2-1.1-0.5c-0.7-0.4-1.2-1-1.8-1.5c-0.6-0.4-1.3-0.4-1.9-0.7
				c-0.1,1.2,0.9,2.1,1,3.2c-0.7,0.8,0.3,1.8-0.4,2.6c-0.3-0.1-0.4-0.5-0.7-0.6c0,0.3,0,0.5,0,0.8l-0.2,0c-0.8,0.2-0.2,2.5,1.3,3.2
				c0,0,0.1,0,0.3,0l0.2-0.3c0.1,0.3,0.2,0.7,0.3,1c-0.4,0-0.7,0-1.1,0.1c0,0.3,0.1,0.5,0.2,0.8c0,0.2,0.1,0.3,0.2,0.6
				c0.3,0.5,0.1,1.1,0.3,1.6c0.1,0.4,0.2,0.9,0.4,1.4c0.4,1.3,0.3,1.3-0.4,1.4c-0.5,0.7-0.4,1.7-0.9,2.4c-0.2-0.5-0.2-1.1-0.4-1.6
				l-0.2,0.2c0.1,0.9,0.1,0.9,0.1,1.2c-0.4,0-0.8,0-1.2,0.1c0.1,0.5,0.2,1.1,0.4,1.6c-0.5,0.1-1,0.1-1-1.3c-0.1,0-0.2,0-0.4,0
				c-0.2,0.3-0.2,0.3-0.1,0.7l0,0.1c0.1,1,0.1,1-0.8,1c0.2,0.8,0.3,1.6,0.5,2.5l-0.7,0c-0.1,0-0.3-0.1-0.4-0.2
				c-0.4-0.9-0.9-0.7-0.9-0.7c-0.3,1.5-2,0.7-3,1c-1.7,0.6-1.7,0.6-1.3,2.6c-0.5,0-1.1,0-1.6,0.1c0,0.3,0,0.3,0.2,1.2
				c-0.6,0-1.1,0.2-1.2,0.4c-1.4,2.6,0.3,2.3,1.6,2.1l0-0.2c0.1,0.7,0.1,0.7-0.2,1.3c-0.3,0.9-0.7,2.4,0.7,2.5c0.2,0,0.4,0,0.7,0
				c-0.3-2-0.3-2,0.7-2.5c0.5-0.3,0.4-0.6,0.4-0.6c-0.1-0.9-0.7-1.6-0.8-2.4c-0.3,0.1-0.7,0.1-1.1,0c0-0.1-0.1-0.3-0.1-0.4
				c0.7-0.5,0.7-0.5,1.2-0.5c1.1,0.1,1.5-1.1,2.4-1.4c0.8-0.3,1.7,0,2.5-0.3l0.2-0.1c0,0.1-0.1,0.2-0.1,0.4c-0.4,0.2-0.7,0-1.1,0.1
				c-0.4,0.2-0.6,0.7-1,0.8l-0.2,0c-0.6,0-1.1,0-1.7,0.1c0.2,0.9,0.3,1.9,0.5,2.8c0.2,0,0.5,0,0.7,0c0.4-0.1,0.9-0.6,1-0.6
				c0.3-0.3,0.3-0.8,0.6-1.1c0.3-0.4,0.9,0,1.2-0.4c0.1-0.1,0-0.6,0-0.8c0.1-0.1,0.2-0.1,0.3-0.2c1,1.2,1,1.2,1.1,1.2
				c0.8,0,0.7-1.1,1.5-1.1c0.2-0.4,0.2-0.4-0.3-1.6l0.3-0.2c1.1,0,2.5-0.1,3.6-0.1c0.4-0.8,1.9-0.7,1.8-1.9c-0.1-0.7-0.3-1.3-0.4-2
				c-0.1-0.6,0.2-1.1,0.2-1.7l-0.1-0.4c-0.1-0.3-0.2-0.5-0.3-0.8c-0.1-0.2-0.1-0.4-0.2-0.7c-0.2-0.7-0.2-0.7,0.4-1.1
				c0-0.1,0.1-3.1-0.5-4.4c0,0-1.8-3.5-3.4-3.8c-0.1-0.2-0.1-0.4-0.2-0.6c0.5,0,1,0,1.5-0.1l0.3-0.3c0.1,0,0.1,0,0.2,0
				c0.9,0.4,0.9,0.4,1.1,0.4c0.3,0.4,0.3,0.4,1.6,0.5c0-0.4,0-0.4-0.5-1.5c0.5,0,1-0.1,1.5-0.1c0.3-0.3,0.3-0.3,0.7-0.5
				c-0.1-0.7-0.5-1.2-0.4-1.9c0.5-0.3,0.5-0.3,1-0.3c0.2-0.4,0.2-0.4,0.9-0.6c0.1,0,0.2,0,0.3,0c0.1-0.1,0.2-0.1,0.4-0.1
				C343.4,272.8,343.4,272.8,343.3,272.5 M344.7,270.3L344.7,270.3l-0.2-0.1c0,0-0.1,0-0.1,0.2c0,0.1,0,0.1-0.2,0.3
				c-0.1,0.1-0.1,0.1-0.1,0.4c0,0.1,0,0.1-0.2,0.3c0.3,0.2,0.4,0.2,0.5,0.2c0.4,0.1,0.4-0.1,0.4-0.1c0-0.1-0.1-0.3-0.1-0.4
				C344.8,270.7,344.7,270.4,344.7,270.3 M345.7,260.4c-0.1-0.1-0.1-0.2-0.2-0.3l-0.3-0.1c0,0.1,0,0.1,0.1,0.5c0,0.1,0,0.2,0,0.4
				c0,0.2,0.2,0.3,0.2,0.4c0,0.2,0,0.4,0,0.5c0,0.1,0.1,0.3,0.1,0.4l0.2,0l0-0.1c0-0.1,0-0.1,0-0.2c0-0.1,0-0.2-0.1-0.4
				c0-0.2,0-0.2,0.1-0.3l0-0.1c0-0.1-0.1-0.2-0.1-0.3C345.8,260.7,345.8,260.6,345.7,260.4L345.7,260.4 M349.2,250.4l-0.1-0.2
				c-0.4-0.4-0.4-0.4-0.4-0.4l-0.1,0l-0.1,0l-0.1,0h0c-0.1,0-0.1,0,0.7,1c0.1,0,0.3,0,0.4,0L349.2,250.4 M348.3,251
				c0.1,0,0.3,0,0.4,0c0,0-0.3-0.4-0.5-0.5c-0.3-0.3-0.5-0.7-0.8-0.9c-0.4-0.4-0.7-0.7-1.1-1c0.2,0.3,0.4,0.6,0.6,0.8
				c0.1,0.1,0.2,0.2,0.3,0.3C347.6,250.1,348,250.5,348.3,251 M339.6,241.4l-0.3-0.4l-0.3-0.1l-0.1,0l-0.1,0.1l-0.2,0l0,0
				c0,0.2,0.1,0.4,0.2,0.6c0.2,0.2,0.3,0.4,0.5,0.6l0.2,0l0.3-0.1c0,0,0,0-0.1-0.4l0.1-0.1L339.6,241.4 M338.8,230.7
				c-0.2-0.2-0.4-0.4-0.7-0.5c-0.1-0.1-0.2-0.1-0.3-0.2l-0.1-0.1l0,0l-0.1,0l-0.2-0.1l0,0l-0.1,0l0.2,0.2l0.6,0.5l0,0l0,0v0
				c0.1,0.1,0.2,0.2,0.3,0.2c0.1,0.1,0.1,0.1,0.2,0.1l0,0l-0.1-0.2L338.8,230.7L338.8,230.7L338.8,230.7L338.8,230.7 M315.6,216.1
				c-0.2-0.1-0.4-0.2-0.6-0.3c-0.4-0.2-0.8-0.4-0.8-0.4l-0.2,0l0,0c-0.3,0-0.4-0.3-0.7-0.3l-0.1,0c0,0,0,0,0.1,0.1
				c0.2,0.1,0.3,0.2,0.5,0.3v0l-0.2,0c0.2,0.2,1.6,0.9,1.7,1l0.3-0.1l-0.3-0.2l-0.1-0.1l0,0l0.1,0l0.1,0L315.6,216.1L315.6,216.1
				L315.6,216.1 M292.7,211c-0.2-0.1-0.4-0.2-0.6-0.3c-0.1-0.1-0.2-0.1-0.3-0.2c-0.1-0.1-0.5-0.1-0.5-0.1l-0.1,0.1l-0.1,0l-0.2,0
				l-0.1,0l0,0c-0.3-0.1-0.5-0.3-0.8-0.4c-0.4,0-0.4,0-0.4,0l0,0l0.3,0.2l0,0c-0.3,0-0.3,0-1.4-0.4l0,0.1c0.4,0.2,0.8,0.5,1.3,0.7
				c0.3,0.1,0.6,0.2,0.9,0.3c0.1,0,0.2,0.1,0.4,0.1c0.1,0,0.2,0,0.2,0l0-0.2c0.1,0,0.7,0.2,0.7,0.2c0.2,0.1,0.2,0.1,0.3,0.1
				c0.5,0.1,0.5,0.1,0.6,0.1l0.1,0h0.1l0,0c0,0-0.1-0.1-0.4-0.3l-0.1-0.1L292.7,211 M293.4,214c-0.7-0.5-0.8-0.6-1.5-0.8h0
				c-0.1,0-0.3,0-0.4-0.1c-0.3-0.1-0.3-0.1-0.4-0.2c-0.1-0.1-0.2-0.1-0.2-0.1l-0.1,0l-0.1,0c-0.3,0-0.3,0-0.3,0
				c0,0.2,0.2,0.2,0.3,0.3l-0.2,0c0,0.2,0.1,0.3,0.2,0.4l-0.1,0.1c0.3,0,0.7,0.1,0.7,0.1l0.1,0l0.2-0.1l0.3,0l0,0l0.1,0h0.1
				c0.3,0.1,0.7,0.3,1,0.3L293.4,214 M289.4,212.3l-0.3-0.1l0,0l-0.1,0c-0.2,0-0.3-0.1-0.5-0.1l-0.2,0l0.3,0.2l0.2,0.1l0.2,0.1
				c0.4,0.1,0.5,0.1,0.5,0.1l0.1-0.1l0,0l0-0.1L289.4,212.3 M287.8,210c-0.4-0.2-0.4-0.2-1.6-0.3l0,0l0,0.1c0.4,0.3,0.8,0.6,1.3,0.8
				c-0.2,0-0.2,0-0.3,0c-0.3-0.2-0.5-0.3-0.8-0.5c-0.3-0.2-0.6-0.5-0.9-0.6c0,0-0.5-0.1-0.7,0l0,0c0.3,0.1,0.5,0.3,0.8,0.4
				c-0.2,0-0.4,0-0.7,0c-0.3-0.1-0.6-0.3-0.9-0.4c-0.1,0-0.2-0.1-0.3-0.2l-0.1,0l-0.1,0l-0.2,0l0,0c-0.2,0-0.4,0-0.6,0
				c0.1,0.1,0.1,0.1,2,1.4l-0.3-0.1c0.2,0.1,0.4,0.2,0.6,0.3l0,0c0.3,0.1,0.6,0.2,0.9,0.3c0.3,0.1,0.6,0.3,0.9,0.5c0,0,0,0,0.5-0.1
				c-0.6-0.4-0.6-0.4-0.8-0.6c0.6,0.2,0.6,0.2,1,0.1l0,0h0l0,0h0l0,0h0h0h0l0.1,0c0-0.1-0.2-0.1-0.2-0.2c0.3,0,0.5,0.2,0.8,0.2
				c0-0.2-0.3-0.3-0.3-0.4l0.1,0h0.1c0.2,0.1,0.4,0.2,0.7,0.2c0.1,0,0.3,0,0.5,0c-0.8-0.5-0.8-0.5-1-0.6
				C288.1,210.3,287.9,210.1,287.8,210 M282.5,210L282.5,210l-0.2,0l-0.3-0.1l0,0l0,0c0,0.1,0.7,0.5,0.7,0.5l0.5,0.2l0.1,0l-0.1-0.2
				l-0.1-0.1C283,210.3,283,210.3,282.5,210 M287.2,213.4c0.2,0,0.4,0,0.6,0c-0.1-0.1-0.2-0.1-0.3-0.2l-0.2,0
				c-0.3-0.1-0.5-0.2-0.8-0.4l-0.2-0.1c-0.2-0.1-0.4-0.2-0.7-0.4l-0.2,0c0.4,0.2,0.8,0.4,1.2,0.7
				C286.9,213.1,287.1,213.2,287.2,213.4 M262.9,206.9L262.9,206.9l-0.2-0.1l-0.1-0.1l-0.3-0.1h-0.1l-0.2-0.1l-0.1,0h-0.1l0,0.1
				l0.1,0.1l0.3,0l0.2,0.2l0.1,0.1c0.1,0,0.1,0,0.3,0l0.1,0L262.9,206.9L262.9,206.9 M257.2,208.6L257.2,208.6l0-0.3l0-0.1l0,0
				l-0.2-0.1h-0.1l-0.1,0.1c0,0,0,0.2-0.3,0.2l0,0.2l0.2-0.1l0.3,0.1l0.1,0H257.2 M261.3,206.3l-0.1-0.2l-0.1-0.2
				c-0.1,0-0.3,0-0.4,0c-0.2-0.4-0.2-0.4-0.3-0.4c-0.1,0-0.5-0.2-0.7-0.1v0.2l0,0h0l-0.1-0.1l0.1-0.2l-0.1-0.1
				c-0.2,0-0.2-0.1-0.3-0.1l-0.1,0h-0.1l0,0.1l-0.2,0.1l0,0c-0.1,0.2-0.1,0.2-0.1,0.3l0,0.3h-0.1l-0.1,0.1c0,0.1,0.1,0.2,0.1,0.3
				c0.1,0.2,0,0.2-0.1,0.3l-0.1,0.1c-0.2,0.1,0,0.5,0,0.5c0.1,0.1,0.3,0.4,0.5,0.1l0.1-0.2l0.1-0.2l0.2-0.1l0.1,0.1
				c0.2,0,0.4,0,0.6,0l0.1-0.1c0,0,0,0,0.2,0c0.1,0,0.2,0,0.3,0l0,0l0.1-0.1c0.1,0,0.2,0,0.3,0C261.3,206.6,261.4,206.5,261.3,206.3
				 M258,204.8c0,0-0.3-0.4-0.4-0.5c0,0-0.4-0.1-0.3,0.1l-0.1,0.1l-0.2,0l0.1-0.2l-0.1-0.1c-0.1,0-0.3,0-0.4,0
				c-0.2,0-0.2,0.2-0.3,0.3c-0.1,0-0.3,0-0.4,0l-0.1,0.2l-0.2,0l-0.1,0.2v0.1l0.3,0.1l0,0.2l0,0.2c0.3,0,0.6,0,0.9,0
				c0.2,0,0.2,0,0.4,0.3c0.6,0,0.6,0,0.8,0h0.2c0.5,0,0.5-0.2,0.4-0.2l-0.1-0.3c-0.1,0-0.1,0-0.2-0.1c-0.1-0.2-0.1-0.2-0.1-0.3
				L258,204.8 M256.8,203.5L256.8,203.5L256.8,203.5L256.8,203.5l-0.5-0.1c-0.1-0.3-0.1-0.3-0.3-0.4l-0.2,0.1l-0.1,0.1
				c-0.1,0-0.1,0-0.2,0.1l-0.3,0.1c0,0.2,0,0.3-0.1,0.4l-0.1,0h-0.1l-0.2,0.1l0,0.2l0.2,0h0l0.1,0.1c0,0,0,0,0.2,0.2l0.1,0
				c0.2,0,0.2,0,0.2,0l0.1-0.1c0-0.1,0-0.1,0.1-0.1c0.2,0,0.2,0,0.2-0.1l0.1-0.1c0.1,0,0.3,0,0.4,0c0-0.1-0.1-0.2,0-0.4l0-0.1l0.1,0
				L256.8,203.5L256.8,203.5 M255.3,204.9L255.3,204.9l0-0.2l0-0.1l-0.1,0l-0.1-0.1l0,0l-0.1,0l-0.1-0.1h-0.1l-0.1,0l-0.1,0.1h-0.1
				h-0.1c0,0.1,0,0.2,0,0.3c0.1,0,0.2,0,0.4,0h0.1c0,0,0.1,0,0.1,0.2l0,0.1l0.2,0l0.1-0.1L255.3,204.9L255.3,204.9 M254.6,203.2
				L254.6,203.2l0-0.1l0-0.1l-0.1-0.1l-0.1,0.1l0,0l-0.1,0l-0.1,0.1l0,0.2l0.1,0.1l0.1,0.1h0l0.2-0.1L254.6,203.2 M212.9,221.5
				l0.2-0.2c-0.3-0.1-0.3-0.1,0.1-0.6c-0.4,0-0.7,0-1.1-0.1c-0.1,0.1-0.2,0.2-0.4,0.3l-0.1,0.2c-0.4,0.4-0.7,0.7-1.1,1.1
				c0.2,0,0.4,0,0.5,0c0.3,0,0.5-0.3,0.7-0.4l0.1,0c0.2-0.1,0.4-0.1,0.6-0.1L212.9,221.5 M240.3,208.8c0,0,0.2-0.3,0.3-0.5l-0.2,0
				l-0.1-0.1l-0.1,0l-0.1,0c-4.2,1.1-4.2,1.1-4.5,1c0,0-0.1,0-0.2,0c-1,0.2-1,0.2-1.8,0.7c-0.3,0-0.6,0-0.9,0c-2.6,1-4,1.5-4.5,2
				l-0.2,0.2c-0.2,0.1-0.3,0.2-0.4,0.4c-1.8,0.3-1.9,0.3-2.4,0.9c0.7-0.1,0.7-0.1,0.7-0.1c-0.1,0.1-0.3,0.2-0.4,0.3l-0.2,0.2
				l-0.1,0.1c-0.1,0-0.3,0.1-0.5,0.1h0c-0.2-0.1-0.2-0.1-0.5,0c-0.2,0.2-0.5,0.4-0.8,0.6l-2.9,1.3c-0.5,0.3-0.5,0.3-1.9,1.4
				c0.1,0,0.3,0,0.4,0.1c0.3-0.2,0.3-0.2,0.6-0.3l0.1,0.1c-0.2,0.2-0.2,0.2-0.3,0.4c0.2-0.1,0.4-0.3,0.6-0.4
				c0.2,0.5,0.1,0.6-0.1,0.8l-0.8,0.5l-0.1,0.1l-0.1,0.2c0.3,0,0.6,0,0.9,0c0.4,0.1,0.8,0.3,1.3,0.3l0.3,0c0.2,0,0.2,0,0.3,0
				c0.1-0.2,0.3-0.3,0.4-0.5l0.1-0.2l-0.1-0.1c0.1-0.1,0.3-0.3,0.3-0.4l-0.1,0l0-0.1c0-0.1,0-0.1,0.3-0.9l0.2-0.2l-0.1-0.1
				c0.2-0.2,0.4-0.4,0.6-0.7l0.1-0.1c0.8-0.3,1.4-0.9,2.1-1.4l0.2-0.2l0.2,0l0.2,0l0.2-0.2c0,0,2.9-1.2,3.6-1.9c0,0,0.9-0.1,1.3-0.3
				c0.1-0.1,0.1-0.1,0.3-0.2c0.4,0,1.3-0.3,1.8-0.8l2.1-0.5c0.2,0,0.5,0,0.9,0c0,0,1.2-0.4,1.5-0.5c0.2,0,0.4,0,0.7,0
				C240,209.1,240.1,208.9,240.3,208.8 M237.5,214.3l0-0.3c-0.1-0.1-0.3-0.2-0.3-0.2c-0.1,0-0.3,0.1-1.3,0.7l0.1,0.1
				c0.1,0,0.3,0,0.4,0l0.2,0c0.1-0.1,0.1-0.1,0.2,0l0.2,0l0.2,0C237.4,214.5,237.4,214.4,237.5,214.3 M246.5,203.1L246.5,203.1
				c0.2-0.1,0.2-0.1,0.2-0.1l-0.1,0v0l-0.1,0l-0.3,0.1l-0.2,0c-0.1,0-0.3,0-0.3,0l-0.3,0.1l-0.1,0l0,0c-0.2,0.1-0.4,0.3-0.5,0.4
				c-0.1,0.1,0.5,0,0.6-0.1C245.9,203.2,246.3,203.2,246.5,203.1 M244.2,203.6l0.2-0.1c0.5-0.3,0.6-0.4,1.1-0.6l0,0
				c-0.3,0.1-0.6,0.2-0.9,0.3l0.1-0.1c-0.2,0.1-0.3,0.2-0.5,0.2c-0.3,0.1-0.6,0.2-0.6,0.2l-0.1,0l-0.2,0.1l0.1,0l0,0
				c0.1,0,0.2-0.1,0.3-0.1l0.1,0l0,0l0,0C243.9,203.7,244.1,203.7,244.2,203.6 M242.4,204.1l0.2-0.1
				C242.5,204,242.4,204,242.4,204.1l-0.2-0.1l-0.1,0h-0.1l0,0l0,0c-0.3,0.1-0.4,0.2-0.4,0.2v0h0.1l0.2,0l0.3-0.1L242.4,204.1
				 M242.6,203.8l0.2-0.1l0.2-0.1c-0.2,0-0.3,0-0.5,0c-0.4,0-0.7,0.2-1.1,0.3c-0.2,0.1-0.4,0.2-0.5,0.2c0.1,0,0.2,0,0.3,0
				c0.2-0.1,0.5-0.2,0.7-0.3c-0.4,0.2-0.5,0.2-0.6,0.3l0.3,0c0.2-0.1,0.5-0.2,0.7-0.3L242.6,203.8 M244.2,203.2l0.3-0.1l0.3-0.1
				c-0.1,0-0.2,0-0.3,0l0,0c0.3-0.1,0.7-0.2,1-0.3l0.2-0.1h0l-0.3,0l-0.1,0c-0.4,0.1-0.4,0.1-0.7,0.2c-0.6,0.2-0.6,0.2-0.7,0.2l0,0
				l-0.1,0h-0.1l-1,0.3c-0.2,0.1-0.3,0.1-0.4,0.2c-0.3,0-0.5,0.1-0.8,0.1l0,0h0h0l0,0h0l0,0h0h0c-0.2,0-0.2,0-0.5,0.1l-0.3,0.1
				l-0.1,0.1l0.1,0c0.2,0,0.3-0.1,0.5-0.2c0.2-0.1,0.3,0,0.5-0.1c0.4-0.1,0.8-0.1,1.1-0.2l0,0l-0.1,0.1l0,0l0.1,0
				c1-0.4,1-0.4,1.1-0.4l0,0.1c-0.3,0.2-0.3,0.2-0.3,0.2C243.8,203.3,243.9,203.3,244.2,203.2 M241.1,203.4c0.2-0.1,0.4-0.1,0.5-0.2
				l0,0l-0.1,0c0.3-0.1,0.5-0.2,0.8-0.3l0.1,0c-0.2,0-0.3,0-0.4,0.1l-0.9,0.2c-0.1,0-0.1,0-0.5,0.1l0,0l0,0l0.1-0.1
				c-0.9,0.2-0.9,0.2-0.9,0.2c0.1-0.1,0.1-0.1,0.2-0.1v0l-0.1,0c-0.5,0.2-0.8,0.2-1,0.3l0,0c0.2,0,0.4-0.1,0.6-0.1
				c0.4-0.1,0.4-0.1,0.5,0l0,0l0.1,0c-0.7,0.2-0.7,0.2-0.9,0.2c-0.2,0.1-0.4,0.1-0.6,0.2c-0.2,0-0.3,0.1-0.4,0.2
				c-0.2,0.1-0.2,0.1-0.2,0.2c0.3,0,1-0.2,1.6-0.5l0.3-0.1l0.3,0l0,0l0.1,0C240.2,203.6,240.8,203.5,241.1,203.4 M232.3,203.7
				c0.6-0.1,0.9-0.2,0.9-0.2c-0.2,0-0.3,0-0.5,0l-0.1,0c0.5-0.1,1-0.3,1.5-0.4c-0.6,0.1-1.1,0.2-1.7,0.3l0.3-0.1l0.9-0.2l0.2,0
				c0.1,0,0.3-0.1,0.4-0.1c-0.2,0-0.4,0.1-0.6,0.1l0,0l0,0l0.1,0l-0.1,0c-0.7,0.2-1.5,0.3-2.2,0.5c0.6-0.2,1.2-0.2,1.7-0.4
				c-0.5-0.1-1.9,0.3-2.1,0.4l0,0l-0.2,0.1c0.1,0,0.2-0.1,0.4,0c-0.1,0.1-0.1,0.1-0.8,0.2l-0.3,0c-0.3,0.1-0.6,0.1-0.9,0.2
				c-0.2,0.1-0.4,0.1-0.5,0.2l0.2,0c0.1,0,0.1,0,0.2,0c-0.2,0.1-0.5,0-0.6,0.2c0.4,0,0.8-0.2,1.3-0.2l-0.2,0.1c0.1,0,0.3,0,1-0.2
				C231.1,203.9,231.1,203.9,232.3,203.7 M228.6,204.1l0.2-0.1L228.6,204.1L228.6,204.1 M222.7,206.4l0.4-0.1
				c0.5-0.2,0.5-0.2,0.6-0.3l-0.2,0c0.1-0.1,0.1-0.1,1.2-0.4c-0.1,0-0.2,0-0.3,0c0.8-0.2,1.5-0.5,2.3-0.8c0.4-0.1,0.8-0.2,1.1-0.4
				c-0.1,0-0.1,0-0.5,0.1c0.1-0.1,0.1-0.1,0.3-0.1c0.3-0.1,0.7-0.2,1-0.3l-0.1,0c0.7-0.4,1.5-0.3,2.1-0.6l0,0
				c-0.3,0.1-0.9,0.2-1.3,0.3c-0.1,0-0.3,0.1-0.4,0.1c-0.7,0.2-1.3,0.4-2,0.5c0.1-0.1,0.1-0.1,1-0.3c0.1,0,0.3-0.1,0.4-0.1
				c0.1,0,0.3-0.1,0.4-0.1c0.1,0,0.3-0.1,0.4-0.1c0.7-0.2,0.7-0.2,0.7-0.2c-0.5,0.1-1,0.2-1.5,0.3l-0.1,0c0.2-0.1,0.5-0.1,0.7-0.2
				c0.4-0.1,0.8-0.2,1.2-0.2c-0.2,0-0.7,0.1-1,0.2c-0.1,0-0.2,0-0.2,0c-0.3,0-0.3,0-5.5,1.4c0.6-0.2,1.1-0.3,1.7-0.5
				c-0.3,0-2.1,0.5-2.6,0.7c0.1,0,0.1,0,1.3-0.3c-0.4,0.2-0.8,0.3-1.2,0.4l0.1,0c0.1,0,1.5-0.4,1.9-0.5c0.2-0.1,0.5-0.1,0.7-0.2
				l0.2,0c-0.5,0.2-1,0.3-1.5,0.4l0.1,0l0.7-0.2l-0.3,0.1c-0.9,0.2-0.9,0.2-1,0.3c-0.1,0-0.3,0.1-0.4,0.1l0-0.1l0.1,0
				c0,0-0.4,0-1.6,0.3c-0.3,0.1-0.6,0.2-0.9,0.3l0.3,0l0.1,0l-0.1,0c0,0,0,0,1.2-0.2l0,0c-0.4,0.2-1.8,0.5-1.8,0.5h0l0-0.1
				c-0.3,0-1.6,0.4-1.8,0.5l0.1,0c-0.1,0-0.1,0-2,0.9l0.2,0c0,0,3.7-1.2,4-1.2c0.7-0.2,1.3-0.4,2-0.6c0.1,0,0.1,0,2.6-0.7l0.3,0
				c-0.6,0.2-1.1,0.3-1.7,0.5l0.1,0c-0.1,0.1-0.1,0.1-1.4,0.5c-0.6,0.2-1.2,0.3-1.7,0.5l0.1,0c0.4-0.1,0.9-0.3,1.3-0.3
				c-0.4,0.2-0.9,0.3-1.4,0.5l0.1,0c0.2,0,0.2,0,1-0.3c0.1,0,0.2,0,0.3,0L222.7,206.4 M185.1,314.4c0.4-4.4,0.9-8.7,1.6-13
				c-5.5-0.2-10.8-0.5-15.9-0.7c-6.6-0.3-12.4-0.7-17.4-1.1c0,0-0.8,2-1.2,2.4l-0.2,0.2l-0.2,0.1l-0.1,0c-0.2,0-0.2,0-0.7,0.2
				l-0.2,0l-0.1,0.1l-0.2,0.1l-0.2,0.2l-0.2-0.1l-0.1-0.2l-0.1-0.2c-0.2-0.2-0.2-0.2-0.2-0.2c-0.2,0-0.5-0.1-0.9-0.3l-0.1,0l-0.1,0
				l-0.2,0.1c0.5,0.5,0.5,0.5,1,0.7c0.1,0.2,0.1,0.3,0.1,0.5l-0.1,0.3c0,0.2,0.1,0.4,0.1,0.6c0,0.2,0,0.4-0.1,0.6l0,0.2l-0.1,0.3
				c-0.2,1,0.2,2,0.3,2.9c0.2,1.1,0.4,1.3,0.5,1.4c0.2,0.1,0.3,0.2,0.4,0.2c0.6,0.1,0.6-0.7,0.9-1l0.1,0.3c0.5,2.2,1.8,4.3,1.7,6.7
				c0,0.3,0,0.4-0.1,0.4c-0.3,1-0.2,1.6-0.1,1.9c0.2,0.5,0.9,0.5,1.1,1l1.1,3.7c0.1,0.5,0.4,1.5,0,2.1c-0.5,0.9-0.3,1.1,0.9,2.8
				c0.8,1,1,1.4,1.3,2.8c0.1,0.6,0.1,0.6,2,3.8c0.6,1,0.3,2.2,0.7,3.2c0.2,0.4,0.2,0.5,0.4,0.7c0.1,0.1,0.1,0.3,0.2,0.5
				c0,1.3,0.1,2.6,0.1,3.8c0.5,1.9,2.6,2.6,3.3,1.7c1.3-1.7,1.3-1.7,1.5-1.7c0.6,0,1.3,0.1,1.9,0.1l0.2,0c0.1,0.1,0.3,0.3,0.4,0.4
				l0.2,0c0.1-0.3,0.3-0.6,0.4-0.9c1-2.2,3.8-1.2,5.2-2.9c0.3-0.5,0.3-0.5,1.8-0.4c0-1.1-0.1-1.7,0.6-1.6c0.8-0.8,0.9-0.8,4.4-0.5
				c0,0,0-1.5,0.5-2.3c0.7-0.1,1.3-0.1,1.9,0c0,0,0.6-1.8,0.9-2.1c0.1-3.9,0.2-7.9,0.5-11.7c-0.1,0.1-0.3,0.2-0.4,0.3
				c-0.1-0.5,0-1-0.2-1.5c-0.3-0.1-0.3-0.1-0.5-0.5c0-0.8,0.1-1.5,0.1-2.2c-0.2-0.4-0.2-0.4-0.6-0.8c-0.2,0.4-0.2,0.4-0.7,0.7
				c-0.5,0.3-0.5,0.3-1.1,3.2c-0.6-0.1-0.6-0.1-1.3-0.2c-0.3,0-0.5,0-0.6,0c-0.3-0.1-0.6-0.3-0.9-0.5c-0.3,0-0.3,0-0.4,0
				c-0.9,0.7-0.9,0.7-1.5,1.3c0,0-1.4-0.2-1.4-2c0.1-0.1,0.3-0.2,0.4-0.2c0.5-0.3,0.5-0.4,0.9-0.4l0.2,0c0.5,0.3,1.3,0.7,2.1,0.2
				c0.1-0.4,0-0.5-0.2-0.7c-0.3-0.1-0.4-0.1-0.5-0.1c-0.2,0-0.4,0-0.5,0.1c-0.3,0-0.4,0-0.6,0c-0.9-0.3-2-0.4-2.9-0.7
				c-0.3,0-0.4-0.1-0.6-0.1c0.1-0.7,0.2-1.4,0.2-2.2c-0.1-0.1-0.1-0.3-0.2-0.5l-2.1-1.2c0.1-1.9-0.8-3.8-0.2-5.7
				c0.4-1.2,2-0.6,2.3-0.2c0.9,1.2,0.9,3,2,4.1c2.9,2.9,2.9,2.9,5.4,3.3c0.3,0,0.3,0,0.4,0c0.1,0,0.2,0,0.4,0c0.4-0.2,1-0.1,1.4-0.3
				c0.2,0,0.3,0,0.5,0C184.5,313.7,184.5,313.7,185.1,314.4L185.1,314.4 M309.7,286c-2.9-15.7-7.1-30-12.3-42.2
				c-29,0.7-64.5,0.5-92.6-0.6c-8.4,16.3-14.8,36.3-18.1,58.3c36.6,1.4,82.3,1.7,120.7,0.9c0-1.1,0-1.1-3.3-4.2
				c0-0.4-0.1-0.6-0.1-0.7c0.1-0.3,0.4-0.8,0.7-1c0-0.2,0-0.4,0-0.6c-0.1-0.6-0.1-0.9-0.2-1.2c0.3,0,0.7,0,1,0
				c0.3-0.3,0.5-0.7,0.6-1.1c0.2,0,0.4-0.1,0.6-0.1c0.6-0.2,0.7-0.2,0.9-0.2c0.2,0,0.4,0,0.6,0c0.1-0.2,0.3-0.4,0.4-0.5
				c0-0.2-0.1-0.4-0.1-0.6c-0.7-0.2-1.3-0.2-1.9-0.2c-0.2-0.3-0.6-0.7-0.8-1c-0.5-0.1-1-0.1-1.5-0.1c0,0.4,0,0.9,0.1,1.3
				c-0.3,0.2-0.8,0.3-1.2,0.3c-0.2-0.8-0.3-1.5-0.4-2.3c-0.8,0-1.5,0-2.3,0c-1.6-1-0.3-2.3,0.2-2.5c0.4-0.1,0.9,0,1.3,0
				c1-1.6,2.8-2.3,4-3.7c0.1,0,0.2,0,0.3,0l0.6,0.6c-0.7,1.2-1.3,3.8-1.3,3.8c0.1-0.1,0.3-0.3,0.5-0.5c0.7-0.2,1.3-0.2,1.8-0.2
				C308.6,287.2,308.9,286.4,309.7,286L309.7,286L309.7,286L309.7,286L309.7,286L309.7,286L309.7,286L309.7,286L309.7,286
				 M170.6,240.9c0.2,0,0.5,0.1,0.7,0.1l0,0l-0.1,0l-0.1,0l0,0c0,0,0-0.1,0.1-0.3l0.3-0.3l0,0h-0.1l-0.1,0c0,0-0.1,0-0.2,0.1
				l-0.1,0.1l-0.3,0.3C170.7,240.8,170.7,240.8,170.6,240.9 M199.2,218.2c0.5-0.3,1-0.6,1.5-0.9v0l-0.2,0l-0.2,0l-0.2,0.1
				c-0.4,0.3-0.9,0.5-1.3,0.8C199,218.1,199.1,218.1,199.2,218.2 M204.8,243.1c4-7.8,8.5-14.7,13.4-20.6c-0.2,0.1-0.2,0.1-0.8,0.4
				c-0.3,0-0.4,0-0.5,0c-0.2-0.1-0.3-0.1-0.3-0.1c-0.1,0-0.3,0-0.4,0c-0.4,0.2-0.6,0.4-0.8,0.6c-0.2,0-0.4,0-0.6,0
				c0-0.2,0-0.4,0-0.6c0.5-0.4,1.2-1.1,1.2-1.1c-0.2,0-0.2,0-2.2,0.8c-0.3,0.1-0.4,0.1-0.5,0.1c-0.7-0.1-0.9,0.1-1.2,0.4l-0.3,0.1
				c-0.3,0-0.4,0-0.4,0c-2.2,0.4-4,1.8-6.1,2.6c-0.3,0.1-0.3,0.1-0.3,0.1c0.1-0.1,0.1-0.4,0-0.5c0.4-0.7,0.4-0.7,0.9-1.2
				c0.5-0.1,0.8-0.1,1.2-0.1c0.2-0.3,0.5-0.5,0.7-0.7l-0.1-0.3c0.1-0.2,0.2-0.4,0.3-0.5l-0.3-0.1c-0.2,0-0.2,0-0.2,0l0-0.3l-0.3-0.1
				c-0.3,0-0.4,0-0.5,0l-0.3,0c-0.2,0.2-0.4,0.3-0.6,0.5l0.3,0.1c-0.5,0.6-1,1.1-1.5,1.5c-0.9,0.7-0.9,0.7-1.2,0.9l0.1,0.1
				c0,0.2,0,0.4-0.1,0.6c-0.1,0.2-0.2,0.2-0.2,0.3c-0.6,0.3-0.9,0.8-1.4,1.3c-0.2,0-0.4-0.1-0.5-0.2c0.1-0.2,0.2-0.3,0.3-0.3
				l0.1-0.3c-1.9-0.1-3.1,1.5-4.9,1.7l0,0c-0.6,0.6-0.6,0.6-0.8,0.9c0.1,0.5,0,0.5-0.5,1c-0.1,0.1-0.1,0.1-0.1,0
				c-0.6,0-0.6,0-0.8-0.1c-0.2-0.1-0.2-0.1-0.3-0.1l-0.3-0.1c-0.1-0.1-0.2-0.3-0.4-0.4c0-0.3,0-0.3,0.4-0.8
				c-1.4,0.6-1.4,0.6-1.7,1.1l0.1,0.2c-0.1,0.1-0.3,0.3-0.4,0.5l0.1,0.1l0.3-0.1l0.2,0.2c-0.1,0.4-0.1,0.5-0.5,0.7
				c-0.4,0.1-0.7,0.1-1,0c-0.1,0.1-0.3,0.2-0.5,0.3c0-0.3,0.1-0.6,0-0.8l-0.3-0.1c0-0.5,0-0.5,1.3-1.8c-0.2,0-0.3,0-0.5,0l0.9-0.8
				c1.4-1.3,1.4-1.3,1.7-1.5l-0.2-0.2c0.3-0.5,0.3-0.5,0.7-1l-0.2-0.2c0.1-0.2,0.3-0.5,0.5-0.7c0,0.7,0,0.7-0.1,0.9l0.2,0.2h0.3
				c0,0.2,0,0.4,0,0.6c0.3,0,0.7,0.1,1.1,0.1c0.1,0.1,0.2,0.3,0.2,0.5l0.3,0.1c0.2,0,0.3,0,0.3,0l0.2,0c5-2,5.2-2.1,5.3-3.6
				c-0.3-0.1-0.5-0.1-0.8-0.2c0.1-0.4,0.3-0.7,0.2-1.1l0.2-0.2l-0.1-0.2l0-0.3c-0.3-0.1-0.3-0.1-0.9,0l-0.1,0c0-0.2,0.1-0.4,0.2-0.6
				c0-0.2-0.1-0.2-0.3-0.2c-0.3,0.2-0.3,0.2-0.8,0.5c-0.2,0-0.3,0-0.3,0c0.1-0.2,0.1-0.2,0.9-0.7l0.2-0.1c0.1-0.2,0.1-0.2,0.6-0.6
				c0-0.1-0.1-0.1-0.2-0.1c-0.2,0.1-0.4,0.1-0.5,0.2l0-0.3l-0.2-0.1c0-0.2,0.2-0.3,0.3-0.4c0.3,0,0.8-0.3,1.1-0.4
				c0.1-0.1,0.3-0.3,0.4-0.4l-0.3-0.1c0-0.2,0.1-0.4,0.2-0.5l-0.2,0c-0.3,0.2-0.6,0.4-1,0.6l-0.3,0c0.1-0.1,0.4-0.3,0.6-0.4
				c0.3-0.2,0.3-0.2,0.8-0.4l0.3-0.2c-0.2,0-0.5,0-0.7-0.1c-1,0.6-1,0.6-1.3,0.8c-0.2,0.1-0.3,0.2-0.4,0.3l-0.2,0.2l-0.1,0
				c0.9-0.6,0.9-0.6,1.3-0.8c0-0.1-0.1-0.1-0.1-0.1l0.8-0.5l0-0.1l-0.1,0c-0.8,0.3-1.6,0.6-2.3,0.9c-0.2,0.1-0.2,0.1-0.2,0.1
				c0.2-0.3,0.2-0.3,0.7-0.5c0.1-0.1,0-0.1-0.1-0.1c-1.1,0.2-1.4,0.5-1.9,0.8v0.3c-0.2,0.2-0.5,0.3-0.7,0.5l-0.2,0l-0.1-0.2
				l-0.2-0.1c-1.3,0.8-1.3,0.8-1.7,1c0.5-0.5,1-1,1.5-1.4c-0.4,0.1-0.6,0.3-0.9,0.4c0,0-1.8,1.2-2.5,1.4c0.2-0.3,0.3-0.3,0.9-0.7
				c-0.3,0.1-0.4,0.1-1.6,0.7c-0.2,0.2-0.4,0.4-0.7,0.6c-0.1,0.1-0.2,0.2-0.3,0.2l-0.2,0.1l-0.1-0.3c0.1-0.1,0.1-0.1,1.3-0.8
				c-0.4,0.2-0.8,0.4-1.1,0.6c-0.7,0-2.5,1.1-2.6,1.1l-0.2,0c-0.2,0.1-0.5,0.3-0.8,0.5l-0.1,0l-0.3,0.2c-0.2,0.1-0.1,0.1-0.1,0.1
				c0.5-0.2,1.1-0.4,1.7-0.7c0.2-0.1,0.2-0.1,0.2-0.1c0.6-0.2,0.6-0.2,0.8-0.1c-0.2,0.1-0.4,0.3-0.6,0.4c-0.9,0-7.1,3.8-8.7,5
				l0.1-0.1c-0.8,0.5-1.7,0.8-2.4,1.4c0.2,0,0.2,0,0.3,0.1c-1.2,0.9-2.6,1.6-3.8,2.4c0-0.2-0.1-0.3-0.1-0.3l-0.6,0.5
				c-0.6,0.5-0.6,0.5-1,0.7l-0.1,0h0l0,0h0l0,0l0,0v0h0c-0.7,0.4-2.8,1.6-5.7,4.3c-0.2,0.2-0.2,0.2-0.2,0.2l-0.2,0.2
				c-0.3,0.3-0.5,0.5-0.7,0.6l0.1,0c-0.3,0.6-2.9,3.1-2.9,3.1c0.2,0.2,0.5,0.3,1,0.4c0.9-0.8,0.9-0.8,1.2-0.8
				c0.3-0.3,0.5-0.5,0.7-0.7c-0.1,0.2-0.1,0.5-1.1,1.5c0.7,0.3,1.6,0.5,2.8,0.6c2.2-1.5,2.2-1.5,2.4-1.7c0.2-0.2,0.3-0.3,0.4-0.4
				l0.2-0.2l-0.2-0.2c0.3-0.8,1.1-1.7,1.1-1.8c0.8-0.8,1.6-1.5,2.4-2.3c0.4-0.2,1.3-0.9,1.7-1.2c1.3-1.1,3-1.7,4.4-2.6
				c1-0.6,1.9-1.4,2.9-2.1l2.9-1.5l0.1,0h0l0,0h0h0h0l0,0h0c-0.2,0.2-0.4,0.5-0.6,0.7c0.2,0,0.4-0.1,0.5-0.2l0,0.3
				c-0.1,0.1-0.3,0.3-0.4,0.5c-0.5,0.4-0.8,0.7-1.1,1c-0.1,0-0.2,0-0.4,0c-2.9,2.5-6.7,4-9.4,6.8l-0.3,0.3c-0.2,0.3-0.2,0.3-0.9,0.9
				l0.2,0.1c0,0.6-0.3,1.1-0.4,1.6l0.1,0.1c0.4-0.2,0.7-0.4,1.1-0.6l0.2,0.2c0.6-0.1,0.6-0.1,1-0.4l0.3-0.1c0.4,0,0.8,0.1,1.2,0.1
				c0.2-0.1,0.4-0.2,0.6-0.3c0.1,0,0.1,0,0.2,0c-0.1,0.3-0.3,0.5-0.4,0.8c0.3,0,0.5,0,0.8,0.1l-0.2,0.3c0,0-3.1,1.8-3.8,1.7
				c0-0.2,0-0.4,0.1-0.5c-0.3-0.1-0.6,0-0.9,0c-0.2-0.1-0.2-0.1-0.2-0.1c-0.3,0.1-0.4,0.1-0.8,0.4l-0.2-0.2
				c-0.7,0.4-0.8,0.4-1.4,1.1c5.1,0.7,12.3,1.2,21.5,1.7C196.8,242.8,200.7,243,204.8,243.1 M330.8,224.7c-0.4-0.3-0.8-0.5-1.2-0.8
				c-0.5-0.3-0.5-0.3-0.8-0.5l0,0l-0.1,0.1l0,0c-0.2-0.1-0.4-0.2-0.6-0.3c0.3,0.3,0.7,0.5,1.1,0.8c0.2,0.1,0.3,0.2,0.3,0.2
				c0.2,0.1,0.4,0.3,0.5,0.4c-0.3-0.1-0.3-0.1-0.9-0.5c-0.7-0.5-1.5-1-2.2-1.5c-0.2-0.1-0.4-0.2-0.6-0.3c-0.2-0.1-0.2-0.1-0.2-0.1
				c-0.7-0.2-2.5-1.2-2.5-1.2c-1.1-0.4-1.5-0.5-4.2-1.9c-0.3-0.1-0.3-0.1-0.3-0.1l0,0c-0.4-0.2-0.8-0.3-1.2-0.5c-0.3,0-0.3,0-0.3,0
				l0.3,0.2c-0.2,0.1-0.2,0.1-0.3,0.1c-1.8-0.6-1.8-0.6-1.9-0.6c1,1.4,2.6,1.7,3.9,2.6c0,0.1-0.2,0.1-0.3,0.1
				c-0.4-0.3-0.8-0.5-1.2-0.8c-0.1,0-0.3,0-0.4,0.1c-0.4-0.3-0.8-0.5-1.1-0.7l0.1,0c-0.1-0.2-0.3-0.5-0.5-0.6l-0.3-0.1
				c-0.2,0-0.4,0-0.6,0.1c1.1,0.7,1.1,0.7,1.4,1l0,0.1c-0.8-0.4-0.9-0.3-1.3-0.2c-0.1,0-0.3,0-0.4,0.1l0.1,0.3c-0.1,0-0.1,0-1.3-0.4
				l-0.2,0c0.2,0.1,0.4,0.3,0.6,0.4c0.6,0.4,0.9,0.6,1.3,0.9l-0.1,0.1l-0.3-0.1c-0.2-0.2-0.4-0.3-0.6-0.5c0,0-4-2.4-5.2-2.8
				c-0.2-0.1-0.5-0.2-0.7-0.4c-0.4-0.1-0.8-0.2-1.3-0.2l-0.1,0.3c0,0.3-0.1,0.3-0.2,0.3c-0.2,0.1-0.4,0.1-0.6,0.1
				c0,0.2,0,0.2-0.1,0.2c-0.5-0.1-1-0.4-1.6-0.5c-0.1,0-0.2,0-0.3,0c-0.9-0.2-0.9-0.2-1.3-0.5c-0.5-0.2-1-0.5-1.5-0.6
				c-0.2,0-0.2,0-0.3,0l-0.3-0.2c-0.2-0.2-0.4-0.4-0.6-0.6l-0.3-0.1c-0.7,0-1.2,0-1.7,0h0c0.5,0.4,0.5,0.4,0.8,0.7
				c0,0.3-0.1,0.3-0.1,0.3c-0.2-0.1-0.6-0.2-1.3-1l0-0.1c-1.5-1-3.2-0.6-4.8-0.9c0.2,0.3,0.2,0.3,0.7,0.7c-0.2,0.1-0.4,0.1-0.7,0.1
				l0,0.3c0.8,0.5,1.8,0.8,2.5,1.4c0.1,0.1,0,0.1,0,0.1c-1.4-0.3-1.9-0.3-1.9-0.3c-0.1,0.1,0,0.2,0.1,0.3l0.3,0.1
				c0.5,0.2,0.5,0.2,0.9,0.5c-0.2,0-0.2,0-1.5-0.5c-0.3-0.2-0.4-0.3-0.5-0.4c-0.2,0-0.4-0.1-0.6,0c0,0.2-0.1,0.5-0.2,0.6
				c-0.8-0.2-1.9-0.5-1.9-0.5l-0.2,0.2c-0.1,0-0.3-0.1-0.4-0.1l-0.1,0.3c0.4,0.4,0.7,0.6,1.2,1.2c-0.1,0.2-0.4,0.2-0.7,0.2
				c-1-1-2.4-1.2-3.5-2l-0.1-0.1c-0.2-0.5-2.1-2.5-3.6-2.9c-0.2,0-0.2,0-0.2,0l0,0h0h0h0h0l0,0h0l0.2,0.5c-1.3,0.2-2.1-1-3.2-1.1
				l-0.3,0.2c0.1,0.5,0.4,0.7,0.7,1c0.4,0.3,0.5,0.4,0.7,0.7l-0.1,0c6.5,7.3,12.3,17,17.2,28.6c8-0.2,15.6-0.5,22.3-0.8
				c0.1-0.4,0-0.9,0.1-1.3c0.4,0,0.4,0,0.9,0.2l0.3-0.2c0.2,0,0.2,0,0.3,0l0.3,0.1c0.1,0,0.2,0,0.3,0l0.3-0.1
				c0.1-0.1,0.2-0.1,0.2-0.1c1.1,0.5,1.1,0.5,1.5,0.2l0.2,0c0.8,0,1.6-0.1,2.4-0.1c-0.2-0.2-0.3-0.4-0.5-0.6
				c-0.4-0.5-0.4-0.5-0.4-0.9c0.5,0.3,0.5,0.3,0.9,0.5c1.3-0.8,1.7,1.3,2.8,1.7c0.3,0,0.7,0,1-0.1c0.1-0.3,0.1-0.3-0.1-0.9
				c0.2,0,0.2,0,1.2,0.6l-0.1-0.3c0.1,0,0.2,0,0.4,0c0.4,0.1,0.5,0.1,0.7,0.1c-0.1-0.1-0.1-0.1-0.9-0.9l-0.3,0.1
				c-0.4-0.3-0.6-0.6-0.9-0.8l-0.2-0.3l0.2-0.3c-0.5-1.3-0.5-1.3-0.4-1.7c-0.2-0.4-0.6-1.1-0.8-2l0.2-0.3l0.3,0.1
				c0.3,0.1,0.3,0.1,0.4,0.1l-0.1-0.3c0-0.1,0-0.1,0-0.1c0.5,0.4,1.3,0.4,1.6,1.1c0.2,0.2,0.2,0.2,0.2,0.3c0.6,0.5,1.7,1.3,1.7,1.3
				c-0.2-0.7-0.7-2.1-0.7-2.1l0.3-0.1c-0.2-0.3-0.2-0.3-1.5-1.8l0.1-0.3c0.2-0.2,0.4-0.2,0.6-0.2c0.1,0.1,0.3,0.3,0.4,0.4l0.1,0.5
				c0.2,0.7,2.5,3.9,2.5,3.9c0.9,1.1,0.6,2.5,1.1,3.7c0.8,0,1.6-0.1,2.4-0.2c-0.2-0.4-0.8-1.2-1.2-1.6c-0.1-0.1-0.1-0.1-0.2-0.2
				c-0.6-0.7-0.6-0.7-0.7-1.1c0.3,0,0.3,0,1.2,0.6l0.1-0.3c-0.1-0.2-0.2-0.4-0.3-0.6c0.2,0.1,0.2,0.1,0.7,0.6
				c0.2,0.2,0.2,0.2,0.2,0.2c0-0.4,0-0.4-0.5-1.2l0.2-0.2l0.3,0.1c0.4,0,0.6,0,0.9-0.1c1,1,1,1,1.5,1.4c-0.7-1.2-2.2-1.9-2.3-3.5
				l0.1-0.1c0.2-0.7-1-2.4-1.5-3.1c0.3-0.1,0.3-0.1,1.1,0.5c0.3,0,0.3,0,0.4,0c-0.3-0.4-0.6-0.6-0.9-0.9c-0.5-0.3-0.5-0.3-1.3-0.9
				c-0.8-0.6-0.8-0.6-2-1.6c-0.3-0.1-0.3-0.1-1.4-0.9c-0.2,0-0.3,0-0.5,0l-0.5-0.3c-0.1-0.1-0.3-0.3-0.4-0.5c0-0.1,0-0.1,0-0.1
				c0.2,0.1,0.4,0.2,0.6,0.4c0.1,0,0.2-0.1,0.4-0.1c-0.1-0.5-0.9-1.1-2.2-2c-0.3-0.3-0.7-0.5-1-0.8c0.3,0.1,0.3,0.1,2.1,1.3
				c0.2,0,0.3,0,0.4,0c0.5,0.2,0.5,0.2,1.5,1c0.2,0.1,0.2,0.1,0.3,0c0.5,0.3,1,0.6,1.5,0.9c0.2,0.1,0.3,0.1,0.3,0.1
				c-0.2-0.2-0.2-0.2-1.4-1.1c-0.2-0.1-0.1-0.1-0.1-0.1c-0.2-0.2-0.2-0.2-2.1-1.6c0.2,0.1,0.4,0.2,0.6,0.3c0.1,0.1,0.1,0.1,0.1,0.1
				C332,225.6,330.8,224.7,330.8,224.7 M164.4,239.9L164.4,239.9c-0.4-0.1-0.8-0.2-1.1-0.3l0,0c-0.2,0.1-0.2,0.1-0.8,0.8
				c0.1,0,0.1,0,0.1,0l0.1,0l0,0l-0.1,0.2c-0.1,0.1-0.2,0.3-0.4,0.5l0.3-0.1l-0.1,0.3l0.2,0c0.2-0.1,0.3-0.2,0.4-0.3l0.2-0.1l0,0
				l0.2,0l0,0C163.5,240.6,163.5,240.6,164.4,239.9 M167.9,240.5c-1.1-0.2-2.1-0.3-2.9-0.5c-0.3,0.3-0.5,0.8-0.8,1.1l-0.1,0.2
				c-0.8,0.8-0.8,0.8-0.9,0.9c-0.2,0.3-0.3,0.7-0.6,1l-0.3,0.3l-0.3,0.3c-0.4,0.4-0.5,1-0.9,1.5c-0.3,0.4-0.7,0.7-1,1.1l-0.1,0.2
				c-0.2,0.2-0.3,0.4-0.5,0.7c0.2,0,0.4,0.1,0.7,0.1c0.6-0.7,1.3-1.5,1.5-1.4l0.1,0c0,0.1,0,0.1,0,0.2l0.1,0
				c0.8-0.5,0.8-0.5,0.8-0.5c0.3-0.3,0.5-0.6,0.8-1c0.1,0,0.3,0,0.4,0.1c0.5-0.5,0.5-0.5,0.7-0.8l-0.2,0c-0.2,0.1-0.2,0.1-0.3,0.1
				c0.1-0.1,0.2-0.2,0.3-0.3l-0.1-0.1l0.1-0.1c0.2-0.2,0.5-0.4,0.7-0.6C166.2,242.3,166.7,241,167.9,240.5 M186.7,301.4
				c3.3-22,9.6-42,18.1-58.3c-4.1-0.2-8-0.3-11.8-0.5c-9.2-0.5-16.5-1-21.6-1.6c-0.3,0-0.5-0.1-0.7-0.1l0.1,0.1h0h0h0h0h0l0,0h0
				c-1.6,1.1-1.6,1.1-1.7,1.4c0.3,0.1,0.3,0.1,1.8-0.7c0.1,0.5,0.1,0.5-2.4,3.3c-0.2,0.1-0.3,0.1-0.4,0.1c0-0.1-0.1-0.3-0.1-0.4
				c0.1-0.2,0.3-0.4,0.4-0.6c0-0.1,0-0.1-0.1-0.1c0.2-0.2,0.4-0.4,0.5-0.6l-0.3,0c-1.2,1-4.7,4.1-5.2,5.5l-0.3,0.3
				c-0.1-0.1-0.1-0.2-0.2-0.4c-0.4-0.1-0.4-0.1-1.9,1.6l-0.2,0.1c0.1-0.7,0.1-0.7,0.4-1.5c-0.8,0.3-3.2,1.7-3.3,1.8
				c0-0.1-0.1-0.3-0.1-0.4c0.3-0.4,0.3-0.4,0.8-1l-0.2,0l-0.3,0.2c-0.4,0-0.4,0-0.5,0c-0.3,0.2-0.3,0.2-0.9,0.9
				c-0.2,0.1-0.2,0.1-0.3,0.1c0-0.4,0-0.4,0.6-1.1l-0.2,0.1l-0.2,0c0.2-0.2,0.3-0.4,0.5-0.6c0.1-0.2,0.3-0.4,0.5-0.6
				c0.1,0,0.3,0,0.4,0c0,0.1,0,0.3,0,0.4c0.1,0,0.3,0,0.4,0c0.6-0.7,2.4-2.8,2.5-2.9l-0.2,0c-0.4,0.1-0.4,0.1-1.3,0.9l-0.1,0h0
				c0.3-0.5,0.3-0.5,1-1.2c0.3-0.3,0.4-0.5,0.6-0.6c0.2-1.1,1.3-1.6,1.9-2.5c-0.9,0.4-2.3,1.8-2.3,1.8c-0.2,0.3-0.3,0.3-0.3,0.4
				c-1,1.1-2,2.2-2.9,3.4c-0.2,0.3-0.3,0.4-0.4,0.5c-0.2,0.2-0.4,0.5-0.6,0.7c-0.3,0.4-0.6,0.9-0.9,1.4c-0.2,0.2-0.3,0.4-0.5,0.6
				l-0.1,0c-0.1,0-0.3,0.1-0.4,0.1l-0.1,0l-0.3-0.2c-0.6,0.6-1.2,1.1-1.7,1.7c-0.1-0.1-0.1-0.1-0.1-0.1l0,0
				c-0.3,0.2-0.5,0.4-0.6,0.6l-0.1,0.4c-0.3,0.4-0.5,0.7-0.8,1.1c-0.4,0.2-0.4,0.2-1.4,1.3c-0.2,0.2-0.2,0.2-0.2,0.2
				c-0.6,0.6-1.1,1.3-1.6,2l-0.3,0.1c-0.3,0.4-0.5,0.7-0.7,1.1l-0.1-0.1c0.1-0.5,0.2-0.6,0.3-0.7l0.2-0.3c-0.3,0.4-0.6,0.7-0.8,1.1
				l-0.6,1l-0.2,0.4c-0.1,0.1-0.2,0.3-0.3,0.4c0-0.2,0.1-0.5,0.2-0.7c-0.4,0.3-0.4,0.3-0.8,0.9c-0.2,0.3-0.2,0.3-0.2,0.3
				c-0.1,0.2-0.3,0.5-0.4,0.7c0,0.1,0,0.1,0,0.1c-0.3,0.6-0.6,1.2-0.9,1.8c-0.4,0.6-0.8,1.3-1.1,1.9c-2.3,4.5-2.3,4.5-3.4,6.3
				l-0.2,0.3c-0.2,0.2-0.2,0.2-0.2,0.2c0.1-0.4,0.2-0.8,0.4-1.1c0.1-0.4,0.1-0.4,0.1-0.5c0.1-0.1,0.1-0.3,0.2-0.4
				c0.1-0.2,0.1-0.2,0.1-0.2c-2.1,4.5-4.8,10.5-6.6,15l0,0c-0.1,0.2-0.1,0.4-0.2,0.6c-0.2,0.5-0.3,1-0.5,1.5c0-0.1,0.1-0.3,0.1-0.4
				l0-0.1c0.7-1.3,0.4-3.1,2.2-3.8c0.2-0.4,0.3-0.9,0.5-1.3c0.6-1.6,0.6-1.6,1.4-3.4c0.8-1.5,1.6-2,1.6-2c0.4-0.4,0.5-0.8,0.7-1.2
				c0.1-0.1,0.1-0.3,0.2-0.4c0,0,0.9-2,1.3-2.5c0.3,0.1,0.3,0.1,0.3,0.1v0h0l0,0l0,0l0,0h0l0,0c0,0.2,0,0.5,0,0.8l0.2,0
				c0.1-0.1,0.1-0.1,1.1-1.6l0.2,0c0.5-0.2,0.5-0.3,1.1-1.1c0.3,1.5-0.9,2.6-0.9,4c0,0.3-0.1,0.7-0.2,1c-0.1,2.3-0.1,2.3,0.1,2.6
				c-0.7,5.3-0.7,5.3-1,5.9c-0.7,0.2-1.4,0.7-2.2,0.6c-0.1,0.1-0.3,0.3-0.4,0.4c0.1,0.6-0.1,1.3-0.1,1.9l0.3,0.3
				c0.2,0,0.5,0.1,0.8,0.1c0.2-0.5,0.3-1,0.5-1.5c1-0.8,2.8-3.6,2.8-3.6c0.1-0.4,0.2-0.5,0.2-0.7c-0.3,0-0.4,0-0.5,0
				c-0.1-0.2,0-0.4,0.1-0.5c0.1-0.1,0.1-0.2,0.2-0.4c0.3-0.2,0.5-0.2,0.6-0.1c0.1,0.2,0.2,0.5,0.2,0.7c0,0,0,0,0.8-1.9l-0.3-0.2
				c0-0.9,0-2.3,0-2.3l-0.3-0.2c0-1.2,0.3-2.4,0.4-3.7c0-0.2,0-0.2,0-0.2c0.2-0.4,0.2-0.6,0.6-1.2c-0.1,0-0.2-0.1-0.4-0.2
				c0.1-0.3,0.2-0.6,0.4-1l0.3-0.4c0.3-0.3,0.3-0.4,0.3-0.4c0.5-1.2,0.5-1.2,0.8-1.4l0.2,0.3c0,0.1-0.9,2.3-0.4,5.8
				c-0.2,0.9,0.5,1.8,0.3,2.7c-0.4,2-1.5,3.7-1.9,5.6c0.1,0,0.3,0.1,0.4,0.1c0,0.7-0.2,1.2-0.4,1.8c-0.1,0-0.3,0-0.4,0
				c0-0.1,0.1-0.3,0.1-0.4c-0.1,0-0.3,0.1-0.4,0.1c-0.3,1.1-0.2,1.5-0.1,2.1c0.1-0.2,0.3-0.4,0.5-0.5l0.3-0.3
				c-0.2,0.9-0.3,1.8-0.5,2.7c0.2,0.4,0.3,0.4,0.5,0.4c0.1,0,0.3,0,0.4-0.1c0.2-0.3,0.5-0.6,0.6-1c0.1-0.2,0.1-0.4,0.2-0.5
				c0.1-0.5,0.1-0.6,0.6-1c0,0.1,0.1,0.3,0.1,0.4c0.3,0.2,0.3,0.2,0.4,0.2c0.3-0.3,0.3-0.3,0.8-1.6c0.1,0,0.3,0,0.4,0
				c0.6-0.6,0.1-1.2-0.1-1.3c-0.2,0.7-0.2,0.7-0.4,1.1c-0.1,0-0.3-0.1-0.4-0.1c0-0.7,0-0.7,0.4-2.3c-0.5-0.5-0.4-1.1-0.2-1.4
				c0.1-0.1,0.1-0.3,0.2-0.4l0.2-0.3l0.1,0.2c0,0.2,0.2,0.5,0.3,0.7c0.2,0,0.3,0,0.3,0l0.2,0c0.5-0.4,0.3-1.2,0.9-1.6
				c0.2,0,0.5,0.1,0.8,0.1c0.1,0.2,0.2,0.5,0.2,0.7c0.1,0,0.2,0.1,0.3,0.1c0,0.2-0.1,0.5-0.2,0.7l0.1,0.2l-0.1,0.7
				c-1.4,0.7-0.4,2.2-0.8,3.2c0,0.2-0.1,0.5-0.2,0.7c-0.1,0.2-0.1,0.3-0.1,0.4c0,0.2,0,0.2,0,1.1l0,0.2l0.1,0.1l0,0.2l0.1,0.2
				l0.1,0.2c0,0.3-0.2,0.6-0.3,0.9l-0.1,0.2l-0.1,0.3c-0.2,0.7-0.2,0.7-0.3,1.2l0,0.2l0.1,0.2c0.1-0.2,0.3-0.4,0.4-0.6l0.2-0.5
				c0.1-0.2,0.2-0.6,0.2-0.8c0-0.1,0.1-0.3,0.1-0.4c0.1-0.2,0.2-0.2,0.3-0.2l0.1,0.1l0.1,0.2l0,0.2l0,0.2c0.1,0.2,0.1,0.5,0.2,0.6
				l0,0.3l0,0.2l0.1,0.1l0.1,0c0.1,0,0.3,0,0.4,0.1l0.1,0.2c0.3,0.1,0.3,0.1,0.4,0.1l0.1-0.1l0.2-0.1l0-0.2l0.1-0.2
				c0.1-0.7,0.1-0.7,0.4-1.1l0.1-0.2l0.2-0.2c0.1,0,0.3,0,0.4,0l0.3,0.3c0,0.2,0.1,0.4,0.1,0.6c0.1,0.2,0.1,0.4,0.2,0.6l0,0.2
				l0.1,0.2l0.1,0.1l0.1,0.1c0.5,0,1.1,0.1,1.6,0.1c0.1-0.2,0.1-0.5,0.2-0.7l0.1-0.2c0-0.2,0.1-0.5,0.2-0.7l0.3,0l0.1,0l0.2,0
				c0.1,0.1,0.3,0.1,0.4,0.2c0,0.2,0.1,0.4,0.2,0.5c0.3,0.1,0.3,0.1,0.4,0.1l0.2-0.1l0.1-0.2l0.2-0.2l0.1,0.1c0,0.2,0,0.4,0.1,0.5
				l0,0.2c-0.2,0.8-0.2,0.8-0.5,1.3c-0.7,1.2-0.7,2-0.7,2.2l0,0.2c0.1,0.6,0.1,0.7-0.3,1.2l-0.2,0.1l-0.1,0.2c0,0.2-0.1,0.5-0.2,0.7
				l-0.1,0.2c-0.9,1.2-0.9,1.2-1.1,1.3l-0.2,0.1l-0.2,0.2l-0.1,0.2c5,0.6,10.8,1,17.3,1.3C175.9,301,181.2,301.2,186.7,301.4
				 M334.4,264.3c-1.2-2.5-3.5-4.2-4.7-6.6c-0.1-0.3-0.2-0.4-0.2-0.6c0,0-0.5-1.2-0.9-1.5l0,0h0l0,0l0,0h0l0,0h0l0,0
				c-0.9-0.8-1.2-1.9-1.9-2.8c-0.2,0-0.3,0-0.5,0c0.4,0.8,0.9,1.6,1.3,2.4c-0.2,0-0.4,0.1-0.6,0.1c0,0.2,0.1,0.3,0.1,0.4l0.2,0.3
				c0.1,0.2,0.2,0.3,0.2,0.4c0.3,0.4,0.4,0.4,0.6,0.8c-0.1,0.2-0.2,0.2-0.4,0.2c-0.3-0.1-0.3-0.1-1.1-1.8c-0.1-0.1-0.1-0.2-0.2-0.3
				c-1.1-1-2.5-1.4-3.6-2.3c-0.4-0.1-0.7-0.1-1-0.1c0.3,0.6,0.6,1.1,0.9,1.7c-0.4,0-0.8,0-1.1,0c0,0-0.8-1.6-1.8-1.6l0.2,0.2
				c0.2,0.3,0.3,0.5,0.4,0.8l0.1,0.3c-0.2,0-0.4,0-0.6,0c-0.2-0.2-0.2-0.3-0.3-0.4c-0.3-1.1-0.3-1.1-1-1.6c0,0.2-0.1,0.4-0.2,0.5
				c-0.1,0-0.2,0-0.3,0l-0.3,0c-0.6-0.3-0.6-0.9-0.6-1.4c0.8-0.5,0.6-1.9,1.8-2.1c0.2-0.7-0.7-1.3-0.1-2c-0.2-0.9-0.2-0.9,0.3-1.6
				l-0.1-0.3c0.3-0.2,0.3-0.2,0-2.1l0.2-0.2c0.2,0,0.4,0,0.6-0.1c-6.6,0.1-14.2,0.4-22.2,0.6c5.2,12.2,9.4,26.6,12.3,42.2
				c0.4,0.1,0.7,0.3,1.1,0.4c0.2,0,0.2,0,0.2,0h0h0h0h0h0h0l0,0c1.2,0.3,1.3,0.5,1.4,1.1c0.1,0.4,0.1,0.5,0.1,0.6
				c-0.1,0.4-0.1,0.4-0.4,0.8c0.1,0.6-0.1,1.3,0.1,1.9c0.2,0,0.5,0,0.7,0l0.3-0.2c1.3-1.4,1.8,2,2.8,2.8c0.2,0.9,0.3,1.6,0.4,2.4
				c-0.2,0.6-0.6,1-0.6,1.7c0.1,0.5,0.1,0.9,0.2,1.3c0.7,0,1.3,0,2-0.1c0.6-0.2,0.8-0.7,1.3-1c0.6-0.5,1.2-0.8,1.7-1.4
				c0.5,0,0.5,0,0.8-0.4c-0.2-1.6-0.2-1.6-0.2-2.1c-0.1-0.4-0.2-0.8-0.2-1.3c-0.5,0-3.3-3.3-3.4-3.3c-0.3-0.5-0.3-0.5-0.6-3.7
				c0.2,0,0.2,0,1-0.2c0.2,0,0.3,0,0.4,0c0.2,0,0.5-0.1,0.7-0.1c-0.3-1.2-0.5-2.3-0.8-3.5c0-0.8,0-0.8,0.1-1.2
				c1.3,0,0.7-1.7,1.6-2.2c1.2-0.7,1.5,1.6,2.6,1c1.1-0.5,1.6-1.6,1.6-1.6c1.2,0,1.2,0,2.6-3.6c0.6-1.5-0.4-3.4,1.1-4.6l0-0.3
				c1.3-0.4,0.6-1.8,1.2-2.6c-0.1-0.2-0.2-0.4-0.2-0.5l0-0.1c-0.1-0.5-0.1-0.5-0.4-1.1c-0.1-0.2-0.1-0.3-0.2-0.5
				c0.1-0.9,0.1-0.9-0.2-1.6c-0.2-0.3-0.2-0.5-0.3-0.8l-0.2-0.3c-0.1-0.2-0.2-0.3-0.2-0.4c-0.3-0.6-0.4-2.7-0.4-2.8l0.3,0
				c0.1,0.2,0.4,0.3,0.6,0.4c0,0,2.1,1.5,5.2,12.6c0.2,0.1,0.4,0.1,0.6,0.1l0.2-0.2c0-0.2-0.1-0.5-0.1-0.8c0-0.2,0-0.4,0.1-0.6
				l0.3,0c0.4,1,0.5,1.3,1.6,1.3c-0.5-1.2-1.8-1.6-2.4-2.8c-0.5-1.1-0.7-2.3-1.2-3.4c0.1-0.2,0.1-0.2,0.1-0.8l0.3-0.1
				c0.4,0.2,0.8,0.5,1.2,0.7C334.4,264.7,334.5,264.5,334.4,264.3 M343.9,247.9l-0.5-0.6c-2.1-1.9-2.1-1.9-2.7-2.8
				c0.1-0.1,0.1-0.1,0.1-0.3c-0.3-0.3-0.5-0.6-0.7-0.6l0,0.1l0.1,0.2l-0.3,0.1c-1.4-1.7-1.3-2-1.3-2.2c-0.8,0-1.5,0.1-2.4,0.2
				c0,0,0.4,1.1,0.4,1.3c-0.1,0-0.2,0-0.4,0c0,0.3-0.2,0.5-0.3,0.8l-0.2,0c-0.1,0.1-0.1,0.4,0.3,0.7c0.2,0.1,0.4,0.3,0.8,0.9
				c0.3,0.4,0.2,1,0.5,1.4c0.1,0.1,0.1,0.2,0.5,0.8l4.2,6.4c0.1,0.2,0.1,0.2,0.1,0.5c0.4,0.4,1,1,1.4,1.4c0.6,0.9,1.1,1.8,1.7,2.8
				l0.3,0.2l0.1-0.1v-0.2c0.2-0.1,0.4-0.4,0.7-0.4c-0.2-0.5-0.7-0.9-0.8-1.5c-0.1-0.5-0.1-1-0.2-1.5c-0.2-0.5-0.2-0.5-0.2-0.7l0.1,0
				l0.3,0.2l0.2,0l0.2,0c0-0.2-0.2-0.6-0.2-0.6c-0.4-0.6-0.8-1.2-1.2-1.8c-0.1-0.3-0.2-0.6-0.2-0.9c0.4-0.1,0.8-0.1,1.2-0.2
				c-0.2-0.3-0.4-0.6-0.7-0.9c-0.3-0.4-0.7-0.6-1-0.9c-0.1-0.1-0.2-0.2-0.2-0.3c-0.1-0.1-0.2-0.2-0.2-0.3l-0.6-1.4
				c0.2-0.1,0.2-0.1,0.6,0.4l0.3,0.2C343.7,247.9,343.8,247.9,343.9,247.9 M279.6,214.5c-0.2-0.3-0.5-0.5-0.8-0.8v0l0,0.1v0.2
				c0.1,0.1,0.4,0.3,0.5,0.4L279.6,214.5L279.6,214.5 M297.4,243.7c-4.9-11.6-10.8-21.3-17.2-28.6c-0.3,0-0.6,0-0.9,0
				c-0.3,0.2-0.8,0.5-2.3-0.3c-0.1,0.1-0.3,0.2-0.4,0.2c-0.1-0.1-0.3-0.2-0.4-0.2c-0.3-0.4-0.4-0.6-0.5-0.7
				c-0.8-0.4-0.8-0.4-1.3-0.1l-0.2,0c-0.5-0.1-0.8-0.1-1-0.1l-0.2,0.1c-0.1,0-0.3-0.1-0.5-0.1c-0.5,0.2-0.6,0.2-0.7,0.2
				c-0.5-0.2-0.7-0.5-1.1-0.8c-0.1,0.1-0.1,0.3-0.2,0.4c-0.1,0-0.4,0-0.5,0l-0.3-0.3h0.5l0.2-0.4c0-0.4,0-0.4-0.1-0.4
				c-0.1-0.1-0.3-0.1-0.4-0.2c-0.1,0.1-0.3,0.1-0.4,0.2c0,0.1,0,0.3,0,0.5c-0.5,0.4-0.8,0.4-1.2,0.4l-0.1,0.1
				c0.1,0.1,0.2,0.2,0.3,0.4c0.1,0.1,0.1,0.2,0.1,0.2l-0.3,0.3c-0.1,0-0.2,0-0.2,0c-0.3,0-0.6,0.1-0.9,0.2c-0.4,0-0.5,0-0.6,0
				c-0.4,0.1-0.5,0.1-0.5,0.1l-0.1,0c0.5-0.4,1.4-1.6,1.4-1.7c0.3,0,0.3,0,0.4,0l0.3-0.3c0.3-0.3,0.4-0.3,0.4-0.3
				c0.1,0,0.3-0.1,0.5-0.1c0-0.1,0-0.3,0-0.5c0.1-0.3,0.3-0.3,0.6-0.3c-0.1-0.1-0.2-0.3-0.3-0.4c0-0.2,0-0.2,0.1-0.2
				c-0.2-0.2-0.4-0.5-0.7-0.7c-0.2-0.2-0.3-0.2-0.3-0.2c-0.4-0.5-1.1-0.6-1.5-1.1c-0.3,0-0.6,0-0.9,0c-0.2-0.1-0.6,0-0.9,0.1
				c-0.3-0.1-0.6-0.3-0.9-0.3c0,0.2,0.1,0.3,0.2,0.5c-0.1,0-0.3,0-0.4,0l-0.2-0.1l0.1-0.2c0-0.1-0.1-0.3-0.2-0.4c-0.2,0-0.5,0-0.7,0
				c-0.1,0-0.3-0.1-0.5-0.1c-0.1-0.1-0.2-0.3-0.2-0.4c0.2-0.2,0.1-0.3,0-0.4c-0.4,0-0.9,0-1.3,0c-0.3,0.1-0.6,0.3-0.9,0.4
				c0,0.4,0,0.4,0,0.4c-0.1,0.1-0.1,0.3-0.2,0.4c0.1,0.1,0.2,0.3,0.3,0.4c-0.4,0-0.9,0-1.3,0c-0.1,0.4-0.1,0.4-0.1,0.4l0,0h0h0l0,0
				h0v0l0,0c-0.1,0.1-0.1,0.1-0.1,0.2c-0.2,0.2-0.2,0.2-1.7-0.1c-0.2,0-0.3,0-0.3,0c-0.1,0-0.3-0.1-0.5-0.1
				c-0.1,0.2-0.4,0.5-0.6,0.7c-0.3,0-0.5,0-0.8,0c-0.4,0.2-0.9,0.4-1.3,0.6c-0.1-0.1-0.3-0.1-0.4-0.2c-1,0.5-3.3,1.7-3.3,1.7
				c0.2,0.2,0.5,0.5,0.7,0.6c0,0.2-0.1,0.2-0.1,0.3c-1.5,0.2-1.5,0.2-1.9,0.4c-0.5-0.2-0.5-0.2-1.4-0.1c-0.4,0.1-0.6,0.1-0.9,0.1
				l-0.5,0.2c-0.5,0.2-0.8,0.2-1.1,0.2c-0.1,0.1-0.3,0.2-0.4,0.3c0.1,0.3,0.2,0.6,0.3,0.9c-0.1,0.2-0.1,0.2-0.1,0.2
				c0,0.1-0.1,0.3-0.1,0.5c0.1,0.1,0.3,0.2,0.4,0.3l0.3,0c0.1,0,0.3,0.1,0.4,0.2c0,0.1,0.1,0.3,0.1,0.5c0,0.1-0.1,0.2-0.1,0.3
				c-0.1,0.1-0.3,0.2-0.4,0.3c-0.5-0.1-0.8-0.4-1.3-0.6l0-0.5c-0.5-0.1-0.9-0.1-1.2-0.1l-0.2-0.4c-1-0.2-1.5,0.4-1.6,0.4
				c0.3,0,0.6,0.2,0.8,0.4c-0.1,0.1-0.3,0.2-0.4,0.3c-0.1-0.1-0.3-0.2-0.4-0.3c-0.3,0-0.4,0-0.4,0c-0.2,0.1-0.6,0.4-0.8,0.6
				c0,0.1,0.1,0.3,0.1,0.5c0.3,0.1,0.3,0.1,0.4,0.1h0h0h0h0h0l0,0h0c0.6,0.3,0.6,0.3,1,1c-0.2-0.1-0.2-0.1-2.2-0.8
				c0-0.1-0.1-0.3-0.1-0.5c0.2-0.3,0.3-0.5,0.4-0.6c0.7-1.4,0.7-1.4,0.7-1.7c-0.3-0.2-0.3-0.2-0.3-0.2h0h0h0h0h0h0h0
				c-0.4,0.8-0.4,0.8-0.7,1.3l-0.1,0.3c-1,0-1.9,0.9-2.1,1.1l-0.1,0.1c0.1,1.7,0.1,1.7-0.8,2.4l-0.1,0.1c-0.1,0.5-0.3,0.9-0.5,1.4
				c0.5,0.4,0.9,0.4,1.2,0.4c0.2-0.2,0.5-0.4,0.8-0.6c0.1,0,0.2,0,0.2,0c1.8,2.1,1.6,2.3,0.5,3c0.1,0.1,0.3,0.3,0.4,0.4
				c0.2,0.2,0.6,0.3,0.8,0.3l-0.1,0.3c-0.1,0-0.3,0.1-0.5,0.2c-0.4,0-0.4,0-0.5,0c-0.2-0.2-0.4-0.5-0.5-0.8c0.2-0.4,0.2-0.5,0.2-0.6
				c0-0.1,0.1-0.3,0.2-0.5l-0.3-0.4c0-0.1,0-0.3,0-0.5c-0.9-0.4-2.8-1.1-4.9,3.5c-0.3,0.1-0.3,0.1-1.9,0.8c-0.2,0.2-0.2,0.3-0.3,0.4
				c-0.5,0.4-0.5,0.4-1.3,0c-0.7-0.2-1.1-0.2-1.6-0.2l-0.2-0.1c1.4-1.2,3.5-0.8,4.8-2.2c0.4-0.1,0.8-0.3,1.8-2.2
				c-0.3,0-0.6-0.1-0.9-0.2c0-0.2,0-0.2,0.9-1.8l0.1-0.2c1-1.3,1-1.3,1.1-2.6c0.3-0.7,0.5-1.2,0.8-1.6c0.2,0,0.4,0,0.6,0l0.8-1.2
				c-0.3-0.1-0.6-0.2-0.9-0.3c-0.2,0-0.3,0-0.4,0c-0.7,0-1.3,0.3-1.9,0.3c-1.1,1.3-2.1,2.2-3,2.6c-0.4,0-0.5,0-0.5,0
				c-0.1,0.1-0.3,0.2-0.4,0.2c-0.2,0.2-0.2,0.3-0.2,0.3c-0.1,0.3,0,0.3,0,0.3c0.1,1.1-0.8,1.3-0.8,1.3c-0.3,0.1-0.5,0.4-0.7,0.7
				c0.6,0.3,0.6,0.5,0.4,1.1c0.1,0.1,0.2,0.3,0.3,0.5c0.2,0.8,0.2,0.8-0.7,1.5c-0.1,0-0.2,0-0.3,0c-0.1,0-0.3,0-0.5,0
				c-0.1-0.1-0.2-0.3-0.3-0.4c0.1-0.2,0.1-0.4,0.2-0.6c-0.9-0.4-0.9-0.4-1.1-0.8c-0.6-0.1-0.7-0.1-1.1-0.8c-0.6-0.3-0.9-0.3-1.2-0.3
				c0-0.1-0.1-0.3-0.1-0.5c-0.4,0-0.7,0-1,0c-0.1-0.3-0.3-0.7-0.5-0.9c0-0.1-0.1-0.3-0.2-0.4c-0.2,0-0.2,0-0.2,0
				c-0.1,0-0.1,0-1.1,1.4c0.1,0.1,0.3,0.2,0.4,0.3c0.2,1.5,0.2,1.5-0.5,2c-0.5,0.1-0.6,0.1-0.6,0.1c-0.5,0.2-0.8,0.8-1.5,0.7
				c0.3-0.4,0.7-0.8,1-1.2c0-0.2-0.1-0.2-0.2-0.2c-0.4,0.1-0.4,0.1-1.2,0.7c-0.4-0.1-0.4-0.1-0.5-0.1c-5.3,5.8-9.8,12.7-13.9,20.5
				C233,244.2,268.4,244.4,297.4,243.7 M189.7,325.7l0.1,0c-0.1-0.6-0.1-1-0.3-1.3c-0.2-0.3-0.6-0.2-0.9-0.4
				c-0.3-0.3-0.3-0.3-0.5-0.8c0-0.2,0-0.5-0.1-0.7c-0.3-0.7-0.8-1.1-1.4-1c0,0-0.8,0-0.3-1c0.3-0.6,0.2-0.9,0.1-1
				c-0.1-0.1-0.7-0.5-0.7-0.5c-0.2,0-0.5,0-0.7,0c-0.1,1.1-0.1,1.1-0.3,1.3c-0.3,3.9-0.5,7.8-0.5,11.8c0.1,0,0.1,0,0.4,0
				c0.2,0,0.3,0,0.4,0c0.1,0,0.2,0,0.4,0c0.1-0.2,0.1-0.6,0.2-0.8c0.6-1.7,0.7-2.1,1.3-2.1l0.2,0c0.1,0.1,0.1,0.3,0.3,0.5
				c0.1,0.1,0.3,0.1,0.4,0.1c0-2.5,0.5-3.5,0.5-3.7c0.1-0.2,0.1-0.2,0.7-0.2C189.1,326,189.3,325.9,189.7,325.7 M310,309.4
				c0-0.4-0.3-0.9-0.5-1.2c-0.4,0-0.9-0.1-1.3-0.2c-0.1-0.4-0.1-0.9-0.1-1.3c0.2-0.3,0.4-0.3,0.6-0.3c-0.4-1.3-1-2.5-1.4-3.7
				c-38.4,0.5-84,0.2-120.6-1.2c-0.6,4.3-1.2,8.6-1.6,13c0.6,1.9,0.6,1.9,1.1,2.1c0.8,0,1.4,0.1,2,0.1c0.1,0,0.1,0,2,1.1
				c0.9,0.1,1.5,0.1,2.1,0.1c0.2,0.1,0.4,0.2,0.6,0.3c1.3,0.1,2.4,0.1,3.4,0.2l2.4-0.4c0.7,0,1.5,0,2.2,0.1c1.1,0.9,1.8,1.4,4.5,5.4
				c0.5,0,0.6,0,0.8,0c0.7,0.1,0.7,0.1,2.5,0.9c-1.9-0.1-2,0.1-2.5,0.7c0.1,0.2,0.2,0.4,0.2,0.6c1.5,0.4,1.8,2.5,3.5,2.7
				c0.6,0.1,2.5-1.9,2.5-1.9c1.9,0.3,2.1,3.4,2.1,5.3c0,0.3,0,0.6,0,1c-0.6,3.7-0.6,3.7,4.3,13.6c0,0.7,0,0.9,0,1
				c-0.4,3.2,2.3,5.2,3.3,7.9c1.4,1.2,1.4,1.2,3.2-2.2c1.9-0.2,2.1-1.2,3-7.9c0-0.8,0-1.6,0-2.5c-0.1-2.3-0.1-2.3,2.7-3
				c1.6-3,5.4-4.2,6.7-7.5c0.4-0.1,0.9-0.2,1.2-0.3c0.3-1,0.5-1.1,1.3-1.3h0.1h0h0h0l0,0h0h0h0c1-0.2,1-0.3,1.3-2.8
				c0.7-0.4,1.4-0.4,2-0.4c0.2,0.1,0.4,0.2,0.6,0.3c0.5,0.1,0.6,0.1,0.7,0.1c0.7-0.4,1.5-0.7,2.2-1.3c0.8-0.4,1.5-0.4,2.2-0.3
				c0-0.4,0-0.9,0-1.3c0.4,0.1,0.9,0.2,1.3,0.3c0.8,1.8,1.2,3.7,2.3,5.3c1.4,1.2,1.4,1.2,1.9,1.8c0,0.2,0,0.4,0,0.5
				c-0.1,0.4-0.1,1-0.1,1.4V334c0.7-0.1,0.9-0.2,1.7,0.5c-0.4,5.3-0.4,5.3,1.5,5.4c0.3,0,0.4,0,0.6,0c0.7-0.4,0.7-0.4,1.8-0.9
				c0.6-0.3,0.6-0.4,0.6-0.6c0-0.1,0-0.3,0-0.5c0.2-0.1,0.4-0.3,0.5-0.4c2.4,0.7,1.2,3.6,2.9,4.8c0.1,0.7,0.1,0.7-0.6,1.8
				c1.5,6,1.5,6,0.5,6.6c-0.2,0.8-0.2,0.8-0.2,2c0,0.1,0,0.3,0,0.4c-1.4,4.9,4.2,6.6,5,10.6c0,0.7,0,1.5-0.1,2.2
				c1.1,3.1,5.8,4.9,5.8,4.9c0.3,0,0.4,0,0.5,0c0.1-0.2,0.2-0.4,0.2-0.6c-0.2-0.3-0.6-0.7-0.9-1c-0.9-1.3-1.1-5.9-1.1-5.9
				c0-0.1,0-0.3,0-0.4c-0.1-0.6-0.1-0.7-0.1-0.8c-0.1-0.8-0.1-1.1-0.1-1.4c-3.8,0.3-3.6-4.1-6.1-5.4c0-0.2-0.1-0.4-0.1-0.6
				c0-0.4,0-0.5,0-0.7c-0.3-0.4-0.8-0.7-1.1-0.9c0-0.7,0-1.5,0-2.2c0.7-1.6,2.8-5.7,2.8-5.7c0.8,0.7,1,1.9,1.9,2.5
				c0.4,0.1,0.5,0.1,0.6,0.1c0.3-0.2,0.9-0.3,1.2-0.2c2.6,4.7,2.6,4.7,4.3,5.1c0.1,0.2,0.3,0.4,0.4,0.6c-0.9,1.5-0.4,2.6,0,3.4
				c0.9-1.2,4-5,4.1-5c0.7,0.1,4.5,0.5,4.5-5.3c0-0.8,0-1.4,0-1.9c0.1-1.5-0.8-2.7-0.8-4.2c-1.1-0.4-1.1-0.4-2.8-2.5
				c-1.3-1.1-1.8-2.8-2.9-4c0.1-1.9,0.1-1.9,1.2-2.6c0.7-3.4,0.7-3.4,6.1-4c0.2,0.2,0.2,0.3,0.2,0.5c-0.1,1.3-0.1,2.1-0.1,2.9
				c-2.2,2.7-2.2,2.7-1.9,3.5c1.4,0.1,2.5,0.1,3.6,0.1c0.1-1.2,0.6-2.3,0.6-3.5c-0.2-0.1-0.5-0.2-0.7-0.3c-0.1-0.9-0.1-1.8-0.1-2.7
				c0.2,0,0.4,0,0.6,0c0.4,0,0.5,0,0.6,0c1.8-1.2,1.8-1.2,2.9-1.4c0.2,0,0.3,0,0.5,0C299.2,327.7,309,316.6,310,309.4 M161.2,239.3
				L161.2,239.3c0.1-0.1-0.4,0.3-1.7,1.7l-0.2,0.2c0.2-0.2,0.5-0.5,0.7-0.7l0,0l0.1-0.1C160.5,240,160.8,239.6,161.2,239.3
				 M150.4,253.4c0.2-0.2,0.3-0.4,0.5-0.7c0.3-0.5,0.6-1,0.9-1.5c-0.3,0.3-0.6,0.6-0.9,1c0-0.2,0-0.2,1.4-1.9l-0.1-0.1
				c0.2-0.2,0.2-0.2,1.6-2.2c0,0,2.8-3.7,3.1-3.9c0.1-0.1,0.2-0.2,0.3-0.4c0.3-0.3,0.7-0.7,1-1c0.4-0.4,0.8-0.8,1.2-1.2l-0.1-0.2
				c0.7-0.7,1.5-1.3,2.1-2l0,0l0,0l-0.1,0l0-0.1c-0.4,0.4-0.8,0.8-1.2,1.2c-1,1.1-1,1.1-1.1,1.1c0.1-0.1,0.2-0.2,0.3-0.4
				c-0.6,0.5-1,1.2-1.6,1.7l-0.3,0.3c-0.6,0.6-1.1,1.2-1.7,1.8l0,0l0.1-0.1c-0.2,0.2-0.3,0.4-0.5,0.6v0c0.2-0.2,0.4-0.4,0.6-0.6
				c-0.7,0.9-1.4,1.6-2.1,2.5l0,0.1l0.3-0.3c-0.5,0.8-1.2,1.4-1.7,2.2c-0.5,0.5-0.8,1.2-1.3,1.6c0-0.1,0.1-0.2,0.2-0.3l0,0
				c-0.1,0.1-0.2,0.2-0.3,0.3l-0.3,0.3c-0.4,0.5-0.4,0.5-0.4,0.6l0.1,0c-0.1,0.1-0.1,0.1-0.5,0.7l0,0c-0.2,0.2-0.3,0.4-0.5,0.6l0,0
				l0,0l0,0l0,0v0h0v0v0c-0.6,0.8-0.7,1-0.7,1c0.1-0.2,0.1-0.2,0.2-0.2c-0.7,1.1-0.7,1.1-1.2,1.6l-0.1,0.1c-0.1,0.1-1.2,1.6-1.3,1.8
				l0.1-0.1c0.1-0.2,0.2-0.3,0.4-0.5l-0.1,0.3l0,0.1c0.2-0.3,0.4-0.6,0.6-0.9l0,0.1l0.1-0.1l0,0.1l0.1,0.1c0.2-0.2,0.3-0.4,0.5-0.6
				c-0.1,0.2-0.2,0.4-0.3,0.7l0,0l0.2,0c0.2-0.2,0.3-0.4,0.5-0.6l0.1,0l0.1-0.1c0.3-0.4,0.5-0.8,0.8-1.2l0.1-0.2
				C149.7,254.1,150,253.8,150.4,253.4L150.4,253.4 M153.4,247.7L153.4,247.7L153.4,247.7L153.4,247.7L153.4,247.7 M153.1,248.3
				c0.8-1,1-1.2,1.7-2.1v0c-0.2,0.2-0.4,0.4-0.6,0.6c0.2-0.2,0.3-0.4,0.5-0.6l0,0c-1.2,1.4-1.2,1.4-5.4,6.7l-0.8,1.1v0
				c0.3-0.3,0.5-0.7,0.8-1l-0.1,0.2c0.1-0.2,0.2-0.3,0.4-0.5c0.8-1.1,2.4-3.1,2.5-3.1c0.2-0.2,0.4-0.4,0.5-0.7
				C152.7,248.7,152.7,248.7,153.1,248.3 M183.4,399.6c0-0.1-0.1-0.2-0.1-0.4c-1.9-4.6-1.9-4.6-4-5.3c0.5,1.4,0.5,1.4,0.5,1.6
				c0,0-0.3,0.8-0.9,1.4c-0.6,0.6,0.4,1.1,0.2,1.7c-0.4,0-0.4,0-0.5,0.1c0,0.5,0.5,0.9,0,1.4c-2.6-0.1-2.6-0.1-3,0.4
				c-0.1,0.1-0.1,0.1,0.4,1.2c0.1,0.2,0.1,0.2,0.1,1.3c0,0,0.9,2.3,1.6,2.8c0.1,0.1,0.5,0.4,1,1.6l-0.1,0.1
				c-0.4-0.1-0.4-0.1-0.5-0.1c0,1.2,0.6,2.2,0.8,3.3c0.1,0.1,0.1,0.2,0.2,0.3c0.3,0.6,0.9,1.1,1.3,1.6c0.1,0.2,0.2,0.4,0.4,0.6
				c0.8,1.1,0.8,1.1,1.2,1.8c0.5,0.1,1-0.1,1.5,0.1c0.3,0.1,0.3,0.5,0.6,0.6c0.2,0.1,2.4,0.4,2.5-0.1c0.4-1.6-1-2.4-1.4-3.7
				c-0.3-0.7,0.2-1.5-0.1-2.2c-0.4-0.8-0.9-1.5-1.2-2.4l0.2-0.2c0,0,1-0.8,1-1c0-0.9-1-1.2-1.3-2c-0.2-0.5,0-1-0.1-1.5
				c-0.1-0.2-0.2-0.5-0.3-0.7c-0.1-0.2-0.3-0.5-0.4-0.7c0-0.1-0.1-0.2-0.1-0.3l0-0.2C183.5,400.4,183.5,400.4,183.4,399.6
				 M173.4,349.3c0-0.6-0.1-1.1-0.5-1.8c-2.2-0.5-3.7,2.4-6,1.3c-0.2,0-0.5,0-0.7,0c-2,0.2-2.4,0.2-3.6-0.4c-0.9-2-0.9-2-0.9-2.7
				c-0.2-0.1-0.5-0.3-0.6-0.5c-0.7-2.4-0.7-2.4-1.9-2.7c-6.7-11.4-6.7-11.4-6.3-13.2c0-0.3,0-0.6,0-1.6c-0.9-16.1-4.8-24.6-5.3-25.6
				c-0.1,0-0.1,0-0.9,0.3c-0.2,0.1-0.5,0.3-0.7,0.5l-0.2,0c-1.2-0.5-2.7-1.4-4-1.6c-1-3-1-3-1.7-3.5c-0.2,0.1-0.5,0.2-0.7,0.3
				c-0.2-0.1-0.5-0.2-0.7-0.3c-1.3,5.1-1.3,5.1-1.8,5.5c-0.1,0-0.2,0-0.4,0c-0.3-0.7-0.3-1.4-0.8-2.1c-0.5-0.1-0.9-0.1-1.3-0.9
				c0.4-2.4-0.4-2.8-1.2-3.2c-0.7-3.6,3-6.4,2.1-10.1c-0.6,0.2-1.1,0.6-1.8,0.6c-0.2,0.2-0.4,0.4-0.6,0.6c0.1-0.4,0-1.1-0.1-1.5
				c-0.3,0.3-0.7,0.9-0.9,1.3c-0.2-0.1-0.3-0.1-0.6,0.2c-0.5,1.4-0.5,1.4-1.1,2c0,0,0,0,0-0.3c0,0,0,0,0-0.3
				c0.1-0.2,0.1-0.5,0.2-0.7c0-0.1,0.1-0.3,0.1-0.4c-0.4,1.1-0.5,1.4-1.2,3.7c-1.4,4.9-2.9,11.5-3.9,16.4c-1.2,6.9-1.2,6.9-1.8,21.1
				c0,3.5,0.3,8.1,0.5,11.6c0.4,4.2,1.3,9.8,2,14l0-0.1c0,0,0,0,0.1,0.3c0.1,0.2,0.3,0.4,0.4,0.6c-0.1-0.4,0.1-1,0.3-1.3
				c0,0,0,0,0.1-0.4c0.1-0.2,0.3-0.4,0.4-0.6c0.9,3.7,0.9,3.7,1.4,4.4c0.5,0.1,1,0.3,1.6,0.4c0.2,0.9,0.4,1.7,0.5,2.6
				c1.4,8.6,6.5,15.8,9.3,23.8c0.1,0.3,0.2,0.5,0.3,0.8c8.3,17.6,8.3,17.6,14.7,24.2c0.8,1.1,1.7,2.2,2.5,3.3
				c4,4.7,11.7,11.4,11.7,11.5l0.3,0.3c0.6,1,0.7,1.1,1.5,1.7c0.1,0,0.2,0,0.5,0.3c0.7,0.7,0.8,0.8,1.9,1.4c0.4,0,0.7,0.1,1.4-0.4
				c0.5,0.1,1.1,0.1,1.4-0.3c-0.1-0.4,0-1,0.2-1.4l-5.4-10.9c0.2-0.1,0.5-0.1,0.7-0.2c0-1.9,0-1.9,0.2-2.3
				c-4.3-6.4-4.3-6.4-4.6-10.6c0.3-0.3,0.9-0.6,1.4-0.6c0.9-1.4,0.9-1.4,0.1-4.8c-0.2-0.4-0.3-0.7-0.7-1.6c-0.2-0.4-0.5-1-0.8-1.3
				c-0.6-1.5-1.1-2.9-2.1-4.8c-1.9-2.1-2.1-5.1-3.7-7.4c0-0.1-0.1-0.3-0.2-0.9c-0.1-0.4-0.2-1-0.3-1.4l6.3-14.9
				C172.4,362.3,173.3,354,173.4,349.3 M243.9,200.7L243.9,200.7l-0.2,0L243.9,200.7 M237,201.6c-0.6,0.1-1.2,0.2-1.8,0.2
				c-0.1,0-0.1,0-0.1,0c-0.7,0.1-1.4,0.2-2,0.3v0c0.2,0,0.3-0.1,0.5-0.1c-0.7,0.1-0.8,0.1-1.1,0.2l-0.1,0l-0.5,0.1
				c-2.9,0.5-3.4,0.6-5.4,1c-0.1,0-0.1,0-0.1,0c-0.4,0.1-0.9,0.2-1.3,0.3c-0.1,0-0.1,0-0.1,0c-1.4,0.3-2.3,0.6-2.8,0.7
				c-0.6,0.2-1.3,0.3-1.9,0.5c0.4-0.1,0.7-0.2,1.1-0.3c-0.6,0.1-1.6,0.4-1.8,0.5l0,0l0.2-0.1c-0.5,0.1-0.9,0.2-1.3,0.4
				c-0.1,0-0.1,0-0.2,0l0.2,0c-0.3,0.1-0.6,0.2-0.9,0.3c-0.2,0.1-0.3,0.1-0.4,0.1c-0.2,0.1-0.5,0.2-0.8,0.2
				c-0.2,0.1-0.3,0.1-0.5,0.2l0.5-0.2l0.2-0.1c5.8-1.6,12.4-3.4,24.5-4.9l-0.1,0c0.2,0,0.4,0,0.6-0.1l0.2,0l0.2,0l0.2,0
				c0.2,0,0.4,0,0.6-0.1c0.1,0,0.3,0,0.5,0l0.1,0l0.1,0l0,0l0.1,0l0.1,0l0.1,0c0.2,0,0.4,0,0.6-0.1l0.2,0c0.2,0,0.4,0,0.5,0l0.2,0
				l0.1,0l-0.1,0l-0.1,0h-0.1l-0.1,0h0l-0.1,0l-0.1,0l0,0h0l-0.2,0l-0.2,0l-0.1,0c0.4,0,0.7-0.1,1.1-0.1l0.2,0l0.2,0l0.2,0l0.1,0
				l0.1,0l0.2,0c0.3,0,0.5,0,0.8,0h0l0.1,0l-0.2,0l0.2,0l-0.2,0c-0.1,0-0.1,0-0.1,0c0.2,0,0.4,0,0.5,0c-0.4,0-0.7,0-1,0.1l-0.1,0
				c-0.1,0-0.3,0-0.4,0c0.7,0,1.4-0.1,2.1-0.1l0,0c-0.1,0-0.1,0-0.1,0c0.3,0,0.5,0,0.8,0c-0.1,0-0.3,0-0.4,0c-0.1,0-0.1,0-0.1,0
				c-0.2,0-0.4,0-0.6,0h0c-0.4,0-0.9,0-1.3,0.1c0,0,0.1,0,0.3,0c-0.3,0-0.5,0-0.8,0l0.1,0l-0.5,0l-0.1,0c0.1,0,0.3,0,0.4,0l0,0l0,0
				l0,0l-0.1,0c-0.2,0-0.4,0-0.6,0c-0.2,0-0.2,0-0.2,0l0.2,0c0.1,0,0.1,0,0.1,0c-0.6,0-1.1,0.1-1.7,0.1l0,0l0.2,0l-0.1,0
				c-0.3,0-0.6,0.1-1,0.1c-0.4,0-0.7,0.1-1.1,0.1l0.1,0c-0.2,0-0.3,0-0.5,0c0,0,0.1,0,0.3,0c-0.3,0-1,0.1-2.2,0.2l0.3,0l0,0l0,0h0
				l0,0l0,0l0,0h0h0c0.2,0,0.2,0,0.2,0l0,0l0,0l0,0l0,0h0l0,0h0c0.2,0,0.5,0,0.7-0.1l-0.2,0l-0.1,0l0.2,0c-0.2,0-0.5,0.1-0.7,0.1
				l-0.3,0l0,0c-0.5,0.1-1,0.1-1.5,0.2c0.2,0,0.3,0,0.5-0.1l-0.2,0c0.7-0.1,1.5-0.2,2.3-0.3l-0.2,0l0,0c-0.8,0.1-1.6,0.2-2.4,0.3
				c-0.5,0.1-0.8,0.1-1.1,0.1c-1,0.1-1.9,0.2-3.1,0.5c1.1-0.2,1.6-0.2,2.5-0.4h0h0l0,0l0,0h0l0,0l0,0l0,0
				C236.1,201.6,236.6,201.5,237,201.6c-0.2,0-0.4,0-0.6,0c0.7,0,1.4-0.2,2.1-0.2c0.1,0,0.1,0,0.1,0h0l0,0l0,0l0,0l0.2,0
				c-0.1,0-0.3,0-0.4,0.1c-0.1,0-0.2,0-0.4,0c0.1,0,0.3,0,0.4,0C237.8,201.5,237.4,201.5,237,201.6"/>
		</g>
	</g>
	<g>
		<polygon fill="#38414A" points="347.4,187.8 347.4,255.6 254.3,311.5 254.3,245.4 		"/>
		<polygon fill="#424B57" points="254.3,245.4 254.3,311.5 161.2,255.6 161.2,187.8 		"/>
		<polygon points="403.3,153.2 347.4,187.8 254.3,245.4 161.2,187.8 105.3,153.2 254.3,61 		"/>
		<path fill="#808285" d="M403.3,268.6c-2.3,0-4.1-1.9-4.1-4.1V157.3H254.3c-2.3,0-4.1-1.9-4.1-4.1c0-2.3,1.9-4.1,4.1-4.1h149
			c2.3,0,4.1,1.8,4.1,4.1v111.3C407.4,266.8,405.6,268.6,403.3,268.6z"/>
		<path d="M403.3,256.2c9.1,0,16.6,7.4,16.6,16.6c0,9.2-7.4,16.6-16.6,16.6c-9.1,0-16.6-7.4-16.6-16.6
			C386.7,263.6,394.2,256.2,403.3,256.2z"/>
	</g>
</g>
</svg>
