<?xml version="1.0" encoding="utf-8"?>
<!-- Generator: Adobe Illustrator 18.0.0, SVG Export Plug-In . SVG Version: 6.00 Build 0)  -->
<!DOCTYPE svg PUBLIC "-//W3C//DTD SVG 1.1//EN" "http://www.w3.org/Graphics/SVG/1.1/DTD/svg11.dtd">
<svg version="1.1" id="Layer_1" xmlns="http://www.w3.org/2000/svg" xmlns:xlink="http://www.w3.org/1999/xlink" x="0px" y="0px"
	 viewBox="0 0 512 512" enable-background="new 0 0 512 512" xml:space="preserve">
<g>
	<g>
		<path fill-rule="evenodd" clip-rule="evenodd" fill="#010101" d="M405,142.1c-14.2-13.6-30.9-24.6-49.3-32.2
			c-19.3-7.9-39.5-11.7-60.3-11.7c-20.8,0-41.4,3.8-60.3,11.7c-18.6,7.6-35.1,18.6-49.3,32.2c-14.2,13.9-25.6,30-33.2,48
			c-8.2,18.6-12.3,38.2-12.3,58.4c0,20.5,4.1,40.1,12.3,58.7c7.6,18,19,34.1,33.2,47.7c14.2,13.9,30.6,24.6,49.3,32.2
			c19,7.9,39.5,12,60.3,12c20.8,0,41.4-4.1,60.3-12c18.6-7.6,35.1-18.3,49.3-32.2c14.2-13.6,25.6-29.7,33.2-47.7
			c8.2-18.6,12.3-38.2,12.3-58.7c0-20.2-4.1-39.8-12.3-58.4C430.3,172.1,419.2,156,405,142.1L405,142.1z M209.5,132
			c1.6-0.9,2.8-1.9,4.4-3.2c7.3-5.1,15.8-9.2,24.3-12.6c18-7.3,37.6-11,57.2-11c12.9,0,26.5,1.6,39.2,5c-5.1,1.9-11.4,5.7-21.5,14.2
			c-8.5-0.9-17.1-0.9-25.6-0.3c-11.4,1.3-22.7,3.5-33.8,7.3c-10.1,3.5-18,7.3-23.4,10.4c-8.2-2.8-18.6-6.3-23.7-7.9
			C207.3,134.2,208.9,132.6,209.5,132L209.5,132z M350.7,169.5L324.2,240l-63.5,11.7c-36-36-70.4-49.3-32.2-97.6
			c0.3,0,11-7.9,28.7-13.9c10.4-3.5,20.8-5.7,31.3-6.6c8.5-0.6,17.1-0.6,25.6,0.3L350.7,169.5z M153.3,243.4
			c-1.9,10.4-2.2,20.8-1.3,31.6c-1.3-2.5-2.2-4.4-3.1-6.3c-0.9-6.6-1.3-13.3-1.3-20.2c0-21.2,4.7-41.4,13.3-59.4
			c-0.9,9.5-0.6,19.2,0,26.8C157.4,224.8,154.6,234,153.3,243.4L153.3,243.4z M165.9,298.4c-1.3-5.4-3.2-13.3-4.1-22.4
			c-0.9-10.7-0.6-21.2,0.9-31.3c1.3-7.6,3.2-14.8,6-22.1c39.2-32.2,52.7,3.5,84.3,35.4l-5.4,56.5C201.3,329.7,196.9,342,165.9,298.4
			L165.9,298.4z M268,389.7c-12.6-2.2-24.9-6.3-36.6-11.7c-10.1-4.7-19.6-10.7-28.4-17.7c14.2-24.6-20.8-14.5,49.6-37.3l58.7,24.6
			C321.9,391.2,323.5,387.8,268,389.7L268,389.7z M417,330.3c-8.8,12.3-19.2,23.7-31.9,32.5c-43.9,30-55.6,17.7-64.4-17.7l41.4-42
			c47.4-4.1,54-17.4,57.5,23.7C418.6,328.1,417.7,329,417,330.3L417,330.3z M362.7,293.7l-29.4-49.9l26.5-70.4l37.6,2.5
			c7.9,6.3,14.8,13.6,20.8,21.2c7.6,9.8,13.3,20.5,17.4,31.9C427.4,299.7,424.3,288.3,362.7,293.7L362.7,293.7z M437.2,208.7
			c-3.2-6-6.9-12-11.1-17.4c-6.9-8.8-14.8-16.7-24-24c-1.6-7.9-6-20.5-18.3-33.8c0.3,0,0.3,0.3,0.6,0.3c0.6,0.6,1.6,1.3,2.2,1.9
			c8.5,6.3,16.1,13.6,23,21.8c12.6,14.8,22.1,32.2,27.8,50.8C437.2,208.4,437.2,208.7,437.2,208.7L437.2,208.7z"/>
	</g>
</g>
</svg>
