<?xml version="1.0" encoding="utf-8"?>
<!-- Generator: Adobe Illustrator 18.0.0, SVG Export Plug-In . SVG Version: 6.00 Build 0)  -->
<!DOCTYPE svg PUBLIC "-//W3C//DTD SVG 1.1//EN" "http://www.w3.org/Graphics/SVG/1.1/DTD/svg11.dtd">
<svg version="1.1" id="Layer_1" xmlns="http://www.w3.org/2000/svg" xmlns:xlink="http://www.w3.org/1999/xlink" x="0px" y="0px"
	 viewBox="0 0 512 512" enable-background="new 0 0 512 512" xml:space="preserve">
<g>
	<g>
		<g>
			<g>
				<g>
					<path d="M405,155.6c0-9.6-6.9-17.3-15.5-17.3H134.4c-8.6,0-15.5,7.8-15.5,17.3v148.3H405V155.6z"/>
					<path d="M118.9,303.9v22.6c0,9.6,6.9,17.3,15.5,17.3h255.1c8.6,0,15.5-7.8,15.5-17.3v-22.6H118.9z"/>
				</g>
				<path fill="#808285" d="M297.5,381.9c-10.5-6.1-10.3-18.6-10.3-18.6v-19.5H262h-25.2v19.5c0,0,0.3,12.5-10.3,18.6h-3.1v3.8H262
					h38.5v-3.8H297.5z"/>
				<rect x="223.4" y="381.9" fill="#B7C3C3" width="77.1" height="3.8"/>
			</g>
			<g>
				<polygon fill="#363838" points="133.3,154.9 133.3,289.9 184.5,289.9 291.1,154.9 				"/>
				<polygon fill="#505050" points="390.7,154.9 291.1,154.9 184.5,289.9 390.7,289.9 				"/>
			</g>
		</g>
	</g>
	<g>
		<g>
			<path fill="#58595B" d="M151.4,381.6c-3.6,3.6-9.5,3.6-13.1,0l-11.9-11.9c-3.6-3.6-3.6-9.5,0-13.1l35.3-35.3
				c3.6-3.6,9.5-3.6,13.1,0l11.9,11.9c3.6,3.6,3.6,9.5,0,13.1L151.4,381.6z"/>
			<polygon fill="#414042" points="210,312.9 195.1,298 173.3,319.8 188.2,334.7 			"/>
			<path fill="#C0E6E9" d="M210.6,241.4c16.6-16.6,43.4-16.6,60,0c7.2,7.2,11.3,16.4,12.2,25.8c-0.1-10.7-4.2-21.4-12.4-29.6
				c-16.6-16.6-43.4-16.6-60,0c-9.3,9.3-13.4,21.9-12.2,34.1C198.1,260.7,202.3,249.7,210.6,241.4z"/>
			<path fill="#808285" d="M270.4,297.6c8.4-8.4,12.5-19.4,12.4-30.4c-0.9-9.4-5-18.6-12.2-25.8c-16.6-16.6-43.4-16.6-60,0
				c-8.4,8.4-12.5,19.4-12.4,30.4c0.9,9.4,5,18.6,12.2,25.8C227,314.1,253.8,314.1,270.4,297.6z"/>
			<path fill="#FFFFFF" d="M283,225c-23.5-23.5-61.7-23.5-85.2,0c-23.5,23.5-23.5,61.7,0,85.2c23.5,23.5,61.7,23.5,85.2,0
				C306.5,286.7,306.5,248.5,283,225z M210.4,297.6c-16.6-16.6-16.6-43.4,0-60c16.6-16.6,43.4-16.6,60,0c16.6,16.6,16.6,43.4,0,60
				C253.8,314.1,227,314.1,210.4,297.6z"/>
		</g>
		<path fill="#FFFFFF" d="M263,260.1h-15.1V245c0-3-2.4-5.5-5.5-5.5h-4.1c-3,0-5.4,2.4-5.4,5.5v15.1h-15.1c-3,0-5.5,2.4-5.5,5.5v4.1
			c0,3,2.4,5.5,5.5,5.5h15.1v15.1c0,3,2.4,5.4,5.4,5.4h4.1c3,0,5.5-2.4,5.5-5.4v-15.1H263c3,0,5.4-2.4,5.4-5.5v-4.1
			C268.4,262.5,266,260.1,263,260.1z"/>
		<path fill="#414042" d="M137.6,369.4c-1.7,1.7-4.4,1.7-6,0l-3.9-3.9c-1.7-1.7-1.7-4.4,0-6l25.6-25.6c1.7-1.7,4.4-1.7,6,0l3.9,3.9
			c1.7,1.7,1.7,4.4,0,6L137.6,369.4z"/>
	</g>
</g>
</svg>
