<?xml version="1.0" encoding="utf-8"?>
<!-- Generator: Adobe Illustrator 18.0.0, SVG Export Plug-In . SVG Version: 6.00 Build 0)  -->
<!DOCTYPE svg PUBLIC "-//W3C//DTD SVG 1.1//EN" "http://www.w3.org/Graphics/SVG/1.1/DTD/svg11.dtd">
<svg version="1.1" id="Layer_1" xmlns="http://www.w3.org/2000/svg" xmlns:xlink="http://www.w3.org/1999/xlink" x="0px" y="0px"
	 viewBox="0 0 512 512" enable-background="new 0 0 512 512" xml:space="preserve">
<g>
	<g>
		<g>
			<rect x="228.5" y="142.5" fill="#40C0CD" width="42.1" height="13.1"/>
		</g>
		<g>
			<path fill="#6D6E71" d="M265.8,137.2h-32.4c-0.5,3.6-2.5,14.3-6,17.2c0.3,34.7,44.8,34.5,44.3,0
				C268.3,151.5,266.3,140.9,265.8,137.2z"/>
		</g>
		<g>
			<path fill="#BCBEC0" d="M249.6,76.4l-28.7,17.7l5.7,40.4c0,0,9.6,13.4,23.1,13.4c13.5,0,23.1-13.4,23.1-13.4l5.7-40.4L249.6,76.4
				z"/>
		</g>
		<g>
			<path fill="#6D6E71" d="M262.9,155.9l-13.3-1.5l-13.3,1.5l-14.4,11.9c5,15.3,20.2,33.1,27.8,40.3c7.6-7.2,22.8-25,27.8-40.3
				L262.9,155.9z"/>
		</g>
		<g>
			<g>
				<path fill="#A7A9AC" d="M224.2,110.4c-5.3-4.5-9.1,1-3,10.5c0,0-0.5,3.1,3.9,3.1L224.2,110.4z"/>
			</g>
			<g>
				<path fill="#A7A9AC" d="M274.9,110.4c5.3-4.5,9.1,1,3,10.5c0,0,0.5,3.1-3.9,3.1L274.9,110.4z"/>
			</g>
		</g>
		<g>
			<g>
				<path fill="#58595B" d="M223,112.4c0,0-1.3-0.6-2.3,0c0,0-1.2,0.6-0.4,2.3l1.8,4.8c0,0,1.2-0.5,2.1,0
					C224.6,116.4,218.7,113.5,223,112.4z"/>
			</g>
			<g>
				<path fill="#58595B" d="M276.2,112.4c0,0,1.3-0.6,2.3,0c0,0,1.3,0.6,0.4,2.3l-1.8,4.8c0,0-1.2-0.5-2.1,0
					C274.5,116.4,280.5,113.5,276.2,112.4z"/>
			</g>
		</g>
		<g>
			<g>
				<polygon fill="#808285" points="254.5,169 244.1,169 239.7,211.6 245.1,221.2 249.3,222.4 253.4,221.2 258.8,211.6 				"/>
			</g>
			<g>
				<polygon fill="#808285" points="256.1,154.4 242.4,154.4 238.5,159.9 244.1,169 254.5,169 260,159.9 				"/>
			</g>
		</g>
		<g>
			<path d="M222.3,109.1l2.9,9.2h3.3l-2.6-23.1c4.4-7,12.3-6.8,23.7-5.6c11.4-1.2,19.3-1.4,23.7,5.6l-2.6,23.1h3.3l2.9-9.2
				C298.4,57.4,200.7,57.4,222.3,109.1z"/>
		</g>
		<g>
			<g>
				<g>
					<path fill="#6D6E71" d="M216.1,149.5c0,0-29.1,8-34.7,24.4l-1.7,54.9h25.1l3.9-36.1l1.1,36.1h39.7v-20.7l-9.4-12l-4.1-11.6
						L216.1,149.5z"/>
				</g>
				<g>
					<path fill="#6D6E71" d="M283.1,149.5c0,0,29.1,8,34.7,24.4l1.7,54.9h-25.1l-3.9-36.1l-1.1,36.1h-39.7v-20.7l6.9-8.6l5.7-13.4
						L283.1,149.5z"/>
				</g>
			</g>
			<g>
				<circle fill="#6D6E71" cx="256.4" cy="212.7" r="2"/>
			</g>
		</g>
		<g>
			<g>
				<polygon fill="#58595B" points="270.6,142.5 249.6,154.4 263.2,169.3 279.1,152 				"/>
			</g>
			<g>
				<polygon fill="#58595B" points="228.5,142.5 249.6,154.4 235.9,169.3 220,152 				"/>
			</g>
		</g>
		<g>
			<g>
				<path d="M274.2,144c-3.6,11.9-7.9,41.4-24.6,64.1c0,0,19.7-7.1,32.3-24.9c-3.8-4.1-7.5-8.1-7.5-8.1l19.6-22.8L274.2,144z"/>
			</g>
			<g>
				<path d="M224.9,144c3.6,11.9,7.9,41.4,24.6,64.1c0,0-19.7-7.1-32.3-24.9c3.8-4.1,7.5-8.1,7.5-8.1l-19.6-22.8L224.9,144z"/>
			</g>
		</g>
		<g>
			<rect x="272.4" y="203.6" fill="#FFFFFF" width="13.3" height="4"/>
		</g>
	</g>
	<g>
		<rect x="177.3" y="249.9" fill="#58595B" width="144.6" height="147.1"/>
	</g>
	<g>
		<rect x="177.3" y="249.9" fill="#A7A9AC" width="144.6" height="22.2"/>
	</g>
	<g>
		<rect x="163.9" y="226.3" fill="#D1D3D4" width="171.3" height="34.1"/>
	</g>
	<g>
		<g>
			<g>
				<path d="M145.7,244c-0.8,6.4-10.4,5.1-9.6-1.2l4.9-42.3c0.8-6.2,10.4-5.1,9.6,1.2L145.7,244z"/>
			</g>
			<g>
				<path d="M135,240.7c-0.2,6.4-9.8,6.1-9.6-0.3l1-34.7c0.2-6.2,9.8-6.2,9.6,0.3L135,240.7z"/>
			</g>
			<g>
				<path d="M147.4,242.3c-1.4,6.5,8.2,8,9.4,2l7.1-34c1.3-6.4-8.2-8.1-9.4-2L147.4,242.3z"/>
			</g>
			<g>
				<path d="M155.6,255c-1.5,5.4,6.5,7.3,7.9,2.2l9.3-36.1c1.5-5.3-6.5-7.3-7.9-2.2L155.6,255z"/>
			</g>
			<g>
				<path d="M156.2,283.3c-1.6,6.8-2.4,19.5-2.4,19.5l-30.4-2c0.4-13.1,0.9-17-1.1-21c-12.3-9.6-13.3-27.6-17.8-39.1
					c-2.2-5.7-4.1-10.1-4.1-10.1s5.2-5.3,10.1,1.6c4.8,6.9,7.7,24,11.6,20.5c2-1.8,3.4-15.2,3.4-15.2s16.1,0.9,25.1,3.1
					c9,2.3,13.9,5.2,13.9,5.2S164.9,282.3,156.2,283.3z"/>
			</g>
		</g>
		<g>
			<rect x="117" y="287.2" transform="matrix(0.9943 0.1065 -0.1065 0.9943 32.5504 -13.0161)" width="42.2" height="21.9"/>
		</g>
		<g>
			<polygon points="161.9,300.7 151.6,397 103.4,397 114.3,295.6 			"/>
		</g>
		<g>
			<circle cx="154.1" cy="310.2" r="2.9"/>
		</g>
		<g>
			<circle cx="153.1" cy="319.1" r="2.9"/>
		</g>
	</g>
	<g>
		<g>
			<g>
				<path d="M191.6,265.8c0.1,6.5,9.8,6.2,9.6-0.2l-0.4-42.5c-0.1-6.3-9.8-6.2-9.6,0.2L191.6,265.8z"/>
			</g>
			<g>
				<path d="M202.6,263.6c-0.5,6.4,9.1,7.1,9.6,0.8l2.7-34.6c0.5-6.1-9.1-7.2-9.6-0.8L202.6,263.6z"/>
			</g>
			<g>
				<path d="M190.2,263.9c0.7,6.6-9,7.1-9.6,1l-3.5-34.5c-0.7-6.5,9-7.1,9.6-1L190.2,263.9z"/>
			</g>
			<g>
				<path d="M180.7,275.6c0.9,5.5-7.2,6.6-8.1,1.3l-5.4-36.9c-0.9-5.4,7.2-6.5,8.1-1.3L180.7,275.6z"/>
			</g>
			<g>
				<path d="M177.1,303.6c0.9,6.9,0.3,19.6,0.3,19.6l30.4,1.2c1-13.1,1-17,3.3-20.8c13.3-8.2,16.2-26,21.8-37
					c2.8-5.4,5.2-9.6,5.2-9.6s-4.6-5.8-10.2,0.5c-5.5,6.3-10.2,23-13.7,19.1c-1.8-2-1.8-15.5-1.8-15.5s-16.1-0.8-25.3,0.4
					c-9.2,1.3-14.4,3.7-14.4,3.7S168.5,301.8,177.1,303.6z"/>
			</g>
		</g>
		<g>
			<rect x="172.4" y="309.4" width="42.2" height="21.9"/>
		</g>
		<g>
			<rect x="169.5" y="320.4" width="48" height="76.6"/>
		</g>
		<g>
			<path d="M173.4,330.6c0,1.6,1.3,2.9,2.9,2.9c1.6,0,2.9,0.3,2.9-1.3c0-1.6-1.3-4.5-2.9-4.5C174.7,327.8,173.4,329,173.4,330.6z"/>
		</g>
		<g>
			<circle cx="176.3" cy="339.6" r="2.9"/>
		</g>
	</g>
	<g>
		<g>
			<g>
				<path d="M257.3,284.1c-0.1,6.5-9.7,6.2-9.6-0.2l0.4-42.5c0.1-6.3,9.8-6.2,9.6,0.2L257.3,284.1z"/>
			</g>
			<g>
				<path d="M246.3,281.9c0.5,6.4-9.1,7.1-9.6,0.8l-2.7-34.6c-0.5-6.1,9.1-7.2,9.6-0.8L246.3,281.9z"/>
			</g>
			<g>
				<path d="M258.7,282.2c-0.7,6.6,9,7.1,9.6,1l3.5-34.5c0.7-6.5-9-7.1-9.6-1L258.7,282.2z"/>
			</g>
			<g>
				<path d="M268.2,293.9c-0.9,5.5,7.2,6.6,8.1,1.3l5.4-36.9c0.9-5.4-7.2-6.5-8.1-1.3L268.2,293.9z"/>
			</g>
			<g>
				<path d="M271.8,322c-0.9,6.9-0.3,19.6-0.3,19.6l-30.4,1.2c-1-13.1-1-17-3.3-20.8c-13.3-8.2-16.1-26-21.8-37
					c-2.8-5.4-5.2-9.6-5.2-9.6s4.6-5.8,10.2,0.5c5.5,6.3,10.2,23,13.7,19.1c1.8-2,1.8-15.5,1.8-15.5s16.1-0.8,25.3,0.4
					c9.2,1.3,14.4,3.7,14.4,3.7S280.4,320.1,271.8,322z"/>
			</g>
		</g>
		<g>
			<rect x="234.3" y="327.8" width="42.2" height="21.9"/>
		</g>
		<g>
			<g>
				<rect x="232.2" y="336.4" width="48" height="60.6"/>
			</g>
		</g>
		<g>
			<path d="M275.5,348.9c0,1.6-1.3,2.9-2.9,2.9c-1.6,0-2.9,0.3-2.9-1.3c0-1.6,1.3-4.5,2.9-4.5C274.2,346.1,275.5,347.4,275.5,348.9z
				"/>
		</g>
		<g>
			<circle cx="272.6" cy="357.9" r="2.9"/>
		</g>
	</g>
	<g>
		<g>
			<g>
				<path d="M317.3,260.8c-0.1,6.5-9.7,6.2-9.6-0.2l0.4-42.5c0.1-6.3,9.8-6.2,9.6,0.2L317.3,260.8z"/>
			</g>
			<g>
				<path d="M306.3,258.6c0.5,6.4-9.1,7.1-9.6,0.8l-2.7-34.6c-0.5-6.1,9.1-7.2,9.6-0.8L306.3,258.6z"/>
			</g>
			<g>
				<path d="M318.8,258.9c-0.7,6.6,9,7.1,9.6,1l3.5-34.5c0.7-6.5-9-7.1-9.6-1L318.8,258.9z"/>
			</g>
			<g>
				<path d="M328.3,270.6c-0.9,5.5,7.2,6.6,8.1,1.3l5.4-36.9c0.9-5.4-7.2-6.5-8.1-1.3L328.3,270.6z"/>
			</g>
			<g>
				<path d="M331.9,298.6c-0.9,6.9-0.3,19.6-0.3,19.6l-30.4,1.2c-1-13.1-1-17-3.3-20.8c-13.3-8.2-16.1-26-21.8-37
					c-2.8-5.4-5.2-9.6-5.2-9.6s4.6-5.8,10.2,0.5c5.5,6.3,10.2,23,13.7,19.1c1.8-2,1.8-15.5,1.8-15.5s16.1-0.8,25.3,0.4
					c9.2,1.3,14.4,3.7,14.4,3.7S340.5,296.8,331.9,298.6z"/>
			</g>
		</g>
		<g>
			<rect x="294.4" y="304.5" width="42.2" height="21.9"/>
		</g>
		<g>
			<rect x="291.5" y="315.4" width="48" height="81.6"/>
		</g>
		<g>
			<circle cx="332.7" cy="325.6" r="2.9"/>
		</g>
		<g>
			<circle cx="332.7" cy="334.6" r="2.9"/>
		</g>
	</g>
	<g>
		<g>
			<path d="M363.1,269.6c1,6.4,10.5,4.7,9.5-1.5l-6.4-42c-1-6.2-10.5-4.7-9.5,1.5L363.1,269.6z"/>
		</g>
		<g>
			<path d="M373.6,265.9c0.4,6.4,10,5.8,9.6-0.6l-2.2-34.6c-0.4-6.1-10-5.8-9.6,0.6L373.6,265.9z"/>
		</g>
		<g>
			<path d="M361.4,267.9c1.6,6.5-7.9,8.3-9.4,2.3l-8.3-33.7c-1.6-6.3,7.9-8.3,9.4-2.3L361.4,267.9z"/>
		</g>
		<g>
			<path d="M353.6,280.8c1.7,5.3-6.2,7.5-7.8,2.4l-10.6-35.8c-1.6-5.2,6.2-7.5,7.8-2.4L353.6,280.8z"/>
		</g>
		<g>
			<path d="M354,309.1c1.9,6.7,3.1,19.4,3.1,19.4l30.3-3.1c-0.9-13.1-1.5-16.9,0.3-21c12-10,12.3-28,16.4-39.7
				c2-5.8,3.8-10.2,3.8-10.2s-5.4-5.1-10,1.9c-4.6,7.1-6.8,24.2-10.9,20.9c-2.1-1.7-4-15.1-4-15.1s-16.1,1.5-25,4
				c-8.9,2.6-13.7,5.7-13.7,5.7S345.3,308.5,354,309.1z"/>
		</g>
	</g>
	<g>
		<rect x="351.5" y="312.4" transform="matrix(-0.9899 0.142 -0.142 -0.9899 787.3964 590.6093)" width="42.2" height="21.9"/>
	</g>
	<g>
		<polygon points="408,397 359,397 348.9,326.8 396.4,320 		"/>
	</g>
	<g>
		<circle cx="357.1" cy="336" r="2.9"/>
	</g>
	<g>
		<circle cx="358.4" cy="344.8" r="2.9"/>
	</g>
</g>
</svg>
