<?xml version="1.0" encoding="utf-8"?>
<!-- Generator: Adobe Illustrator 18.0.0, SVG Export Plug-In . SVG Version: 6.00 Build 0)  -->
<!DOCTYPE svg PUBLIC "-//W3C//DTD SVG 1.1//EN" "http://www.w3.org/Graphics/SVG/1.1/DTD/svg11.dtd">
<svg version="1.1" id="Layer_1" xmlns="http://www.w3.org/2000/svg" xmlns:xlink="http://www.w3.org/1999/xlink" x="0px" y="0px"
	 viewBox="0 0 512 512" enable-background="new 0 0 512 512" xml:space="preserve">
<g>
	<g>
		<g>
			<polygon fill="#6D6E71" points="218.6,262.5 218.6,276.7 218.6,290.9 218.6,329.8 218.6,347.5 243.3,347.5 243.3,312.1 
				271.6,312.1 271.6,347.5 296.4,347.5 296.4,329.8 296.4,290.9 296.4,276.7 296.4,262.5 			"/>
		</g>
		<g>
			<rect x="264.6" y="276.7" fill="#BCBEC0" width="14.2" height="14.2"/>
		</g>
		<g>
			<rect x="236.2" y="276.7" fill="#BCBEC0" width="14.2" height="14.2"/>
		</g>
		<g>
			<rect x="243.3" y="312.1" fill="#BCBEC0" width="28.3" height="35.4"/>
		</g>
		<g>
			<rect x="296.4" y="329.8" fill="#6D6E71" width="31.9" height="17.7"/>
		</g>
		<g>
			<rect x="186.7" y="329.8" fill="#6D6E71" width="31.9" height="17.7"/>
		</g>
		<g>
			<rect x="296.4" y="290.9" fill="#BCBEC0" width="31.9" height="38.9"/>
		</g>
		<g>
			<rect x="186.7" y="290.9" fill="#BCBEC0" width="31.9" height="38.9"/>
		</g>
		<g>
			<polygon points="335.4,276.7 335.4,290.9 328.3,290.9 296.4,290.9 296.4,276.7 			"/>
		</g>
		<g>
			<polygon points="218.6,276.7 218.6,290.9 186.7,290.9 179.6,290.9 179.6,276.7 			"/>
		</g>
		<g>
			<polygon points="307,248.4 307,262.5 296.4,262.5 218.6,262.5 207.9,262.5 207.9,248.4 			"/>
		</g>
		<g>
			<polygon fill="#58595B" points="307,248.4 207.9,248.4 257.5,213 			"/>
		</g>
		<g>
			<path fill="#2B2C2B" d="M335.4,345.7c-1.8,0-153.7,0-155.7,0c-1,0-1.8,0.8-1.8,1.8c0,1,0.8,1.8,1.8,1.8c2.1,0,154,0,155.7,0
				c1,0,1.8-0.8,1.8-1.8C337.1,346.5,336.3,345.7,335.4,345.7z"/>
		</g>
		<g>
			<path d="M307,313.9c-1,0-1.8-0.8-1.8-1.8v-3.5c0-1,0.8-1.8,1.8-1.8s1.8,0.8,1.8,1.8v3.5C308.8,313.1,308,313.9,307,313.9z"/>
		</g>
		<g>
			<path d="M317.7,313.9c-1,0-1.8-0.8-1.8-1.8v-3.5c0-1,0.8-1.8,1.8-1.8c1,0,1.8,0.8,1.8,1.8v3.5
				C319.4,313.1,318.6,313.9,317.7,313.9z"/>
		</g>
		<g>
			<path d="M207.9,313.9c-1,0-1.8-0.8-1.8-1.8v-3.5c0-1,0.8-1.8,1.8-1.8c1,0,1.8,0.8,1.8,1.8v3.5
				C209.7,313.1,208.9,313.9,207.9,313.9z"/>
		</g>
		<g>
			<path d="M197.3,313.9c-1,0-1.8-0.8-1.8-1.8v-3.5c0-1,0.8-1.8,1.8-1.8s1.8,0.8,1.8,1.8v3.5C199.1,313.1,198.3,313.9,197.3,313.9z"
				/>
		</g>
		<g>
			<rect x="257.5" y="191.7" width="24.8" height="14.2"/>
		</g>
		<g>
			<path fill="#2B2C2B" d="M257.5,186.4c-1,0-1.8,0.8-1.8,1.8c0,8.3,0,18.9,0,28.3c0,1,0.8,1.8,1.8,1.8c1,0,1.8-0.8,1.8-1.8
				c0-11.8,0-17,0-28.3C259.3,187.2,258.5,186.4,257.5,186.4z"/>
		</g>
	</g>
	<g>
		<path d="M255,434.4c-91.8,0-166.5-74.7-166.5-166.5c0-91.8,74.7-166.5,166.5-166.5c91.8,0,166.6,74.7,166.6,166.5
			C421.5,359.7,346.8,434.4,255,434.4z M255,107.3c-88.5,0-160.5,72-160.5,160.5c0,88.5,72,160.5,160.5,160.5s160.5-72,160.5-160.5
			C415.5,179.3,343.5,107.3,255,107.3z"/>
	</g>
	<g>
		<path d="M255,410.4c-78.6,0-142.5-63.9-142.5-142.5S176.4,125.3,255,125.3s142.5,63.9,142.5,142.5S333.6,410.4,255,410.4z
			 M255,128.3c-76.9,0-139.5,62.6-139.5,139.5c0,76.9,62.6,139.5,139.5,139.5s139.5-62.6,139.5-139.5
			C394.5,190.9,331.9,128.3,255,128.3z"/>
	</g>
</g>
</svg>
