<?xml version="1.0" encoding="utf-8"?>
<!-- Generator: Adobe Illustrator 18.0.0, SVG Export Plug-In . SVG Version: 6.00 Build 0)  -->
<!DOCTYPE svg PUBLIC "-//W3C//DTD SVG 1.1//EN" "http://www.w3.org/Graphics/SVG/1.1/DTD/svg11.dtd">
<svg version="1.1" id="Layer_1" xmlns="http://www.w3.org/2000/svg" xmlns:xlink="http://www.w3.org/1999/xlink" x="0px" y="0px"
	 viewBox="0 0 512 512" enable-background="new 0 0 512 512" xml:space="preserve">
<g>
	<g>
		<path d="M257.7,427.3h-3.4c-96.2,0-174.4-78.2-174.4-174.4l0-4.9c0.6-95.6,78.8-173.4,174.4-173.4h3.4
			c96.2,0,174.4,78.2,174.4,174.4v3.8c0,76.9-49.3,143.9-122.7,166.6C292.8,424.7,275.4,427.3,257.7,427.3z M254.3,82.7
			c-91.2,0-165.8,74.2-166.3,165.3l-4.1,1H88v3.8c0,91.7,74.6,166.3,166.3,166.3h3.4c16.8,0,33.4-2.5,49.4-7.4
			c70-21.7,117-85.6,117-158.9v-3.8c0-91.7-74.6-166.3-166.3-166.3H254.3z"/>
	</g>
	<g>
		<g>
			<g>
				<rect x="194.4" y="187" fill="#D7D6D6" width="0.5" height="28.3"/>
			</g>
			<g>
				
					<rect x="193.5" y="219" transform="matrix(1 4.963334e-003 -4.963334e-003 1 1.0949 -0.9635)" fill="#535353" width="2.3" height="2.2"/>
			</g>
			<g>
				<g>
					<path fill="#D7D6D6" d="M181.7,240.3c0,4.7-3.8,8.4-8.5,8.4c-4.7,0-8.4-3.8-8.4-8.5L181.7,240.3z"/>
				</g>
				<g>
					<path fill="#D7D6D6" d="M164.8,240.4c0,0-0.1,0-0.1,0c-0.1-0.1-0.1-0.2-0.1-0.3l8.5-12.9c0.1-0.1,0.2-0.1,0.3-0.1
						c0.1,0.1,0.1,0.2,0.1,0.3l-8.5,12.9C165,240.4,164.9,240.4,164.8,240.4z"/>
				</g>
				<g>
					<path fill="#D7D6D6" d="M181.7,240.5c-0.1,0-0.1,0-0.2-0.1l-8.4-13c-0.1-0.1,0-0.2,0.1-0.3c0.1-0.1,0.2,0,0.3,0.1l8.4,13
						c0.1,0.1,0,0.2-0.1,0.3C181.8,240.5,181.8,240.5,181.7,240.5z"/>
				</g>
				<g>
					<path fill="#D7D6D6" d="M173.3,240.5c-0.1,0-0.2-0.1-0.2-0.2l0.1-12.9c0-0.1,0.1-0.2,0.2-0.2c0.1,0,0.2,0.1,0.2,0.2l-0.1,12.9
						C173.5,240.4,173.4,240.5,173.3,240.5z"/>
				</g>
			</g>
			<g>
				<path fill="#B0B1B1" d="M192.7,222c-0.1,0-0.1-0.1-0.3-0.1c-0.1,0-0.3-0.1-0.5-0.1c-0.2,0-0.4,0-0.6-0.1c-0.2,0-0.4,0-0.6,0
					c-0.4,0-0.9,0.1-1.4,0.2c-2,0.5-4.2,1.6-6.5,2.7c-2.2,1.1-4.5,2.1-6.3,2.4c-0.5,0.1-0.9,0.2-1.2,0.2c-0.4,0-0.7,0-1,0
					c-0.2,0-0.4,0-0.5,0c0.6-0.1,1-0.7,1-1.3c0-0.7-0.6-1.3-1.3-1.3c-0.7,0-1.3,0.6-1.3,1.3c0,0.7,0.6,1.3,1.3,1.3
					c0.1,0,0.2,0,0.2,0c0.1,0,0.3,0.1,0.6,0.1c0.3,0,0.6,0.1,1,0.1c0.4,0,0.8,0,1.3-0.1c0.9-0.1,2-0.3,3.2-0.7
					c1.1-0.3,2.3-0.7,3.5-1.2c2.3-0.9,4.7-1.7,6.4-2c0.4-0.1,0.8-0.1,1.1-0.1c0.2,0,0.3,0,0.4,0c0.1,0,0.2,0.1,0.3,0.1
					c0.1,0,0.1,0.1,0.2,0.1c0,0,0.2,0.1,0.2,0.1c0.1,0.1,0.2,0.1,0.2,0.1l0.8-1.8C192.9,222.1,192.9,222.1,192.7,222z"/>
			</g>
			<g>
				<g>
					<path fill="#D7D6D6" d="M207.4,240.4c0,4.7,3.7,8.5,8.4,8.5c4.7,0,8.5-3.7,8.5-8.4L207.4,240.4z"/>
				</g>
				<g>
					<path fill="#D7D6D6" d="M224.3,240.7c0,0,0.1,0,0.1,0c0.1-0.1,0.1-0.2,0.1-0.3l-8.4-13c-0.1-0.1-0.2-0.1-0.3-0.1
						c-0.1,0.1-0.1,0.2-0.1,0.3l8.4,13C224.2,240.7,224.3,240.7,224.3,240.7z"/>
				</g>
				<g>
					<path fill="#D7D6D6" d="M207.4,240.6c0.1,0,0.1,0,0.2-0.1l8.5-12.9c0.1-0.1,0-0.2-0.1-0.3c-0.1-0.1-0.2,0-0.3,0.1l-8.5,12.9
						c-0.1,0.1,0,0.2,0.1,0.3C207.3,240.6,207.4,240.6,207.4,240.6z"/>
				</g>
				<g>
					<path fill="#D7D6D6" d="M215.9,240.7c0.1,0,0.2-0.1,0.2-0.2l0.1-12.9c0-0.1-0.1-0.2-0.2-0.2c-0.1,0-0.2,0.1-0.2,0.2l-0.1,12.9
						C215.7,240.6,215.8,240.7,215.9,240.7z"/>
				</g>
			</g>
			<g>
				<path fill="#B0B1B1" d="M196.5,222.1c0.1,0,0.1-0.1,0.3-0.1c0.1,0,0.3-0.1,0.5-0.1c0.2,0,0.4,0,0.6-0.1c0.2,0,0.4,0,0.6,0
					c0.4,0,0.9,0.1,1.4,0.2c2,0.5,4.2,1.7,6.4,2.7c2.2,1.1,4.5,2.1,6.3,2.5c0.5,0.1,0.9,0.2,1.2,0.2c0.4,0,0.7,0.1,1,0
					c0.2,0,0.4,0,0.5,0c-0.6-0.1-1-0.7-1-1.3c0-0.7,0.6-1.3,1.3-1.3c0.7,0,1.3,0.6,1.3,1.3c0,0.7-0.6,1.3-1.3,1.3
					c-0.1,0-0.2,0-0.2,0c-0.1,0-0.3,0.1-0.6,0.1c-0.3,0-0.6,0-1,0.1c-0.4,0-0.8,0-1.3-0.1c-0.9-0.1-2-0.4-3.2-0.7
					c-1.1-0.3-2.3-0.8-3.5-1.2c-2.3-0.9-4.7-1.8-6.4-2c-0.4-0.1-0.8-0.1-1.1-0.1c-0.2,0-0.3,0-0.4,0c-0.1,0-0.2,0.1-0.3,0.1
					c-0.1,0-0.1,0.1-0.2,0.1c0,0-0.2,0.1-0.2,0.1c-0.1,0.1-0.2,0.1-0.2,0.1l-0.8-1.8C196.3,222.1,196.4,222.1,196.5,222.1z"/>
			</g>
			<g>
				<circle fill="#959494" cx="194.7" cy="217.2" r="2.5"/>
			</g>
			<g>
				<path fill="#959494" d="M193.1,226.9l-1.5-3.3c-0.5-1.1,0.3-2.4,1.5-2.4l3.1,0c1.2,0,2.1,1.3,1.5,2.4l-1.6,3.3
					C195.5,228.2,193.7,228.2,193.1,226.9z"/>
			</g>
		</g>
		<g>
			<path fill="#908F8F" d="M253.8,136.1c-2,3.7,4.4,15.2,0,20c3,0,12.2,5.4,26.6-0.6c-5.2-3.6,1.6-16.6-1-19.3
				c-3.3-2.3-11.7-5.1-11.7-5.1S256.3,133.9,253.8,136.1z"/>
		</g>
		<g>
			<g>
				<g>
					<rect x="262" y="150.4" fill="#B0B1B1" width="9.1" height="13"/>
				</g>
			</g>
		</g>
		<g>
			<g>
				<path fill="#CDCCCC" d="M193,183c0,0,0.1-0.8,1-1.3c0.9-0.5,3.2,1,3.2,1s0,0.1,0.1,0.2l-0.1-0.3l1.4,4.6
					c-2.3,0.8-4.3,3.3-5.7,3.4c-1.8-0.6-5.1-1.6-5.5-3c0.2-1.7,0.8-4.1,2.7-5.5C191.4,182.1,193,183,193,183z"/>
			</g>
			<g>
				<path fill="#959494" d="M259.7,165.2c0.9,4.1-35.5,22.4-35.5,22.4l-25.7,1.8l-2.5-8.2l27.3-0.1l26.6-19.8
					C249.9,161.4,259,162.6,259.7,165.2z"/>
			</g>
		</g>
		<g>
			<g>
				<g>
					<path fill="#B0B1B1" d="M283.6,161.1c-0.1-0.1-0.3-0.1-0.5-0.2c0.1,0.1,0.3,0.2,0.5,0.4C283.5,161.2,283.6,161.2,283.6,161.1z"
						/>
				</g>
				<g>
					<path fill="#959494" d="M282.4,160.7L282.4,160.7c0.3,0.1,0.5,0.2,0.7,0.2C282.8,160.7,282.6,160.6,282.4,160.7z"/>
				</g>
				<g>
					<g>
						<path fill="#959494" d="M305.7,224.6l-5.5-25.9c0,0-11.6-32.6-16.7-37.4c-1.1,2.7-1.8,5.9-2.3,9.3c0.9,1.5,1.4,3.1,1.4,4.8
							c0,1.2-0.3,2.3-0.7,3.3l11.4,22.7l3.9,24.7l0.3,0l7-1.2L305.7,224.6z"/>
					</g>
				</g>
				<g>
					<path fill="#CDCCCC" d="M243.4,322.1H294c0,0-11.7-12.8-12.9-17.9c-1.2-5.2,8.2-67.4,7.7-73.6c-0.5-6.2-2.9-11.5-2.9-11.5
						l-3.7-11.2c0,0,2.5,0,2.3-2.1c-0.6-4.7-4.2-15.1-4-24.6c0.6-0.8,1.1-1.6,1.5-2.5c0.4-1.1,0.7-2.2,0.7-3.3
						c0-1.7-0.5-3.3-1.4-4.8c0.5-3.4,1.2-6.6,2.3-9.3c-0.2-0.2-0.3-0.3-0.5-0.4c-0.2-0.1-0.4-0.1-0.7-0.2c-2.8-0.9-9.6-2.7-9.9-2.8
						h0c-0.3-0.1-0.6-0.3-0.8,0l-4.5,5.2c-0.2,0.2-0.4,0.3-0.6,0.3c-0.2,0-0.4-0.1-0.6-0.3l-4.5-5.2c-0.2-0.3-0.5-0.1-0.8,0h0
						c-0.3,0.1-10.3,2.7-11.1,3.3c0.9,3.1,1.6,6.3,2.1,9.6c-0.8,1.4-1.3,3-1.3,4.6c0,2.1,0.8,4.1,2.2,5.9c0.4,9.8-2.7,19.1-3.3,24
						c-0.3,2.5,1.8,2.8,1.8,2.8l-3.5,11c0,0-2,5.7-2.3,12.3c-0.3,6.7,5.6,74.7,4.9,78.5C249.3,313.7,243.4,322.1,243.4,322.1z"/>
				</g>
			</g>
		</g>
		<g>
			<g>
				<g>
					<path fill="#CDCCCC" d="M266.6,156.3c17-7.1,12-24.5,12-24.5s-0.6-8-11.7-8c-9.7,0-12.1,8.2-12.1,8.2S250.2,149.9,266.6,156.3z
						"/>
				</g>
			</g>
		</g>
		<g>
			<path fill="#908F8F" d="M253.2,136.7c1.2-0.3,2.4,2,2.4,2l0.5-8.5c0,0,7.1,0,10.6-1.8c1.1-0.6,2.5-0.6,3.9-0.4
				c3.1,0.5,6.1,2.1,6.1,2.1s1,9.3,1,8.9c0.6-2.4,2.3-2.1,2.3-2.1s3.6-17.1-13.4-17.1C249.6,119.9,253.2,136.3,253.2,136.7z"/>
		</g>
		<g>
			<path fill="#818181" d="M266.5,151.4c2,0,3.4-1.3,3.4-1.6c0-0.3-1.9-1.3-2.4-1.3c-0.5,0-0.8,0.5-1,0.5c-0.2,0-0.5-0.5-1-0.5
				c-0.5,0-2.4,1-2.4,1.3C263,150.1,264.5,151.4,266.5,151.4z"/>
		</g>
		<g>
			<g>
				<path fill="#CDCCCC" d="M253.3,136.8c-1.3,0.6-2.1,2.2-1.8,3.9c0.4,1.9,2.1,3.2,3.8,2.8c1-0.2,0.9-2.8,0.3-4.8l0,0
					c0,0-0.3-1.8-1.4-2.2C253.7,136.4,253.3,136.8,253.3,136.8z"/>
			</g>
			<g>
				<path fill="#CDCCCC" d="M280,137c0,0-1-0.8-1.5-0.4c-0.9,0.7-1.4,2.6-1.5,2.8c-0.4,1.8-0.4,3.9,0.5,4.1c1.7,0.4,3.4-0.9,3.8-2.8
					C281.7,139.2,281.1,137.7,280,137z"/>
			</g>
		</g>
		<g>
			<rect x="250.2" y="208" fill="#818181" width="32.9" height="2.6"/>
		</g>
		<g>
			<polygon fill="#818181" points="256,182.7 276.1,183 257.4,184.4 			"/>
		</g>
		<g>
			<polygon fill="#818181" points="263.9,168.4 269.7,168.4 266.7,170.1 			"/>
		</g>
		<g>
			<g>
				<path fill="#818181" d="M259.9,239.1c0,0,3.6,43.6,11.5,43C266.6,276.4,259.9,239.1,259.9,239.1z"/>
			</g>
		</g>
		<g>
			<g>
				
					<rect x="288.6" y="228.6" transform="matrix(0.7939 -0.6081 0.6081 0.7939 -78.3123 230.0655)" fill="#959494" width="23.1" height="3.9"/>
			</g>
			<g>
				<polygon fill="#959494" points="284.4,230.6 282.1,232.4 293.9,247.7 296.1,246 291.5,237.4 				"/>
			</g>
			<g>
				<circle fill="#C9C9C9" cx="312" cy="221.5" r="4.1"/>
			</g>
			<g>
				<circle fill="#5E5F5F" cx="312.1" cy="221.6" r="1.9"/>
			</g>
			<g>
				<polygon fill="#E0E1E0" points="212.2,293.7 211.6,298.5 216.4,299.2 290.1,242.8 285.9,237.3 				"/>
			</g>
			<g>
				<polygon fill="#ACACAC" points="287.5,239.5 214.8,296.1 288.7,241 				"/>
			</g>
		</g>
		<g>
			<path fill="#CDCCCC" d="M304.5,224.8l-7,1.2c0,0.1,0,0.2,0,0.4c0.4,1,1.1,1.1,1.1,1.1s-1.1,1.5-1.2,2.9c1.2,2,3.4,2.9,5.1,3.3
				c1.5-0.2,2.9-3.4,3.7-5.1C306.3,227.7,305.3,226.3,304.5,224.8z"/>
		</g>
		<g>
			<g>
				<rect x="228" y="322.1" fill="#818181" width="79.9" height="10.2"/>
			</g>
			<g>
				<rect x="221" y="332.2" fill="#CDCCCC" width="95.1" height="36.9"/>
			</g>
			<g>
				<rect x="244.5" y="339.2" fill="#A3A3A2" width="48.2" height="22.2"/>
			</g>
		</g>
		<g>
			<path fill="#5E5F5F" d="M266.6,142.1c-5,0-13.4-5.4-13.4-5.4l-0.7-3.2h28.1l-0.6,3.5C280.1,137,271.6,142.1,266.6,142.1z"/>
		</g>
		<g>
			<polygon fill="#3C3C3B" points="257.2,135.9 266.9,139.4 257.8,136.9 			"/>
		</g>
		<g>
			<polygon fill="#3C3C3B" points="267.5,136.5 277.3,135.2 277,135.8 			"/>
		</g>
		<g>
			<path fill="#908F8F" d="M272.4,128.1c1.5,4.4-2.1,13.1-1.3,14c-0.1-3.2,3.9-10.3,3.5-13.2C274.2,125.9,272.7,125.9,272.4,128.1z"
				/>
		</g>
	</g>
</g>
</svg>
