<?xml version="1.0" encoding="utf-8"?>
<!-- Generator: Adobe Illustrator 18.0.0, SVG Export Plug-In . SVG Version: 6.00 Build 0)  -->
<!DOCTYPE svg PUBLIC "-//W3C//DTD SVG 1.1//EN" "http://www.w3.org/Graphics/SVG/1.1/DTD/svg11.dtd">
<svg version="1.1" id="Layer_1" xmlns="http://www.w3.org/2000/svg" xmlns:xlink="http://www.w3.org/1999/xlink" x="0px" y="0px"
	 viewBox="0 0 512 512" enable-background="new 0 0 512 512" xml:space="preserve">
<g>
	<g>
		<g>
			<g>
				<path d="M137.6,176.5c0.6-1,1.8-2.8,2.3-3.8c0.3-0.6,2.3-3.4,1.3-4c-0.9-0.5-3.6,4.8-4.8,7.1c-1.4,2.2-4.7,7.2-3.8,7.7
					c1,0.6,2.5-2.5,2.8-3.1C136,179.4,137,177.6,137.6,176.5z"/>
			</g>
			<g>
				<path d="M146.8,199.5c-1.3,0.2-2.6,0.6-3.9,0.7c-1.3,0.1-2.8,0.2-4-0.5c-0.6-0.4-2.4-1.2-3.6-3.8c-0.5-1.1-0.4-2.2,0.1-3.3
					c1-2,2.8-4,5.2-3.8c-0.2-0.4-0.4-0.8-0.5-1.2l0,0c-0.9-2.7-6.1,2.2-7,3.8c-1.3,2.4-0.9,5,0.7,7.2c1.8,2.3,3.9,4.1,6.9,4.1
					c3.1,0,6.3-1.6,9.2-2.6C148.5,199,148.3,199.3,146.8,199.5z"/>
			</g>
			<g>
				<path d="M148.4,173.2L148.4,173.2c0.4-0.1,0.9-0.1,1.3-0.1c-1.4-2-0.5-4.5,0.8-6.4c0.7-1,1.6-1.6,2.8-1.7
					c2.9-0.2,4.5,0.9,5.1,1.2c1.2,0.7,1.9,2,2.4,3.2c0.5,1.2,0.9,2.5,1.3,3.8c0.6,1.5,0.4,1.7,2,2.5c-0.6-3-0.8-6.5-2.3-9.2
					c-1.5-2.6-4.1-3.6-7-4c-2.7-0.4-5.2,0.6-6.6,2.9C147.3,166.8,145.6,173.8,148.4,173.2z"/>
			</g>
			<g>
				<path d="M173,190.8c-1,0.9-1.3,2.4-2.1,3.5c-0.4,0.6-1.2,1.9-1.5,2.5c-0.6,1.2-1.7,2.2-2,3.5c-0.4,1.9,1.3,1.1,1.9,0
					c0.6-1.2,1.5-2.8,2.2-4c0.8-1.2,1.7-2.7,2.4-3.9C174.6,191.4,174.5,189.4,173,190.8z"/>
			</g>
			<g>
				<path d="M161.1,175.2c-1.9-0.7-3.9-1.3-5.9-1.5c-2-0.2-3.9,0.4-5.9,0.6c-2.1,0.2-4.5,1-6.5,0.3c-1.3-0.4-0.2-4.4-0.6-4.5
					c-0.4-0.1-3,5-3.9,6.8c-1.1,1.7-4.2,6.5-4,6.7c0.3,0.3,3.2-2.6,4.2-1.7c1.6,1.4,2.1,4,2.9,5.8c0.9,1.8,1.2,3.8,2.4,5.4
					c1.2,1.6,2.7,3.1,4.3,4.4c5.7,4.8,16.4,5.6,21.2-2.6C174.1,186.7,168,177.7,161.1,175.2z"/>
			</g>
			<g>
				<path d="M136,156.6c0.7,2.4,1.2,4.9,1.5,7.4c0.2,1.4,0.5,3.7,1,5.1c0.3,0.8-0.4,1.3-0.6,0.6c-0.4-1.1-0.8-2.1-1-3.3
					c-0.4-2.3-0.7-4.7-1.3-7c-0.5-2.3-0.9-4.8-2.7-6.6c-2.2-2.2-5.7-1.6-5.8-2.4c-0.1-0.8,3.7-0.4,5.7,1.1
					C134.4,152.8,135.5,154.8,136,156.6z"/>
			</g>
			<g>
				<path d="M132.6,170.8c0.8,1,2.1,1.3,2.9,2.2c0.6,0.6-0.3,0.9-0.8,0.7c-4-1.3-6.1-7.8-7.8-11.1c-1.3-2.5-2.5-4.1-4.9-5.6
					c-1.3-0.8-4.6-2.3-4.1-3c0.5-0.7,8.4,3.9,10.8,10.5C129.6,166.7,131.1,169.1,132.6,170.8z"/>
			</g>
			<g>
				<path d="M131,158.8c1.8,3.9,6.1,12.4,5.6,12.6c-0.7,0.3-1.6-1.7-1.9-2.1c-1.3-2.3-1.9-4.9-3-7.3c-1.2-2.6-2.2-5.5-4.3-7.5
					c-1-1-2.2-1.8-3.4-2.4c-0.9-0.5-3-0.8-2.7-1.4c0.6-1.6,4.5,1.4,5.7,2.4C128.8,154.7,130,156.7,131,158.8z"/>
			</g>
			<g>
				<path d="M121.5,183.9c2.3-0.7,4.5-1.5,6.7-2.4c1.1-0.4,2.2-0.6,3.3-0.8c0.7-0.1,0.6,0.8-0.2,0.9c-1.4,0.2-3.6,1.1-4.9,1.6
					c-2.3,0.9-4.8,1.8-7.2,2.3c-1.8,0.4-4.1,0.5-5.9-0.2c-2.3-0.9-4.6-4.1-3.8-4.4c0.8-0.3,1.9,3,5,3.8
					C116.8,185.5,119.2,184.6,121.5,183.9z"/>
			</g>
			<g>
				<path d="M133.2,177.1c-1.2-0.3-2.1-1.2-3.4-1.5c-2.3-0.5-5.1-0.6-7.4-0.2c-6.9,1.2-14.9-3.4-14.5-4.2c0.4-0.8,3.3,1.3,4.6,2.1
					c2.5,1.3,4.5,1.6,7.3,1.5c3.7-0.2,10.4-1.5,13.5,1.3C133.8,176.5,134.1,177.4,133.2,177.1z"/>
			</g>
			<g>
				<path d="M113.1,179.2c2.8,0.8,5.9,0.2,8.7,0c2.6-0.2,5.2-1,7.8-1c0.5,0,2.7-0.2,2.8,0.6c0.1,0.5-9.4,1-13.7,1.4
					c-2.4,0.2-4.7,0.1-6.9-0.7c-1.5-0.6-6-2.4-4.9-3.7c0.4-0.5,1.7,1.1,2.5,1.7C110.5,178.2,111.7,178.8,113.1,179.2z"/>
			</g>
		</g>
		<g>
			<g>
				<path d="M207.6,117.8c0.8,0.3,1.2,0.3,1.9,0.4l0.2,0c0.3,0,0.6,0.1,0.9,0.2c0.4,0.1,0.8,0.2,1.1,0.2c0-0.1,0-0.1,0-0.1
					c-0.1-2.3-0.8-3.7-2.5-5.2c-0.1,0-0.1-0.1-0.2-0.1c-0.7-0.5-1.6-1-2.7-1.4c-0.1,0-0.2,0-0.2,0c-0.1,0.1,0,0.7,0,1.1
					c0,0.2,0.1,0.3,0.1,0.4c0,0.2,0,0.4,0,0.7c0,1.3,0.1,3,1,3.7C207.3,117.6,207.4,117.7,207.6,117.8z"/>
			</g>
			<g>
				<path d="M174.4,141.8c0-0.2-0.7-0.8-1.4-1.4c-2-1.8-5.2-4.7-5.4-7.9c-0.1-1.4,0.5-2.6,1.6-3.8c4.2-4.5,11-4.1,14.7-3.5
					c0.5,0.1,1.3,0.3,2.2,0.5c3.4,0.9,9,2.4,11.3,0.8c0.6-0.4,0.9-0.9,0.9-1.7c0.4-3.8-3.2-7.4-6.3-9.8c-0.4-0.3-0.7-0.5-1.1-0.8
					c-2.3-1.7-5.4-3.6-8.5-3.9c-1.6-0.2-4.2-0.2-5.9,0.2c-6.2,1.6-10.7,4.2-13.7,8c-1,1.3-3.4,4.7-3.6,8.1c-0.1,2.5,0.7,3.9,1.8,5.7
					c0.2,0.3,0.4,0.6,0.6,0.9c0.7,1.2,1.7,2.2,3.1,3.3c0.9,0.7,1.9,1.3,2.8,1.9l0.5,0.3c0.3,0.2,0.5,0.3,0.8,0.5
					C170.8,140.7,173.7,142.7,174.4,141.8z M187.2,117c0.6-0.7,1.9-0.9,2.9-0.1c0.2,0.1,0.3,0.3,0.4,0.4c0.8,0.9,0.5,1.9-0.1,2.6
					c-0.7,0.7-1.8,1-2.7,0.4c-0.1-0.1-0.2-0.2-0.3-0.3C186.3,118.8,186.6,117.6,187.2,117z"/>
			</g>
			<g>
				<path d="M173.5,138.8c0.3,0.3,1.1,1.3,1.7,1.9c0.3,0.3,0.5,0.6,0.5,0.6c0.2,0.2,0.4,0.5,0.6,0.6c0.5,0.3,0.9,0.5,1.4,0.3
					c1.4-0.4,2.6-2.9,3.1-4.3C179.5,137.4,174.7,137.9,173.5,138.8z"/>
			</g>
			<g>
				<path d="M175.7,143.3c-0.8-0.3-1.2-0.3-1.9-0.4l-0.2,0c-0.3,0-0.6-0.1-0.9-0.2c-0.4-0.1-0.8-0.2-1.1-0.2c0,0.1,0,0.1,0,0.1
					c0.1,2.3,0.9,3.7,2.6,5.1l0.1,0.1c0.7,0.6,1.6,1,2.8,1.5c0.1,0,0.2,0,0.2,0c0.1-0.1,0-0.7-0.1-1.1c0-0.2-0.1-0.3-0.1-0.4
					c0-0.2,0-0.4,0-0.7c-0.1-1.2-0.1-2.9-1.1-3.7C176,143.4,175.9,143.3,175.7,143.3z"/>
			</g>
			<g>
				<path d="M189.5,119.2c0.1-0.1,0.2-0.3,0.2-0.4c0-0.3-0.2-0.6-0.5-0.8c-0.3-0.3-0.7-0.4-1-0.3c-0.1,0-0.2,0.1-0.3,0.2
					c-0.2,0.3,0,1.2,0.5,1.6C188.7,119.6,189.1,119.6,189.5,119.2z"/>
			</g>
			<g>
				<path d="M177.7,126l-0.3,0c-1,0.2-1.7,0.3-2,0.7c-0.2,0.3-0.3,0.8-0.1,1.7c0.3,0.2,2,0,4.3-0.7c2.1-0.6,3.4-1.2,3.7-1.5
					l-0.5-0.1C181.1,125.9,179.4,125.7,177.7,126z"/>
			</g>
			<g>
				<path d="M166.7,113.9l0.5-0.3c1-0.6,2-1.2,3-1.8c2.8-1.5,5.9-2.3,8.4-2.3c-0.3-0.2-0.6-0.2-0.7-0.2c-3.1-0.8-10.9-0.5-12.8,1.3
					c-0.3,0.3-0.5,0.7-0.4,1c0.1,0.6,0.7,1.4,1.3,1.9C166.2,113.7,166.5,113.8,166.7,113.9z"/>
			</g>
			<g>
				<path d="M193.3,141.6c-0.1,0.1-0.2,0.3-0.2,0.4c0,0.3,0.2,0.6,0.5,0.8l0,0c0.3,0.3,0.7,0.4,1,0.3c0.1,0,0.2-0.1,0.3-0.2
					c0.2-0.3,0-1.2-0.4-1.6C194.1,141.2,193.7,141.2,193.3,141.6z"/>
			</g>
			<g>
				<path d="M216,147.4l-0.5,0.3c-1,0.6-2,1.2-3,1.7c-2.8,1.4-5.9,2.2-8.5,2.2c0.3,0.2,0.6,0.2,0.7,0.2c3.1,0.9,10.9,0.7,12.8-1.1
					c0.4-0.3,0.5-0.6,0.4-1c-0.1-0.6-0.7-1.5-1.3-2C216.4,147.5,216.2,147.4,216,147.4z"/>
			</g>
			<g>
				<path d="M221.5,128c-0.7-1.3-1.8-2.4-3.4-3.7c-0.8-0.6-1.6-1.2-2.4-1.7l-0.4-0.3c-0.2-0.2-0.5-0.4-0.8-0.6
					c-1.9-1.3-4.8-3.3-5.6-2.4c0,0.2,0.7,0.8,1.3,1.4c1.9,1.8,5.1,4.8,5.2,8c0,1.4-0.5,2.6-1.6,3.8c-4.3,4.4-11.1,3.9-14.7,3.2
					c-0.5-0.1-1.2-0.3-2.2-0.6c-3.4-1-9-2.6-11.2-1.1c-0.6,0.4-0.9,0.9-1,1.7c-0.5,4,3.4,7.8,6.7,10.4c0.2,0.1,0.3,0.3,0.5,0.4
					c2.3,1.7,5.3,3.7,8.4,4.1c1.6,0.2,4.2,0.3,5.9-0.1c6.3-1.5,10.8-4,13.9-7.7c1.1-1.3,3.5-4.6,3.8-8c0.2-2.5-0.6-3.9-1.7-5.8
					C221.8,128.6,221.7,128.3,221.5,128z M195.6,143.8c-0.6,0.7-1.8,0.9-2.9,0.1c-0.2-0.1-0.3-0.3-0.5-0.4c-0.7-0.9-0.4-1.9,0.2-2.5
					c0.7-0.7,1.8-1,2.7-0.4c0.1,0.1,0.2,0.2,0.3,0.3C196.4,142.1,196.2,143.2,195.6,143.8z"/>
			</g>
			<g>
				<path d="M207.5,119.7c-0.2-0.3-0.4-0.5-0.6-0.7c-0.4-0.3-0.9-0.4-1.4-0.3c-1.4,0.4-2.6,2.8-3.1,4.2c1.3,0.5,6.1,0.2,7.3-0.7
					c-0.3-0.3-1-1.3-1.6-1.9C207.8,120.1,207.5,119.7,207.5,119.7z"/>
			</g>
			<g>
				<path d="M205.2,135l0.3,0c1-0.1,1.7-0.2,2-0.7c0.2-0.3,0.3-0.8,0.1-1.7c0,0,0,0,0,0c-0.3-0.3-2.2,0-4.6,0.8
					c-2,0.6-3.1,1.1-3.4,1.3l0.6,0.1C201.9,135,203.5,135.3,205.2,135z"/>
			</g>
		</g>
		<g>
			<g>
				<path d="M250.3,106.5c0.9-1,2-1.8,3.2-2.6c1.4-0.9,2-0.8,1.7-2.6c-0.3-1.3-1.1-2.5-1.7-3.6c-1.6-2.9-7.4,6.1-5.9,7.7
					c0,0,0,0,0,0s0,0,0,0C248.6,106.5,249.3,107.6,250.3,106.5z"/>
			</g>
			<g>
				<path d="M251.8,96.1c-1.7-1.2-3.8-3-6-3.1c-1.9-0.1-2.6,3.1-3.1,4.4c-0.8,2.3-0.5,4.3,0.1,6.6c0.1,0.6,2.9,0.7,3.5,0.9
					C247.2,101.5,248.8,98.1,251.8,96.1z"/>
			</g>
			<g>
				<path d="M261.6,102.9c-2.9,0-8.5,2.1-10.6,4.5c-2.4,2.7-2,6.4-1.2,9.6c0.7,3.2,2.6,6,4.2,8.9c0.8,1.4,3.8,7.6,5.3,8.2
					c0.3,0.1,1.6,0.2,1.9,0.2c0.3,0,1.6,0,1.9-0.1c1.6-0.6,4.8-6.6,5.6-8c1.7-2.8,3.6-5.5,4.4-8.7c0.8-3.2,1.4-6.8-0.9-9.7
					C270.1,105.3,264.5,103,261.6,102.9z M257.1,126.8c-1,0.5-0.3-3.4-1.1-4.4c-2,0.3-2.8-0.7-3.5-1.7c-0.9-1.2-1.2-3.3-0.9-4.8
					c0.1-0.6,0.8-1.1,0.1-1.5c-0.4-0.2-3-1.1-2-1.4c3-0.9,5.3,2.6,6.3,5.6c0.6,1.8,1.1,3.5,1.6,5.3
					C258.1,125.2,257.7,126.6,257.1,126.8z M260.3,131.6C258.9,133.6,256.9,128.7,260.3,131.6L260.3,131.6z M262,131.7
					C265.5,128.8,263.3,133.7,262,131.7L262,131.7z M271.1,114.7c-0.7,0.4,0,0.9,0.1,1.5c0.2,1.5-0.1,3.6-1.1,4.8
					c-0.8,1-1.5,2-3.6,1.6c-0.8,1-0.3,4.9-1.2,4.4c-0.5-0.3-0.9-1.6-0.4-3c0.6-1.8,1.2-3.5,1.8-5.2c1.1-3,3.5-6.5,6.5-5.4
					C274.1,113.6,271.5,114.4,271.1,114.7z"/>
			</g>
			<g>
				<path d="M269.9,98c-0.7,1.2-1.5,2.3-1.8,3.6c-0.4,1.7,0.2,1.7,1.6,2.7c1.1,0.8,2.2,1.6,3.1,2.7c1,1.1,1.8,0,2.8-1c0,0,0,0,0,0
					c0,0,0,0,0,0C277.1,104.3,271.6,95.2,269.9,98z"/>
			</g>
			<g>
				<path d="M229.1,110.6c0.3,2,1.2,7.8,4,7.9c0.9,0,7.1-0.8,5.1-3.2c-0.4-0.5-0.7-1.5-1.6-3.2C233.9,112.6,231.4,111.9,229.1,110.6
					z"/>
			</g>
			<g>
				<path d="M234.3,102.8c-0.3-0.7-0.9-4-1.5-4.2c-1.6,2.7-3.3,5.5-3.6,8.7c0,0,0,0,0,0.1l0,0.1l0,0l0,0v0v0c-0.2,3,2.8,3.8,5.4,3.8
					c2.5-0.1,1.3-2.7,3-4.4C236.1,105.9,235,104.3,234.3,102.8z"/>
			</g>
			<g>
				<path d="M241.5,98.3c0.4-2,1.2-4,2.6-5.5c-1.3-1.6-10.4,2.2-10.1,4.5c0.4,2.5,0.7,4.7,2.2,6.8c1.2,1.8,1.7,1.7,3.3,1
					c0,0,0,0,0.1,0c0.8-0.3,1.5-0.5,2.3-0.8c-0.3-0.8-0.5-1.6-0.6-2.4C241.1,100.7,241.2,99.4,241.5,98.3z"/>
			</g>
			<g>
				<path d="M245.7,117.4c-2.3,0.7-4.1,0.6-6-0.8c-1.3,2.6-4.6,3-6,2.9C237.8,122.7,243.5,122.3,245.7,117.4z"/>
			</g>
			<g>
				<path d="M277.8,93.5c-2.2,0.1-4.4,1.8-6.1,2.9c2.9,2.1,4.4,5.6,5.2,9c0.7-0.2,3.4-0.3,3.6-0.8c0.6-2.3,1-4.3,0.3-6.6
					C280.3,96.7,279.6,93.4,277.8,93.5z"/>
			</g>
			<g>
				<path d="M286.3,112.8c-1,1.7-1.4,2.7-1.8,3.2c-2,2.4,4.1,3.4,5,3.4c2.9,0.1,3.9-5.7,4.3-7.7C291.6,113,289,113.5,286.3,112.8z"
					/>
			</g>
			<g>
				<path d="M283,117.3c-2,1.3-3.8,1.4-6,0.6c2,5,7.8,5.6,11.9,2.6C287.5,120.4,284.2,119.9,283,117.3z"/>
			</g>
			<g>
				<path d="M288.9,103.7c-0.8,1.5-1.9,3.1-3.4,3.9c1.7,1.8,0.4,4.3,2.9,4.5c2.6,0.2,5.6-0.5,5.5-3.6v0l0,0c0,0,0,0,0,0c0,0,0,0,0,0
					l0,0c0,0,0,0,0-0.1c-0.1-3.3-1.8-6-3.3-8.8C290,99.7,289.3,103,288.9,103.7z"/>
			</g>
			<g>
				<path d="M287,104.9c1.5-2,1.9-4.2,2.4-6.7c0.4-2.3-8.6-6.4-9.9-4.8c1.4,1.6,2.1,3.5,2.5,5.6c0.2,1.2,0.2,2.4,0,3.6
					c-0.1,0.8-0.4,1.6-0.7,2.4c0.8,0.3,1.5,0.5,2.3,0.9c0.1,0,0.1,0,0.1,0C285.3,106.5,285.7,106.6,287,104.9z"/>
			</g>
		</g>
		<g>
			<g>
				<path d="M314.2,125.4c0.7-0.2,2.4,0.2,2.9-0.4l0,0c1.7-2.1,4.2-2.5,6.7-3.1c-1.6-1.3-4-4.2-6.2-3.4c-3,1-5.1,3.2-7.3,5.4
					C311.8,125.3,312.1,126.1,314.2,125.4z"/>
			</g>
			<g>
				<path d="M313.7,128.9c2,0.2,1.8-0.5,2.5-2.4c-1.1,0.1-8.5,1.9-8.3,3.1c0.2,0,0.5-0.1,0.7-0.1C310.3,129.2,312,128.7,313.7,128.9
					z"/>
			</g>
			<g>
				<path d="M337,132.3c-0.7-3.3-4.6-6.3-6.2-7.1c-1.6-0.9-6.2-2.6-9.3-1.4c-3.2,1.2-4.3,4-5.5,6.9c-0.6,1.6-1.9,3.1-2.1,4.9
					c-0.2,1.2,0.2,2.5,0.1,3.7c-0.3,2.9-1.8,5.3-0.8,8.3c0.5,1.5,2.5,3.1,3.2,3.8c1,0.2,3.3,1,4.9,0.7c3-0.7,4.3-3.2,6.6-5
					c1-0.8,2.2-1.2,3.2-1.9c1.4-1.1,2-3,3-4.4C335.9,138.1,337.7,135.7,337,132.3z M315.8,148.2c-0.5-0.9-0.9-1.4-0.6-2.4
					C316.5,146.4,316.2,147,315.8,148.2z M318,138.2c0.1-0.8-1.3-2.2-1.4-3.3c-0.1-1.6,0.8-1.9,1.3-3.2c0.4-1-2-2.6-0.3-2.9
					c0.4,0.9,2.4,3.9,2.2,5.6c-0.2,1.9-0.5,5.8-1.9,7C317.4,140.3,317.8,139.3,318,138.2z M319.3,150.1c0.8-1,1.1-1.5,2.4-0.8
					C321,150.1,320.4,150,319.3,150.1z M332.3,139.6c-0.8,1.1-0.6,2-2,2.8c-1,0.5-3,0.1-3.6,0.6c-0.9,0.8-1.5,1.6-2.7,1.8
					c0.3-1.8,3.5-4.2,5-5.3c1.4-1.1,4.9-1,6-1.1C335.5,139.9,332.9,138.8,332.3,139.6z"/>
			</g>
			<g>
				<path d="M313.8,131.9c3-1.2-3.6-2.8-4-1.1C310.6,131,313,132.2,313.8,131.9z"/>
			</g>
			<g>
				<path d="M323.3,104.3c-1,0.2-2,0.5-2.9,0.7c0.2,0.3,0.3,0.6,0.5,0.9C321.3,105.7,323.4,104.6,323.3,104.3z"/>
			</g>
			<g>
				<path d="M334.2,143.2c0.2,0.9,2.5,2.3,3.1,2.8C338.5,144.8,333.6,140,334.2,143.2z"/>
			</g>
			<g>
				<path d="M316.8,112.5c0-0.6,0.5-1.6-0.1-2.1c-3.7-3.5-6.2,2.1-7.6,4.6c1.9-0.6,3.8-1.2,5.7-1.4
					C316.3,113.4,316.7,114.2,316.8,112.5z"/>
			</g>
			<g>
				<path d="M319.2,107.5c2.6-2.8-2.5-0.8-3.3-0.4c-0.6,0.3-1.2,0.7-1.8,1C316.5,109.9,317.5,109.4,319.2,107.5z"/>
			</g>
			<g>
				<path d="M313,115.2c-2,0.4-4.5,1.5-4.3,3.9c0.1,1.2,0.3,2.4,0.9,3.5c2.9-2.4,5.2-4.5,8.8-5.4C316.9,114.6,315.9,114.5,313,115.2
					z"/>
			</g>
			<g>
				<path d="M344.3,131.4c1.2,3.6,0.6,6.7,0.1,10.4c1.2,0,2.4-0.5,3.4-1.1c2.1-1.1,1.7-3.8,1-5.7
					C347.8,132.2,347.2,131.4,344.3,131.4z"/>
			</g>
			<g>
				<path d="M353.5,123.3c-0.3-1-0.6-1.9-0.9-2.9c-0.4,0.1-0.1,2.5-0.1,2.9C352.8,123.3,353.1,123.3,353.5,123.3z"/>
			</g>
			<g>
				<path d="M337.3,129.4c0.9,2.4,1.9,4.7,1,7.3l0,0c0,0,0,0,0,0l0,0c-0.2,0.7,1,1.9,1.2,2.6c0.5,2.1,1.3,2,3.3,2.5
					c0.7-3,1.4-6,0.7-9C343,130.6,339.2,130.1,337.3,129.4z"/>
			</g>
			<g>
				<path d="M350.9,129.2c-0.7-0.2-1.4,0.7-1.8,1.1c-1.4,1-0.5,1,0.1,2.2c0.9,1.8,1.4,3.7,1.9,5.6
					C352.4,135.6,355.8,130.5,350.9,129.2z"/>
			</g>
			<g>
				<path d="M336.8,141.7c1,1.4,1.6,3,2.2,4.6c0.1,0.2,0.2,0.4,0.3,0.7c1.1-0.4-1.3-7.7-1.8-8.6C336.3,139.9,335.6,140,336.8,141.7z
					"/>
			</g>
			<g>
				<path d="M352,125.6c-0.7,2.5-0.6,3.5,2.2,4.6c0-0.7,0-1.4-0.1-2C354,127.3,353,121.9,352,125.6z"/>
			</g>
		</g>
		<g>
			<g>
				<path d="M393.5,173.2c1.6-0.4,3.3-1.2,3.6-2.6c0.5-2.2-1.5-5.3-3.2-7.9c-0.3,0-1.9,3.9-2.4,4.5
					C390.2,168.7,392.7,171.8,393.5,173.2z"/>
			</g>
			<g>
				<path d="M395.8,179.4c-0.7-1.1-1.9-3.3-2.6-4.5c-2.1,0.9-1.4,2.1,0,3.9C394.2,180,394.4,179.7,395.8,179.4z"/>
			</g>
			<g>
				<path d="M389,164.5c-0.1-1.1,0.7-6-0.6-6.1c-0.1,3.6-0.1,7.3-0.2,10.9C390.5,168.6,389.2,166,389,164.5z"/>
			</g>
			<g>
				<path d="M392.6,173.7c-0.6-1.2-1.9-3.3-2.5-4.5c-1,1-1.4,1.1-0.9,2.5C390,173.8,390.7,175,392.6,173.7z"/>
			</g>
			<g>
				<path d="M382.5,179.5c1.7-0.9,3.2-2.1,4.9-3.1c2.5-1.5,1.8-2.4,0.8-5c-5.2,5.2-10.9,10.1-16.8,14.5
					C375.2,184,378.8,181.6,382.5,179.5z"/>
			</g>
			<g>
				<path d="M398.2,179.2c0.7-0.1,4.9,0.5,5.1,0.3c-1.3-2.9-2.9-6.2-5.1-6.9c-1.4-0.4-2.9,0.6-4.1,1.7
					C395,175.8,396.3,179.5,398.2,179.2z"/>
			</g>
			<g>
				<path d="M383.1,180.5c-3.7,2.1-7.6,3.9-11.3,6.2c6.8-2.8,14-5.1,21.1-6.8c-1.7-2.2-2.1-3.3-4.7-1.9
					C386.6,178.8,384.8,179.5,383.1,180.5z"/>
			</g>
			<g>
				<path d="M392.7,162.7c0.4-1.9-1.3-3.1-2.5-4.2c-0.2,2.8-0.8,5.6,0.3,8.3C391.4,165.6,392.4,164.3,392.7,162.7z"/>
			</g>
			<g>
				<path d="M402.7,180.5c-1.5-0.5-3.1-0.3-4.7-0.2c1.8,2.3,4.5,3.3,7,4.6C404.6,183.2,404.6,181.1,402.7,180.5z"/>
			</g>
			<g>
				<path d="M399,184.4c-1.9-1.1-3.6-2.3-5.4-3.5c-1.3,0.2-2,0.3-2.2,0.4c-4.8,1-9.6,3.2-14,5.1c-3.1,1.3-6.5,2.1-9.5,3.6
					c-1.7,0.9-6.3,3.2-4.8,3.6c4.1,1.3,8.1,2.6,12.2,3.9c0.1-1.4,0.2-2.8,0.4-4.1c0.1-0.6,0.9-1.3,1.2-0.5c0.2,0.9-0.3,2.3-0.3,3.2
					c0,1,0.1,2,0.4,2.9c0.5,1.8,0.7,5.6,3.3,4.9c1.2-0.3,2.2-1.2,3.5-1.4c1.2-0.2,1.9-0.4,3-1c-1-0.6-2-1.2-3-1.8
					c-1.1-0.7,1-0.4,1.2-0.4c1.2,0.5,3.3,2,4.5,0.9c1.7-1.6,2.3-0.9,4.1,0.1c1.4,0.8,2.1-1.8,2.7-2.6c1.2-1.8,2.9-3.1,4.4-4.6
					c1.2-1.1,3.5-3.2,3.6-5C404.2,186.7,400,185,399,184.4z M396.4,192.7c-1.4,0.7-4,1.6-4.5,0.6c-0.5-1,1.9-2.7,3.4-3.9
					c0-0.1-0.1-0.2-0.1-0.2c-0.5-0.7-2.5-2.5-1-2.8c0.8-0.1,2.1,1.9,2.4,2.5C397,189.7,397.5,192.2,396.4,192.7z M399.1,191.9
					c-0.8-0.3-0.9-1.5-1.2-2.2c-0.7-1.9-1.5-3.5-2.8-5.1c1.7-1.4,4.4,5,4.6,6.1C399.7,191.2,399.9,192.1,399.1,191.9z"/>
			</g>
			<g>
				<path d="M399.3,182.7c-1.3-0.9-2.8-3.5-4.5-1.8c3.1,1.8,6.3,3.7,9.4,5.5C404.8,185.3,400.2,183.4,399.3,182.7z"/>
			</g>
			<g>
				<path d="M374.5,181.4c3.9-2.8,8.3-5.8,11.6-9.4c0.2-0.2,0.7-0.7,1.5-1.7c-0.1-2.2-0.2-4.3-0.2-6.5c0-1.2,0.8-5.7-0.4-6.3
					c-1.5-0.9-4.6,0.1-6.1,0.5c-2.1,0.6-4,1.3-6.2,1.4c-1,0-3.6-0.7-3.6,0.9c-0.1,2.1,0.3,2.9-2,3.6c-1.6,0.4-1.4,3-1.6,4.3
					c0,0.2-0.9,2.1-0.9,0.8c0-1.2,0-2.3,0-3.5c-1.1,0.6-1.6,1.1-2.4,2c-0.9,1-2.1,1.3-3,2.2c-2,1.9,1.1,4,2.4,5.4
					c0.7,0.7,1.5,1.3,2.3,1.9c0.8,0.5,2.3,0.8,2.9,1.4c0.6,0.6-0.5,1-1,0.7c-1.3-0.6-2.5-1.2-3.7-1.8c-1,4.2-2,8.3-3,12.5
					c-0.5,1.6,3.9-1.2,5.6-2.3C369.4,185.9,371.8,183.4,374.5,181.4z M381.1,159.9c0.2-0.8,0.9-0.2,1.3,0.2c0.9,0.7,4.9,6.3,2.8,7
					c-0.7-1.9-1.6-3.4-2.9-5C381.9,161.5,380.9,160.7,381.1,159.9z M379,161.7c1-0.6,2.9,1.1,3.4,1.8c0.3,0.5,1.4,2.7,0.9,3.3
					c-0.9,1.1-1.5-1.6-1.8-2.3c0,0,0-0.1-0.1-0.2c-1.9,0.6-4.6,1.8-5.2,0.9C375.6,164.3,377.7,162.5,379,161.7z"/>
			</g>
		</g>
		<g>
			<g>
				<path d="M371,240.6c0.5-0.4,0-1.2-0.2-1.6c-0.2-0.7-0.9-3.7-1.6-3.8c0,1.8,0.1,3.4,0.4,5.1C369.8,240.9,370.6,240.9,371,240.6z"
					/>
			</g>
			<g>
				<path d="M379.2,239.2c0-0.6-1.5-1.7-1.9-2.1c-0.2-0.3-1.1-1.6-1.6-1.4c-0.9,0.3-1.7-0.2-2.4-0.6c0.1,0.4,0.2,0.6,0.2,0.7
					c0.8,1.9,2.8,4.6,4.5,5.3C378.2,241.1,379.2,239.6,379.2,239.2z"/>
			</g>
			<g>
				<path d="M376.8,243.7c0.3-1.2-1.9-1.8-2.9-2.4c-1-0.6-1.2-1-2.2-0.3c-0.5,0.3-0.9,0.6-1.4,0.8c1.3,0.8,2.5,1.8,3.9,2.5
					c0.7,0.4,1.4,0.6,2.2,0.8C376.6,244.7,376.7,244.2,376.8,243.7z"/>
			</g>
			<g>
				<path d="M378,257c-1.7,0.6-3.7,3.3-4.5,5.2c-0.1,0.1-0.2,0.4-0.2,0.7c0.7-0.4,1.5-0.9,2.4-0.6c0.5,0.1,1.4-1.1,1.6-1.4
					c0.4-0.4,1.9-1.5,1.9-2.1C379.2,258.5,378.2,256.9,378,257z"/>
			</g>
			<g>
				<path d="M369.6,257.8c-0.4,1.7-0.4,3.3-0.4,5.1c0.7,0,1.4-3.1,1.6-3.8c0.1-0.4,0.6-1.2,0.2-1.6
					C370.6,257.1,369.8,257.2,369.6,257.8z"/>
			</g>
			<g>
				<path d="M376.8,254.4c-0.1-0.5-0.2-1-0.4-1.4c-0.8,0.1-1.5,0.4-2.2,0.8c-1.4,0.7-2.6,1.7-3.9,2.5c0.5,0.3,0.9,0.6,1.4,0.8
					c1.1,0.7,1.2,0.2,2.2-0.3C374.9,256.2,377.1,255.6,376.8,254.4z"/>
			</g>
			<g>
				<path d="M386.8,232.9c-0.8,0.1-1.5-1.2-1.8-1.1c-0.1,1.4-0.1,2.7-0.2,4.1c0.7-0.1,1.5-0.2,2.2-0.3
					C386.9,234.7,386.9,233.8,386.8,232.9z"/>
			</g>
			<g>
				<path d="M388,230.7c1.2-1.1,2.7-2,4-2.9c-2,0.2-3.9,1-5.5,2.2c0,0-0.2,0.1-0.8,0.6C386.4,232.6,387,231.8,388,230.7z"/>
			</g>
			<g>
				<path d="M375.1,234.9c0.3-1.8,0.6-3.6,0.9-5.3c-0.6-0.1-2.4,2.1-2.8,4.9C373.7,234.8,374.4,235,375.1,234.9z"/>
			</g>
			<g>
				<path d="M380.5,231.7c0.9-0.2,0.7-0.7,0.9-1.4c0.4-1,2.8-2.9,2.6-3.8c-1.4,0.8-5.6,3.2-5.1,5C379.1,232,380.2,231.8,380.5,231.7
					z"/>
			</g>
			<g>
				<path d="M382,234.3c-0.4-1.2-0.1-1.8-1.5-1.7c-0.5,0-1,0.1-1.6,0.1c0.2,0.7,0.2,1.4,0.5,2c0.4,1,1,1.9,1.5,2.8
					C382.8,236.4,382.7,236.3,382,234.3z"/>
			</g>
			<g>
				<path d="M377.6,248.4C377.6,248.4,377.6,248.4,377.6,248.4C378.1,248.4,377.8,248.4,377.6,248.4c3.1,0.5,7.8,0.2,10-2.4
					c1.4-1.7,3.8-7.1,2.1-9.1c-1.8-2.1-7.8,0.7-9.2,2.5C379.8,240.2,375.6,248,377.6,248.4z"/>
			</g>
			<g>
				<path d="M373.2,263.6c0.4,2.8,2.1,5,2.8,4.9c-0.3-1.8-0.6-3.6-0.9-5.3C374.4,263,373.7,263.3,373.2,263.6z"/>
			</g>
			<g>
				<path d="M396.2,234c-1-0.2-2,1.7-2.6,2.3c-1.1,1.3-1.3,0.9-2.8,0.4c0.8,4.6-1.1,10.2-5.8,11.8c-0.8,0.3-1.7,0.4-2.5,0.5
					c0.9,0.1,1.7,0.2,2.5,0.5c4.7,1.6,6.5,7.3,5.8,11.8c1.5-0.5,1.7-0.9,2.8,0.4c0.5,0.6,1.5,2.5,2.6,2.3c1-0.2,1.6-1.1,2.2-1.9
					c-0.5-0.4-0.9-0.7-1.4-1.1c-0.9-0.7-1.7-0.7-0.9-1.8c0.7-1,1.4-2,2.1-2.9c0.6-0.8,1.4-0.1,2.2-0.1c3.3,0.3,0.6-4.6-0.5-2.3
					c-0.8-1.4,1.3-3.2,1.3-5c0-1.8-2.1-3.7-1.3-5c1.1,2.4,3.8-2.6,0.5-2.3c-0.8,0.1-1.6,0.7-2.2-0.1c-0.7-1-1.4-2-2.1-2.9
					c-0.8-1.1,0-1.1,0.9-1.8c0.5-0.4,0.9-0.7,1.4-1.1C397.8,235.1,397.3,234.2,396.2,234z"/>
			</g>
			<g>
				<path d="M404.2,231.8c-1.3-0.5-3-0.2-4.3,0.2c0.3-0.1,0.6-0.2-0.1,0c-0.4,0.1-0.3,0.1-0.1,0c-1,0.3-2,0.7-3,1
					c0.8,0.6,1.5,1.1,2.1,1.8c0.7,0.9,1.2,0.4,2.2,0.1c0.8-0.2,2.3-0.1,2.9-0.6C404.6,233.9,405.2,232.2,404.2,231.8z"/>
			</g>
			<g>
				<path d="M396.7,265.1c1,0.3,2,0.7,3,1c-0.2-0.1-0.3-0.1,0.1,0c0.7,0.2,0.4,0.1,0.1,0c1.3,0.4,3.1,0.6,4.3,0.2
					c1-0.4,0.4-2-0.2-2.5c-0.6-0.5-2.1-0.4-2.9-0.6c-1-0.3-1.5-0.8-2.2,0.1C398.2,264,397.5,264.5,396.7,265.1z"/>
			</g>
			<g>
				<path d="M382,263.8c0.7-2,0.8-2.2-1-3.3c-0.5,0.9-1.1,1.8-1.5,2.8c-0.3,0.6-0.4,1.3-0.5,2c0.5,0,1,0.1,1.6,0.1
					C381.8,265.6,381.6,265,382,263.8z"/>
			</g>
			<g>
				<path d="M415,243c2.9-2.5,4.6-5.8,2.4-9.5c-1.7-2.9-6.9-4.9-9.9-2.8c-3.5,2.5-3.2,7.3,0.1,9.7c-0.3-1.3-0.7-2.8,0.3-3.9
					c1-1,2.5-1.3,3.8-0.9C414.7,236.6,415.7,240.2,415,243z"/>
			</g>
			<g>
				<path d="M387,262.5c-0.7-0.1-1.5-0.2-2.2-0.3c0.1,1.4,0.1,2.7,0.2,4.1c0.3,0.1,1-1.2,1.8-1.1C386.9,264.3,386.9,263.4,387,262.5
					z"/>
			</g>
			<g>
				<path d="M380.5,266.4c-0.3-0.1-1.4-0.3-1.5,0.2c-0.6,1.9,3.7,4.3,5.1,5c0.2-0.9-2.2-2.9-2.6-3.8
					C381.2,267.1,381.4,266.6,380.5,266.4z"/>
			</g>
			<g>
				<path d="M385.7,267.4c0.6,0.5,0.8,0.7,0.8,0.6c1.6,1.2,3.5,2,5.5,2.2c-1.3-0.9-2.9-1.7-4-2.9
					C386.9,266.3,386.4,265.5,385.7,267.4z"/>
			</g>
			<g>
				<path d="M407.5,267.4c3,2.2,8.2,0.2,9.9-2.8c2.1-3.7,0.5-7-2.4-9.5c0.7,2.9-0.3,6.4-3.3,7.4c-1.3,0.4-2.8,0.2-3.8-0.9
					c-1-1.1-0.5-2.6-0.3-3.9C404.3,260.1,404,264.9,407.5,267.4z"/>
			</g>
			<g>
				<path d="M377.6,249.7C377.8,249.7,378.1,249.6,377.6,249.7C377.5,249.7,377.6,249.7,377.6,249.7c-2,0.4,2.1,8.2,2.8,9
					c1.3,1.7,7.4,4.6,9.2,2.5c1.8-2-0.7-7.4-2.1-9.1C385.4,249.6,380.7,249.2,377.6,249.7z"/>
			</g>
		</g>
		<g>
			<g>
				<path d="M364.1,302.3c-0.2-0.7-0.4-1.4-0.6-2.1c-0.4-1.5-0.9-3-1.3-4.5c-1.9,1.2-3.9,2.2-5.6,3.7c1.4,1.6,2.8,3.1,4.2,4.7
					C361.9,303.4,363,302.9,364.1,302.3z"/>
			</g>
			<g>
				<path d="M357.3,311c0.7-0.2,1.4-0.4,2.2-0.6c-0.1-1.3-0.1-2.5-0.2-3.8c-2.1-0.4-4.1-0.8-6.2-1.2c-0.5,2.2-0.2,4.5-0.3,6.7
					C354.3,311.8,355.8,311.4,357.3,311z"/>
			</g>
			<g>
				<path d="M355.6,299.8c-0.4,0.4-1.3,1.1-1.8,2c-0.5,0.9-0.6,2-0.8,2.6c1.5,0.3,4.9,0.7,6.8,0.9
					C358.7,303.7,356.6,301,355.6,299.8z"/>
			</g>
			<g>
				<path d="M359.7,311.4c-2.1,0.5-4.7,1.7-6.8,1.5c0.2,2.1,0.4,4.3,0.7,6.4c2.6-0.7,5.3-1.4,7.9-2.1
					C360.8,315.3,360.3,313.4,359.7,311.4z"/>
			</g>
			<g>
				<path d="M370.9,300.5c-0.7-2.6-1.5-5.2-2.2-7.9c-1.9,0.9-3.9,1.8-5.8,2.7c1.2,1.7,1.5,4.6,2.2,6.7
					C367,301.5,369,301,370.9,300.5z"/>
			</g>
			<g>
				<path d="M367.7,325.3c2.2,1.8,4.5,3.6,6.9,5.2c0.4-0.6,0.7-1.2,1.1-1.8c-1.1-1.6-3-3.4-2.8-5.5c0.2-2.3,0.9-2.7-0.6-4.6
					c-1.1-1.5-2.4-2.4-3.2-4.2c-0.4-0.9,0.5-3.8-1.1-3.5c-1.9,0.4-3.8,1.5-5.5,2.3c-1.7,0.8,0.3,5,0.6,6.7
					C363.4,322.1,366.1,324,367.7,325.3z"/>
			</g>
			<g>
				<path d="M361.1,306c-0.7,1.2-1.1,5,0.1,6.6c0.7-1.5,4.7-3.9,6.3-3c-1.6-0.9-1.6-5.6-0.7-7C364.8,302.5,361.8,304.8,361.1,306z"
					/>
			</g>
			<g>
				<path d="M375.7,299.6c1.3,0,2.6,0.2,3.7,0.8c0-1.2,0.4-9.2-0.7-9.2c-3,0.1-5.6,0.3-8.4,1.1c0,0-0.1,0-0.1,0c0,0-0.1,0-0.1,0
					c-0.5,0.2,1.5,6.3,1.7,7.2C372,300.6,374.6,299.6,375.7,299.6z"/>
			</g>
			<g>
				<path d="M380.3,299.3c-0.1,1.7,0.5,1.4,2,1.9c1,0.4,2.1,0.8,3.1,1.2c0.6-2.4,2.5-4.8,3.5-7.1c1-2.4,1-3.1-1.9-3.4
					c-2.3-0.3-4.7-0.5-7-0.7C380.1,293.9,380.4,296.6,380.3,299.3z"/>
			</g>
			<g>
				<path d="M363,321.8c-0.5-1-0.9-3.7-2-3.4c-1,0.2-7.2,1.7-7.1,2.2c0,0,0,0.1,0,0.1c0,0,0,0.1,0,0.1c0.7,2.8,1.9,5.2,3.4,7.8
					c0.5,1,7.2-3.5,8.3-4.1C364.5,323.9,363.7,322.9,363,321.8z"/>
			</g>
			<g>
				<path d="M374.1,300.6c-1.6,0.6-6.2,1-6,2.9c0.2,2,0.2,4.1,0.8,6c0.5,1.6,2.5-0.7,3.5-0.8c1.9-0.2,3.4,0.4,5.2,0.6
					c2.5,0.3,2.4-0.4,4.3-1.8c1.7-1.2,4.2-0.6,6.1-0.4c0.3-0.6,0.6-1.2,0.9-1.9c-2.6-1.2-5.3-2.3-8-3.3
					C379.1,301.1,376.1,299.8,374.1,300.6z"/>
			</g>
			<g>
				<path d="M390.3,306.4c-2.1,2.7-2.9,5.7-7.2,5c-2.2-0.4-4.4-0.6-6.7-0.9c-0.6-0.1-1.6-0.5-2,0.2c-0.1,0.1-1.4,2.1-1.5,2.1
					c0.1,0-0.9,2.2-1,2.3c-0.3,0.7,0.5,1.3,0.9,1.8c1.4,1.7,2.8,3.5,4.2,5.2c2.8,3.4,0.6,5.6-0.6,8.8c2.1,0.2,5-0.2,5.9-0.7
					c0,0,0,0,0,0c0,0,0,0,0,0c0,0,0,0,0,0c0,0,0.1,0,0.1,0c0,0,0,0,0,0c3-1.7,4.8-5.3,6.5-8.3c1.7-3,3.9-6.3,3.8-9.8c0,0,0,0,0,0
					c0,0,0,0,0-0.1c0,0,0,0,0,0c0,0,0,0,0,0l0,0C392.6,310.7,391.5,308,390.3,306.4z"/>
			</g>
			<g>
				<path d="M394.4,312.1c1.8-0.3,3.7-0.8,5.4-1.2c1.5-0.4,3.2-0.7,2.9-2.4c-0.2-1-0.5-2.1-0.9-3.1c-0.7-2-1.8-3.9-3-5.7
					c-1.2,2.8-4,5.1-5.8,7.5C392.6,307.7,393.7,312.3,394.4,312.1z"/>
			</g>
			<g>
				<path d="M395.7,313c-1.8,0.3-2.5,1.4-0.8,2.3c1.9,1.1,4,1.7,6.1,2.1c2.2,0.5,2-3,2-3c0,0,0-2.6,0-3.7
					C400.6,311.7,398.3,312.5,395.7,313z"/>
			</g>
			<g>
				<path d="M394,295.3C394,295.3,394,295.3,394,295.3L394,295.3C393.9,295.3,393.9,295.3,394,295.3
					C393.9,295.3,393.9,295.3,394,295.3c-0.1-0.1-0.1-0.1-0.1-0.1l0,0c0,0,0,0,0,0c0,0-0.1-0.1-0.2-0.1c-1-0.7-2.1-1.4-3.1-2.1
					c-1,3.2-2.4,6.2-4,9.2c-0.6,1.1,1.5,1.3,2.3,1.8c1.4,0.7,2.4,1.5,3.5,2.6c2-2.3,3.9-4.6,5.8-6.9
					C398.7,298.9,395.2,296.2,394,295.3z"/>
			</g>
			<g>
				<path d="M390.9,320.8c-0.8,1.6,0.1,1.5,1.6,2.2c1.1,0.6,2.2,1.1,3.3,1.7c0.5,0.3,3.1,1.9,3.4,1.4c0.3-0.5,0.6-1,0.9-1.5
					c0.7-1.1,1.3-2.2,1.5-3.5c0,0,0,0,0-0.1l0,0c0,0,0,0,0-0.1c0,0,0,0,0,0c0.1-0.7,0.3-1.4,0.5-2.1c-3-0.5-5.9-1.6-8.5-3.1
					C392.6,317.5,391.7,319.2,390.9,320.8z"/>
			</g>
			<g>
				<path d="M383.4,331.5c-0.2-0.7-4.7,0.7-4.9,1.3c-1.1,2.8-1.7,6.4-3.5,8.8c2.1,0.1,4.3,0.1,6.4-0.3c1-0.2,2.1-0.5,3.1-0.8
					c1.6-0.6,1-2.2,0.6-3.7C384.6,335,384,333.1,383.4,331.5z"/>
			</g>
			<g>
				<path d="M366.1,335.3c1.5-2.1,2.6-4.8,4.4-6.6c-0.9-0.7-1.7-1.4-2.6-2.1c-1.2-1-1.3-1.6-2.7-0.7c-2.3,1.5-4.8,2.6-7.2,3.9
					c1.4,1.9,2.7,3.8,4.2,5.6C363.9,337.7,364.5,337.4,366.1,335.3z"/>
			</g>
			<g>
				<path d="M373.5,330.9c-0.8-0.5-2.1-2.1-2.7-1.1c-1.7,2.9-3.6,5.6-5.8,8.1c1.1,0.5,2.2,1.1,3.4,1.6c0.1,0,0.1,0.1,0.2,0.1
					c0,0,0,0,0,0l0,0c0,0,0,0,0,0l0,0c0,0,0,0,0,0l0,0c0,0,0,0,0,0c1.4,0.6,5.5,2.3,5.8,1.4c1-2.8,2-5.7,3-8.5
					C376,332.2,374.8,331.7,373.5,330.9z"/>
			</g>
			<g>
				<path d="M394.9,326.2c-1-0.6-2.1-1.3-3.1-2c-1.4-0.9-1.8-1.8-2.7-0.2c-1,1.6-1.9,3.2-2.9,4.7c2.6,1.5,5,3.5,7,5.8
					c0,0,2.1-1.5,3.9-4.6c0.1-0.3,0.5-1,0.8-1.5C398.1,327.9,395.4,326.5,394.9,326.2z"/>
			</g>
			<g>
				<path d="M386.5,330.3c-1.7-1-2.2,0.1-1.6,1.8c0.9,2.5,1.4,4.9,1.8,7.5c1-0.6,3.2-1.9,3.2-1.9c0,0,3.1-1.6,1.5-3.3
					C389.9,332.9,388.4,331.4,386.5,330.3z"/>
			</g>
		</g>
		<g>
			<g>
				<path d="M331.4,347.7c0.8,0.6,1.7,1.4,2.9,2.1c0.9,0.5,2,1,3,1.4c4.5,1.9,8.4,4.8,10.5,9.3c1.1,2.4,2.1,4,2,6.7
					c0,2-0.5,4.3-1.3,6.2c-0.8,2-2.5,4.2-4.3,5.3c-1.3,0.8-5,1.5-4.1,2.3c2,1.9,7.6-3.8,8.9-6.6c2.2-4.9,2.4-9.5-0.1-14.3
					c-2.6-5-6.7-8-11.8-10.4c-2.1-1-4.1-2-5.9-3.6c-1.6-1.3-2.3-2.9-3.4-4.5C327.4,344.1,329.8,346.4,331.4,347.7z"/>
			</g>
			<g>
				<path d="M311.9,364.7c-0.4,5.6,0.3,10.6,3.4,15.3c3,4.5,7.1,6.6,12.5,7c3,0.2,10.7-2,10-4.6c-0.3-1.2-2.6,1.7-4,2.5
					c-1.9,1-4.6,1.5-6.8,1.2c-2-0.2-4.2-0.9-6-1.8c-2.4-1.3-3.4-2.9-4.9-5c-2.9-4-3.5-8.9-3.1-13.7c0.1-1,0.2-2.2,0.2-3.3
					c0-1.3-0.3-2.5-0.5-3.5c-0.4-2.1-1.3-5.3-3.5-6c0.9,1.7,1.9,3.1,2.3,5.1C312,360.2,312,362.4,311.9,364.7z"/>
			</g>
			<g>
				<path d="M352.1,357.8c-2-3.1-4.4-5.8-7.5-7.8c-2.7-1.8-6.2-2.8-8.6-4.9c-1.2-1-2.5-1.9-3.3-3.3c-0.8-1.3-0.8-2.8-1-4.3
					c-1.9,2.1,0.7,5.3,2.2,6.7c2.4,2.2,4.9,3.3,7.6,4.9c5.1,2.9,10.7,7.1,11.6,13.3c0.9,5.6,0.3,11.8-3.6,16.2
					c-1.9,2.1-4.2,3.4-6.9,4.4c-1.2,0.4-1.7,0.7-2.5-0.4c-0.7-1.1-1.4-1.9-1.6-3.2c8.2-1.9,8.8-12.9,5.5-19.4
					c-2.1-4.2-6-6.6-10.1-8.6c-1.7-0.9-3.5-2.1-5-3.4c-1.6-1.4-2.5-2.9-3.8-4.6c-0.7,3.1,4.6,6.2,6.7,7.7c3.1,2.2,6.5,3.7,9.4,6.2
					c0.2,0.2,0.6,0.9,1.1,1.7c-1-0.6-2.3-0.8-3.4-1.2c-1.6-0.5,0.9,2,1.3,2.8c1.1,1.8,3.8,4.9,0.8,7.9c-0.6,0.7-3,2-3.8,2.4
					c-0.4,0.2-1.7,1.2-2.2,0.6c-0.4-0.5,0.1-1.1,0.5-1.4c1.1-0.6,4.6-2.1,5.3-3.3c0.2-0.4,1.1-1.4,1-1.9c-0.1-0.7-0.7-1.4-1-2
					c-0.3-0.5-1.5-2-2-2.6c-3.1-3.9-4.5-5.6-9.1-7.6c-1.9-0.8-4.1-2.2-6.3-2c-0.6,0-1.9,0.6-2.5,0.8c-0.4,0.4-1.6,1.3-1.9,1.8
					c-1.2,1.8-1.1,4.4-1.3,6.4c-0.5,4.9,0.4,7,2.3,11.6c0.3,0.7,1,2.4,1.3,3c0.4,0.6,0.8,1.4,1.3,1.9c0.3,0.3,1.7,0,2.1,0
					c1.3,0,4.3-2.4,5.4-3c0.4-0.3,1.2-0.4,1.5,0.2c0.2,0.7-2.8,2.3-3.1,2.5c-0.7,0.5-1.5,1-2.4,1.3c-4.2,1.2-5.5-2.7-6.6-4.5
					c-0.4-0.7-1.5-4.2-1.8-2.5c-0.2,1.1-0.6,2.2-0.6,3.3c-0.3-0.5-0.7-1-1-1.6c-0.8-3.8-0.5-7.4-1-11.2c-0.3-2.5-0.4-8.7-3.5-9.5
					c0.9,2,1.7,3.4,2.2,5.5c0.4,1.9,0.7,4.1,0.6,6c-0.2,4.6,0,9.1,2.7,13c4.2,6,14.1,10.8,19.7,4.5c1.1,0.8,1.5,1.8,2.1,2.9
					c0.6,1.2,0.1,1.6-0.8,2.4c-2.2,1.9-4.3,3.3-7.1,3.9c-5.7,1.3-11.4-1.1-15.9-4.6c-4.9-3.8-5.9-10.7-6-16.6
					c-0.1-3.2,0.1-5.9-0.6-9c-0.5-2-2.1-5.9-4.8-5.2c1.2,0.9,2.6,1.6,3.3,2.9c0.8,1.4,0.9,3,1.3,4.5c0.7,3.2-0.1,6.6,0.2,9.9
					c0.3,3.7,1.5,7.1,3.3,10.3c1.6,3,4.6,4.7,7.4,6.3c2.9,1.6,5.8,2.5,9.1,2.4c3.8-0.2,6.1-1.3,9.2-3.3l7.1-4.2
					c3.3-1.7,5.4-3.2,7.4-6.5c1.7-2.8,2.3-5.9,2.3-9.2C354,364,353.9,360.6,352.1,357.8z M323.6,355.8L323.6,355.8L323.6,355.8
					L323.6,355.8L323.6,355.8c0.6-0.3,2.4-1,2.6,0c-0.7,0.2-1.5,0.4-2.1,0.7c-0.6,0.4-1.1,1-1.6,1.5
					C321.6,357.4,323.1,356.2,323.6,355.8z M320.9,359.7c-0.3-0.7,2.5-0.7,4.2-1.4c1.4-1.1,2.7-3.6,3.2-3c0.5,0.6-1.3,2.6-2.9,3.5
					l0,0l0,0C323.8,359.7,321.2,360.4,320.9,359.7z M328.8,361.5c-0.5-1.3-1.2-0.7-2-0.2v0c-0.8,0.5-1.7,0.8-0.7,1.8
					c0.5,0.6,3.6,5.2,4,6.8c0.6,2.7-2.1,1-3.6,2c-0.8,0.5-2,2.9-3.1,2.1c1.2-2.4,3.3-3.7,6-3.4c-1.4-4.3-4.2-7-4.7-7.8
					c-0.5-0.8,0.6-1.6,1.7-2.3l0,0c1.1-0.6,2.3-1.2,2.8-0.4c0.5,0.8,1.6,4.6,4.6,7.9c1-2.5,3.2-3.7,5.9-3.7c0.2,1.4-2.5,1.3-3.4,1.7
					c-1.6,0.8-1.4,4.1-3.5,2.2C331.6,367.2,329.1,362.3,328.8,361.5z M336.3,378.7c-0.8-1.3-1.4-2.7-2.2-4c0-0.1-0.1-0.1-0.1-0.1
					c-0.4,2.8-1.9,4.3-4.8,4.9c-2.2,0.4-4.5,0.5-6.6-0.2c-0.7-0.5-1.5-1.1-2.2-1.9c0.4,0.2,0.8,0.4,1.2,0.6c2.7,1.4,8,1.6,10.3-0.8
					c0.6-0.6,1-3.3,2.1-3.9c1.1-0.7,3.6,0.3,4.5,0.1c3.1-0.9,5.5-5.6,5.6-8.7c0-0.5,0-1.1,0.1-1.6c0.3,1,0.5,2,0.6,3
					c-0.4,2.2-1.6,4.2-3,5.9c-1.9,2.3-3.9,2.8-6.6,1.8c0,0.1,0.1,0.1,0.1,0.2c0.7,1.4,1.7,2.7,2.5,4
					C337.2,378.4,336.8,378.5,336.3,378.7z"/>
			</g>
		</g>
		<g>
			<g>
				<path d="M196.1,334.3c-1.4-0.4-5.7-1.7-6.4,0.6c-0.8,2.8,0.7,2.9,2.9,3.3C193.2,336.3,194.2,335,196.1,334.3z"/>
			</g>
			<g>
				<path d="M188.8,334c-3.2,1.6-7.2,4.2-5.8,8.3c0.9,0.2,1.3,0.7,1.8-0.2c0.2-0.4,0.4-0.8,0.6-1.1c0.6-0.9,1.3-1.7,2.2-2.2
					c0.8-0.5,1.3-0.2,1.1-1.3c-0.1-0.4-0.2-0.9-0.2-1.3C188.3,335.7,188.9,334.2,188.8,334z"/>
			</g>
			<g>
				<path d="M199.7,340.3c0.4-2.7-2.9-7.1-5.3-3.7c-1,1.3-0.3,2.7,0.7,3.8C196,341.2,198.3,339.8,199.7,340.3z"/>
			</g>
			<g>
				<path d="M190.9,357.8c1.6-0.5,4-0.8,6.2-0.6c2.3,0.2,4.5,0.9,6,1.7c0.2-0.4-0.3-1.2-0.4-1.8c-0.1-0.8-0.9-1.5-1.1-2.3
					c-0.2-0.7-1-1.9-1.5-2.4c-0.7-0.1-1.2-0.4-1.9-0.6c-1.3-0.4-2.7-0.1-3.8,0.6c-0.6,0.4-1,0.9-1.4,1.6c-0.3,0.7-1.3,1.3-1.5,2.1
					C191.5,356.6,190.8,357.4,190.9,357.8z"/>
			</g>
			<g>
				<path d="M182.3,343.3c-2.6-0.8-5.5,1.3-6,3.8c-0.3,1.6-1.2,3.1-0.9,4.8c0.2,1.2,1.1,2,1.7,3c0.7-1.1,0.9-2.3,1.7-3.4
					c1.1-1.5,2.6-2.4,4.2-3.3c1.3-0.7,2.8-1.5,2.3-3.2C185,344.3,183,343.5,182.3,343.3z"/>
			</g>
			<g>
				<path d="M177.9,367.2c0.9-0.9,1.6-2,2.6-2.8c0.6-0.5,1.7-0.5,2.5-0.8c1.5-0.6,3.6-0.6,4-2.5
					C182.7,361.5,178.9,362.4,177.9,367.2z"/>
			</g>
			<g>
				<path d="M189.9,356.1c0.6-0.4,0.8-1,1.3-1.4c-4.4,0.3-7.4,1.1-10.5,4.3c2.2-1.1,4.1-1.8,6.5-2.4
					C188,356.4,189.2,356.6,189.9,356.1z"/>
			</g>
			<g>
				<path d="M208.3,370.9c1.9,1.4,3.5,2.8,4.8,4.9c0.1-3.9-4-5.8-6.8-7.8C206.1,370.1,206.8,369.8,208.3,370.9z"/>
			</g>
			<g>
				<path d="M178.2,372.6c1.6-1.8,3.4-2.9,5.6-3.9c1.7-0.8,2.3-0.4,2.5-2.5C183.2,367.6,178.8,368.8,178.2,372.6z"/>
			</g>
			<g>
				<path d="M207.1,358.4c2.2,1,4.6,2.5,6.4,4.2c-2-4.1-5.8-5.7-10.1-6.8c0.4,0.5,0.5,1.1,1,1.6C205.2,358,206.3,358,207.1,358.4z"
					/>
			</g>
			<g>
				<path d="M197.1,358.1c-0.7-0.1-1.4-0.1-2.1,0c-2.7,0.2-6,0.4-6.7,3.7c-0.1,0.6-0.1,1.3,0.1,1.9c0.3,1.1,0.9,0.6,1.8,0.5
					c1.7-0.2,3.3-0.5,5-0.1c0.5,0.1,0.9,0.3,1.4,0.4c0.5-0.1,1-0.2,1.5-0.2c1.7-0.1,3.3,0.4,4.9,1c0.9,0.3,1.4,0.9,1.8-0.1
					c0.3-0.6,0.4-1.3,0.4-1.9c-0.1-3.3-3.3-4.1-5.9-4.8C198.5,358.3,197.8,358.2,197.1,358.1z"/>
			</g>
			<g>
				<path d="M196.7,341.4c-1.1,0.9-0.8,2.9-0.3,4.1c0.5,0.1,3.1,0.8,3.5,0.3c0.6-0.8,0.7-2.5,0.4-3.4
					C199.9,340.8,197.9,340.5,196.7,341.4z"/>
			</g>
			<g>
				<path d="M196.7,346.4c-1.4,0.6-1.6,3.1-1.2,4.3c1.5,0,2.9,0.3,4.4,0.7c0.5-1.7,0.9-2.4-0.1-3.9
					C199.2,346.6,197.7,346,196.7,346.4z"/>
			</g>
			<g>
				<path d="M189.6,357.3c-2,0.5-4.2,0.7-6.1,1.4c-1.6,0.6-2.7,1.8-3.8,3c2-1,4.1-1.1,6.4-1.4C187.7,360.2,189,358.9,189.6,357.3z"
					/>
			</g>
			<g>
				<path d="M204.5,375.2c0.6,0.5,1.1,1,1.6,1.4c0.4-0.3,0.8-0.6,1.2-0.8c-0.9-1-1.7-2-2.6-3C204,373.9,203.4,374.2,204.5,375.2z"/>
			</g>
			<g>
				<path d="M209.6,380.8C209.6,380.8,209.7,380.7,209.6,380.8c0.9-0.6-1.3-3.6-1.6-4.1c-0.4,0.2-0.8,0.5-1.1,0.7
					C207.8,378.5,208.7,379.6,209.6,380.8z"/>
			</g>
			<g>
				<path d="M213.6,364.8c-0.8-1.4-1.7-2.8-3.2-3.7c-1.8-1-3.9-1.7-5.8-2.5c0.3,1.8,1.3,3.2,2.9,3.7
					C209.7,363,211.8,363.5,213.6,364.8z"/>
			</g>
			<g>
				<path d="M206.5,362.9c0,1.8,2.1,2.3,3.5,3.1c0.7,0.4,1.8,0.6,2.3,1.2c0.8,1,1.4,2.1,2.1,3.2C214.3,365.6,210.7,364,206.5,362.9z
					"/>
			</g>
			<g>
				<path d="M209.4,388.6c3.4-4.1,0.8-7.1,0.8-7.2C209.2,381.6,209.2,387.7,209.4,388.6z"/>
			</g>
			<g>
				<path d="M183.8,373.6c0.3,0.3,0.7,0.7,1.1,1c0.6-0.4,1.2-0.8,1.9-1.1c1.3-0.7,0.8-1.2,0.2-2.4
					C185.9,372,184.8,372.8,183.8,373.6z"/>
			</g>
			<g>
				<path d="M180.7,378.1C180.7,378.1,180.7,378.1,180.7,378.1c1.1-0.9,2.3-1.9,3.4-2.8c-0.3-0.3-0.7-0.6-1-0.9
					C182.6,374.9,179.9,377.4,180.7,378.1z"/>
			</g>
			<g>
				<path d="M178.7,390.2c-1.2,2.5,0.6,7.3,2.6,8.9c0.7,0.6,6.1,3.6,6.7,2.3c-2.3-1.9-4.4-3.5-5.3-6.5c-0.5-1.7-0.5-2.9,1.7-2.4
					c1.4,0.3,2.7,1.1,4,1.7c-0.9-2.8-1.6-5.9-4.8-6.6C180.7,386.8,179.7,388.2,178.7,390.2z"/>
			</g>
			<g>
				<path d="M180.1,378.7c0,0.1-3.1,2.6-0.5,7.2C179.8,385.1,181,379,180.1,378.7z"/>
			</g>
			<g>
				<path d="M205.2,389.4c-3.3,0.1-4.5,3.1-5.9,5.7c1.4-0.4,2.8-0.9,4.2-0.9c2.3,0,2,1.1,1.2,2.7c-1.4,2.8-3.8,4-6.4,5.5
					c0.3,1.5,6.1-0.6,7-1c2.3-1.2,4.7-5.2,4-7.9C208.7,391.2,207.8,389.3,205.2,389.4z"/>
			</g>
			<g>
				<path d="M198.6,365.2c-0.7,0-1.4,0-2.1,0.2c-0.7-0.2-1.4-0.4-2.1-0.5c-1.9-0.3-6.3-0.4-6.8,2.2c-0.3,1.7,0.1,3.1,0.8,4.6
					c0.8,1.7,1,1.5,2.8,1.3c0.5-0.1,2.6-0.2,4.5-0.1c1.9,0.3,4,0.8,4.4,1c1.8,0.5,1.9,0.8,3-0.7c1-1.3,1.7-2.7,1.6-4.4
					C204.8,365.9,200.6,365.2,198.6,365.2z"/>
			</g>
			<g>
				<path d="M197.7,373.8c-0.7-0.2-1.3-0.3-2-0.4c-0.7,0-1.3,0-2,0.1c-1.5,0.1-3.7-0.1-4.7,1.3c-2.1,2.9-0.1,6.5,2.2,8.3
					c0.2-0.9,0.1-2.3,1.2-2.4c0.3,0,1.8-0.1,2.6-0.1c0.8,0.1,2.2,0.4,2.5,0.5c1.1,0.3,0.7,1.7,0.7,2.5c2.6-1.4,5.3-4.5,3.7-7.7
					C201.3,374.4,199.1,374.2,197.7,373.8z"/>
			</g>
		</g>
		<g>
			<g>
				<path d="M131.1,299l-4.2-0.5c0.1,0.2,0.2,0.5,0.3,0.7c0.3,0.6,0.6,1.2,0.8,1.5c0.2,0.3,2,1.2,3.6,1.6c0.7,0.2,1.3,0.2,1.6,0.2
					c1-1.1,1.2-5,1-5.4c-0.1-0.3-0.5-0.9-0.9-1.4c-0.2-0.2-0.3-0.4-0.4-0.6L131.1,299z"/>
			</g>
			<g>
				<path d="M127.1,297.7c0.1,0,0.1,0,0.2,0c0.6,0,1.3,0.1,2,0.2c0.4,0.1,0.8,0.1,1.3,0.2c0.2-0.4,0.3-0.8,0.5-1.2
					c0.2-0.6,0.5-1.2,0.8-1.8c0.4-0.9-0.5-2.1-1.2-3c-0.1-0.2-0.3-0.3-0.4-0.5c-0.3,1-0.5,2-0.7,3l-0.2,1.3l-1.3-0.4
					c-0.7-0.2-1.4-0.5-2.2-0.7c-0.3-0.1-0.5-0.1-0.8-0.2c0.1,0.2,0.2,0.3,0.2,0.5C125.7,296.2,126.2,297.5,127.1,297.7z"/>
			</g>
			<g>
				<path d="M175.1,307.5c-0.6-1.4-2-2.4-3.8-2.9c-2.6-0.7-5.7-0.2-7.5,1.1l-1.6-0.1c-4.3-0.4-8.7-0.8-13-1.1
					c-2.6-0.2-5.3-0.2-7.9-0.3c-1.9-0.1-4-0.1-6.1-0.2c-0.2-0.4-0.5-0.8-0.7-1.3c-0.3,0.3-1.5,0.9-1.9,1.1c0.2,0.4,0.5,0.7,0.7,1.1
					c-1,1.9-2,3.8-3,5.7c-1.2,2.3-2.5,4.7-3.6,7c-1.9,3.9-3.7,8-5.4,11.9l-0.6,1.4c-1.9,1-3.6,3.2-4.3,5.5c-0.6,2-0.4,3.9,0.6,5.2
					c0.7,0.9,1.8,1.7,2.8,2c0.9,0.2,1.7,0.1,2.4-0.4c1.2-0.9,1.5-2.1,0.8-3.8c-0.6,1.5-1.9,2-2.9,1.7c-1.2-0.3-2.2-1.6-1.8-3.4
					c0.7-3.3,4.5-5.2,7.4-4.9c0.8,0.1,1.5,0.3,2.3,0.4c0.9,0.2,1.8,0.4,2.7,0.5c2,0.2,3.9,0.2,5.9,0.1c3.3-0.2,7.4-2,9.9-4.3
					c-0.1-0.1-0.1-0.3-0.2-0.5c-0.4-0.8-1.1-2.5-1.6-2.6l0,0c-0.4,0-1.3,0.8-1.9,1.3c-0.3,0.3-0.6,0.5-0.8,0.7
					c-2.2,1.5-4.4,2.4-6.4,2.8c-2.7,0.5-5.2,0.3-7.2,0.1c-0.6-0.1-1.2-0.2-1.9-0.4c-1.4-0.3-2.9-0.6-4.2-0.4l0.2-0.5
					c1.7-3.9,3.5-7.9,5.4-11.8c1.1-2.4,2.4-4.7,3.6-7c0.9-1.7,1.8-3.4,2.7-5.1c3.5,5.6,6.5,10.7,9.2,15.7c0.8,1.5,1.7,2.9,2.6,4.2
					c1,1.6,2.1,3.2,2.9,4.9c0.8,1.6,1.5,2.9,2.2,4.1c0.3,0.4,0.5,0.7,0.8,0.8c0.2,0.1,0.5,0,0.8-0.2c0.3-0.2,0.5-0.3,0.5-0.5
					c0.1-0.3,0-0.6-0.3-1.1c-0.7-1.2-1.5-2.5-2.5-3.9c-1.1-1.6-2-3.3-2.8-4.9c-0.8-1.4-1.5-2.9-2.4-4.3c-3-4.7-6-9.8-9.1-15.5
					c1.9,0.1,3.8,0.1,5.5,0.2c2.6,0.1,5.2,0.1,7.8,0.3c4.4,0.3,8.8,0.7,13,1.1l0.7,0.1c-0.8,1-1.2,2.4-1.6,3.7
					c-0.2,0.6-0.4,1.2-0.6,1.8c-0.8,1.9-1.8,4.2-3.6,6.3c-1.4,1.6-3.2,3-5.6,4.2c-0.2,0.1-0.5,0.2-0.9,0.3c-0.8,0.3-1.9,0.6-2.1,1
					c-0.2,0.4,0.9,2,1.5,2.7c0.1,0.2,0.2,0.3,0.3,0.4c3.3-1.1,6.9-3.7,8.6-6.5c1-1.6,2-3.3,2.8-5.1c0.4-0.8,0.7-1.7,0.9-2.6
					c0.2-0.7,0.5-1.5,0.7-2.2c0.6-1.5,2-2.9,3.6-3.7l0.1,0l0,0c1.2-0.5,2.6-0.7,4-0.4l0.2,0.1c1.8,0.6,2.4,2.1,2.1,3.3
					c-0.3,1-1.3,1.9-2.9,1.7c0.6,0.7,1.3,1.2,1.9,1.3c0.6,0.2,1.2,0.1,1.8-0.2C175.9,311.8,175.8,309.1,175.1,307.5z"/>
			</g>
			<g>
				<path d="M155.8,333.9l0-0.1L155.8,333.9c-0.3-0.1-1.7,1.1-2.3,1.6l-0.3,0.3c-0.3,0.3-0.7,0.5-1.1,0.7l-0.4,0.1
					c-0.6,0.2-2.5,1-2.5,1.2c-0.1,0.8,3.1,2.6,5.1,3.1c0.6,0.2,1,0.2,1.2,0.2c0.7-0.7,1.1-4.3,0.8-6.1
					C156.2,334.2,156,334,155.8,333.9z"/>
			</g>
		</g>
		<g>
			<g>
				<path d="M95.9,270.8c0,2.2,0.2,4.4,0.4,6.6c1.2-1.9,2.4-3.8,3.7-5.7C99.1,270.8,95.9,268.3,95.9,270.8z"/>
			</g>
			<g>
				<path d="M115.4,240.7c2.3-3.2,0.9-5.5-1.6-8c0,1.6-0.7,3.5-1.7,4.8c-1,1.3-3,2.2-4.3,3C110.4,241.5,113.4,243.5,115.4,240.7z"/>
			</g>
			<g>
				<path d="M97.7,263.9c-1.3,0-1.4,3.2-1.4,4c-0.1,1.2,1,0.8,2,1.2c0.8,0.3,1.6,0.8,2,1.5c1.3-1.3,3.7-2.5,2.3-4.5
					C101.6,264.7,99.4,264,97.7,263.9z"/>
			</g>
			<g>
				<path d="M100,259.2c-1.1,1-1.8,2.4-2.4,3.8c3,0.7,5.7,1.3,6.1,4.7c0.8-0.7,1.6-1.4,2.5-2l0,0C109.7,263.4,102.1,257.3,100,259.2
					z"/>
			</g>
			<g>
				<path d="M109.5,255.7c-3.4-2.2-5.2,0-8,2.1c3.6,0.7,6.7,2.4,6.6,6.5c1.4-0.8,3.3-1.8,4.2-2.3
					C114.7,260.8,110.6,256.5,109.5,255.7z"/>
			</g>
			<g>
				<path d="M117.3,232.6c0.2-0.1,0.3-0.1,0.4-0.2c0,0,0,0,0,0c0,0,0,0,0,0s0,0,0,0h0c0,0,0,0,0,0h0c1.2-0.6,2.5-1.1,3.8-1.1
					c-0.7-1.5-2.3-2.6-3.8-3.4c-1.8-1-3.3-2.5-5.1-3.5c-0.1,1.7,0.4,3.3,1.3,4.8C114.5,230.1,115.9,233.3,117.3,232.6z"/>
			</g>
			<g>
				<path d="M112.2,232c-0.9-0.5-2.9-1.5-4.2-2.3c0,4.1-3,5.8-6.6,6.5c2.8,2.1,4.6,4.3,8,2.1C110.6,237.6,114.7,233.2,112.2,232z"/>
			</g>
			<g>
				<path d="M99.8,222.4c-1.2-1.9-2.5-3.8-3.7-5.7c-0.2,2.2-0.4,4.4-0.3,6.6C95.8,225.8,99,223.3,99.8,222.4z"/>
			</g>
			<g>
				<path d="M102.6,228c1.4-2-1-3.2-2.3-4.5c-0.5,0.7-1.2,1.2-2,1.5c-1,0.4-2.1,0-2,1.2c0.1,0.8,0.1,4,1.4,4
					C99.3,230.1,101.5,229.4,102.6,228z"/>
			</g>
			<g>
				<path d="M106.2,228.4C106.2,228.4,106.2,228.4,106.2,228.4c-0.9-0.6-1.7-1.3-2.6-2c-0.4,3.4-3,4-6.1,4.7
					c0.5,1.4,1.3,2.8,2.4,3.8C102.1,236.8,109.7,230.6,106.2,228.4z"/>
			</g>
			<g>
				<path d="M149.8,244.8c-0.4-0.9,1.3-1.8,1.8-2.2c-2-0.3-4-0.7-6-0.5c1,1.3,1.1,3.2,1.1,4.8c0,1.6-0.1,3.5-1.1,4.8
					c2,0.3,4-0.2,6-0.5c-0.6-0.4-2.2-1.3-1.8-2.2c0.3-0.8,2.9-1.1,3.6-1.3c1.1-0.3,2.3-0.4,2.9-0.9c-0.7-0.5-1.8-0.6-2.9-0.9
					C152.7,245.9,150.1,245.6,149.8,244.8z"/>
			</g>
			<g>
				<path d="M115.5,253.4c-2.1-2.8-5.1-0.8-7.7,0.2c1.4,0.9,3.3,1.7,4.4,3c1,1.2,1.7,3.2,1.7,4.8
					C116.3,258.9,117.8,256.5,115.5,253.4z"/>
			</g>
			<g>
				<path d="M117.8,261.6C117.8,261.6,117.8,261.6,117.8,261.6L117.8,261.6L117.8,261.6L117.8,261.6
					C117.8,261.6,117.8,261.6,117.8,261.6c-0.2-0.1-0.3-0.1-0.5-0.2c-1.4-0.7-2.8,2.6-3.4,3.5c-0.9,1.5-1.3,3.1-1.2,4.8
					c1.8-1.1,3.3-2.5,5.1-3.6c1.4-0.8,3-1.8,3.8-3.4C120.3,262.7,119,262.2,117.8,261.6L117.8,261.6z"/>
			</g>
			<g>
				<path d="M142.2,240.2c-2.8-2-5.5-4-8.6-5.4c-2.9-1.3-6.2-2.1-9.4-2.4c-1-0.1-8.6,0.7-7.3,2.4l0,0c1.3,1.8,1.1,4.4,0,6.2
					c-1.3,2.1-2.7,1.7-3.5,3.2c-0.2,0.3-0.7,1.9-0.7,2.8c0,0.9,0.5,2.5,0.7,2.8c0.8,1.5,2.2,1.1,3.5,3.2c1.1,1.8,1.2,4.4,0,6.2
					c0,0,0,0,0,0c-1.2,1.7,6.3,2.5,7.3,2.4c3.2-0.3,6.5-1.1,9.4-2.5c3.1-1.4,5.8-3.4,8.6-5.4c2.2-1.6,3.7-3.3,3.7-6.8
					S144.4,241.7,142.2,240.2z M124.1,234.3c0.6,0.1,1.3,1.6,1.8,2.3c0,0.1,0.1,0.2,0.3,0.3c2.8-2.3,6.4,0.9,6.9,3.5
					c0.2,0.9,5.2,0.8,4.7,1.8c-0.5,1.1-9.7-0.5-12.4-4.5C125.1,237.4,123.2,234.2,124.1,234.3z M133,253.5c-0.5,2.6-4,5.8-6.8,3.5
					c-0.2,0.2-0.3,0.3-0.3,0.3c-0.5,0.8-1.2,2.3-1.8,2.4c-0.9,0.1,1-3.1,1.2-3.5c2.7-3.9,11.9-5.6,12.4-4.5
					C138.2,252.7,133.2,252.6,133,253.5z M141.8,243.2c0.4-0.4,0.6,0,0.9,0.2c0.3,0.3,0.6,0.7,0.9,0.9c0.8,0.2,1.1,1.1,0.5,1.3
					c-0.6,0.1-1.6-0.9-2.2-1.5C141.7,243.8,141.4,243.6,141.8,243.2z M143.7,249.7c-0.4,0.1-0.6,0.6-0.9,0.9
					c-0.3,0.2-0.5,0.5-0.9,0.2c-0.4-0.4-0.1-0.6,0.1-0.8c0.6-0.6,1.7-1.6,2.2-1.5C144.7,248.6,144.4,249.5,143.7,249.7z"/>
			</g>
		</g>
		<g>
			<g>
				<path d="M259.6,398.3c0,0.8,0,1.5-0.1,2.3c0,0.3-0.1,0.7,0.1,0.9c0.1,0.2,0.6,0.3,1,0.3c0.4,0,0.9-0.1,1-0.3
					c0.1-0.2,0.1-0.6,0.1-0.9c0-0.8-0.1-1.5-0.1-2.3c0-1.8-0.1-3.5-0.1-5.3c0-1-0.1-2-0.1-2.9c0-2.2-0.2-18.1-0.1-20.2
					c-0.2-0.2-0.5-0.2-0.8-0.2c-0.4,0-0.6,0-0.8,0.2c0.1,2.2,0.1,18,0.1,20.2c0,1-0.1,1.9-0.1,2.9
					C259.6,394.8,259.6,396.6,259.6,398.3z"/>
			</g>
			<g>
				<path d="M259.3,368.5c0.1,0.4,0.3,0.4,0.6,0.3c0.1,0,0.7,0,0.8,0c0.4,0,0.5,0,0.6-0.3c0.2-0.5,0.4-1,0.6-1.5
					c0.9-1.4,1.8-2.8,2.7-4.3c-1.5-0.4-3.6-0.5-4.4-0.5c0,0-3,0.1-4.4,0.5c0.9,1.4,1.9,2.8,2.8,4.2
					C258.9,367.5,259.1,368,259.3,368.5z"/>
			</g>
			<g>
				<path d="M282.3,397.4c0.6-1.6,1.1-3.3,1.8-4.6c0.2,0,0.4,0.1,0.6,0.1c-0.1-3.6-2.5-5.9-4.2-6.4c-1.1-0.3-2.3-0.6-3.3-0.5
					c-1.6,0.2-2.9,1.3-3.7,2.8c-0.5,1-0.7,2.5-0.4,3.6c0.2,0,0.4,0,0.6-0.1c0.9,1.4,1.7,3.1,2.6,4.9c1,2,2,4,3,5.7l0.1,0.2
					c-0.2,0.1-0.5,0.3-0.6,0.5c-0.1,0.2-0.2,0.4-0.2,0.7H262c-0.4-0.6-0.9-1.1-1.4-1.1c-0.5,0-1.1,0.5-1.4,1.1h-16.5
					c0-0.2-0.1-0.3-0.2-0.5c-0.2-0.2-0.3-0.3-0.6-0.5l0.1-0.2c1-1.7,2.1-3.8,3.2-5.8c1-1.8,1.9-3.5,2.7-5c0.2,0,0.4,0,0.7,0.1
					c0.2-1.1,0-2.7-0.5-3.8c-0.8-1.6-2.2-2.7-4-2.9c-1.1-0.2-2.4,0.2-3.6,0.6c-1.8,0.6-4.3,3.1-4.4,6.9c0.4-0.1,0.7-0.1,1-0.2
					c0.7,1.4,1.2,3,1.8,4.7c0.6,1.9,1.3,3.9,2.1,5.4l0.1,0.1c-0.3,0.1-0.6,0.3-1,0.7c-1,1.2-0.3,2.5,1.2,2.5c0.7,0,1.1-0.5,1.3-1
					h16.1c0,0,0,0.1,0,0.1c0,0.6,0.4,1.6,1.8,1.6c1.4,0,1.8-1,1.8-1.7c0,0,0-0.1,0-0.1h16.3c0.2,0.4,0.6,0.7,1.2,0.7
					c1.5,0,2-1.3,1.1-2.3c-0.3-0.3-0.6-0.5-0.9-0.6l0.1-0.2C281,401.3,281.7,399.3,282.3,397.4z M240,397.3
					c-0.5-1.5-1.1-3.1-1.7-4.5c2.9-0.2,5.5-0.3,8.4-0.5c-0.8,1.4-1.6,2.9-2.4,4.5c-0.9,1.7-1.8,3.4-2.7,4.9
					C241,400.4,240.5,398.9,240,397.3z M277.2,396.8c-0.8-1.5-1.5-3.1-2.3-4.5c2.7,0.1,5.2,0.2,7.9,0.4c0,0,0.1,0,0.1,0
					c-0.6,1.3-1.1,2.9-1.6,4.4c-0.5,1.5-1.1,3.1-1.6,4.4C278.8,400,278,398.4,277.2,396.8z"/>
			</g>
		</g>
	</g>
	<g>
		<g opacity="0.4">
			<g>
				<path d="M257.2,427c-15.4,0-30.9-2-46-6.1c-94.4-25.3-150.6-122.6-125.3-217C106.6,126.5,177,72.5,257,72.5
					c15.4,0,30.9,2,46,6.1c45.7,12.3,83.9,41.6,107.6,82.6c23.7,41,30,88.7,17.7,134.5C407.5,373,337.2,427,257.2,427z M257,73.6
					c-79.5,0-149.4,53.7-170,130.6c-12.2,45.4-5.9,92.9,17.6,133.6c23.5,40.7,61.5,69.9,106.9,82.1c15,4,30.3,6,45.7,6
					c79.5,0,149.4-53.7,170-130.6c12.2-45.4,5.9-92.9-17.6-133.6c-23.5-40.7-61.5-69.9-106.9-82.1C287.7,75.6,272.3,73.6,257,73.6z"
					/>
			</g>
		</g>
		<g opacity="0.8">
			<g>
				<path d="M257.2,348L257.2,348c-8.6,0-17.1-1.1-25.5-3.4c-16.7-4.5-31.9-13.3-44.1-25.4c-12.2-12.2-21-27.4-25.4-44
					c-4.5-16.6-4.5-34.2,0-50.9c4.5-16.7,13.3-31.9,25.4-44.1c12.2-12.2,27.4-21,44-25.4c16.6-4.5,34.2-4.5,50.9,0
					c16.7,4.5,31.9,13.3,44.1,25.4c12.2,12.2,21,27.4,25.4,44c4.5,16.6,4.5,34.2,0,50.9c-4.5,16.7-13.3,31.9-25.4,44.1
					c-12.2,12.2-27.4,20.9-44,25.4C274.2,346.9,265.7,348,257.2,348z M257,152.6c-8.5,0-16.9,1.1-25.1,3.3
					c-16.4,4.4-31.5,13.1-43.6,25.1c-12,12-20.7,27-25.1,43.6c-4.4,16.5-4.4,33.9,0,50.3c4.4,16.4,13.1,31.5,25.1,43.6
					c12,12,27.1,20.7,43.6,25.1c8.3,2.2,16.7,3.3,25.2,3.3h0c8.5,0,16.9-1.1,25.1-3.3c16.4-4.4,31.5-13.1,43.6-25.1
					c12-12,20.7-27,25.1-43.6c4.4-16.5,4.4-33.9,0-50.3c-4.4-16.4-13.1-31.5-25.1-43.6c-12-12-27.1-20.7-43.6-25.1
					C274,153.7,265.5,152.6,257,152.6z"/>
			</g>
		</g>
		<g opacity="0.6">
			<g>
				<path d="M257.1,328.3L257.1,328.3c-6.9,0-13.7-0.9-20.4-2.7c-13.3-3.6-25.5-10.6-35.2-20.3c-9.7-9.7-16.8-21.9-20.3-35.2
					c-3.6-13.3-3.6-27.3,0-40.7c3.6-13.4,10.6-25.5,20.3-35.2c9.7-9.7,21.9-16.8,35.2-20.3c13.2-3.6,27.3-3.6,40.7,0
					c13.3,3.6,25.5,10.6,35.2,20.3c9.7,9.8,16.8,21.9,20.3,35.2c3.6,13.3,3.6,27.3,0,40.7c-3.6,13.4-10.6,25.5-20.3,35.2
					c-9.7,9.7-21.9,16.7-35.2,20.3C270.8,327.4,264,328.3,257.1,328.3z M257,172.3c-6.7,0-13.5,0.9-20,2.6
					c-13.1,3.5-25.1,10.5-34.7,20.1c-9.6,9.6-16.5,21.6-20,34.7c-3.5,13.2-3.5,27,0,40.1c3.5,13.1,10.5,25.1,20.1,34.7
					c9.6,9.6,21.6,16.5,34.7,20c13.2,3.5,27,3.5,40.1,0c13.1-3.5,25.1-10.5,34.7-20.1c9.6-9.6,16.5-21.6,20-34.7
					c3.5-13.2,3.5-27,0-40.1c-3.5-13.1-10.5-25.1-20.1-34.7c-9.6-9.6-21.6-16.5-34.7-20C270.5,173.2,263.8,172.3,257,172.3z"/>
			</g>
		</g>
		<g opacity="0.4">
			<path d="M445.7,300.9l0.3-1l-124.6-33.4c2.8-10.9,2.8-22.4,0-33.3l124.6-33.4l-0.3-1L321.1,232c-3-10.9-8.8-20.8-16.7-28.8
				l22.1-22.2l69.1-69.1l-0.8-0.8l-69.1,69.1l-22.1,22.2c-8-7.9-18-13.6-28.9-16.7l33.4-124.6l-1-0.3l-33.4,124.6
				c-10.9-2.8-22.4-2.8-33.3,0L207,60.9l-1,0.3l33.4,124.6c-10.9,3-20.8,8.8-28.9,16.7l-91.2-91.2l-0.8,0.8l91.2,91.2
				c-7.9,8-13.6,18-16.7,28.9L68.5,198.7l-0.3,1l124.6,33.4c-2.8,10.9-2.8,22.4,0,33.3L68.2,299.8l0.3,1l124.6-33.4
				c3,10.9,8.8,20.8,16.7,28.9l-91.2,91.2l0.8,0.8l91.2-91.2c8,7.9,18,13.6,28.9,16.7L206,438.3l1,0.3L240.4,314
				c5.5,1.4,11.1,2.1,16.7,2.1c5.6,0,11.2-0.7,16.6-2.1l33.4,124.6l1-0.3l-33.4-124.6c10.8-3,20.8-8.8,28.8-16.7l91.2,91.2l0.8-0.8
				l-91.2-91.2c7.9-8,13.6-18,16.7-28.9L445.7,300.9z M303.3,295.9c-8.1,8.1-18.2,13.9-29.3,16.9c-11,3-22.7,3-33.8,0
				c-11.1-3-21.2-8.8-29.3-16.9c-8.1-8.1-13.9-18.2-16.9-29.3c-3-11-3-22.7,0-33.8c3-11.1,8.8-21.2,16.9-29.3
				c8.1-8.1,18.2-13.9,29.3-16.9c5.5-1.5,11.2-2.2,16.9-2.2c5.7,0,11.4,0.8,16.9,2.2c11.1,3,21.2,8.8,29.3,16.9
				c8.1,8.1,13.9,18.2,16.9,29.3c3,11,3,22.7,0,33.8C317.2,277.8,311.3,287.9,303.3,295.9z"/>
		</g>
	</g>
</g>
</svg>
