<?xml version="1.0" encoding="utf-8"?>
<!-- Generator: Adobe Illustrator 18.0.0, SVG Export Plug-In . SVG Version: 6.00 Build 0)  -->
<!DOCTYPE svg PUBLIC "-//W3C//DTD SVG 1.1//EN" "http://www.w3.org/Graphics/SVG/1.1/DTD/svg11.dtd">
<svg version="1.1" id="Layer_1" xmlns="http://www.w3.org/2000/svg" xmlns:xlink="http://www.w3.org/1999/xlink" x="0px" y="0px"
	 viewBox="0 0 512 512" enable-background="new 0 0 512 512" xml:space="preserve">
<g>
	<g>
		<g>
			<path d="M308.9,122.6c-0.4-0.2-0.7-0.4-1.1-0.6l-1-0.6l0.6,0.3l0.1,0.1l0,0l1.5,0.8c0,0,0.1,0,0.2,0.1c0.2,0.1,0.3,0.2,0.5,0.3
				l0,0C309.5,122.9,309.2,122.7,308.9,122.6 M303.6,119.8l-1.4-0.7c0.3,0.1,0.6,0.3,0.9,0.4c0.2,0.1,0.2,0.1,0.3,0.1
				c0.5,0.3,1.1,0.5,1.6,0.8C304.6,120.3,304.1,120.1,303.6,119.8 M300.8,118.5l-1-0.5l-0.7-0.3c-0.7-0.3-1.4-0.6-2.1-0.9
				c-0.2-0.1-0.4-0.2-0.5-0.3c0.6,0.2,1.2,0.5,1.5,0.6l-0.3-0.1c0.2,0.1,0.5,0.2,0.7,0.3l0.2,0.1c0.2,0.1,0.4,0.2,0.6,0.3l-0.1,0
				c0.5,0.2,0.9,0.4,1.4,0.6l0.1,0.1l1.6,0.8C301.8,118.9,301.3,118.7,300.8,118.5 M379.1,212.1c-0.2-0.7-0.3-1.4-0.5-2.2l0.6,2
				C379.1,212.1,379.1,212.1,379.1,212.1c0.1,0,0.1,0.1,0,0.1L379.1,212.1 M377.6,207l-0.7-2.6c-0.5-1.4-1.1-3.1-1.7-4.7l-0.5-1.4
				l-1.4-3.5c1.6,3.6,2.1,5.4,3.6,9.7l1.1,3.6L377.6,207 M324,132c-1.8-1.3-3.6-2.5-5.5-3.7l-0.2-0.1
				C320.2,129.4,322.1,130.7,324,132C324,132,324,132,324,132 M317,127.4c-0.1,0-0.1-0.1-0.2-0.1v0c-0.1-0.1-0.1-0.1-0.1-0.1l0,0
				c0.4,0.3,0.7,0.5,1,0.7l0.5,0.4C317.9,127.9,317.5,127.6,317,127.4 M317.8,127.8L317.8,127.8L317.8,127.8
				C317.8,127.8,317.8,127.8,317.8,127.8 M317.3,127.5c2.3,1.4,4.5,2.9,6.6,4.5C321.9,130.5,319.4,128.9,317.3,127.5 M383.3,236
				l0,0.2v0L383.3,236 M383.5,239.1L383.5,239.1l0,0.1C383.5,239.2,383.5,239.2,383.5,239.1 M383.5,239L383.5,239c0-0.2,0-0.3,0-0.5
				v-0.1c0,0.3,0,0.5,0.1,0.7L383.5,239 M383.4,237.7c0-0.1,0-0.1,0-0.2c0-0.2,0-0.4,0-0.7c0,0.3,0,0.7,0.1,1L383.4,237.7
				 M383.3,236.5c0,0.1,0,0.2,0,0.4C383.4,236.7,383.3,236.6,383.3,236.5 M382.3,228l-0.2-1.4l0.3,2v0c0.1,0.4,0.1,0.8,0.2,1.3
				c0,0,0,0.1,0,0.1C382.5,229.3,382.4,228.7,382.3,228 M379.1,212.3c0.1-0.1,0.1-0.2,0-0.2c0.1,0.6,0.2,1.1,0.4,1.7L379.1,212.3
				 M144.6,140.5c-1.1,0.9-2.1,1.8-3.1,2.8C142.5,142.3,143.4,141.5,144.6,140.5 M184.8,137.1c0.1-0.2,0.3-0.4,0.4-0.6
				c0.2-0.3,0.4-0.7,0.6-1l-0.9-0.1l-1.4,0.6l-0.7,1.4c0.4,0,0.8,0,1.3,0L184.8,137.1 M182.5,135.2l0.1-0.1l0.3-0.6
				c-0.2,0.1-0.5,0.3-0.7,0.4c-0.1,0.1-0.1,0.1-0.5,0.1c-0.1,0-0.4,0.1-1.2,0.5c-0.2,0.1-0.4,0.2-0.6,0.3c0.1,0.1,0,0.3,0.2,0.4
				c0.1,0,0.3,0,0.5,0C181.4,136.1,182.1,135.6,182.5,135.2 M207.4,115.2l1.3-0.3l0-0.7l-1.3,0c-0.3,0-0.7,0-1,0l-1,0.8l-0.7,0.6
				l1.5,0L207.4,115.2 M314,125.5c-0.5-0.3-1-0.6-1.4-0.8l-0.3-0.1c0.3,0.2,0.6,0.4,0.9,0.5c0.6,0.4,1.2,0.8,1.9,1.1l0.1,0
				c-0.2-0.1-0.4-0.3-0.6-0.4l0,0C314.2,125.6,314.2,125.6,314,125.5 M307.4,121.7c-0.5-0.3-1-0.5-1.5-0.8c0.3,0.1,0.5,0.3,0.8,0.4
				c-0.3-0.1-0.6-0.3-0.8-0.4l-0.1-0.1c0.2,0.1,0.4,0.2,0.6,0.3l-0.2-0.1c-1.2-0.6-2.4-1.2-3-1.6l0.1,0c-0.9-0.5-1.8-0.9-2.5-1.2
				l6.2,3.1L307.4,121.7L307.4,121.7 M309,122.6c-0.1-0.1-0.3-0.1-0.4-0.2l-0.2-0.1l-0.9-0.5L309,122.6L309,122.6 M266,107.5
				c-0.3-0.1-1.1-0.2-1.2-0.2l0.2,0l-0.1,0c-1.3-0.3-1.8-0.3-1.8-0.3c0.4,0.1,0.8,0.1,1.2,0.3l-0.3-0.1l-0.8-0.2l-0.2,0
				c-0.1,0-0.3,0-0.4-0.1c0.1,0,0.3,0.1,0.4,0.1l0,0l-0.2,0l-0.2,0c1.3,0.3,1.8,0.4,2.1,0.4c-0.9-0.1-1.7-0.5-2.6-0.4
				c0.1,0,1,0.2,1.7,0.4l0.1,0c0.1,0,0.3,0.1,0.4,0.1l-0.1-0.1c0.2,0,0.7,0.1,1.1,0.2c-0.1,0-0.3,0-0.4,0c0.3,0.1,0.6,0.1,0.8,0.2
				c0.3,0.1,0.6,0.1,0.9,0.2l0.3,0c0.4,0,0.8,0.3,1.2,0.2c-0.2-0.1-0.5-0.1-0.7-0.2c0.2,0,0.4,0.1,0.6,0.1c-0.5-0.2-1.1-0.2-1.6-0.4
				h0L266,107.5 M266.1,107.9l-0.2,0L266.1,107.9L266.1,107.9 M275.3,110.1l-0.4-0.1c-0.8-0.2-1.6-0.4-2.5-0.7c-0.1,0-0.3,0-0.4,0
				c-0.9-0.3-1.8-0.5-2.7-0.7c-0.1,0-1.4-0.3-1.9-0.4l0.3,0.1c0,0-0.2,0-0.7-0.1c-0.3-0.1-0.6-0.2-0.9-0.2c-1-0.1-1.9-0.4-2.9-0.6
				l-0.1,0c0.3,0.1,0.7,0.2,1,0.3c0.1,0,0.2,0.1,0.4,0.1c1.4,0.4,1.4,0.4,1.7,0.5c-0.1,0-0.1,0-1.1-0.3c-0.1,0-0.2-0.1-0.4-0.1
				c-0.1,0-0.3-0.1-0.4-0.1c-0.1,0-0.2-0.1-0.4-0.1c-0.6-0.2-0.6-0.2-0.8-0.2c0.3,0.1,0.6,0.2,0.9,0.3h-0.2c-0.2,0-0.4-0.1-0.6-0.2
				c-0.3-0.1-0.5-0.2-0.8-0.2c0.1,0.1,0.3,0.1,0.5,0.2c-0.1,0-0.2,0-0.4,0l0,0.1c1.5,0.4,3.1,0.7,4.6,1.3c-0.7-0.2-1.3-0.5-2-0.5
				c0.9,0.2,1.7,0.6,2.7,0.7c-0.1-0.1-0.1-0.1-1-0.3c0.6,0,1.1,0.4,1.7,0.4l0.1,0l0.1,0c0,0-0.9-0.4-1.3-0.5
				c-0.2-0.1-0.4-0.1-0.6-0.2l0.1,0c0.5,0.1,0.5,0.1,1.4,0.4l0.3,0l-0.4-0.2l0.3,0.1c0.3,0.1,0.6,0.2,0.9,0.3l0.3,0.1
				c-0.1,0-0.1,0-0.2,0l-0.1,0l-0.3,0l0.1,0.1c-0.1,0-0.1,0-0.2,0c0,0.1,0,0.1,0.4,0.2c0.3,0.1,0.5,0.2,0.8,0.3l0.1,0l0.1,0
				c0.4,0.1,0.4,0.1,0.5,0.1c-0.1-0.1-0.1-0.1-0.4-0.2l0,0c0.4,0.1,0.4,0.1,1.2,0.5l0,0c-0.3,0-0.3,0-0.5-0.1
				c0.1,0.2,1.4,0.6,1.7,0.6c0.3,0,0.9,0.2,2.8,0.8l0,0c0,0-2.4-1-2.7-1.2l0.1,0c-0.6-0.2-1.2-0.4-1.8-0.6l0.1,0
				c-0.2-0.1-0.2-0.1-2.2-0.7c0.2,0,0.3,0,0.5,0c2.7,0.8,2.7,0.8,4.8,1.5l0.2,0c-0.2-0.1-0.4-0.2-0.7-0.3c0.2,0,0.4,0.1,1.5,0.5
				l0.2,0c-0.1,0-0.1,0-0.8-0.3C275.1,110.1,275.2,110.2,275.3,110.1L275.3,110.1 M382,226.1c-0.8-4.8-1.8-9.6-3-14.3
				c-0.3-0.3-1.1-0.7-2.6-1.1c-1.9-0.5-4.7-0.9-8.3-1.4c0,0,0.3,2.1,0.1,2.6l0,0.2l-0.1,0.2l-0.1,0c-0.2,0-0.3,0.1-0.5,0.2l-0.1,0
				l-0.1,0.1l-0.1,0.1l-0.2,0.2l-0.2-0.2l-0.2-0.3c-0.2-0.2-0.2-0.2-0.3-0.2c0,0-0.7-0.2-0.9-0.4l-0.1,0l-0.1,0l0,0.3
				c0.6,0.5,0.6,0.5,0.9,0.6c0.2,0.2,0.3,0.4,0.3,0.6l0.1,0.3c0.1,0.2,0.2,0.5,0.3,0.7c0.1,0.2,0.1,0.5,0.1,0.7l0.1,0.2l0,0.3
				c0.2,1.2,0.9,2.1,1.3,3.2c0.5,1.2,0.6,1.2,0.9,1.7c0.1,0,0.2,0,0.3,0.1l0.3,0c0.1-0.4,0-0.7,0.1-1.1l0.2,0.4
				c2.7,6.5,2.7,6.5,2.8,7.5c0,0.2,0,0.3,0,0.4c0,2.7,1.7,4.8,2.3,7.4c0.3,1.4-0.2,2.9,0.4,4.2c0.6,1.2,1,2.4,1.2,3.3l0.1,0.4
				l1.5,9.7c-0.1,1.6-0.1,3-0.2,4.4c0,0.7,0.3,1.8,0.5,2.1c0.2,0,0.4,0,0.5,0c0.3-0.6,0.3-1.3,0.6-2c0.4-0.1,0.5-0.1,0.7,0l0,0
				l0,0.2c0.1-0.2,0.2-0.5,0.3-0.8c0.2-0.8,0.4-1.8,1.2-2.2c0.1-0.3,0.1-0.6,0.1-0.9c0.1-0.6,0.7-2.9,0.7-2.9l0.3,0.2
				c0-1.7,0.1-2.7,0.1-2.7l0.1,0.1c0-0.7,0-1.4,0-2.1c-0.1-4.6-0.4-8.9-0.8-13.2l0,0.3c-0.1-0.7-0.2-1.4-0.3-2.1
				c-0.1-0.9-0.2-1.7-0.3-2.5c0-0.3-0.1-0.5-0.1-0.8c0.1,1,0.1,1,0.4,4.1l-0.1-0.2l-0.1,0c0-0.1-0.1-0.3-0.1-0.5l-0.1-0.1
				c0,0.5,0,0.9,0,1.4c-0.4-0.6-0.5-2.1-0.5-2.4l0-0.3c0.1-0.2,0.1-0.2,0.1-0.2c0.1,0.1,0.1,0.3,0.2,0.5c0.1-0.3,0.1-0.4-0.1-1l0,0
				l-0.1,0c-0.2-0.3-0.2-0.6-0.6-0.8c-0.1-0.1-0.1-0.1-0.1-0.2c-0.1-0.8-0.2-1.6-0.3-2.4c-0.7-2.9-2.2-5.7-2.2-8.8
				c0.2,0.1,0.7,0.2,1.7,4.3c0.7,2.7,1.3,3.9,1.5,4.4l0.1,0.1l0,0l0-0.2c0-0.1,0-0.1,0-0.1C381.9,225.5,381.9,225.5,382,226.1
				L382,226.1 M379,211.9c-5-19.1-13.9-36.6-25.7-51.7l3.4,4.6c4.4,6.1,4.4,6.1,11.6,19c3.4,6.7,3.4,6.7,8.6,20.7l2.2,7.6L379,211.9
				 M325.5,145.9c0.4,0,0.7,0.1,1.1,0.1l-0.3-0.1l-0.1,0l0,0c-0.1,0-0.1-0.1-0.4-0.3l-0.3-0.3l-0.1,0l-0.1,0l-0.1,0l-0.1,0.1l0,0.1
				l0.2,0.3l0.1,0.1L325.5,145.9 M300.9,121.9c-0.5-0.3-1-0.7-1.6-1l-0.1,0l0,0l0,0h0l-0.3,0l0.2,0.1c0.4,0.3,0.9,0.6,1.3,0.8
				C300.6,121.9,300.7,121.9,300.9,121.9 M326.5,146c7,0.6,12.1,1.2,14.8,1.8c1,0.3,1.6,0.5,1.8,0.7l-0.7-0.7
				c-10.7-10.1-10.7-10.1-16.7-14.5l-8-5.5l0,0c-0.4-0.3-1.8-1.2-2.8-1.7c0.6,0.4,0.6,0.4,1.3,0.8v0l0.5,0.4l0.1,0.1
				c1.1,1,2.6,1.3,3.5,2.7l0.1,0.1c-1-0.6-1.9-1.2-2.9-1.9l0.2,0c-0.4-0.3-0.8-0.5-1.2-0.8c-0.4-0.2-0.4-0.2-0.6-0.3
				c-0.4-0.2-0.7-0.5-1.1-0.7l-0.1,0c-0.5-0.3-0.5-0.3-0.7-0.4c-0.1,0-0.2,0-0.2,0c0.2,0.2,0.5,0.3,0.7,0.5c0.1,0.1,0.3,0.1,0.5,0.2
				c0.8,0.5,1.5,1,2.3,1.5c1.3,0.9,1.3,0.9,1.5,1c0.2,0.1,0.4,0.2,1.1,0.7c0.1,0.1,0.2,0.1,0.3,0.2c0.6,0.5,1.2,0.9,1.8,1.3
				c-0.2-0.1-0.3-0.1-0.5-0.2c-0.3-0.2-0.4-0.3-0.5-0.4c-0.1-0.1-0.3-0.2-0.4-0.3l-0.2,0.1c0.5,0.5,0.9,1,1.4,1.5v0.1
				c0.9,0.7,2,1.3,2.9,2.1l0,0c-0.3,0-0.4-0.1-0.7-0.2l-0.1,0c-0.4-0.2-1.2-0.5-2.4-1.4c0.7,1,0.9,1,1.7,1.4
				c0.3,0.3,0.3,0.3,0.6,0.4c0.2,0.1,0.2,0.1,0.3,0.1c0.4,0,0.8,0.3,1.4,0.8c0,0.1-0.2,0.1-0.4,0.1l0.2,0.2c-1.1-0.2-3.2-1.9-4-2.6
				c-0.3-0.1-0.4-0.2-0.5-0.2l-1.1-0.9c-1.9-1.5-4.1-2.4-6-3.8c0.8,0.3,3.5,1.7,3.6,1.7c0.4,0.1,0.6,0.1,0.9,0.2
				c0.5,0.2,0.9,0.5,1.4,0.6c0.1,0,0.1,0,0.2,0l0.1,0c0-0.1-0.1-0.3-0.1-0.5c-2.6-2.5-6.9-4.4-7.7-4.7c-0.4-0.2-0.4-0.2-0.9-0.5
				c-0.6-0.3-0.6-0.3-0.9-0.4c-0.1,0.1-0.1,0.1-0.2,0.1c-0.5-0.2-1-0.5-1.5-0.8l-0.3,0c0.5,0.3,0.5,0.3,0.9,0.6c-0.1,0-0.2,0-0.2,0
				c-0.3-0.1-0.3-0.1-1.1-0.7c-0.1-0.1-0.2-0.1-0.3-0.2c-0.5-0.2-0.5-0.2-1.4-0.8l-0.3,0l0.2,0.2c-0.1,0-0.1,0-1.5-0.5
				c-0.3-0.1-0.4-0.2-0.6-0.3l0.2,0c-0.2-0.1-0.4-0.3-0.6-0.4c-1.6-0.9-2.6-1-2.6-1c0.4,0.2,0.7,0.4,1.1,0.6
				c-0.4-0.1-0.7-0.3-0.9-0.4c-0.1-0.1-0.3-0.2-0.4-0.3c-0.2-0.2-0.3-0.2-0.5-0.3c-0.2,0-0.5,0-0.8-0.1c1,0.6,1,0.6,1.3,0.8
				c0.2,0.1,0.3,0.2,0.5,0.3l0.2,0.1l-0.1,0c-0.9-0.6-1-0.6-1.6-0.9c-0.2-0.1-0.3-0.1-0.4-0.1l-0.9-0.5l-0.2-0.1l0.1,0l0.2,0.2
				l-0.2,0.1c0.3,0.2,0.6,0.4,0.9,0.7l0,0.1c-0.2-0.1-0.5-0.1-0.9-0.5c-0.3-0.2-0.4-0.2-0.6-0.2l-0.1,0.2c0.3,0.4,1,0.8,1.9,1
				c0.3,0.2,0.5,0.3,0.8,0.5l-0.3,0c-0.4-0.2-0.8-0.2-1.2-0.3c-0.1,0-0.2,0-0.3,0c1.2,0.8,1.2,0.8,1.5,1.1c-1.1-0.4-2.1-1-3.1-1.5
				c0,0.2,0.2,0.3,0.4,0.4c0.2,0.1,1.6,0.9,1.9,1.4c-0.3,0.1-0.3,0.1-1.3-0.6l0.2,0.2l-0.2,0.2c0.1,0.1,0.3,0.3,0.5,0.4
				c0.3,0.2,0.7,0.3,1.1,0.5c0.2,0.1,0.3,0.2,0.4,0.3l0.2,0.2c-0.6-0.2-2.3-1.2-2.4-1.2c0.1,0.2,0.4,0.5,0.7,0.7c-0.2,0-0.3,0-0.5,0
				c0,0.1,0,0.1,0.7,0.6c-0.1,0.1-0.3,0.1-0.5,0.1c0.1,0.1,0.2,0.3,0.2,0.4l-0.1,0c0.1,0.2,0.3,0.3,0.4,0.5l-0.2,0l0.1,0.2
				c0.2,0.1,0.3,0.1,0.4,0.1c0-0.1,0-0.3,0.1-0.4l0.3,0l0-0.2c0.1-0.1,0.2-0.2,0.3-0.3c0.7,0.1,0.9,0.2,1.3,0.5c-0.1,0-0.3,0-0.5,0
				l0.2,0.2l-0.2,0.1c0.2,0.5,1.4,1.6,1.5,1.7l-0.3,0c0,0,1.9,3.1,2.3,3.5l-0.3-0.2c-0.1,0.5-0.1,0.5-0.1,0.7
				c-0.1,0.1-0.3,0.2-0.4,0.3c0.1,0.1,0.3,0.3,0.4,0.4l0.2,0.1c0.3,0,0.4,0,0.6,0c0.4,0.4,0.4,0.4,0.5,0.6c-0.1,0.1-0.1,0.3-0.1,0.5
				l-0.2,0.1c0.1,0.4,0.1,0.4-0.1,0.7c0.1,0.2,0.1,0.2,0.4,0.7l-0.2,0.2c-0.2-0.1-0.4-0.2-0.6-0.3c-0.2,0-0.4,0-0.5,0l0.4,0.5
				c0.2,0.1,0.3,0.3,0.5,0.4l-0.1,0.3l-0.2,0.1c-0.1,0-0.1,0-0.1,0h0h0h0h0l0,0h0l0,0c-0.2,0.2-0.2,0.2-0.3,0.7h-0.2l-0.1,0.2
				c0.3,0.3,0.8,1,0,1c-0.1,0.1-0.2,0.3-0.2,0.5c0.6,0.6,0.6,0.6,0.7,0.8L303,139c0.2,0.6,0.8,0.9,1.1,1.3c0,0.2-0.1,0.2-0.2,0.2
				l0.1,0.2c0.2,0.3,0.3,0.5,0.5,0.7c0.2,0,0.4,0,0.6,0c0.7-0.1,0.9,0.6,0.9,0.6l-0.1,0.2c0.1,0.2,0.3,0.4,0.4,0.7l-0.2,0.1
				c0.3,0.6,0.3,0.6,1.5,0.8c0.3,0.5,0.3,0.5,0.4,0.7l-0.1,0.2c1.5,0.1,2.9,0.1,4.3,0.2c0-0.3-0.1-0.5-0.2-0.8l0.2-0.1l0.2,0.1
				c0-0.3-0.1-0.6-0.3-0.8c0.9,0.1,1.9,1.6,1.9,1.6c2.4,0.2,4.7,0.4,6.8,0.5l0-0.2l0.2,0c-0.1-0.6-0.6-1.6-0.6-1.6
				c-0.1-0.2-0.2-0.3-0.3-0.4c-0.4-0.5-0.5-0.6-1.4-0.5c-0.6-0.7-1.6-1-2.1-1.8c-0.7-0.8-1.4-1.6-2.1-2.4c0-0.9-0.9-1.3-1-2l0.3,0
				c0-0.2,0.1-0.4-0.3-0.9c0.1-0.1,0.3-0.1,0.4-0.1c-0.3-0.5-0.3-0.5-0.5-0.9l0-0.2l0.2,0c-0.2-1.5-1.7-1.5-2.4-2.4l0.1-0.2
				c-0.3-0.4-0.8-0.9-1-1c0.1-0.1,0.3-0.1,0.5,0c0.1,0,0.1,0,0.1,0l0,0h0h0l0,0h0h0h0c0.3,0.2,0.7,0.4,1.3,0.8l-0.1-0.2
				c0.3,0,0.3,0,1.5,0.8c0.4,0.4,0.8,0.7,1.1,1c-0.2,0-0.3,0-0.5,0c1.6,1.4,1.7,1.5,1.8,2c-0.1,0-0.3-0.1-0.5-0.1l-0.2,0.2
				c1.9,3.2,1.9,3.2,3.8,5c0.2,0.2,0.3,0.3,0.4,0.5c0,0,3.1,2.4,4.6,2.9l0.1,0c0-0.2,0-0.4,0-0.5c0.3-0.1,0.7,0.2,1,0.1
				c0-0.1-0.1-0.3-0.1-0.4c0.5-0.1,0.9-0.1,1.3,0l0-0.2c0.2,0,0.2,0,0.2,0c0.4,0.3,0.7,0.6,1.1,0.8c0.3,0,0.5,0.1,0.8,0.1l0.4,0.3
				l0.1,0.2c-0.1,0-0.1,0-0.7,0c0,0.4,0,0.4,0.6,1.7c-0.6-0.1-1-0.6-1.6-0.8l-0.2,0.2c-0.3,0-0.3,0-0.7-0.1l-0.2,0.2l0,0.2
				c-0.1,0-0.3-0.1-0.5-0.2l-0.2,0.1c0.3,0.5,0.5,0.9,0.5,0.9L326.5,146 M312.3,145c-1.4-0.1-2.8-0.2-4.3-0.2l0,0
				c0,0.2,0,0.2,0.1,0.3c0.1,0.1,0.2,0.2,0.3,0.3l0.2,0.2c0.8,0,0.8,0,0.8,0l0.2,0.2c0.1,0.1,0.1,0.1,0.7,0.5l0.4-0.1
				c0.3,0.1,0.6,0.3,0.9,0.3c0,0,0.4-0.1,0.3-0.4l0-0.2c0.3,0,0.3,0,0.4,0l0.1-0.3c0-0.1-0.1-0.2-0.1-0.4L312.3,145 M321,145.6
				c-2.1-0.2-4.4-0.3-6.8-0.4c0.4,0.5,1,0.7,1.3,1.2l0.1,0.2l0,0.4c0.1,0.1,0.6,0.7,1,1c0.8,0.5,0.8,0.5,1.1,0.8l0.2,0.3l0.2,0.3
				c0.6,0.8,1.2,1.2,1.6,1.4c0.1,0,0.3,0.2,0.5,0.5c0.2,0.3,0.2,0.6,0.3,0.8l0.1,0.2c0.2,0.2,0.4,0.5,0.6,0.7c0.6,0,1.1,0.1,1.7,0.1
				c-0.7-1.2-0.7-1.2-0.6-1.5c0.1,0,0.1,0,0.2,0l0.2,0c0.2,0.1,0.4,0.3,0.7,0.3c0.1-0.2-0.1-0.3,0-0.5c0.1-0.1,0.1-0.1,0.4,0
				c-0.2-0.3-0.4-0.7-0.7-1c0.3,0,0.6,0,0.9,0.1c-0.3-0.5-0.3-0.5-0.6-0.8c-0.1,0-0.3,0-0.4,0c-0.4,0.1-0.6-0.3-0.9-0.4
				c-0.1-0.2-0.1-0.4-0.2-0.6c-0.3-0.9-1.1-1.5-1.4-2.4l0.1-0.1l0-0.3L321,145.6 M379,211.9c-5-19.1-13.9-36.6-25.7-51.7
				c-3-3.5-7-8.2-10.1-11.6c-0.2-0.2-0.8-0.5-1.8-0.7c-2.6-0.7-7.8-1.3-14.8-1.8c-0.3,0-0.7-0.1-1.1-0.1c0.2,0.1,0.2,0.1,0.3,0.1
				l0,0h0l0,0h0h0h0h0l0.3,0.2c-0.2,0-0.5,0.2-0.7,0.3c0.5,0.8,1.1,0.9,1.7,1c0.1-0.2,0.1-0.6,0-0.8c1.2,0.2,2.9,2.1,2.9,2.1
				c-0.2,0.5-0.2,0.5,0.2,1.1c0.1,0.3,0,0.3-0.2,0.3c-0.2-0.1-0.2-0.1-1.6-1.2l-0.2,0c-0.2-0.2-0.4-0.5-0.5-0.7c-0.1,0-0.3,0-0.4,0
				c1.3,3.2,1.8,4.5,3.3,5.9l0.1,0.3c-1.8-0.4-1.8-0.4-2-0.4c0.1,0.9,1,1.2,1.4,1.8l-0.2,0.1c-0.8-0.5-1.5-1.1-2.3-1.6
				c-0.2,0.1-0.2,0.1-1,1.7c-0.3,0-0.6,0-0.9,0c-1,1.1-2-0.6-2.3-1.2c-0.2,0-0.3,0-0.5,0c0,0.1,0,0.3-0.1,0.4c-0.1,0-0.3,0-0.4,0
				c-0.4-0.1-0.5-0.1-0.7-0.1c-0.1,0-0.3,0-0.4,0c0.1,0.2,0.3,0.6,0.4,0.8c0,0.3-0.2,0.3-0.4,0.3c-0.7-0.1-0.7-0.2-1.3-1l-0.3,0
				c-0.2,0-0.3,0-0.5,0c-0.1-0.2-0.2-0.4-0.4-0.6l-0.3-0.4c0.3-0.3,0.6-0.3,0.9-0.3c0.6,0.2,1,0.5,1.6,0.7l0.3-0.3
				c-0.4-1-1.5-2.7-1.5-2.7c-0.3-0.3-0.5-0.3-0.7-0.3c-0.2,0.1-0.5,0.2-0.8,0.3c0,0.1,0.1,0.3,0.1,0.4c-0.1,0.3-0.1,0.3-0.2,0.3
				c-0.2-0.1-0.7-0.4-0.7-1.3c-0.2-0.3-0.3-0.4-0.4-0.6c-1.8,0.2-1.4-2.3-2.8-2.7c0,0.1,0,0.1,0.2,1.2c-0.2,0.1-0.5,0.3-0.7,0.4
				c0.1,0.2,0.3,0.5,0.5,0.6c0.1,0.1,0.1,0.2,0.2,0.2c0,0.1,0,0.3,0,0.4l-0.3,0.3c0.1,0.5,0.1,0.5,2.5,3.2c0.1,0.1,0.1,0.2,0.2,0.4
				c0.1,0.2,0.2,0.5,0.3,0.8c0.4,0.5,0.8,0.9,1.2,1.3c0.2,0.3,0.3,0.6,0.4,0.8c-0.1,0-0.3,0-0.4,0c-0.3,0.1-0.6,0.1-0.9,0.1l-0.3,0
				c-0.5-0.1-0.6-0.1-1.6-0.1c0,0.1,0,0.3,0,0.4c-0.2,0.1-0.5,0.3-0.7,0.5c0.1,0.7,0.1,0.7-0.2,1.1l-0.4-0.3c-0.2,0-0.3,0-0.4,0
				l-0.3,0c-0.1,0-0.3,0-0.4,0c0,0.2,0.1,0.4,0.2,0.7l0.7,0.4c0.2,0.4,0.4,0.8,0.6,1.2c-0.8-0.1-0.9,0.2-1.7,1.6c-0.1,0-0.2,0-0.3,0
				c-0.2,0-0.6,0-0.8,0c0.1,0.7,0.4,1.5,0.7,2.2c-0.8,0-0.9,0-1.6,0.2c0.1,0.4,0.3,0.8,0.4,1.1c-0.4,0-0.8,0-1.2,0
				c-0.2-0.1-0.2-0.1-1.2-0.3c-0.4-0.2-0.4-0.3-0.5-0.5c-0.2-0.2-0.5-0.3-0.8-0.4c-0.1,0.4,0.1,0.8,0.2,1.2l0.4,0.2
				c0.1,0.3,0.2,0.6,0.3,0.9l0.3,0.4c0.1,0.2,0.1,0.3,0.2,0.5c-2.2,0.1-3.2-0.8-3.2-0.8c-1.6,0.6-1.6,0.6-1.8,0.8
				c0,0.1,0.1,0.3,0.1,0.4c0.4,0.3,0.5,0.3,0.6,0.3c0.8,0.9,1.5,0.8,1.8,0.8c0.2,0,0.4,0,0.5,0c0.8,0.6,1.6,1.2,2.4,1.8
				c0.3,0.8,0.6,1.5,0.8,2.2c1.5,1.8,4.1,4.8,2.5,6.5c0,0.1,0,0.3,0,0.4c-0.8,0.6-0.8,0.6-1.2,0.7c-0.1,0-0.2,0-0.4,0
				c-1.1-0.5-2.4-0.6-3.4-1.4c-1.3-0.1-2.4-0.1-3.5-0.2c-1.4-0.2-1.4-0.2-1.7-0.4c-0.4-0.2-0.4-0.2-0.5-0.2l-0.3,0.2
				c0,0.1,0.1,0.3,0.1,0.4c-0.7,0.3-1.3,0.3-1.9,0.3l-0.1,0.4c1.1,1.3,0.7,3.3,1.9,4.6c0.2,0.9,0.4,1.7,0.5,2.5c0,0.1,0,0.3,0,0.4
				c-1.3,1.3-0.6,2.3,0,3.3l0.3,0.3c0.1,0.4,0.2,0.5,0.2,0.7c0,0.1,0.1,0.3,0.1,0.4c-0.3,0.6-0.3,0.7,0,2c0.4,0.2,0.8,0.2,1.2,0.2
				c1.1-0.2,2.1,0.6,3.2,0.3c0.2,0.2,0.2,0.2,1.6,0.9c0.4,0.5,0.7,1.2,1.3,1.6c0-0.1,0.1-0.3,0.2-0.5l-0.4-0.1
				c4.9-3,8.9-4.4,8.9-4.4c-0.1-0.5-0.2-1-0.3-1.4c-1.1-1.8-1.1-1.8-0.8-3.7c0-0.2,0.1-0.6,0.1-0.8c0.3,0,0.6,0,0.8,0
				c0.1-0.2,0.3-0.5,0.4-0.7c0.2-0.1,0.5-0.2,0.8-0.2l0.1-0.4c0.9-0.1,2-0.2,2-0.2c0.1-0.4,0-0.9-0.1-1.3l-0.1-0.4
				c-0.7-1.6-0.7-2.5-0.7-2.5c0.7-0.4,0.7-0.4,2-0.1h0h0h0l0,0h0h0l0,0h0c1.4,0.7,1.4,0.7,1.7,0.8c0.5,0,0.6,0,0.8,0
				c0.1,0,0.3,0,0.4-0.1c0-1.2,0-1.2,0.2-1.7c0.5-0.1,0.6,0,0.7,0c0.3,0,0.9,0.1,1.3-1.2c2.3,0.6,2.7,3.2,4.5,4.3
				c0.6,0.4,0.6,0.4,1,1.1c2.9,2.1,8.4,5.9,9,9.2c-1.2,0.2-1.2,0.2-1.4,0.9c-1.1,0.3-2.2-0.1-3.3-0.2c0.1,0.2,0.2,0.4,0.2,0.5
				c1.1,0.6,1.7,1.9,3,2.3c0.6,0,1.1,0.1,1.7,0.1c-0.2-0.5-0.3-1.1-0.5-1.6c0.4-0.3,0.6-0.9,1.1-1.1c-0.1-0.6-0.2-1.2-0.2-1.7
				c0.2-0.2,0.4-0.4,0.7-0.4c0.1-0.2,0.1-0.5,0-0.8c-0.2-0.4-0.2-0.6-0.3-0.7c-0.5,0-0.7,0-0.9,0c-0.3-0.2-0.4-0.4-0.4-0.6
				c0-0.1-0.1-0.3-0.1-0.4c0.3-0.2,0.7-0.2,1-0.2c0.9,0.4,1,0.7,1.3,1c0.1-0.9-0.5-1.6-0.8-2.3c-2-0.6-3.4-2.7-3.4-2.7
				c-1.1-0.1-1.8-1.2-2.8-1.5c-0.4-1.3-1.6-1.9-2.3-2.9c-0.1,0-0.2-0.1-0.3-0.1c-0.8-1.5-0.8-1.5-1.8-1.5c-0.2-0.4-0.4-0.7-0.5-1.1
				l0.1-0.4c0.1-0.3,0.1-0.4,0.1-0.5c-0.7-1.3-0.7-1.3-0.7-1.4c1.4-0.2,6.6,5.2,6.7,5.2c0.6,0.7,0.6,0.7,1.5,0.8
				c0.1,0.1,0.2,0.3,0.3,0.5c0.9,1.2,2.5,1.4,3.4,2.7c1.3,1.9,1.7,4.3,2.9,6.3c0.2,0,0.6,0.1,0.8,0.1c0.5,0.7,0.7,1.3,0.8,1.9
				c-0.2,0-0.4,0-0.6,0c0-0.1-0.1-0.3-0.1-0.4c-0.1,0-0.3-0.1-0.4-0.1c0,0.7,0.6,1.4,1.6,2.4c0.1-0.1,0.2-0.4,0.3-0.5
				c1.2,0.6,1.1,2,1.8,2.9c0.4,0.2,0.6,0.2,0.8,0.2c0.1,0,0.3,0,0.4,0c0.1-1,0.1-1,0.1-1.2c-0.1-0.2-0.1-0.4-0.1-0.5
				c-0.1-0.2-0.2-0.5-0.2-0.8l0.3-0.2c0.2,0.2,0.4,0.4,0.6,0.6c0.3,0,0.4,0,0.5,0c0.2-0.6,0.2-0.6-0.2-1.7c0.1,0,0.3,0,0.4,0
				l0.1-0.4c-0.6-0.9-0.7-0.9-1.2-1.1c0.3,0.8,0.3,0.8,0.4,1.3c-0.3-0.1-1-0.2-3.4-3.9c-0.1-0.4-0.2-0.6-0.2-0.7c0-0.1,0-0.3,0-0.4
				l0.3,0.2c0.6,0.6,0.6,0.6,1,0.7c0.2,0,0.3,0,0.4,0l0.2,0c0-0.5,0-0.5-0.5-1c0-0.1,0-0.3,0-0.4c1.1-0.6,1.6,0.6,2.5,0.8
				c0.5,0.9,0.5,0.9,0.7,1c0.2,0.2,0.4,0.5,0.4,0.8l-0.3,0.3c0.4,1.2,1.6,1.9,1.8,3.2c0.1,0.2,0.2,0.6,0.3,0.8
				c0,0.2,0.1,0.3,0.1,0.4c0.2,0.4,0.2,0.4,0.7,1.2l0.2,0.2l0.2,0.1l0.1,0.2l0.2,0.2l0.1,0.2c0.2,0.2,0.2,0.7,0.3,0.9l0,0.2l0,0.3
				c0.2,0.8,0.2,0.8,0.5,1.3l0.2,0.2l0.2,0.2c0-0.2,0.1-0.5,0-0.7l-0.1-0.6c-0.1-0.3-0.2-0.6-0.3-0.9c0-0.1-0.1-0.3-0.1-0.4
				c0-0.2,0.1-0.2,0.1-0.2l0.1,0.1l0.2,0.2l0.1,0.2l0.2,0.2c0.2,0.2,0.4,0.5,0.5,0.7l0.2,0.3l0.1,0.2l0.1,0.1l0.1,0
				c0.2,0,0.5,0.1,0.6,0.3c0.3,0.1,0.3,0.1,0.4,0.1l0.1-0.1l0.1-0.1l-0.1-0.2l0-0.2c-0.3-0.7-0.3-0.7-0.3-1.2l0-0.2l0.1-0.2
				c0.2,0,0.6,0.1,0.7,0.3c0.1,0.2,0.3,0.5,0.5,0.6c0.2,0.2,0.4,0.5,0.5,0.7l0.1,0.2l0.1,0.2l0.1,0.1l0.2,0.1c0.4,0,0.9,0.1,1.3,0.1
				c-0.1-0.2-0.2-0.5-0.2-0.8l-0.1-0.3c-0.1-0.3-0.2-0.6-0.3-0.9l0.2,0.1l0.1,0l0.1,0c0.2,0.1,0.2,0.1,0.8,0.8
				c0.2,0.1,0.3,0.1,0.3,0.1l0.1-0.1l0-0.2l0-0.2l0.1,0.1c0.1,0.2,0.2,0.4,0.3,0.6l0.1,0.2c0.3,0.8,0.3,0.8,0.4,1.4
				c0.2,1.4,0.5,2.2,0.7,2.5l0.1,0.2c0.3,0.6,0.3,0.6,0.4,1.3l0,0.2l0,0.2c0.1,0.2,0.1,0.6,0.2,0.8v0.2c-0.1,1.3-0.1,1.3-0.1,1.5
				l0,0.2l0,0.2l0,0.2c3.6,0.7,6.4,1.1,8.3,1.6C377.9,211.2,378.8,211.5,379,211.9 M383.5,239.3l-0.2-2.8v0c0-0.2,0-0.3,0-0.5l0-0.1
				c-0.2-2.5-0.5-4.7-0.5-4.7l0-0.1c0.1,0.9,0.1,1.1,0.2,1.5c0.5,4.3,0.7,8.6,0.8,13l0,0.1v-0.9c0-0.8-0.1-1.5-0.1-2.3l0,0
				c0,0.2,0,0.4,0,0.6C383.7,243.1,383.7,241.4,383.5,239.3 M382.5,228.6l-0.3-2c-0.9-4.4-2-10.2-3-14.6l-0.1-0.2
				c1.2,4.7,2.2,9.4,3,14.3c0.1,0.8,0.2,1.6,0.4,2.3L382.5,228.6L382.5,228.6 M293.1,144.8L293.1,144.8l-0.4,0.1
				c-0.1,0.1-0.1,0.3-0.3,0.4l-0.2,0.1l0,0l0,0.3c0,0.2-0.2,0.3-0.2,0.5c0,0.2,0.1,0.3,0.2,0.4l0.4,0.2l0.2-0.2c0,0,0,0,0-0.2l0-0.2
				v-0.2l0.1-0.1c0.2,0,0.5,0,0.5-0.1l-0.1-0.1l-0.1-0.2l0.1-0.3l0-0.1C293.2,145.1,293.2,144.9,293.1,144.8 M311.5,159.8
				c-0.1-0.2-0.2-0.5-0.4-0.8c-0.7-0.4-1.1-1.1-1.8-1.6l-0.2,0.1c0.1,0.2,0.1,0.2,0,0.8c-0.3,0.1-0.3,0.1-1.6-2c-0.3,0-0.6,0-0.9,0
				c-0.3-0.9-0.6-1.3-0.6-1.3c-0.4-0.5-1-0.6-1.4-1l-0.3-0.1c-0.3-0.5-0.9-0.6-1.1-1.2c-0.1-0.3-1.2-1.4-1.7-1.4
				c-1,0-1.9-0.4-1.4-1.1c-0.1-0.3-0.1-0.3-0.1-0.3c0.3,0,0.3,0,0.5,0c-0.1-0.1-0.1-0.2-0.2-0.4c-0.2-0.4,0.3-0.7,0.1-1
				c-0.2-0.4-0.5-0.9-0.7-1.3c-0.9,0-1.8-0.1-2.8-0.2c0-0.3,0-0.3,0.1-0.4c0-0.3-0.3-0.5-0.3-0.8c0,0,0.3-0.5,0.3-0.7
				c-0.3-0.3-0.3-0.3-0.6-0.3l-0.3,0c-0.1,0-0.3,0-0.5,0c-0.1,0-0.3,0.1-1.2,0l-0.1,0.1c0.2,0.4,0.2,0.8,0.3,1.2
				c0.1,0.4,0.4,0.8,0.6,1.1c-0.5,0-1-0.3-1.5-0.4c-0.8-0.1,0.1,1.1,0.1,1.1c0.3,0.4,0.8,0.2,1.1,0.5v0.2c0.1,0.1,0.1,0.2,0.2,0.4
				c0,0.3,0.5,0.5,0.3,0.9c-0.8,0.2-0.8,0.2-0.4,1c0.2,0,0.4,0,0.7,0c0.1-0.1,0.1-0.2,1.1,0.6c0.2,0,0.4,0,0.6,0
				c-0.2-0.4-0.2-0.4-0.2-0.7c0,0,1.3,1.2,1.2,1.8c-0.8,0.1-0.4,0.4,0.1,0.9c0.5,0,1,0,1.5,0.1l0-0.3c1,0.5,1.3,1.8,2.3,2.3
				c0.2,0.7,0.2,0.7,0.3,0.9c0.4,0.5,0.5,0.7,0.3,0.9l-0.9,0c-0.3-0.1-0.6-0.3-0.9-0.3l-0.2,0l-0.2,0c0,0.1,0,0.1-0.1,0.4l0,0.4
				c-0.2,0-0.3,0-0.5,0l0.1,0.4c0.6,0.3,1.8,0,1.9,1c-0.1,0-0.2,0-0.3,0c-0.2,0.2-0.2,0.2-0.2,0.5c-0.1,0.1-0.1,0.1-0.4,0.1l0,0h0h0
				l0,0h0h0h0h0c0.3,1.5,1,1.1,1.3,0.9c0.1-0.1,2.5,0.3,2.5,0.3c0.1,0,0.5,0.5,0.2,0.7c-0.5,0.3-1,0-1.5,0.3c0,0.1,0,0.3,0,0.4
				c-0.3,0-0.3,0-0.9,0.1c0.3,0.7,0.3,0.7,0.3,1.1c-0.3,0.4-0.4,0.4-0.8,0.5c0.5,0.3,0.5,0.3,1.3,0l0.3-0.3l0-0.3
				c0.3,0,0.5,0.2,0.8,0.3c0.3,0,0.6,0,1,0c-0.3-0.8-0.3-0.8-0.2-1c2.5,0.4,2.4,0.1,2.4-0.4l0.1-0.1c0.6,0.1,1,0.6,1.5,0.7l0.2,0
				c0.4-0.2,0.8,0.1,1.2-0.1c0.2-0.1,0.2-0.3,0.1-0.6c0.3-0.1,0.6,0.1,0.8-0.2c-0.1-0.6-0.7-0.8-0.9-1.3l-0.1-0.2
				c-0.1-0.2-0.1-0.2,0-0.3c0.2-0.1,0.4,0,0.5,0c0,0-0.1-0.4-0.2-0.7C311.1,159.8,311.3,159.8,311.5,159.8 M293.8,154L293.8,154
				l-0.1,0L293.8,154 M298.2,154.5c-0.1-0.5-0.6-0.7-0.9-1c-0.1-0.2-0.2-0.5-0.4-0.7c0,0-0.1-0.1-0.4-0.3c-0.1-0.1-0.3,0-0.4,0
				c-0.1-0.1-0.2-0.2-0.4-0.2l-0.2,0c-0.2,0-0.6,0.2-0.7,0.2l0,0.3l-0.3,0.2c-0.4-0.2-0.6-0.6-1.1-0.7c-0.2-0.1-0.5,0-0.7,0.1
				c0.3,0.6,0.4,1.2,0.7,1.7l-0.1,0l-0.1,0l-0.2,0.2c-0.1,0-0.2,0-0.4,0l-0.1,0.1c-0.1,0.1-0.3,0.2-0.5,0.1
				c-0.4-0.2-0.4-0.2-0.6-0.2c0.3,0.8,0.6,1.7,0.9,2.5c0.5,0.1,0.5,0.1,1.1,0c0.1,0.4,0.3,0.7,0.4,1.1c-0.3,0-0.5,0-0.8,0.1
				c-0.3,0.5,0.2,1,0.1,1.5c-0.3,0.1-0.4,0.2-0.1,0.7c0.2,0.4,0.9,0.6,0.9,0.6c0.3,0.1,0.5-0.2,0.8-0.2c0,0,0.4,0,0.8,0.3
				c0.3,0,0.6-0.4,0.6-0.5c0,0,0,0-0.1-0.4c-0.1-0.2,0.2-0.2,0.2-0.3c0.9,0,1.9,0.1,2.8,0.1c-0.1-0.2-0.1-0.3-0.2-0.5
				c-0.1-0.3-0.5-0.5-0.5-0.8c0.3-0.2,0.3-0.2,0.3-0.5c-0.1-0.3-0.3-0.9-0.8-2.1c-0.1-0.2-0.2-0.5-0.3-0.7
				C298.2,155,298.3,154.7,298.2,154.5 M362.4,321.1c0.1-0.1,0.2-0.3,0.2-0.4c2.9-5.1,2.9-5.4,2.8-6.1c-0.4,0.8-0.4,0.8-3.4,5.3
				c-1,0.1-0.8,1.3-1.4,1.7c-0.9-0.2-0.9-0.2-3.5,3.4c-1.1,1.6-1.5,3.7-3.1,5l-0.1-0.1c-1.1,1.2-2,2.5-3,3.7
				c-0.1,0.1-0.2,0.3-0.3,0.4c-0.4,0.6-0.8,1.3-1.2,1.9c-0.2,0.2-0.4,0.5-0.6,0.7c-0.5,0.7-1.1,1.4-1.5,2.1l0.1,0.1
				c0.1,0,0.3,0,0.5,0c-0.3,0.5-0.3,0.5-0.3,0.6l0.1,0.1v0.1c2.4-0.6,12.5-15.1,12.6-15.2c0.2-0.3,0.3-0.5,0.5-0.8
				c0.2-0.3,0.3-0.5,0.5-0.8c0.1-0.1,0.1-0.3,0.2-0.4C361.7,322,362.1,321.6,362.4,321.1 M381.4,264.5c0.1-0.6,0.1-1.3-0.4-1.7
				c-0.1,0.2-0.2,0.6-0.3,0.8c-0.3,0.1-0.6,0.2-0.9,0.2c-0.1,0-0.1,0-0.9,0.1c-0.2-0.2-0.4-0.4-0.5-0.6c-0.1-2.9-0.1-2.9-0.2-3.5
				c0-6.1-4-11.5-3.5-17.7c0-0.3,0-0.7,0-1.3c0-0.2-2.3-18.5-9.7-28.7c-0.1,0-0.1,0-0.6,0.2c-0.1,0.2-0.4,0.5-0.5,0.6l-0.2,0
				c-3.8-1.7-7-4.8-11.3-5.3c0.4,1.9,0.9,3.7,1.1,5.6c-0.2,0-0.5,0.1-0.8,0.2c-0.2,0-0.3,0-1,0c-0.8-0.7-1.3-1.8-2.4-2.2
				c-0.9-0.1-1.9-0.1-2.9-0.3c-0.3-0.5-0.3-1.2-0.7-1.6c-1.7-2-4.5-2-6.6-3.5c-2.3-1.6-0.7-4.8-2.7-6.6c0-0.3,0-0.6-0.1-0.9
				c0.4-0.2,0.9-0.7,1.1-1.1c-1.2-0.8-1.2-0.8-2.3-1.3c-1.8,0.5-1.8,0.5-5,0.6c-0.3,0.4-0.8,0.8-1.2,1c-1.9-1.6-1.9-1.6-5.3-1
				c-0.1,0.2-0.3,0.5-0.4,0.8c-1.2-0.1-2.3-0.1-3.7,0.5c0,0.5-0.2,1.1-0.4,1.6c-1,0.2-2.2-0.1-3.1,0.5c-0.1,0-0.2,0-0.8-0.1
				c-0.3-0.1-0.6-0.1-0.9-0.2c0,0,0,0-0.6,0c-1.9,0-2.4-0.3-3.1-1c-0.2-0.1-0.6-0.3-0.8-0.5c-0.7,1.3-0.1,2.7-0.5,4
				c-1.4,0.1-1.4,0.1-2.5,0c0.2,1.2,0.3,2.5,0.5,3.7c-1,0-2-0.1-3,0.4c0,2-0.2,4.1-0.1,6.2c0,0.5,0.1,1.1,0.1,1.6
				c-0.8,0-1.6-0.1-2.5,0.3c-0.1,2.8-2.1,3.5-3.3,3.7c-0.8,0.1-4.3,8.8-4.3,8.9c-0.2,0-0.6,0-0.8-0.1c0,0,0,0-0.8,0.2
				c-0.2,0.1-0.5,0.3-0.8,0.5c0.3,4.8-0.3,5-2.2,5.8c-0.1,0.2-0.2,0.5-0.3,0.8c0,0.6,0,1.1,0.5,1.8c3.4,0.6,3.4,0.6,3.7,1.3
				c-0.9,1.8-0.9,1.8-0.9,7.9c0,0.3,0,0.6,0,1c0,0.7,0,0.7-1.7,2.5c0.1,1.2,0.5,2.3,0.7,3.4c0,0.3,0,0.6,0,1.8c0,0,3.4,5.9,6.7,7.6
				c-0.2,1.4-0.6,5.2,4.6,5.5c3.5,6.8,3.7,7.2,6.9,6.8c0.3-0.4,0.6-1.1,0.7-1.6c1.1-0.4,2.2,0.1,3.2-0.2c0.2,0,0.3,0,0.5,0
				c0.7,0,0.7,0,2.5,0c0.7,1,0.7,1,5.1,1c1.4-2.8,2.5-2.5,5.1-1.9c0.1,0,0.2,0,0.5,0c0,0,2.1-2.2,4-0.7c0.3,3.7,0.3,3.7,1.8,4.4
				c2,0.1,3.9,0.2,5.8,0.3c-0.2,1-0.3,1.9-0.5,3c-0.7,1.9-0.7,1.9-2.8,8.8c-0.4,0.1-1,0.5-1.2,0.9c0.2,0.4,0.8,0.9,1.2,1
				c0.5,1.3,0,2.9,1.2,3.9c-0.4,3.9,1.7,8-0.3,11.9c-0.1,0.3-0.2,0.6-0.5,1.5c-0.1,0.5,0.1,1.2,0.3,1.7l-6,9.9
				c-3.7,2.6-3,11.1-2.9,11.1c-1.3,2.4-1.4,3.5-1.4,4c-0.7,1.3-1.5,2.6-2.4,4c0,0.1-4.4,11.2-5,12.9c-0.1,0.1-0.2,0.2-0.5,0.5
				c-1.4,0.7-1.4,0.7-1.7,1.7c0.1,0,0.3,0,0,0.5c-0.2,0.2-0.4,0.4-0.6,0.6c0,0.2,0.1,0.6,0.1,0.8c0.6,0,1.2,0.1,2.3,0
				c0.5-0.2,1.1-0.4,1.6-0.5c0.7,0.1,1.4,0.1,2.6-0.2c6.7-6.3,15.1-10.4,21.7-16.8l15.2-18.6c0.2-0.4,0.4-0.8,1-1.9
				c0.2-0.4,0.5-1.1,0.6-1.5c0.8-1.6,1.6-3.3,2.4-5.2c0.3-3.1,2.2-5.6,2.8-8.6c0.1-0.1,0.1-0.3,0.2-0.6c2.5-5.7,6.7-10.4,9.2-16.2
				C380.4,272.1,380.4,272.1,381.4,264.5 M250.8,298.3c0,0-0.2-4.7-2.5-5.7c-0.7,0-1.5,0-2.2,0c-3.5-1-3.5-1-3.8-3.1
				c-2.2-1.4-2.2-1.4-3.7-0.9c-0.9,0-1.9,0-3,0c-3-1.2-3-1.2-3.8-0.8c0,0.2,0,0.6,0,0.8c-0.6,0.4-1,0.6-2.5-0.2c0-0.2,0-0.5-0.1-0.7
				c0.3-0.2,0.8-0.5,1.1-0.7c-0.9-0.7-2.8-2.1-5.4-2.5c-0.2,0-0.3,0-1-0.3c-1.1-0.6-1.3-0.6-2.7-0.4c0,0.7,0.1,1.4,0.1,2.2
				c-0.6,0-1.3,0-1.9,0c0-0.3,0-0.6,0-1.3c0.2-0.3,0.6-0.7,0.8-1c0.2-0.1,0.4-0.3,0.6-0.4c-0.1-0.2-0.3-0.4-0.4-0.6
				c0,0-1.3-0.4-2.6-0.9h-0.5c-0.1,0-0.3,0-1,0.1c0.1,1.6,0.1,2.3-1.8,2c0-0.3,0-0.6,0-1.2l0-0.7c0.8,0,1,0,2-0.4
				c0.5-2.6,0.1-3.7-0.1-4.1c-0.4,0-0.9,0-1.4,0c0-0.8-0.1-1.7-0.3-2.9c-0.2-0.8-0.7-1.6-1-2.4c-2.4-0.6-2.6-1.2-2.9-1.9
				c-3.5-1.4-3.5-1.4-3.7-1.5c-1.2-0.6-2.3,0.2-3.5,0.1c-0.3,0-0.5,0-0.8,0c-5.6-1.1-5.6-3.4-5.6-4.3c-2.2-1.2-2.2-1.2-2.9-1.6
				c0-0.2,0-0.3-0.6-0.6c-1.1-0.7-1.1-0.8-1.1-2.2c-0.1,0-0.3,0-0.8,0.1c-0.7,0.2-1.3,0.5-2,0.7c-0.5-0.5-0.5-0.5-0.7-1.9
				c0.2-0.1,0.5-0.1,0.7-0.2c0-0.2,0.1-0.4,0.1-0.6c-1-0.6-1-0.6-1.9-0.7l-1,0.9c-0.1,0-0.2,0-0.6-0.2c-0.4-0.1-0.9-0.2-1.3-0.3
				c-0.6,0.7-0.7,1.7-1.3,2.4c-0.2,0-0.5,0-0.7,0c-1-1.6-1-1.7-2.6-2c-0.7,0-1.5,0-2.5-0.1c-0.4-0.1-0.9-0.3-1.3-0.4
				c0-0.5,0-1-0.6-1.4c-1-0.3-1.9-1.1-2.9-1.3c-0.2,0.1-0.4,0.3-0.6,0.4c0,0.1,0,0.1-2.5,2.8c0.5,2.8,0.5,2.8,0.6,3.5
				c-0.1,0.1-0.4,0.3-0.5,0.5c-0.7-1.2-2.7-5.2,0.6-7.9l-0.2-0.5c-0.3,0-0.6,0-1.1,0.1c-1.2,0.4-1.2,0.5-1.1,2c-0.8,0-1.6,0-2.3,0
				c-2.8,1.9-2.8,1.9-4.2,1.9c0,0.9,0.1,1.9,0.1,2.9c-0.5,0.6-0.5,0.6-1.8,1c0,2-2.8,3.1-1.7,5.4c0.2,0,0.4,0.1,0.6,0.1
				c0.1,2,2.6,4.1,0.4,5.9c-0.2,3.6-0.2,3.6-1.5,3.8c0.1,0.5,0.3,1.2,0.4,1.6c-0.3,0.2-0.7,0.6-1,0.8c0,0.3,0,0.7,0,1
				c-1.3,0.5-1.4,1.1-1.1,2.8c-0.5,0-1,0-1.5,0.2c0.4,1.3,0.3,2.8,0.8,4.1c0.6,0.2,1.3,0,1.9,0.1c0.1,0.3,0.1,0.6,0.2,1
				c-0.1,0.2-0.2,0.4-0.3,0.6c-0.4,0.1-0.8,0.4-1.1,0.7c0.2,1.4-0.8,2.8,0.2,4.2c0,0.2,0.1,0.3,0.1,0.6c0.8,4,5.7,4.9,6.8,8.7
				c0.1,0.3,0.2,0.7,0.3,1c1,1.3,1.3,3.1,2.5,4.2c2.4,2.2,2.3,7.6,7,7c4.3-0.6,4.5,5.3,8.5,5.3c0.4,1.4,0.8,2.8,1.3,4.3
				c0,0.4,0.2,0.9,0.3,1.3l0,0.2c0,0.1,0.1,0.3,0.3,0.8c0.1,0.2,0.2,0.4,0.3,0.6c0,0.1,0,0.1,0,0.7c0,0.4,0.2,1,0.3,1.3l0,0.1
				c0,0.2,0.1,0.3,0.4,0.8c0.1,0.2,0.2,0.5,0.3,0.6l0.1,0.2c0,0.1,0.1,0.3,0.1,1c0.1,0.4,0.4,0.9,0.7,1.2c0,0.1,0.1,0.3,0.1,0.4
				c0,0.1,0.1,0.2,0.1,0.4c0.2,1.3-0.1,2.7,0.4,4c0.4,1.2,0.4,1.2,0.9,5.3c0,0.1,0.1,0.1,0.3,0.6c2.7,4.5,3.6,6,3,8.1
				c0.1,0.2,0.2,0.4,0.6,0.9c0.1,0.2,0.2,0.4,0.3,0.6c0.4,0.5,0.4,0.5,0.3,2.9c1.6,1.6,1.8,4,3.5,5.5c1.2,1,0.8,3,2.4,3.7
				c0.2,0,0.5,0,0.7,0l-1.6-2.5c0.3,0,0.6,0,0.9,0c0.2,0.3,0.4,0.6,0.6,0.9c0,0.2-0.1,0.5-0.1,0.7c0.3,0.5,0.7,1,1,1.5
				c0,0.1,0,0.1,1.7,2.8c-0.4-0.2-0.9-0.5-1.2-0.8l-0.2-0.3c-0.1-0.2-0.3-0.4-0.5-0.5c0,0,0.1,0.1-0.2,0.1c0.2,0.3,0.4,0.5,0.8,0.8
				c1.1,0.7,1.1,0.7,1.9,1.7c-0.6-0.2-1.1-0.6-1.7-0.9c0.2,0.3,0.4,0.5,0.5,0.8c0,0.2,0.1,0.5,0.1,0.6c1.3,0.8,2.9,1.1,3.9,2.4
				c-0.4,0.1-0.8,0.3-1.1,0.6c0,0,0.1,0.1,0.6,0.5c0.3,0.2,0.7,0.5,1.1,0.8c0,0,0.1,0.1,0.4,0.6c0.8,0.4,1.4,1,2.2,1.5l-0.1,0.2
				l0.5,0.2c0.1,0,0.2,0,0.6,0.1c0.2,0.3,0.7,0.6,1,0.7l0.2,0.1l4.9,2.6c0.1,0.1,0.1,0.1,0.4,0.3c0.9,0.3,0.9,0.3,1.9,0.5
				c0,0,0.1,0,0.7,0.2c0.4,0,0.7,0,1.4-0.1c0.1-0.1,0.2-0.3,0.3-0.4c-0.7-0.4-0.9-0.4-1.9-0.5c-0.1-0.1-0.3-0.3-1-0.4
				c0,0-1-0.7-2.1-1.6c-0.1-0.1-0.1-0.1-0.5-0.4c-0.5-0.5-1-0.9-1.5-1.3c-0.1-0.1-0.1-0.1-0.5-0.4c-0.2-0.2-0.4-0.5-0.6-0.7
				c-0.1-0.2-0.3-0.4-0.4-0.5c0.3,0,0.6,0,0.8-0.2c-0.3-0.3-0.6-0.7-0.8-1.1c0.2-0.1,0.4-0.3,0.5-0.4c-0.2-0.4-0.4-1-0.5-1.4
				c0.1-0.2,0.2-0.4,0.4-0.5c-0.1-0.2-0.2-0.3-0.8-0.5c-0.2,0-0.5-0.1-0.6-0.1c-2.1-1.4-2.1-1.4-2.3-1.7c0-0.1-0.1-0.2-0.2-0.7
				c0.1-0.2,0.3-0.4,0.4-0.5c0.4,0,0.9,0,1.3,0c-0.3-0.5-0.6-1-0.8-1.9c-0.1-0.6-0.4-1.2-0.3-1.9c0.2,0,0.5,0,0.7,0.1
				c0-0.2,0.1-0.5,0.1-0.6c-0.1-0.1-0.1-0.2-0.5-0.6h0h0l0,0h0h0h0h0l-0.1,0c-0.2,0.1-0.4,0.2-0.6,0.3c-0.4-0.3-0.4-0.3-1.3-1.5
				c-0.2-0.3-0.3-0.6-0.5-0.9c0.2,0,0.3,0,0.5,0c0.4,0.2,0.9,0.4,1.3,0.6c0.5,0,1.1,0,1.6,0c-0.1-0.2-0.2-0.4-0.3-0.6
				c0-0.1-0.1-0.2-0.3-0.7c0.1-0.7,0.1-0.7-0.7-1.8c-0.1-0.2-0.2-0.5-0.3-0.7c0.4,0,0.9,0,1.6-0.1c0.2,0,0.4,0,1-0.1
				c0.2-0.1,0.4-0.2,0.6-0.3c0.5,0,0.9,0,1.6,0c0.2,0,0.4,0.1,0.6,0.1c0-1.2,0.9-1.9,1.3-2.9l0.1-0.6c-0.1-0.3-0.2-0.6-0.3-1
				c-0.1,0-0.2,0-0.6-0.1c-0.1-0.2-0.1-0.4-0.3-0.9c-0.7-0.9-2-1.2-2.6-2.2c0.4,0,0.8,0,1.3,0c4.5,1,5.5,1.3,5.9-0.3
				c1.2-5.5,2.2-6.1,2.6-6.3c0.1,0.4,0.2,0.9,0.1,1.3c0.2,0,0.5,0.1,0.7,0.1c0.6-0.8,1.5-3,1.5-3c0.1-1.2,1.7-1.2,1.9-2.4
				c0.3-1.7-1.6-3-0.8-4.8c0,0,2.5-3,3.7-3.8c0.6,0,1.3,0,2.1,0c0.6-0.4,0.6-0.4,1.5-1.4c1.6,0,3.2,0,4.8-0.1c0-0.4,0.2-0.9,0.5-1.2
				c0.7-0.3,1.6-1.8,1.8-2.6c0.4-0.2,0.8-0.5,1.2-0.8c0.1-1.6,0.2-1.7,0.8-2.8c0.4-0.3,0.4-0.3,1.1-3.7c0-0.1,0-0.3,0.3-0.9
				c0.7-1.3,0.7-2.2,0.7-2.6c0-0.2,0-0.4-0.1-1c0-0.2-0.1-0.4-0.1-0.6c0-0.3,0-0.6-0.1-1.3c0-0.8,0-1.7,0.5-2.7
				c0.4-0.1,0.4-0.1,3-3.5c1-0.1,1.1-0.2,1.8-1l3.1-4.3C250.8,299.1,250.8,299.1,250.8,298.3 M182.6,239.3l0.1-0.1
				c-0.2-0.2-0.7-0.1-0.9-0.5c-0.2-0.5,0.1-1,0-1.4c-1.7,0.4-1.7,0.4-2.6,0.5c-0.3,0-0.6,0-0.9,0c-0.5-0.1-0.8-0.4-1.3-0.5
				c-0.1,0-0.3,0-0.4,0c-0.4,0.1-0.5,0.6-0.9,0.7l-1.5,0c-0.6,0-0.8-0.7-1.3-0.8c-0.7-0.1-1-0.9-1.8-0.9l-3-0.1
				c-0.5,0-0.5,0-1.6,0.3c0,1-0.1,2-0.1,3c0.8,1,1.3,1.6,1.6,1.7c0.3,0,0.5,0,0.9,0c0.7,0,0.7,0,1.4-0.8c0.3-0.4,1.4-0.5,1.4-0.5
				c0.5,0,0.9,0.3,1.4,0.3c0.5,0,0.9-0.3,1.4-0.3c1.5,0,3.1-0.3,3.3-0.4c0.4-0.2,0.5-0.2,0.9,0c0.4,0.2,1.9,0.3,2.2,0.3
				c0.3,0,0.6,0,0.9,0C182.2,239.8,182.4,239.5,182.6,239.3 M160.2,240.8l0.1-0.2c-0.1-0.3,0.1-0.7-0.2-1c-0.2-0.2-0.5-0.1-0.7-0.2
				c-0.3-0.1-0.4-0.4-0.7-0.5l-0.2,0c-0.8,0-1.5,0-2.3,0.1c0.1,0.3,0.2,0.6,0.4,0.9l0.2,0.2c0.2,0.1,0.2,0.1,0.6,0
				c0.4-0.1,1.1,0.5,1.1,0.5c0.1,0.1,0.1,0.3,0.1,0.6c0,0.2,0,0.3,0.1,0.4c0.3-0.1,0.5,0.1,0.8,0
				C159.7,241.6,159.7,241.6,160.2,240.8 M157.9,235.1c2,0,4-0.1,6.1-0.1c-0.4-0.7-1.8-2.8-3.1-3c-0.3,0-0.5,0-0.9,0
				c-0.9,0-1.7,0.4-2.6,0c-0.6-0.3-0.7-1-1.2-1.4c-0.6-0.6-1.5-0.9-2.2-1.4c-0.8-0.6-0.8-0.6-0.9-0.9c-0.1-0.3-0.2-0.6-0.7-0.6
				c-0.6,0-1.1,0.1-1.7,0.1c-0.4,0-0.4,0-0.8,0.4c-0.3,0.3-0.7,0-1-0.1c-0.5,0-1,0-1.6,0c-1.4,0-1.4,0-1.6,0.2
				c-1.6,1.6,0.7,4.4,2.6,3.1c0.5-0.3,0.7-0.9,1.3-1.1c0.1,0,0.9-0.1,1.4,0.1c0,0,1.5,0.6,1.7,1.6c0,0.2,0.1,0.4,0.2,0.5
				c1.3,0.7,1.5,0.7,1.9,0.6c0.5-0.1,0.7,0.1,0.9,0.6C156.1,233.9,156.7,235.1,157.9,235.1 M276,131.3c-0.2-0.4-0.4-0.7-0.6-1.1
				c-0.2-0.2-0.3-0.4-0.6-0.5c-0.5-0.2-0.5-0.2-1.2-0.3c-0.4-1.1-0.4-1.1-0.8-1.7c-0.4,0-0.8,0-1.2,0c-0.4,0-0.4,0-1.4,1
				c-0.6-0.1-1.1-0.3-1.7-0.3c-1,0-1.2,0.2-1.4,0.4c-0.2,0.2-0.3,0.2-0.5,0.2c-0.3,0-0.7,0-1,0c-0.1-0.2-0.1-0.3-0.2-0.5
				c-0.1-0.2-0.1-0.3-0.2-0.5c-0.2-0.2-0.4-0.3-0.6-0.5l-0.5,0.1c0.1,0.2,0.1,0.3,0.2,0.5c-0.5-0.2-0.5-0.2-2-0.2
				c-0.2,0-1.5,0.3-0.4,1.4c0.5,0,1-0.4,1.5-0.2l1.1,0.6c0.2,0.2,0.1,0.4,0.3,0.7c-0.6-0.1-1.6-0.3-2.7-0.1c0.1,0.2,0.3,0.5,0.5,0.8
				c0.3-0.1,0.3-0.1,0.4-0.1c0.4,0,0.7,0,1.1,0l0.2,0.1c0.1,0.3,0.3,0.7,0.4,1.1l0.5,0.6c0.2,0,0.4,0,0.6,0c0.5,0,1.1-0.1,1.6-0.1
				c0.2,0,0.4,0,0.6,0c0.8,0,1.2,0.7,1.9,0.9c0,0,2.1,0.5,2.1-0.6c0-0.4,0-0.4,0.3-0.8c0.2-0.2,0.6,0.2,0.7-0.1
				c0.3-0.5,0.3-0.5,0.6-0.7C274,131.2,274,131.2,276,131.3 M214.3,166.7l0.2-0.2c0-0.2-0.1-0.5-0.1-0.8c-0.9,0-0.9,0-1.2-0.2
				c0,0-1.1-0.6-1.3-1.1c-0.1-0.2-0.2-0.4-0.4-0.4c-0.5-0.2-1.1-0.1-1.6-0.2c-0.3-0.1-0.5-0.3-0.7-0.4c0.7-1.4,0.7-1.4,1.6-1.7
				c0.1-0.1,0.7-0.8,0.4-1.3c-0.1-0.2-0.1-0.2-0.2-0.3c-0.2,0-0.4,0-0.6,0c-0.1,0-0.8,0.2-1,0.4c-0.3,0.3-0.2,0.7-0.3,1.1
				c-0.3,0.8-0.3,0.8-0.7,1.1c0,0-4.1,3.7-4.2,3.9c-0.1,0.2-0.4,0.5-0.5,1.1c-0.1,0.3,0.1,0.6,0,0.9c1.9,0,3.9,0,5.8,0
				c0.5,0,0.7,0.1,1.2,0.7c0.9,1.1,1.3,1.3,1.8,1.6c0.1-0.1,0.2-0.2,0.5-0.3c0.2-0.1,0.7-0.2,0.6-2
				C213.5,167.7,213.5,167.7,214.3,166.7 M198.7,164.4L198.7,164.4c-0.1-0.1-0.3-0.3-0.5-0.4c-0.1,0-0.3,0-0.4,0c-0.4,0-0.5,0-0.6,0
				c-0.6-0.3-0.7-0.6-0.8-0.7c-0.1-0.3-0.3-0.4-0.5-0.4c-0.2,0-0.4,0.1-0.5,0c-0.3,0.1-0.6,0.3-0.8,0.4c0.2,0.1,0.5,0.2,0.6,0.4
				c0.2,0.2,0.2,0.5,0.3,0.7l0.1,0.1c0.2,0.2,0.4,0.3,0.5,0.5c0.2,0.1,0.2,0.4,0.4,0.5c0.1,0.1,0.2,0.2,0.4,0.2
				C197.1,165.7,197.5,165.8,198.7,164.4 M249.4,105.7c-0.4-0.1-0.9-0.1-1.3-0.1c-0.1,0-0.3,0-0.4,0l0,0h0l0,0h0l0,0h0l0,0l0,0.1
				c0.1,0,0.3,0.1,0.4,0.2c-0.3,0-0.3,0-0.6-0.1l-0.1,0.1h0h0h0h0h0h0l0,0c0,0,0,0-0.1,0.2l0.1,0.2c-0.4-0.3-0.4-0.3-0.5-0.4
				c-0.1,0-0.2-0.1-0.4-0.2c-0.3-0.1-0.4-0.1-0.6-0.1c0,0,0,0-0.2,0l-0.2,0l0.2,0.1c-0.1,0-0.3,0-0.4,0l-0.2-0.1h0.1l0.2,0
				c-0.4-0.1-0.4-0.1-0.7,0c-0.1,0-0.3,0-0.5,0c-0.1,0-0.3,0-0.4,0.1h0l0,0h0l0,0l0,0h0h0l-0.1,0h0h0l0,0l0,0h0v0h0l0,0l-0.2,0
				l0.1-0.2c0.3,0,0.6,0,0.9,0c0.3,0,0.5,0,0.8,0l0.2,0l-0.3-0.1h-0.2c0,0,0,0-0.1,0c-0.3,0-0.6-0.1-0.8-0.1l0,0c-0.1,0-0.1,0-0.3,0
				l-0.2,0H243h-0.1l-0.1,0l-0.1,0l-0.4,0l-0.1,0l0.1,0c0.3,0,0.7,0,1,0c-0.1,0-0.3,0-0.4,0l-0.1,0c-0.1,0-0.3,0-0.4,0h-0.1
				c-0.2,0-0.4,0-0.6,0l-0.1,0l-0.1,0c0,0,0,0-0.2,0.1l-0.2,0c-0.1,0-0.1,0-0.3,0c-0.1,0-0.3,0-0.4,0c0,0,0,0-0.2,0h-0.2l0,0h0
				l-0.2,0v0l0,0l0.1,0v0v0l-0.1,0.1l0,0l0,0v0h0h0l0,0l0,0h0l0,0h0l0,0h-0.1l0,0l-0.1,0l-0.1,0v0l0.1,0l0,0l0,0h0.1h0.1l0,0l0,0
				l0,0l0,0.1v0l0,0l0,0l-0.1,0.1l-0.1,0l0,0l-0.1,0l0,0h0l-0.1,0l-0.2-0.1l0,0l0,0l0,0l0,0l0,0l0,0h0l0,0l0,0l0,0h-0.1
				c-0.1,0-0.3,0-0.5,0l-0.1,0.1h0l0,0l0,0v0l0,0l0,0.1l0,0l-0.1,0.1l0,0l-0.1,0l0,0l0,0l0,0l0,0l0,0l0,0v0v0v-0.1l0,0v0l0,0l0,0
				l-0.1,0l0,0l0,0l0,0l0,0l-0.1,0h-0.1c0,0-0.1,0-0.2,0.1l-0.2,0.1l-0.1,0l-0.1,0l-0.1,0l-0.3,0.1l-0.1,0l-0.2,0c0,0,0,0,0.2-0.1
				l0.3-0.1l0.1,0l0.1,0l0,0l0,0l0.1,0l0,0l0.1,0l0.1-0.1l0,0l0,0l0,0l0,0l-0.1,0l-0.2,0l-0.1,0l-0.1,0l-0.1,0h0l-0.1,0l-0.1,0
				l-0.2,0l0,0h-0.2l-0.1,0l-0.1,0l-0.2,0h0h-0.2l-0.1,0l0,0l-0.1,0l-0.1,0l-0.1,0l0,0l0,0l0,0h0l0,0h0h0l0,0h0l0,0l0,0l0,0l-0.1,0
				l0,0l-0.1,0l0,0l0.1,0h0h0l0,0h0l0,0h0h0h0v0l0,0v0l0,0l-0.1,0l-0.1,0l0,0h0l0,0l0,0l0,0l0,0l-0.1,0l0,0h0l0,0l0,0l0,0l0,0l0.1,0
				l0,0c0,0,0,0-0.2,0l-0.1,0l-0.1,0l-0.1,0h-0.1l-0.2,0c-0.1,0-0.3,0.1-0.4,0.1l0,0l-0.1,0l-0.1,0c-0.2,0.1-0.4,0.1-0.7,0.2l-0.2,0
				l0,0l0,0l-0.4,0l-0.3,0.1c-0.3,0.1-0.5,0.1-0.8,0.1c-0.1,0-0.3,0.1-0.4,0.1l-0.1,0l-0.2,0l-0.1,0h0l-0.1,0l-0.1,0l-0.1,0l-0.1,0
				l-0.1,0l-0.1,0h0l-0.1,0c-0.1,0-0.3,0.1-0.5,0.1l-0.1,0c-0.1,0-0.3,0.1-0.4,0.1l0.2,0l0,0l-0.1,0h0.1c0.1,0,0.3,0,0.4,0l0.1,0
				l0.2,0c-0.1,0-0.3,0.1-0.4,0.2l-0.1,0l-0.1,0l-0.1,0c-0.1,0.1-0.3,0.1-0.6,0.2c-0.1,0-0.3,0.1-0.4,0.1l-0.1,0l-0.3,0h0
				c-0.1,0-0.2,0-0.5,0.1l-0.2,0c-0.1,0-0.1,0-0.4,0c-0.1,0-0.3,0-0.5,0l-0.2,0.1c0,0-0.1,0-0.2,0.1l-0.2,0.1l-0.1,0
				c-0.1,0-0.2,0-0.3,0l-0.2,0.1c-0.3,0.1-0.5,0-0.8,0.1l-0.1,0l-0.1,0l-0.1,0l-0.1,0l-0.1,0.1l-0.1,0l-0.1,0.1l-0.1,0l-0.3,0
				c-0.7,0.2-0.8,0.3-0.9,0.5l0.2,0.1l-0.2,0.1c0.2,0,0.4,0,0.6,0l0,0.1l0.1,0l0,0.1l0.2,0c0,0,0.1,0,0.2,0l0.3-0.1l0.1,0
				c0.1,0,0.2,0,0.5,0l0.2,0c0,0,0,0,0.2,0l0.1,0c-0.1,0.1-0.3,0.1-0.5,0.3l-0.2,0.1l-0.1,0c-0.2,0-0.4,0.1-0.5,0.2h-0.1l-0.1,0l0,0
				h-0.1l0,0l0,0h-0.1h0h0h0h0l0,0h0l0,0c0,0,0,0-0.2,0c-0.1,0-0.3,0.1-0.4,0.1h-0.1l-0.3-0.1l-0.1,0l-0.4,0.2c-0.1,0-0.2,0-0.4,0
				c-0.3,0.1-0.3,0.1-0.5,0.3l0,0.1c0.2,0,0.2,0.1,0.5,0.3l0,0l-0.2,0l-0.2,0.1l-0.1,0.1l0,0.1l0.1,0.1l0,0.1l0,0.1l-0.1,0.1l0,0
				l0,0l0,0l0.1,0.1l0,0l0,0.1l0.2,0.1h0l0.1,0l0.1,0l0.1-0.1l0.3-0.3c0,0,0,0,0.2,0c0.1,0,0.3,0,0.4,0.1l0,0l0,0l0,0l0.1,0l0.2-0.1
				h0.3l0,0.1c0.1,0,0.3,0.1,0.4,0l0.1-0.1l0.1,0l0.1,0l0.1,0h0h0h0h0l0,0h0l0,0l0,0h0l0,0h0l0,0h0l0,0h0l0.1,0l0.1-0.1l0.3-0.1
				l0.2,0.1l0,0h0.2l0.2,0h0.1l0.2,0.1l0,0.1l0.1,0l0.1,0c0.2,0,0.3,0,0.5,0l0.1,0l0.2,0.1l0,0.1l0.2,0l0.1,0h0.1v0.2l0.2,0.1
				c0,0,0.1,0,0.2,0l0,0.2c-0.1,0.2-0.3,0.3-0.5,0.6v0.1l0,0.1l0.1,0h0.1l0.1,0.1l0.1,0l0.1,0.1l0,0.2l0,0.1l0.1,0.2l0,0.1l0,0.1
				l0,0.1l0,0.4l0,0.3l0,0.1l0.1,0.2l-0.1,0.1c-0.2,0.2-0.2,0.2-0.2,0.6c-0.1,0.2-0.2,0.3-0.3,0.5c-0.3,0.2-0.3,0.2-0.4,0.4
				c0.2,0,0.3,0,0.5,0c-0.1,0.1-0.1,0.2-0.3,0.4c-0.1,0-0.3,0.1-0.4,0.1c-0.2,0.2-0.2,0.5-0.4,0.7c-0.1,0-0.3,0-0.4,0
				c-0.1,0.1-0.1,0.3-0.2,0.4l0,0.2c0.1,0,0.3,0.1,0.4,0.1c0.1,0,0.1,0,0.4,0l0.2,0.1c0.4,0,0.7,0,1.1-0.1c0.1-0.2,0.1-0.2,1.1-0.3
				c-0.1,0.4-0.2,1,0.6,1h0h0h0h0h0h0h0h0c0.2,0.1,0.4,0.4,0.6,0.5l0,0.2l-0.1,0.2c-0.1,0-0.3,0-0.5,0l-0.2,0h-0.5h-0.1
				c-0.5,0-0.7,0-0.9-0.4c-1.6-0.2-1.8-0.1-1.8,0.5l0.3,0.3c-0.4,0.5-1.2,0.3-1.5,0.9l0.1,0.2c1,0.1,1,0.1,1.3,0.6l0.2,0
				c0.8-0.5,0.8-0.5,1.7-0.5c0.1-0.3,0.2-0.5,0.2-0.7c-0.3,0-0.6,0-0.9-0.1l0-0.2c-0.1,0-0.3,0-0.4,0l0.2-0.2c0.1,0,0.3,0,0.6,0
				c0.3,0.2,0.3,0.2,1,0.3h0.7c0.1,0,0.3,0.1,0.4,0.1l0,0.2l-0.1,0.1c-0.3,0.1-0.4,0.4-0.7,0.6c0,0,0,0.1,0,0.2
				c0.3,0.3,0.3,0.3,0.3,0.5c-0.1,0.2-0.1,0.4-0.2,0.7c-0.2,0-0.5,0-0.9-0.1c-0.3,0.1-0.6,0.4-1,0.4h0c-0.1,0-0.2,0-0.4-0.1
				c-0.1,0-0.3,0-0.4,0c-0.1,0.4-0.3,0.7-0.6,1.1c-0.1,0-0.3-0.1-0.4-0.1c-1.4,0.7-1.4,0.7-1.4,0.8c0,0,0,0.1,0,0.3
				c0,0.1,0.1,0.3,0.1,0.4c0.9,0.2,0.9,0.5,0.9,0.5c0,0.7-1,0.4-1,1.1l0.1,0.2c0,0,0.1,0.4,0.2,0.9c0.5,0.2,0.9-0.3,1.4-0.3
				c0.1,0,0.2,0,0.4,0l0.1,0.2c-0.1,0.1-0.1,0.3-0.2,0.4c-0.1,0-0.2,0-0.4,0l-0.2,0.1c-0.7,1.8-0.7,1.8-0.5,2c0.8,0,1.3-0.9,2.2-0.7
				c-0.1,0.4-0.2,0.7-0.4,1.2c-0.3,0.3-0.8,0.3-1.1,0.5c-0.2,0.2,1.5,4.2,1.5,4.2c1.3,1.9,2.4,2.8,3.2,2.8c0.1,0,0.2,0,0.5,0
				c0.3-0.1,0.3-0.1,0.7-0.2l0.2,0c0.2,0.1,0.4,0.1,0.7,0.1c0,1.2,1.4,1.1,2,1.8c0.3,0.3,2.7,0.4,2.7-0.7c0-0.1,0-0.2,0-0.5
				c0.1-1.4,2.4-2.7,1-4c0,0-0.9-0.9,0.5-1c0.1,0,0.2,0,0.5,0c0.3,0,0.3,0,0.7,0c0.5-0.9,0.5-0.9,1.3-1.4c0-0.5,0-0.9,0.2-1.5
				l0.1-0.2c0-0.7-0.3-0.9-0.6-1.2l0-0.2c0.5-0.3,1-0.1,1.5-0.4c0.3-0.2,0.1-0.6,0.1-0.8c0.6,0,1.2,0,1.7,0c-0.1-0.6-0.1-0.6,0-0.9
				c0.3,0,0.6,0,1,0.1c0,0.7,0,0.7,0.1,0.9c0.9-0.1,1.5-0.7,2.3-1.1c0.1,0,0.2,0,0.3,0c0.4,0,0.4,0,1-0.2l0-0.2
				c0.3-0.5,0.8-0.8,1.1-1.2c0.3-0.1,0.3-0.1,0.6-0.8c0.1,0,0.3-0.1,0.5-0.2c0-0.1,0-0.2,0-0.4c0.6-0.5,0.6-0.5,0.4-1.1v0l0.1,0
				l0.2,0l0.1,0l0.1,0l0.1,0l0.2,0.1l0.1,0l0.2,0.1c0.3,0.1,0.3,0.1,0.7,0.1c0.6,0,1.2,0.4,1.8,0.4c0.8,0,0.9-1.1,1.7-1.1
				c0.6,0,1.1-0.4,1.6-0.3c0.8,0.1,0.5-1.1,1.2-1.4c0.4,0,0.8,0,1.3,0c0.2-0.1,0.2-0.1,0.6-0.7l-0.1-0.2l-0.3-0.1l-0.3,0.3l-0.1,0.3
				l-0.2,0c-0.1,0-0.1,0-0.2,0c-0.5-0.1-0.7-0.6-1.2-0.6c-0.1,0-0.1,0-0.4,0c-1.5-0.1-1.7-0.5-1.8-0.7c-0.1-0.1-0.1-0.3-0.2-0.4
				c1.7-0.3,1.7-0.3,1.9-0.5c0.7,0.3,0.8,1.3,1.7,1.4l0.2-0.1l0.1-0.4c0.4-0.2,0.9,0.1,1.3-0.2c-0.5-0.7-1.4-1-2.1-1.6
				c-0.6-0.5-1.5-0.6-1.8-1.4l0.2-0.1c0.9,0.5,0.9,0.5,1,0.5c0.1,0,0.1,0,0.4,0l0.2,0c-0.2-0.3-0.2-0.3-0.4-0.7
				c0-0.1-0.1-0.1-0.2-0.4c-0.1-0.2-0.7-0.9-1.4-0.3c-0.2,0-0.4,0-0.7-0.2l0.3-0.3c-0.1-0.1-0.1-0.1-0.8-0.3l0-0.1
				c0.3,0,0.5,0,0.8,0c0.1,0.2,0.2,0.3,0.3,0.5c0.2,0,0.5,0,0.9,0l0.1-0.2h0.2c0.1,0,0.1,0,0.4,0c0.4,0.2,0.4,0.2,0.7,0.1
				c0.2-1.1-1.5-0.6-2.1-1.1l0-0.2c0.9,0.2,1.1,0.1,1.2,0l0.1-0.2l0.2,0.1l0.3,0c0.1,0,0.3,0,0.4-0.1c-0.6-0.6-1.6-0.7-2.2-1.4
				c0.1-0.1,0.1-0.1,0.5-0.1c-0.1-0.1-0.3-0.3-0.6-0.5c-0.4-0.2-0.4-0.2-0.6-0.4c0,0,0,0-0.2-0.1c-0.6-0.3-1.3-0.2-1.8-0.6l-0.1-0.1
				c0.1-0.1,0.1-0.1,0.6-0.2c0.1,0,0.2,0,0.3,0c0.2,0,0.3,0,0.8,0.3c0,0,0,0,0.1,0.2c0.1,0.2,0.2,0.3,0.8,0.7l0.1-0.1
				c-0.4-0.4-0.8-0.7-1.2-1.1l-0.1-0.2l-0.1-0.1c-0.4-0.2-0.4-0.2-1-0.2c-0.1,0-0.1,0-0.3,0l-0.2,0c-0.1-0.1-0.3-0.2-0.3-0.4
				l0.2,0.1l0.2,0l0.2-0.1c-0.3-0.2-1.3-0.5-1.6-0.3l0.1,0.2c-0.2-0.1-0.4-0.1-0.7-0.5l0-0.2c-0.4-0.3-0.4-0.3-0.7-0.5l0.3,0
				l-0.2-0.1l0-0.2c0,0,0.1,0,0-0.1c-0.5-0.3-0.5-0.3-0.6-0.6l0.2,0l-0.2-0.1l0-0.2l-0.2-0.1c-0.2,0-0.5,0-0.7,0l-0.2-0.2
				c0.1,0,0.3,0.1,0.4,0.1l0.2-0.1l-0.4-0.2l0.1-0.1C249.7,105.8,249.5,105.7,249.4,105.7 M235.6,105.2c0.1,0,0.3,0,0.4-0.1
				L235.6,105.2L235.6,105.2l0.3-0.1l0.3-0.1l-0.3,0l-0.2,0l-0.5,0l0.5-0.1l-0.3,0l0.3,0l0,0l-0.3,0c-0.2,0-0.4,0-0.6,0l0.4,0
				l-0.3,0c-0.2,0-0.4,0-0.6,0l0.2,0l-0.8,0c-0.1,0-0.3,0-0.4,0l-0.1,0l0.2,0c-0.5,0-1.1,0.1-1.6,0.1l-0.8,0.1l0.2,0
				c-0.5,0.1-0.9,0.2-1.4,0.2c0.2,0,0.3-0.1,0.5-0.1l-0.2,0c0.3,0,0.6-0.1,0.9-0.1l-0.3,0l0.3,0l-0.4,0c-0.5,0-0.9,0.1-1.4,0.1
				l-0.1,0l0.3,0l-0.1,0c-0.4,0-0.8,0.1-1.2,0.1l-0.1,0h-0.1l-0.7,0.1l-0.1,0l-0.8,0.1l0,0l-0.1,0l-1,0.2c-0.3,0.2-0.6,0.1-0.9,0.2
				l0.1,0l-0.1,0.1l1.1-0.2l0.6-0.1l0.4,0l-0.9,0.1l-1.1,0.2l-0.9,0.2c0.6,0,0.6,0,2-0.2l0.2,0c0.1,0,0.3,0,0.4,0l1-0.2l0.8-0.1
				c0.5-0.1,1-0.1,1.5-0.2l0.1,0l-0.2,0c-0.6,0.1-1.2,0.2-1.8,0.3l0.4,0l0,0l0.1,0l-0.6,0.1c-0.1,0-0.2,0-0.4,0l-0.4,0l-0.5,0.1
				c-0.4,0-0.7,0.1-1.1,0.1l-0.2,0l-0.3,0c-0.3,0.1-0.5,0.1-0.8,0.2l0.1,0l-0.3,0.1l-0.6,0.2l0.2,0.1l-0.4,0l-0.2,0
				c0.9-0.4,0.9-0.4,1-0.5l-0.1,0l-0.3,0l-0.9,0.2l-0.5,0.2l-0.7,0.2l-0.7,0.3l-0.2,0.1l0.3,0.1c-0.4,0.1-0.7,0.1-1.1,0.2
				c-0.3,0.1-0.6,0.2-0.9,0.3l0.7-0.4l-0.1-0.1l-0.6,0.1l-0.5,0.1l-0.9,0.2c-0.3,0.1-0.6,0.2-0.9,0.3l-0.6,0.2l0.1,0.1
				c0.2,0,0.3,0,0.5,0l0.6-0.1l-1.1,0.2l-0.7,0.3c0.3,0.1,0.3,0.1,2.2-0.4l-1.1,0.4l-1.2,0.3l-0.5,0l0-0.2l0.2-0.2
				c-0.2,0-0.4,0-0.5,0c-1.9,0.7-1.9,0.7-2.7,0.9l-1.1,0.3l-0.8,0.5l-0.1,0.2c0.3-0.1,0.8-0.2,1.1-0.3c0,0,0,0,1.5-0.1l0.1,0.1
				c0.3,0,0.5-0.1,0.8-0.1c0.2,0,0.3,0,0.3,0.1c-0.6,0.3-0.6,0.3-0.7,0.4c0.2,0,0.3,0,0.6-0.1c0.1,0,0.2,0,0.4,0
				c1.9-0.5,1.9-0.5,2.5-0.7l0.6-0.3l-0.9,0.2l0.9-0.4l0.7-0.1l1.1-0.4l0.7-0.3l0.3,0c0.8,0,1.5-0.5,2.3-0.7c0.1,0,0.3,0,0.5,0
				c0,0,0.4,0,0.8-0.4l0-0.1h-0.1l-0.8,0.2l-0.6,0.1l0.6-0.2c0.6-0.1,1.2-0.3,1.8-0.4l0.3,0l-0.4,0.2c0.3,0.1,0.3,0.1,1.7-0.2
				l0.4-0.2l0.5,0l-0.4,0.2l0.4,0l0.8-0.1l0.6-0.3l0-0.1c0.2,0,0.3,0,0.5,0l0.3,0l0.6-0.1l0.6-0.1c0.9-0.2,1.7-0.3,2.6-0.5l0.4,0
				l0.5-0.1l0.3-0.1c-0.2,0-0.2,0-1.3,0.1l0.5-0.1l0.5,0h0.3c0.1,0,0.2,0,0.4,0c0.3,0,0.7-0.1,1-0.1
				C235,105.3,235,105.3,235.6,105.2 M219.3,107.4c0.4-0.1,0.8-0.2,1.2-0.3c0.1-0.1,0.1-0.1,0.2-0.2l0.7-0.2
				c0.2-0.1,0.4-0.1,0.6-0.1l0.4-0.1c-0.2,0-0.5,0.1-0.7,0.1c0,0,1.2-0.3,2.2-0.5c0.5-0.1,1-0.1,1.5-0.3c-0.5,0-0.8,0.1-1,0.1l0.1,0
				c-0.8,0.1-0.8,0.1-1,0.1l-0.2,0c-0.6,0.1-1.2,0.2-1.7,0.3l-0.1,0l-0.3,0l-1.2,0.2l-0.7,0.1c-0.4,0.1-0.7,0.1-1.1,0.2l0.1,0
				c-0.4,0.1-0.8,0.2-1.2,0.3l-0.5,0.2l0.4-0.1l0.6-0.1l0.4,0c-0.9,0.2-0.9,0.2-1.4,0.3l-0.3,0l-0.7,0.1l-0.5,0.2l-1,0.3l0.1,0.1
				l0.7-0.1l0,0.1l0.8-0.2l0.2,0c0.1,0,0.2,0,0.8-0.2l0.9-0.3l-0.2,0.1c1-0.2,1-0.2,1-0.2l0,0.1
				C218.5,107.6,218.6,107.6,219.3,107.4 M210.6,109.6c0.5,0,1.5-0.5,1.9-0.6l-0.8,0.1l-1.4,0.4L210.6,109.6 M210.4,112.2
				L210.4,112.2l1-0.6l-0.3-0.2l-0.4-0.2l-1.1,0.3l-1.5,0.3l-0.7,0.1l-0.4-0.2l-0.7,0.1l0.7-0.5l1.2-0.5l1-0.4c-0.2,0-0.4,0-0.6,0
				c-0.4,0.1-1.1,0.2-3.5,1.4l-1.6,0.6l-0.7,0.4l-0.4,0.4l1-0.1c0.3-0.1,0.7-0.2,1-0.3c-0.1,0.2-0.3,0.3-0.4,0.5l0,0
				c0.1,0,0.2,0,0.8,0c0.4,0,0.7,0,1.1,0l0.8-0.2l0.7-0.3l-0.2,0.3c1.9-0.2,1.9-0.2,2.4-0.5C209.6,112.4,209.8,112.3,210.4,112.2
				 M197.9,113.6c0.1,0,0.3,0,0.4,0l0.6-0.3L197.9,113.6 M201.2,113l1.4-0.6l0.3-0.3l0.7-0.4l-0.5,0.1l-1.2,0.3l-1,0.4l-0.8,0.5
				c0.1,0,0.3,0,0.4,0l-0.1,0.2L201.2,113 M205.8,110.9l1.2-0.4l0.8-0.3l0.6-0.3c-0.1,0-0.3,0-0.4,0l0.2-0.1l-0.6,0.1l-1.2,0.4
				l-0.5,0.3l-0.4,0.3L205.8,110.9 M210.8,109.2c0.3-0.1,0.6-0.2,0.9-0.3c-0.2,0-0.3,0-0.5,0c-0.1,0-0.3,0-0.4,0l-1,0.3
				c-0.2,0.1-0.5,0.2-0.7,0.2l0.6-0.1l0.5-0.1L210.8,109.2 M211.9,108.7l0.8-0.2l0.7-0.3l-0.2,0l0.8-0.3l-0.8,0.2l-0.9,0.3l-1.5,0.5
				l0.1,0.1l0.5-0.1L211.9,108.7L211.9,108.7z M216.7,107.2l0.6-0.1l1.3-0.3l0.2-0.1l-0.2,0c-0.4,0.1-0.8,0.2-1.2,0.2l0.2,0
				L216.7,107.2 M209,109.1l0.9-0.3l1.1-0.3l0.6-0.2l1.1-0.3l0.3-0.1l0.5-0.2l-0.4,0.1l0.6-0.2l0.6-0.2l-0.4,0.1l-1,0.2l-0.9,0.2
				l0.3,0l-0.3,0.1l-1.2,0.3l-0.3,0l-1,0.3l0.3,0l-0.6,0.2l0.7-0.1l0.1,0l0.2,0L209,109.1L209,109.1 M207.5,109.4l0.6-0.1l0.6-0.2
				l-0.4,0.1l-1,0.3L207.5,109.4L207.5,109.4z M203.9,111.2c0.2-0.1,1.1-0.4,1.2-0.6c-0.1,0-0.2,0-0.9,0.2l0.7-0.4l-0.3,0
				c-2.2,1-2.3,1-2.4,1l0,0l0,0l1.3-0.6l-0.3,0l-1.1,0.4l-1.1,0.4l0.6-0.4l1.7-0.7l0.4-0.3l-1.7,0.6c-0.7,0.3-1.4,0.6-2,0.9
				l-0.2,0.2l0.6-0.2l0.4-0.1l-0.6,0.3l-1.5,0.7l0.7-0.2l0.5,0l0.5-0.1l1-0.4c0.5-0.2,0.9-0.4,1.4-0.6
				C203.2,111.4,203.5,111.3,203.9,111.2 M198.1,112.5c0.4-0.2,0.4-0.2,0.4-0.2l0,0c-0.3,0-0.5,0.2-0.7,0.2l-0.9,0.4
				C197.3,112.8,197.3,112.8,198.1,112.5 M204.5,110.1l0.7-0.2l1.4-0.5l0.6-0.2C206.2,109.4,205.6,109.6,204.5,110.1 M197.8,125.4
				l1.2-0.8l0.4-0.9c-1.6,0.1-1.6,0.1-1.7,0.1c-0.1,0-0.6,0.3-1.7,1l-0.2,0.8l0.8,0.1L197.8,125.4 M198.5,114.9
				c1.6-0.7,1.6-0.7,1.6-0.9l0,0c-0.2,0-0.4,0-0.6,0l0-0.2c-0.9,0.1-0.9,0.1-1.1,0.2c-1.5,0.7-1.5,0.7-2,0.9
				c-0.7,0.4-1.4,0.7-2.1,1.1c-0.7,0.4-1.3,0.8-1.9,1.2l0.9-0.2l1.2-0.4l1.2-0.6l0.3,0.2l1.1-0.4L198.5,114.9 M190.1,118l1.6-0.8
				l0.8-0.6l0.6-0.5l0.3-0.3c1.7-0.5,1.7-0.5,2.7-1.3l0.5-0.3l-0.5,0.1l-1,0.5l-0.2,0l0.1-0.2l-0.8,0.2l-0.9,0.5l-0.7,0.5
				c-1.8,0.8-1.8,0.8-2,0.8c0.1-0.1,0.1-0.1,0.6-0.5l-0.4,0.1l-1,0.5l-0.4,0.4l-0.3,0.3l0.1,0.2c-1.4,1-1.4,1-1.3,1.2
				c0.1,0,0.3-0.1,1.4-0.6L190.1,118 M190.1,115.9l1.5-0.7l0.4-0.3l-0.2-0.2c-0.3,0.1-0.7,0.2-1,0.4l-0.6,0.5c0,0-0.2,0.1-1,0.6
				L190.1,115.9 M190.1,115.4l1.1-0.4l-0.4,0.1l-0.8,0.3L190.1,115.4L190.1,115.4z M208.5,108.6c0.8-0.2,0.8-0.2,1.4-0.4l-0.3,0
				l-0.6,0.1l-1.4,0.3l0.2,0l0.3,0C208.1,108.7,208.3,108.7,208.5,108.6L208.5,108.6 M206.1,109.3l1-0.3l-0.2,0l-0.4,0L206.1,109.3
				l-1.1,0.2l-1.8,0.5l-0.1,0l0.6-0.1l0.4-0.1l0.9-0.2l0.8-0.2L206.1,109.3 M204.5,109.5L204.5,109.5l1.4-0.4l0.5-0.1l-0.2,0l-1,0.3
				L204.5,109.5L204.5,109.5z M197.2,112.5l2.2-0.8l0.6-0.3l-0.2,0l-0.9,0.3l0.2-0.2l1-0.4c0.3-0.1,0.7-0.2,1-0.3l1.1-0.4l-0.2,0
				l-0.8,0.2l-0.5,0.1l-0.8,0.3c-0.6,0.3-0.6,0.3-2.2,0.8l0,0.1c-0.8,0.3-0.8,0.3-1.1,0.3c-0.1,0-0.2,0-0.4,0l0.6-0.3l1.4-0.6
				l0.4-0.2l-0.2,0l0.5-0.2l0.1-0.1l-0.9,0.2l-1.6,0.5l-1.2,0.4l-1.3,0.4l-1.2,0.5l0.2,0l-0.1,0.1l0.5-0.1l0.7-0.2l0.1,0.1l0.3,0
				c-0.4,0.1-0.7,0.2-1,0.3l-0.3,0l-0.8,0.3l-0.9,0.4l-0.3,0.2c0.1,0,0.3,0,0.5,0l1.4-0.4l1.5-0.5l0.5-0.1c0.2,0,0.3,0,0.5,0
				c0.2,0,0.3,0,0.5,0L197.2,112.5 M200.3,110.7l0.1,0l1-0.3c-0.3,0.1-0.4,0.1-0.4,0.1l0.1,0L200.3,110.7 M194.1,112.6l2.2-0.8
				l-0.8,0.2L194.1,112.6L194.1,112.6L194.1,112.6z M201.5,110.3l1.5-0.4l0.3-0.1l-1.2,0.3l-0.3,0c-0.1,0-4.2,1.2-4.3,1.2l-0.2,0
				l-0.9,0.3l-1.2,0.4l-0.5,0.2l1.2-0.4l-0.7,0.3l0.8-0.2l0.9-0.3l0.3-0.1l1.3-0.4l1-0.3l-1.3,0.4l0.5-0.1l0.8-0.2L201.5,110.3
				 M181.6,121.6l0.9-0.5l0.3-0.5l-0.1-0.5l1-0.8l1.6-0.9l0.6-0.5l2-1.1l1.1-0.7l0.3-0.4c-0.1,0-0.3,0-0.4,0
				c-0.5,0.3-1.1,0.5-1.6,0.8l-1,0.6l-1.3,0.7l-0.8,0.4l-0.1,0l0.5-0.3l1.1-0.6l0.8-0.5l1.2-0.7l-0.2,0l-1,0.5l-0.7,0.4
				c-0.1,0-0.3,0-0.4,0l-0.8,0.4l-0.5,0.1l0.9-0.4l1.1-0.5l-0.2,0l0.2-0.2l-0.4,0.1l-1.1,0.5l0-0.1l0.8-0.3l1.3-0.6l0.2-0.1l-0.3,0
				l-1.2,0.5l-0.7,0.3l-0.7,0.2l-1.2,0.5l-1.3,0.7l-1.3,0.5l-0.8,0.4l0.2,0l-0.6,0.4l0.8-0.3l0.6-0.1l-0.6,0.4l-0.9,0.3l-0.7,0.2
				l-0.9,0.4l-0.4,0.4c0.2,0,0.3,0,0.4-0.1l0.7-0.2c0.2,0,0.3,0,0.4,0c-0.4,0.4-0.4,0.4-1.2,0.8l-0.7,0c-0.2,0-0.5,0-0.7,0.1
				l-1.4,0.6l-1.6,1.1l0.5,0c0.1,0,0.3,0,0.5,0L172,124l-0.4,0.4c0.2,0,0.5,0,0.7-0.1l0.8-0.1l1.3-0.6l1-0.3l1.4-0.6l0.8-0.3
				l-0.4,0.4l0.5-0.1l-0.4,0.7l0.5,0l0.7-0.1l1.3-0.7l0.5-0.6l0.4-0.1L181.6,121.6 M175.2,124.1l1.2-0.7l-1.4,0.5l-1.9,0.8l0.2,0.2
				l1.2-0.5L175.2,124.1L175.2,124.1z M185.9,116l1.1-0.4l1.3-0.6l1.2-0.6l0-0.1l-1.1,0.4l0.4-0.3l0.5-0.3l-0.1,0l-0.7,0.2
				c-0.4,0.1-0.7,0.3-1.1,0.4l-1.9,0.8l-2.9,1.2l-3.9,1.8L178,119l-2.4,1.3l1.6-0.8l0.3,0l1.2-0.5c2-0.9,5-2.2,5-2.2L185.9,116
				 M210.2,158.5l0.9-0.7l-0.7-0.7l0.7-0.7l0.4-1.5l-1.9-0.3l-0.2-0.9c-0.7,0-1.4,0-2.1,0l-1.9,0.9l-1.3,0.7l-0.8-0.3l0.7-1.1
				l2.1-0.6l2.4-0.5l1.2-0.9l-1.5-0.1l-1.3-0.7l-1.7-0.5l-0.8-1l-1-1l-0.2-0.9l0.8-0.2l0.5-0.7l-0.7-1.5l-0.8-1.7l-0.8-2.9l-0.1-1.3
				l-2.1,1.7c-0.2,0.5-0.4,1-0.6,1.5l-1.7,0.6l-1.4,1l-1.4-0.1l0.1-0.9l-0.6-0.7l-1.5,0.3l1.2-1.6c0.4-0.7,0.7-1.4,1.1-2.1l0.5-1.1
				l-1.5-0.1l-0.7-0.8l-0.4-1.1l-1.1-1.2l-1,0.6l-1.5,0l-0.3-0.4c-0.6,0-1.2,0-1.7,0l-1.3,0.8l-0.2,1.1l-1.3,1.6l-0.5,1l-0.3,1.4
				c-0.3,0-0.6,0-0.9,0l-0.8,1.4l-1.1,0.8l0.5,0.6l0.7,1l-0.7,1.9c-0.4,0.7-0.8,1.4-1.1,2.2l-1.7,1.5l-1.9,1.2l-2,0.3l0.1,1.9
				c-0.4,0.8-0.8,1.6-1.2,2.5l-0.1,1.4l-0.8,1.2l-1.5,1.5l-2,0.3l-0.1-2.1l-0.4-1.8c0.2-0.5,0.5-1,0.8-1.5l0.7-2.1l1.2-1.7l-2-0.3
				l-1.5,0l-0.5-0.6l-1.5-0.5l-0.1-1l-0.8-1l-0.8-1.1l-2.5,0.7l0.3-1l1-2.4l-0.4-0.6l0.2-0.9l2.6-2.9l2.7-2.1l2.5-1.9l1.7-0.7l1.7-1
				l0.6-1l-1-0.4l-0.8-0.6l1.4,0.3l1,0.4l0.9-0.2l1.1-1l0.7,0.5l0.9-0.2l0.8-0.8l0.8-0.4l1.3-1.1l-0.7-0.1l-1-0.1l0.2-0.6l-0.5-0.6
				l0.7,0l0.8,0.4l0.5,0.4l1.3-0.4l1.6-1l0.1-0.7c0.3,0,0.6,0,0.9,0l-0.2,0.7l-1.2,0.8l-1.8,1.4c-0.6,0.6-1.1,1.2-1.7,1.8l-1.3,0.4
				l-0.5,0.8l1,0c-0.2,0.3-0.4,0.5,0.1,0.8c0.2-0.1,0.5-0.2,0.8-0.3l1.2-1l1.3,0l0.6,0.1l0.4,0.4c0.4,0,0.7,0,1.1,0l0.9-1l-0.9-0.2
				l0.6-1.3l-1.2-0.1l-0.1-0.9l-0.7-0.2c0.2-0.2,0.5-0.5,0.7-0.7l0.6,0.2l0.9-0.5l0.4-0.6c0.3,0,0.6,0,1,0l1.2-0.8l1.7-0.8l1-0.7
				l0.2-0.7l0.8-1.2l1-0.2l1.2-0.9l0.3-0.8l-0.3-0.4l-0.3-0.6c0.4,0,0.8,0,1.2,0l0.6-0.4l0.7,0.1l0.1,0.5l1-0.1l1.1-0.2l0.2-0.8
				l0.7-0.2l-0.2,0.9l0.8,0.1l-0.5,0.9l0.5,0.1l-0.2,0.7l0.4,0.3l-0.4,0.8l0.6,0.3l0,0.9l-0.7,1.1l-2.1,1.2l-1.9,1.2l-0.4,1.1
				l-2,0.3l-0.7-0.2c-0.3,0-0.7,0-1,0l-2,1c-0.3,0.3-0.6,0.7-0.9,1.1l1.3,0.2l1.3-0.1l0.8-0.6l0.8-0.3l0.6,0.2l1.1,0.4l0.5,1.5
				l-0.2,0.8l0.3,1c0.4,0,0.9,0,1.4,0l0.6,1.4l2.1,0l1.1,0.6l0.6-0.9l-1.4-1.7l-0.5-0.7l0-0.8l1,0.7l1.8,1.3l1,0.8
				c0.2-0.4,0.4-0.8,0.6-1.3l1.3-1.1l-0.9-0.7l0.7-1.7l-1.3-0.6l-0.6-2l1-0.6l1-0.5l1.3,1.8l0.2,1.2l1,0.2l1.1-1.4l1.7-0.5l0.5-0.6
				c0.3,0,0.6,0,0.9,0l0.7-0.6l0.4-0.9c-0.6,0-1.2,0-1.8,0c0.1-0.2,0.2-0.3,0.3-0.5l-0.6-0.8l-0.7-0.1l-0.8-0.4c-0.3,0-0.6,0-0.8,0
				l0.2-0.6l0.1-0.6c-0.5,0-0.9,0-1.4,0l-0.5,0c0.2-0.3,0.5-0.6,0.7-1c0.3,0,0.6,0,0.9,0l0.8-0.4l-1-0.3l0.5-0.4l0.7-0.1l-0.2-0.6
				l-0.7-0.2l0.9-0.6l-0.6-0.4l-1.1,0.1l0.3-0.4l-0.8,0l-0.2-0.1l1.1-0.5l-0.6-0.3l-1.4,0.3l0.1-0.7l0.4-0.4l-0.6,0l0.6-0.5
				l-0.5-0.3c-0.4,0-0.9,0-1.3,0l-0.7,0.4l-0.8,0.1l-0.4-0.1l-0.9,0.5l-0.7,0.1l0.9-0.6l1.2-0.6l0.6-0.8l0.8-0.7c-0.3,0-0.7,0-1,0
				l-1.3,0.5l-0.8,0.1l-1,0.4l-1.2,0.7l-0.8,0.8l-1.1,0.5l-0.8,1l-0.7,0.1l0.6-0.8l1.5-1.1l1.1-0.7l1.7-0.7l1.7-0.6
				c-0.3,0-0.6,0-0.9,0l-1.2,0.2l-2.3,0.9l-2.7,1.3l-2.7,1.7l0.6,0.2l0.5,0l-0.7,0.6l-0.5-0.1l-1.1,0.3l-0.5,0.8c0.3,0,0.6,0,0.9,0
				l0.7-0.2l-0.1,0.5l0.6,0.4l-1.1,0.3l-1,0.8l-0.1,0.5l-2.7,1.6l-1.7,1.1l-1.7,0.9l-0.2-0.3l1.1-1.3l1.4-0.8l0.5-1.2l-2.1,1
				l1.1-1.7l-0.1-0.2l1.3-0.8l1.2-0.9l-0.3-0.1l1.1-0.8l0.6-0.8l-0.8,0l-0.9,0.5l-0.5,0.1l-1.7,0.8l-0.8,0.7l-0.9,0.5l-0.6,0.9
				l-0.2,0.6l-1.4,0.8l-0.5-0.2l-1.1,1l0.8-0.1l1.7-0.7c-0.5,0.3-0.9,0.7-1.4,1l-2.8,1.1l-1.8,1.6l0.2-0.8l1.6-1.1
				c-0.2,0-0.4,0-0.5,0l1.3-1c0.2,0,0.3,0,0.5,0l1.8-1.4l0.1-0.8l-1.7,1l-1.3,0.5l-0.5,1l-1.4,0.7l-1.3,0.8l-2.1,0.2l0-0.6l-0.4-0.1
				l0.4-0.8l-1.5,0.7l-1.9,0.8l-1.2,1l-2.3,1.6l2.1-1.9l0.3-0.7l-1.3,0.4l-1.2-0.2l0.8-0.5l1.3-0.5l0.8-0.9l-0.6,0.1l0.5-0.8l1-0.7
				l-0.2-0.1l-0.4,0.1l-1.2,0.6l-0.5,0.2l2.3-1.4l-2.3,1.2l0-0.1l2.7-1.6l0.3-0.2l-2,1.1l-1.3,0.7l-0.5,0.2l-1.1,0.6l-1.5,0.8
				l2.1-1.2l0.8-0.4l0.8-0.4l1.1-0.6l0.1-0.1l-1.1,0.6l-1.5,0.8l-0.2,0.1l-0.1,0c-4,2.3-9.1,5.7-12.9,8.2c-6.1,4.3-6.1,4.3-17,14.2
				l-1.9,1.9l0.3-0.3l-0.6,0.7l-1.1,1.1l-0.3,0.4l-1.1,1.1l-0.5,0.7l-1,1l-0.2,0.4l0,0.1l-1,1.2l-1,1.3l-1.2,1.5l-1.1,1.4l0.1,0.1
				l-1.3,1.7l-0.9,1.6l-0.8,1.2l-0.3,0.9l-0.1,0.6l0,0.4l-0.6,0.9l-0.4,1.1l-0.3,1l-1.3,2.3c-0.4,0.6-0.8,1.2-1.1,1.9l0.4-1.1
				l0.6-1.5l0.6-1l0.2-0.9v-0.3l1-1.5l-0.3,0.1l0.3-0.7l0.1-0.3v-0.2l-0.3,0.2l-0.7,1.2l-0.3,0.7l-0.4,1l-0.5,1.6L121,171l-1.2,2.3
				l-1.1,1.9l-1.5,2.6c-0.5,1-1,2-1.6,3l-0.6,0.8c-0.3,0.7-0.7,1.3-1,2l-0.7,2l-1,2l-0.6,1.6l-0.4,1.3l-0.9,2.1l-0.4,1.7l-0.1,1.3
				l-0.8,2.9l0,1.2l-0.4,1.5l-0.2,1.7c0.2,0,0.4-0.1,0.6-0.1l0.1,1.2l0.4,0.9l0.1,1.5l-0.4,1.9l-0.2,1.9l-0.4,3.2l0.2,1.3l0.3,1.6
				l0,1.2l-0.7,1.1l0.1,1.3l0.5,1.2l0.6,1.3l0.3,1.5l-0.3,1.3l0.1,1.1l0.6,0.7l0.5,1.4l0.4,1.2l-0.1,1.4l0.5-0.5l0.3-1.6l-0.1-1.8
				l-0.6-0.7l0.1-1.6l-0.6-1.2v-2l0-1.9l-0.4-1.4l0.2-1.9l-0.5-0.5l0.1-2.3l-0.2-1.9l0.5-2.5l0.5-0.2l0.6,0.7l0.1,1.3l-0.4,2.2
				l0.3,2.8l0.5,2.3l0.6,1.6l0.4,1.6l-0.1,1.9l0.8,1.1l0.5,1.8l0.3,1.9l1,2.6l0.3,2.3l0.6,1l-0.7,0.9l-0.3,1.5l1.3,2.1l1.1,1.8
				l1.4,0.8l1.5,1.7l1.9,1.4l2.1,1.7l1.8,0.8l1.2-0.2l0.4-1l1.3-0.3l1.5,1.2l1.7,2l1,1.7c0.5,0,1,0,1.4-0.1c0.2,0,0.4,0,0.6,0
				l0.8,0.5l1,1.8l1.9,0.8l0-1.2l1,0.7c3.3,5.8,3.3,5.8,3.1,7l0.7,1l0.8-0.5l1.1,0.7c2.3,2.6,2.3,2.6,3.3,2.5l2.9,1.7l1.6,0.8
				l-0.3-1.9l0.6-1.2l2.7,0.2l0.4,1.2l0.9-0.1l0.4-1.6l-1.1-1.4c-0.9,0-1.8,0-2.8,0.1l-1.8-0.1l-2.6-0.2l-1.3-1.1l-1.8-2.3l0-1.8
				c0-0.8-0.1-1.6-0.1-2.4l0.4-3.1c0-0.7,0-1.4,0-2.1l-0.8-1.6l-1.6-1.1l-2.4,0.3l-1.6-0.4l-1.8,1.1l-1.2-1.1l1.1-1.3
				c0-0.3,0-0.7,0-1c0-0.4,0-0.8,0-1.2l0.4-1.4l0.6-2.2c0-0.8,0.1-1.6,0.1-2.5l1.1-1l0.3-1.8l-0.7-0.7l-2.5,0.3l-1.6,0.4l-0.8,1.7
				l-0.8,2.6l-0.8,2.4l-1.3,0.3l-1.8,0.8l-1.8,0.5l-0.8-1.7l-1.4-1.2l-0.4-1.9l-0.9-2.5l-0.2-4.3l0.1-3.1l1-2.4l0.7-2.8l-0.3-2.8
				l1.7-2.8l1.1-0.2l1.3-1.4l1.4-1.7l1.5,0.3l1,0.5l1-0.6l0.5,1.5c0.5,0,0.9,0,1.4-0.1l1.1-0.2l-0.1-1.1l0.7-1.9l1.8-0.2l1.3-0.3
				l2.3,0.2l0.7,1.6c0.3,0,0.5,0,0.8,0l0.7-0.9l0.7-0.3l0.9,1.4l0.8,1.7c-0.1,0.7-0.2,1.3-0.3,2l0.5,1.1l0.1,1.3l0.7,0.9l0.3,1.4
				l0.9,0.7l-0.1,1.5l0.9,0.3l0.7-1.1l0.6-1.7l-0.3-2l-0.2-3l-0.8-2.7c0.2-1.2,0.3-2.3,0.7-4c0.2-0.6,0.6-1.3,0.8-1.8l1.4-2.5
				l1.7-0.8l2.2-2l2-1.5l1.8-0.8l0.6-1.4l1.5-0.9l-0.6-2.4l-0.6-1.1l0.7-1.3l-0.5-1.2l1.5-0.8l0.7,1.7l1-1.7l1.1-1.5l1.1-1l1.6-3.2
				c0.8,0,1.7,0,2.5,0l1.9-1.1l2-0.2l-0.2-1.2l0.5-2.6l1.8-1.9c0.5,0,1,0,1.5,0l0.8-1.1l2,0.1l2.1-1.1l1.5-1.5
				c3.4-0.1,3.4-0.1,4.5,0.5c-0.2,0.2-0.5,0.3-0.7,0.5c-0.9,0-1.7,0-2.7,0.2c-1.7,1.2-1.7,1.2-1.8,2.6l1,0.5l1.4-1l1-0.6l1.8-0.5
				l2-0.9l1.9-0.4l1.8-1.7l1.6-1.2l0.5-1.4l-2,0.5l-1.7,2.1l-2.2,0.1l-1.6-0.9l-1.5-1.5l-0.3-2.5l1.9-1.3l0.4-2l-2.3-0.2l-2.7,0.8
				l-3.2,1.7l-3.4,2.7l-2.5,1.6l1.3-1.5l1.7-1.6l1.1-0.8l-1.9-0.5c0.9,0,1.7,0,2.6,0l1-1.3l1.8-1.2l1.7-0.1l1.2-1.5l1.6-0.6
				c0.8,0,1.5,0,2.3,0l4.2-0.1l2.1,0.4l1.7-0.1l2-1.2l1.9-1.6l2.9-0.3L210.2,158.5"/>
		</g>
	</g>
	<circle fill="none" stroke="#000000" stroke-width="5.5479" stroke-miterlimit="10" cx="241.3" cy="245.4" r="141.2"/>
</g>
</svg>
