<?xml version="1.0" encoding="utf-8"?>
<!-- Generator: Adobe Illustrator 18.0.0, SVG Export Plug-In . SVG Version: 6.00 Build 0)  -->
<!DOCTYPE svg PUBLIC "-//W3C//DTD SVG 1.1//EN" "http://www.w3.org/Graphics/SVG/1.1/DTD/svg11.dtd">
<svg version="1.1" id="Layer_1" xmlns="http://www.w3.org/2000/svg" xmlns:xlink="http://www.w3.org/1999/xlink" x="0px" y="0px"
	 viewBox="0 0 512 512" enable-background="new 0 0 512 512" xml:space="preserve">
<g>
	<g>
		<g>
			<path fill="#939598" d="M162.4,351.2c2.5,10.7,6.3,22.8,10.2,34.2H237c1.5-4.7,2.9-9.7,4.3-15c7.9-30.8-0.4-57.4-7.9-69.5
				c-7.5-12.1-13.9-26.4-2.5-44c11.4-17.6,12.5-31.3,12.5-31.3c-1.7-6.7-6.9-8.9-20.4-15.4c0,0-0.8-0.3-2.1-0.7
				c-2.9,11.6-8.9,20.9-19.6,22.7c-13.9,2.5-26.5-6-32.9-21c-6.1,1.8-13,3.7-16.2,5.6c0,0,17.1,37,20.3,58
				C175.7,295.7,154.7,318.3,162.4,351.2z"/>
		</g>
		<g>
			<g>
				<path fill="#58595B" d="M201.3,232.1c10.7-1.9,16.7-11.1,19.6-22.7c-4.5-1.5-15-5.1-17.9-6.6c-3.7-1.9-2.7-17.1-2.7-17.1
					l-19.8,5.6c0,6.8,0,12,0,14.7c0,1.4-5.7,3.1-12.1,5C174.7,226.1,187.3,234.6,201.3,232.1z"/>
			</g>
			<g>
				<path fill="#58595B" d="M200.2,186l-19.8,5.6c0,5.3,0,9.6,0,12.5c8.4,4.5,17.7,12.9,20.9,28.2c10.6-1.9,16.6-11.1,19.5-22.7
					c-4.5-1.5-15-5.1-17.9-6.6C199.2,201.2,200.2,186,200.2,186z"/>
			</g>
		</g>
		<g>
			<path fill="#D1D3D4" d="M212.4,277.9c-8.8,2.7-17.2,5.7-21.6,5.7c-8.7,0-21.6-12.3-27.7-4.8c-6.1,7.5-7,12.5-2.2,15.8
				c4.8,3.3,20-1.2,27.3,0.2c3.3,0.7,14.3,1.2,26.1,1C215.3,291.1,215.1,282.6,212.4,277.9z"/>
		</g>
		<g>
			<path fill="#BCBEC0" d="M243.6,225.5c-2.1-8.2-18.9,6.9-14.8,20.6c3.6,11.8,2.3,27.6,2.3,27.6l16.5,16.7
				C253.3,283.5,245.3,232.1,243.6,225.5z"/>
		</g>
		<g>
			<path fill="#BCBEC0" d="M236.6,273.8c-6.4-0.9-15.5,1.5-24.2,4.1c2.7,4.7,2.8,13.3,1.8,17.9c14.6-0.2,30.3-1.6,33.4-5.4
				C247.7,290.4,255.2,276.5,236.6,273.8z"/>
		</g>
		<g>
			<path fill="#D1D3D4" d="M175.9,163c-3.5,6.8-3.1,29.7,6.6,31.8c8.4,1.9,13.1-6.4,13.1-6.4v-15.2c0,0-4.8-2.5-5.4-8.3
				c-0.5-4.7-3.3-5.2-3.3-5.2S181.1,163.2,175.9,163z"/>
		</g>
		<g>
			<path fill="#BCBEC0" d="M160.9,274.7c-4.4-8.8-7.2-19.8-9.8-26.1c-4.8-11.8-5.6-28.2,1.1-31.9c12.3-6.3,17.5,15.3,18.3,21.6
				c0.8,6.3,2.5,20.9,7.1,26.2L160.9,274.7z"/>
		</g>
		<g>
			<path d="M215.3,198.8c-8.3-5.2,1-33.9-13-44.9c-11.5-9.1-29.8-2.3-29.8,14.9c0,7,0,30.8,0,41.1c4.5-1.4,8-2.7,8-3.8v-11.8V194
				c-7.7-4.9-7.8-24.7-4.6-31c5.2,0.2,11-3.2,11-3.2s2.8,0.5,3.3,5.2c0.6,5.8,5.4,8.3,5.4,8.3v15.2c0,14.3,3.4,29.9,11.6,30.8
				c8.1,0.9,9.5-9.9,15.8-9.2C222.9,210.1,223.6,204,215.3,198.8z"/>
		</g>
		<g>
			<path fill="#BCBEC0" d="M172.8,254c-4.5,6.2-11.7,11.6-11.9,20.7c3.9,7.8,8.9,13.8,15.8,13c10.2-1.2,13.8-13.2,15-24.2
				C184.9,264,176.2,258.6,172.8,254z"/>
		</g>
		<g>
			<path fill="#D1D3D4" d="M188.2,197.9c-2,0.9-8.9,6.9-8.9,8.4c0,1.5,3.1,12.9,3.1,16.3c0,3.5-3.2,18.5-7.3,27.5
				c-0.6,1.3-1.4,2.6-2.4,3.9c3.4,4.6,12.1,10,18.9,9.5c0.5-4.9,0.6-9.6,0.6-13c0,0,0.7-25.2,1.8-27c1-1.6,1-4.3,1-6.6
				c0-4.3,0-4.7,0-4.7s1.6-0.1,1.7-2.8c0-0.1,0-0.2,0-0.3C196.9,206.1,190.2,197,188.2,197.9z"/>
		</g>
	</g>
	<g>
		<path fill="#939598" d="M355.8,209.1c0,24.6,0,73.6,0,73.6s24.6,0.7,23.8,0c-0.7-0.7,0-34.2,0-34.2L355.8,209.1z"/>
	</g>
	<g>
		<g>
			<defs>
				<path id="SVGID_1_" d="M404.3,290.5c2,13.8,0.8,29.5,0,35.4c-0.8,5.9-18.2,59-18.2,59h42.6l11.7-56.2l-15.6-42.9L404.3,290.5z"
					/>
			</defs>
			<clipPath id="SVGID_2_">
				<use xlink:href="#SVGID_1_"  overflow="visible"/>
			</clipPath>
			<polygon clip-path="url(#SVGID_2_)" fill="#2A346F" points="386.1,384.7 416.7,384.9 386.1,384.9 			"/>
			<polygon clip-path="url(#SVGID_2_)" fill="#2B3670" points="386.1,382.7 440.4,383.1 440.4,384.9 416.7,384.9 386.1,384.7 			"/>
			<polygon clip-path="url(#SVGID_2_)" fill="#2C3772" points="386.1,380.8 440.4,381.2 440.4,383.1 386.1,382.7 			"/>
			<polygon clip-path="url(#SVGID_2_)" fill="#2D3874" points="386.1,378.8 440.4,379.2 440.4,381.2 386.1,380.8 			"/>
			<polygon clip-path="url(#SVGID_2_)" fill="#2E3975" points="386.1,376.9 440.4,377.3 440.4,379.2 386.1,378.8 			"/>
			<polygon clip-path="url(#SVGID_2_)" fill="#2F3B77" points="386.1,374.9 440.4,375.3 440.4,377.3 386.1,376.9 			"/>
			<polygon clip-path="url(#SVGID_2_)" fill="#303C78" points="386.1,373 440.4,373.4 440.4,375.3 386.1,374.9 			"/>
			<polygon clip-path="url(#SVGID_2_)" fill="#303D7A" points="386.1,371 440.4,371.5 440.4,373.4 386.1,373 			"/>
			<polygon clip-path="url(#SVGID_2_)" fill="#313E7B" points="386.1,369.1 440.4,369.5 440.4,371.5 386.1,371 			"/>
			<polygon clip-path="url(#SVGID_2_)" fill="#323F7D" points="386.1,367.1 440.4,367.6 440.4,369.5 386.1,369.1 			"/>
			<polygon clip-path="url(#SVGID_2_)" fill="#33417E" points="386.1,365.2 440.4,365.6 440.4,367.6 386.1,367.1 			"/>
			<polygon clip-path="url(#SVGID_2_)" fill="#334280" points="386.1,363.2 440.4,363.7 440.4,365.6 386.1,365.2 			"/>
			<polygon clip-path="url(#SVGID_2_)" fill="#344381" points="386.1,361.3 440.4,361.7 440.4,363.7 386.1,363.2 			"/>
			<polygon clip-path="url(#SVGID_2_)" fill="#354482" points="386.1,359.3 440.4,359.8 440.4,361.7 386.1,361.3 			"/>
			<polygon clip-path="url(#SVGID_2_)" fill="#354584" points="386.1,357.4 440.4,357.8 440.4,359.8 386.1,359.3 			"/>
			<polygon clip-path="url(#SVGID_2_)" fill="#364685" points="386.1,355.4 440.4,355.9 440.4,357.8 386.1,357.4 			"/>
			<polygon clip-path="url(#SVGID_2_)" fill="#374786" points="386.1,353.5 440.4,353.9 440.4,355.9 386.1,355.4 			"/>
			<polygon clip-path="url(#SVGID_2_)" fill="#374888" points="386.1,351.5 440.4,352 440.4,353.9 386.1,353.5 			"/>
			<polygon clip-path="url(#SVGID_2_)" fill="#384989" points="386.1,349.6 440.4,350 440.4,352 386.1,351.5 			"/>
			<polygon clip-path="url(#SVGID_2_)" fill="#394A8A" points="386.1,347.6 440.4,348.1 440.4,350 386.1,349.6 			"/>
			<polygon clip-path="url(#SVGID_2_)" fill="#394B8C" points="386.1,345.7 440.4,346.1 440.4,348.1 386.1,347.6 			"/>
			<polygon clip-path="url(#SVGID_2_)" fill="#3A4C8D" points="386.1,343.7 440.4,344.2 440.4,346.1 386.1,345.7 			"/>
			<polygon clip-path="url(#SVGID_2_)" fill="#3A4D8E" points="386.1,341.8 440.4,342.2 440.4,344.2 386.1,343.7 			"/>
			<polygon clip-path="url(#SVGID_2_)" fill="#3B4E8F" points="386.1,339.9 440.4,340.3 440.4,342.2 386.1,341.8 			"/>
			<polygon clip-path="url(#SVGID_2_)" fill="#3B4F91" points="386.1,337.9 440.4,338.3 440.4,340.3 386.1,339.9 			"/>
			<polygon clip-path="url(#SVGID_2_)" fill="#3C5092" points="386.1,336 440.4,336.4 440.4,338.3 386.1,337.9 			"/>
			<polygon clip-path="url(#SVGID_2_)" fill="#3C5093" points="386.1,334 440.4,334.4 440.4,336.4 386.1,336 			"/>
			<polygon clip-path="url(#SVGID_2_)" fill="#3D5194" points="386.1,332.1 440.4,332.5 440.4,334.4 386.1,334 			"/>
			<polygon clip-path="url(#SVGID_2_)" fill="#3D5295" points="386.1,330.1 440.4,330.5 440.4,332.5 386.1,332.1 			"/>
			<polygon clip-path="url(#SVGID_2_)" fill="#3E5396" points="386.1,328.2 440.4,328.6 440.4,330.5 386.1,330.1 			"/>
			<polygon clip-path="url(#SVGID_2_)" fill="#3E5397" points="386.1,326.2 440.4,326.6 440.4,328.6 386.1,328.2 			"/>
			<polygon clip-path="url(#SVGID_2_)" fill="#3F5498" points="386.1,324.3 440.4,324.7 440.4,326.6 386.1,326.2 			"/>
			<polygon clip-path="url(#SVGID_2_)" fill="#3F5599" points="386.1,322.3 440.4,322.7 440.4,324.7 386.1,324.3 			"/>
			<polygon clip-path="url(#SVGID_2_)" fill="#40569A" points="386.1,320.4 440.4,320.8 440.4,322.7 386.1,322.3 			"/>
			<polygon clip-path="url(#SVGID_2_)" fill="#40569B" points="386.1,318.4 440.4,318.8 440.4,320.8 386.1,320.4 			"/>
			<polygon clip-path="url(#SVGID_2_)" fill="#41579C" points="386.1,316.5 440.4,316.9 440.4,318.8 386.1,318.4 			"/>
			<polygon clip-path="url(#SVGID_2_)" fill="#41589D" points="386.1,314.5 440.4,314.9 440.4,316.9 386.1,316.5 			"/>
			<polygon clip-path="url(#SVGID_2_)" fill="#41589E" points="386.1,312.6 440.4,313 440.4,314.9 386.1,314.5 			"/>
			<polygon clip-path="url(#SVGID_2_)" fill="#42599F" points="386.1,310.6 440.4,311.1 440.4,313 386.1,312.6 			"/>
			<polygon clip-path="url(#SVGID_2_)" fill="#42599F" points="386.1,308.7 440.4,309.1 440.4,311.1 386.1,310.6 			"/>
			<polygon clip-path="url(#SVGID_2_)" fill="#425AA0" points="386.1,306.7 440.4,307.2 440.4,309.1 386.1,308.7 			"/>
			<polygon clip-path="url(#SVGID_2_)" fill="#435BA1" points="386.1,304.8 440.4,305.2 440.4,307.2 386.1,306.7 			"/>
			<polygon clip-path="url(#SVGID_2_)" fill="#435BA2" points="386.1,302.8 440.4,303.3 440.4,305.2 386.1,304.8 			"/>
			<polygon clip-path="url(#SVGID_2_)" fill="#435CA3" points="386.1,300.9 440.4,301.3 440.4,303.3 386.1,302.8 			"/>
			<polygon clip-path="url(#SVGID_2_)" fill="#445CA3" points="386.1,298.9 440.4,299.4 440.4,301.3 386.1,300.9 			"/>
			<polygon clip-path="url(#SVGID_2_)" fill="#445DA4" points="386.1,297 440.4,297.4 440.4,299.4 386.1,298.9 			"/>
			<polygon clip-path="url(#SVGID_2_)" fill="#445DA5" points="386.1,295 440.4,295.5 440.4,297.4 386.1,297 			"/>
			<polygon clip-path="url(#SVGID_2_)" fill="#455DA5" points="386.1,293.1 440.4,293.5 440.4,295.5 386.1,295 			"/>
			<polygon clip-path="url(#SVGID_2_)" fill="#455EA6" points="386.1,291.1 440.4,291.6 440.4,293.5 386.1,293.1 			"/>
			<polygon clip-path="url(#SVGID_2_)" fill="#455EA7" points="386.1,289.2 440.4,289.6 440.4,291.6 386.1,291.1 			"/>
			<polygon clip-path="url(#SVGID_2_)" fill="#455FA8" points="386.1,287.2 440.4,287.7 440.4,289.6 386.1,289.2 			"/>
			<polygon clip-path="url(#SVGID_2_)" fill="#455FA8" points="440.4,287.7 386.1,287.2 386.1,285.8 440.4,285.8 			"/>
		</g>
	</g>
	<g>
		<path fill="#6C6D6D" d="M404.3,290.5c2,13.8,0.8,29.5,0,35.4c-0.8,5.9-21.7,59.4-21.7,59.4h46.1l11.7-56.6l-15.6-42.9L404.3,290.5
			z"/>
	</g>
	<g>
		<path fill="#BCBEC0" d="M454.5,275.9c6.3,19.7,34.4,26,26.6,57.8c-5.6,22.9-17,51.6-17,51.6H411c0,0,16.7-50,16.7-56.6
			c0-6.6-10.5-40.6-10.5-40.6L454.5,275.9z"/>
	</g>
	<g>
		<path fill="#939598" d="M364.3,192.4c-6.3,3-12,16.3-6.3,28.8c5.7,12.5,6.5,10.3,8.7,20.1c2.2,9.8,1.3,15.3,19.3,27.5
			c18,12.2,17.4,15.5,18.2,21.7c0.8,6.3,51.4,4.9,50.6-18.5c-0.8-23.4,0.5-50.4-14.6-63.1C425.2,196.2,364.3,192.4,364.3,192.4z"/>
	</g>
	<g>
		<path fill="#BCBEC0" d="M358.1,163.5v70.2c0,0,25.5-13.7,25.2-27c-0.2-13.4-11.5-43.1-11.5-43.1H358.1z"/>
	</g>
	<g>
		<path fill="#D1D3D4" d="M376,205.6c0,0,3.4,5.5,4.5,7.9c1.2,2.4-4,12.8-2.3,21.7c1.7,8.9,12.7,7.4,15.2,0
			c0.7-2.2,2.7-18.1,2.7-18.1v-26.2L376,205.6z"/>
	</g>
	<g>
		<path fill="#58595B" d="M380.5,213.4c7.2-8,14.6,25.9,2.8,27.7c0,0,0.1,0,0.1,0l1.7,0.2c3.4,0,7.1-2.2,8.4-6.1
			c0.7-2.2,2.7-18.1,2.7-18.1v-26.2L376,205.6C376,205.6,379.4,211.1,380.5,213.4z"/>
	</g>
	<g>
		<path fill="#D1D3D4" d="M361,161.5c-3.5,21.6,0.3,41.5,10.8,43.8c10.4,2.4,25.3-9,25.3-19.1c0-10,10.1-36.2-1.4-42.2
			C384.3,138.1,363.3,147.7,361,161.5z"/>
	</g>
	<g>
		<path d="M369.8,159.5c0,0-5.4,4.6-9.4,6.9c-4,2.4-3-11.3,4.7-17.8c7.7-6.4,17.9-11.9,22-8.2c0,0,12.9-3.6,20.7,9.6
			c7.8,13.1,8.3,24.9,10.8,28.2c2.5,3.3,6.6,5.3,4.7,11.5c0,0,13.7-2.7,15.7,6.7c2.1,9.4,1.4,12.5,1.4,12.5s-4.3-3.3-13-6.4
			c0,0-5.9,4.6-11.5,4.6c-5.6,0-12.7,22.6-22.5,22.6l-0.1-53.9C393.2,175.9,370.9,173.1,369.8,159.5z"/>
	</g>
	<g>
		<g>
			<path fill="#BCBEC0" d="M244.9,274.2c-25.9,26.9-48.1,109.1-48.1,109.1h37.1l23.2-54.5L244.9,274.2z"/>
		</g>
		<g>
			<path fill="#939598" d="M379.6,278.6c-5.4-6.1-34.2-26.4-71-24.2c-32.4,1.9-58.6,11.9-63.7,19.7c-3.7,5.7,4.4,44.1,10.1,59.4
				c5.7,15.3,8.2,31.7,8.2,45.5c0,0,91.6-0.5,92.2,0c0.5,0.5,11.4-33.8,12.8-50.9C369.6,311.2,366.4,292.3,379.6,278.6z"/>
		</g>
		<g>
			<path fill="#D1D3D4" d="M330,222.6c0,0,0.5,28.5,0,37c-0.5,8.5-13.6,16.2-18.5,16.4c-4.9,0.2-15.7-7-17.4-19.1v-25.7L330,222.6z"
				/>
		</g>
		<g>
			<path fill="#58595B" d="M330.2,238.1c-0.1-8.3-0.2-15.5-0.2-15.5l-35.9,8.5v21.1c3,13.2,22.9,9.6,27.6-2.9
				C324.4,242.1,326.7,240,330.2,238.1z"/>
		</g>
		<g>
			<path fill="#D1D3D4" d="M284.5,211.5c1.4,20.9,9.9,41.1,23.3,38.9c16.7-2.6,21.8-28,21.1-41.8c-0.7-13.8-8.5-22.4-20.5-22.5
				C297.1,186.2,283.4,193.8,284.5,211.5z"/>
		</g>
		<g>
			<path fill="#D1D3D4" d="M332.9,218.5c-0.9,4.2-2.9,7.3-4.5,7s-2.2-3.9-1.3-8c0.9-4.2,2.9-7.3,4.5-7
				C333.2,210.7,333.8,214.3,332.9,218.5z"/>
		</g>
		<g>
			<path d="M284.8,214.8c-2.5-3.9-2.7-5.4-2.5-11.9c0.2-6.5,5.6-6.7,5.5-9.5c-0.1-2.8,3.4-10.2,17.8-10.8c14.4-0.6,13.5,6,18,6.4
				c4.5,0.4,11.4,5,8,21.4c0,0-3.9,0.4-5.5,8.3c-0.1,0.6-0.9,0.7-1.3,0.2c-0.4-0.7-0.9-1.7-1.3-3c-1.1-4-5.4,2-6.2-5.9
				c-0.6-5.6-14.3,4.7-24.4-4.4c0,0-1.5,2-5.8,1.9C284.6,207.4,284.8,214.8,284.8,214.8z"/>
		</g>
		<g>
			<g>
				<path fill="#6D6E71" d="M294,290.3c0,0,1.2,1.5,3.4-1.9c2.2-3.4,9.8-13.7,12.4-12.6l0,0c-5.3-1.1-14.3-8-15.8-19v-0.9
					c-4.2,0.6-8.3,1.3-12.2,2.1C280.8,264.1,285.3,283.6,294,290.3z"/>
			</g>
			<g>
				<path fill="#6D6E71" d="M330,259.6c-0.4,7.4-10.4,14.1-16.2,15.9l0,0c2.7-1.1,12.8,12.2,14.6,15.1c1.7,2.9,5-1,8.2-9.2
					c2.3-5.9,5.9-16.1,4.4-23.4c-3.4-1-7-1.8-10.8-2.4C330.1,257.2,330,258.5,330,259.6z"/>
			</g>
		</g>
		<g>
			<path fill="#A7A9AC" d="M294,256.8v-6.2c-5.4,2.4-10.3,4.4-10.9,7.4c-1.1,6,3.8,23.5,10.9,29.7c0,0,1.2,1.5,3.4-1.9
				s9.8-11.1,12.4-10.1l0,0C304.5,274.6,295.6,267.7,294,256.8z"/>
		</g>
		<g>
			<path fill="#A7A9AC" d="M339,255.7c-1.5-3.4-6.3-6.1-8.8-7.3c0,4.6-0.1,8.6-0.2,11.1c-0.4,7.4-10.4,14.1-16.2,15.9l0,0
				c2.7-1.1,12.8,9.7,14.6,12.6c1.7,2.9,3.9-0.5,7.5-8.5C339.4,271.4,341.4,261.2,339,255.7z"/>
		</g>
		<g>
			<path fill="#BCBEC0" d="M397.4,362.1c0-23.6-6.9-70.9-17.8-83.5c0,0-17.1,9.1-22.5,38.1c-1.6,8.7,1.1,33.4,1.8,43.8L397.4,362.1z
				"/>
		</g>
		<g>
			<path fill="#939598" d="M330.8,385.3c0,0,44.2,0,51.8,0c7.7,0,15.9-6.3,14.8-23.2c-1.2-17-28.9-14.6-38.4-1.6l-28.6,4.4
				L330.8,385.3z"/>
		</g>
		<g>
			<path fill="#D1D3D4" d="M304.6,384.3l2.5-2.3l7.5,2.6c1.3,0.5,2.7,0.7,4,0.7h14.8c0,0,7-1.5,7.2-9.8c0.2-8.3-6.9-10.7-10-10.7
				h-16.2c-0.8,0-1.6-0.1-2.4-0.3l-11.5-2.4c-1.7-0.4-3.5-0.1-5,0.8l-6.5,3.8c-1.3,0.7-2.4,1.6-3.5,2.7l-11.9,11.9
				c-1.5,1.5-0.4,4,1.7,4H302C303,385.3,303.9,385,304.6,384.3z"/>
		</g>
	</g>
	<g>
		<g>
			<path fill="#BCBEC0" d="M442.1,211.9c-11.1-6.4-30.6,11.8-26.4,33.4c4.2,21.6-19.5,48.4-19.5,48.4s-26.9,10.8-37.7,12.8
				c2.6,3.7,5.5,9.1,6.9,16.2c17.6-1.5,43-5,53.2-13.6c15.5-12.9,31.9-60.4,31.9-75.5C450.5,216.1,442.1,211.9,442.1,211.9z"/>
		</g>
		<g>
			<path fill="#D1D3D4" d="M355.7,306.9c-7.7,0-34.7,0-34.7,0s-24.8,8.4-25.5,9.8c-0.6,1.4-1.9,10,0,12c1.9,2,14.5,5.6,17.7,4.9
				c3.2-0.6,28.4-10,34.2-10c2,0,9-0.2,18-0.9c-1.3-7-4.3-12.5-6.9-16.2C357.4,306.8,356.4,306.9,355.7,306.9z"/>
		</g>
	</g>
	<g>
		<path fill="#58595B" d="M133,283.8c0,0,8.7,6.9,17.6,0c8.9-6.9,2.8-18.7,2.8-18.7L133,276V283.8z"/>
	</g>
	<g>
		<polygon fill="#58595B" points="145.6,219.3 145.6,270.8 128.9,270.8 128.9,222.1 		"/>
	</g>
	<g>
		<g>
			<path fill="#6C6D6D" d="M118.3,347.3c-1.6,8.6-10.8,20.7-16.6,38.1H135c3.2-20.9,6.1-49,1.5-74h-19.2
				C119.1,319.7,119.8,339.2,118.3,347.3z"/>
		</g>
		<g>
			<g>
				<defs>
					<path id="SVGID_3_" d="M86.4,345.4c0,0,3.9,18.7,6.5,40h8.8c5.8-17.4,15-29.5,16.6-38.1c1.5-8.1,0.8-27.5-1-35.9H87.2
						L86.4,345.4z"/>
				</defs>
				<clipPath id="SVGID_4_">
					<use xlink:href="#SVGID_3_"  overflow="visible"/>
				</clipPath>
				<polygon clip-path="url(#SVGID_4_)" fill="#29336D" points="87,311.3 86.4,314.5 86.4,311.3 				"/>
				<polygon clip-path="url(#SVGID_4_)" fill="#2A346E" points="90.2,311.3 86.4,331.2 86.4,314.5 87,311.3 				"/>
				<polygon clip-path="url(#SVGID_4_)" fill="#2B3570" points="93.4,311.3 86.4,347.9 86.4,331.2 90.2,311.3 				"/>
				<polygon clip-path="url(#SVGID_4_)" fill="#2C3671" points="96.6,311.3 86.4,364.7 86.4,347.9 93.4,311.3 				"/>
				<polygon clip-path="url(#SVGID_4_)" fill="#2C3773" points="99.8,311.3 86.4,381.4 86.4,364.7 96.6,311.3 				"/>
				<polygon clip-path="url(#SVGID_4_)" fill="#2D3974" points="103,311.3 88.8,385.3 86.4,385.3 86.4,381.4 99.8,311.3 				"/>
				<polygon clip-path="url(#SVGID_4_)" fill="#2E3A75" points="106.3,311.3 92,385.3 88.8,385.3 103,311.3 				"/>
				<polygon clip-path="url(#SVGID_4_)" fill="#2F3B77" points="109.5,311.3 95.3,385.3 92,385.3 106.3,311.3 				"/>
				<polygon clip-path="url(#SVGID_4_)" fill="#303C78" points="112.7,311.3 98.5,385.3 95.3,385.3 109.5,311.3 				"/>
				<polygon clip-path="url(#SVGID_4_)" fill="#303D7A" points="115.9,311.3 101.7,385.3 98.5,385.3 112.7,311.3 				"/>
				<polygon clip-path="url(#SVGID_4_)" fill="#313E7B" points="119.1,311.3 104.9,385.3 101.7,385.3 115.9,311.3 				"/>
				<polygon clip-path="url(#SVGID_4_)" fill="#323F7C" points="119.8,324.4 108.1,385.3 104.9,385.3 119.1,311.3 119.8,311.3 				
					"/>
				<polygon clip-path="url(#SVGID_4_)" fill="#32407E" points="119.8,341.2 111.3,385.3 108.1,385.3 119.8,324.4 				"/>
				<polygon clip-path="url(#SVGID_4_)" fill="#33417F" points="119.8,357.9 114.5,385.3 111.3,385.3 119.8,341.2 				"/>
				<polygon clip-path="url(#SVGID_4_)" fill="#344280" points="119.8,374.7 117.8,385.3 114.5,385.3 119.8,357.9 				"/>
				<polygon clip-path="url(#SVGID_4_)" fill="#344382" points="117.8,385.3 119.8,374.7 119.8,385.3 				"/>
			</g>
		</g>
		<g>
			<path fill="#BCBEC0" d="M117.3,311.3c-0.2-1.1-0.5-2-0.7-2.7H58.7c0.8,27.9,3,55.6,4.3,76.7h38.7c5.8-17.4,15-29.5,16.6-38.1
				C119.8,339.2,119.1,319.7,117.3,311.3z"/>
		</g>
	</g>
	<g>
		<path fill="#939598" d="M98.2,173.4c-34.2-9.2-57.3,6.1-61.1,28c-3.5,20,21.7,82.1,21.7,107.2c0,0,40.6,20.9,77.8,2.7
			c0,0-5.6-26.6,0-50.2c5.6-23.6,13-37.1,6.7-54C137.7,192.4,114.2,177.7,98.2,173.4z"/>
	</g>
	<g>
		<path fill="#D1D3D4" d="M111,150.8c0,0-12.9,16.2-18.4,21.4c-5.5,5.2,4.6,15.8,12.2,20.3c5,3,15.7,6.3,12.5-3
			c0,0-1.8-5.2,6.8-12.5C124.2,176.9,114.6,148.4,111,150.8z"/>
	</g>
	<g>
		<path fill="#58595B" d="M124.2,176.9c0,0-4.4-13.2-8.4-20.9l-4.2,2c-4.9,10.1-5.8,29,5.8,31.4
			C117.4,189.4,115.6,184.3,124.2,176.9z"/>
	</g>
	<g>
		<path fill="#D1D3D4" d="M116,147.8c1.1-6.2-4.4-6.7-6.2-1.5c-2,5.9,0.2,10,2.5,8.6c0,0-4.4,13.3,1.1,21.4c5.6,8,12.6,4.9,21.5-3.8
			c7.6-7.5,12.6-16.7,13.4-20.2c2-9.2-7.6-16.7-16.5-16.2C120.8,136.8,116,147.8,116,147.8z"/>
	</g>
	<g>
		<path d="M116,147.8c-0.3,3.6,0.3,6.5,2.4,5.2c2.1-1.2,7.2-8.6,11.9-3.3c4.6,5.3,8.4,10.2,16.6,9.4c10.6-1.1,13.1-15.5,3.7-18.1
			c0,0,4.1-4.9-3.2-7.2c-6.6-2.1-6.9-0.8-11.5-6c-2.7-3-18.6-1.4-23,15C113,142.9,116.6,142.1,116,147.8z"/>
	</g>
	<g>
		<path fill="#BCBEC0" d="M63.6,253.8c0.3-7.1,4.8-25.7,11-37.5c6.2-11.8,3.2-27-5.3-33c-8.4-5.9-20.2-4.9-25.8,3.4
			c-15,22.2-10.7,72-2.6,88.8c1.6,3.3,5.5,5.5,10.7,6.8C40.3,277,51.7,251,63.6,253.8z"/>
	</g>
	<g>
		<path fill="#A7A9AC" d="M107.7,274l22.5-27.2c1-1.2,2.5-1.7,4-1.3l38.1,10.5c0.9,0.3,1.2,1.5,0.5,2.1l-28.9,26
			c-0.6,0.6-1.5,0.8-2.3,0.6l-33-7.8C107.4,276.7,106.8,275.1,107.7,274z"/>
	</g>
	<g>
		<path fill="#D1D3D4" d="M134.7,263.3c-1.3-3.7-5-6.5-7.2-7.2c-1.6-0.5-13.3-0.2-19.7-0.1c-2.5,0.1-4.9,0.8-6.9,2.1
			c-2,1.3-4.5,2.6-5.7,2.6c-2.2,0-19.9,0-19.9,0s-5.5-4.2-11.7-7C51.7,251,40.3,277,51.7,282.2c19.2,4.8,57-2.2,72.9-7.6
			c3.5-1.2,6.6-3.4,8.8-6.5C134.4,266.5,135.2,264.7,134.7,263.3z"/>
	</g>
</g>
</svg>
