<?xml version="1.0" encoding="utf-8"?>
<!-- Generator: Adobe Illustrator 18.0.0, SVG Export Plug-In . SVG Version: 6.00 Build 0)  -->
<!DOCTYPE svg PUBLIC "-//W3C//DTD SVG 1.1//EN" "http://www.w3.org/Graphics/SVG/1.1/DTD/svg11.dtd">
<svg version="1.1" id="Layer_1" xmlns="http://www.w3.org/2000/svg" xmlns:xlink="http://www.w3.org/1999/xlink" x="0px" y="0px"
	 viewBox="0 0 512 512" enable-background="new 0 0 512 512" xml:space="preserve">
<g>
	<g>
		<path opacity="0.2" fill="#939598" d="M231.2,249.6c28.5-40.6,78.9-37.9,140.9-21.6c2.9,5.2,6.6,9,6.6,9l-147.6,18V249.6z"/>
		<polygon points="383.6,425.6 243.6,436.2 243.6,247.3 383.6,236.7 		"/>
		<path fill="#58595B" d="M373.5,230.3c0,0-2.3-0.2-6.4-0.8c-4-0.6-9.8-1.5-16.7-2.5c-6.9-1-14.9-1.9-23.6-2.6
			c-8.6-0.7-17.9-1-27.1-0.4c-9.2,0.4-18.4,1.5-26.7,3.6c-4.2,1-8.1,2.3-11.8,3.6c-3.7,1.4-7.1,3-10.1,4.6c-3,1.7-5.7,3.3-8,5
			c-2.4,1.5-4.2,3.2-5.8,4.5c-3,2.7-4.7,4.4-4.7,4.4s0.4-0.4,1.1-1.3c0.7-0.8,1.7-2.1,3.1-3.6c1.5-1.4,3.2-3.3,5.4-5
			c2.1-1.9,4.8-3.8,7.8-5.6c3-1.8,6.4-3.6,10.1-5.2c3.7-1.6,7.7-3.1,12-4.2c8.5-2.3,17.9-3.7,27.3-4.2c9.4-0.4,18.8,0.1,27.5,0.9
			c8.7,0.8,16.8,2.4,23.7,3.7c6.9,1.3,12.5,2.9,16.5,3.8C371.2,229.8,373.5,230.3,373.5,230.3z"/>
		<path fill="#58595B" d="M376.4,234.3c0,0-2.2-0.1-6.1-0.3c-3.9-0.3-9.4-0.6-15.9-1.3c-3.3-0.3-6.9-0.6-10.6-0.9
			c-3.8-0.2-7.7-0.5-11.8-0.8c-4.1-0.2-8.3-0.4-12.7-0.4c-4.3-0.1-8.7,0.1-13,0.2c-4.4,0.3-8.7,0.4-13,0.9
			c-4.3,0.4-8.5,1.1-12.5,1.8c-4,0.7-7.9,1.7-11.6,2.4c-3.6,0.9-7,2-10.2,2.8c-3.1,1.1-6,2.1-8.5,2.9c-2.6,0.8-4.6,1.9-6.4,2.6
			c-3.6,1.5-5.6,2.3-5.6,2.3s1.9-1.1,5.3-2.9c1.7-0.9,3.7-2.2,6.2-3.2c2.5-1.1,5.2-2.4,8.3-3.6c3.2-1.1,6.5-2.3,10.2-3.5
			c3.7-0.9,7.5-2.2,11.7-2.9c4.1-0.8,8.3-1.6,12.7-2c4.3-0.7,8.8-0.8,13.2-1.2c4.4,0,8.9-0.2,13.3,0c4.4,0.1,8.7,0.4,12.8,0.7
			c8.3,0.7,15.9,1.8,22.5,2.8c6.6,1,12,2,15.8,2.6C374.2,233.9,376.4,234.3,376.4,234.3z"/>
		<path opacity="0.2" fill="#939598" d="M231.2,249.6c-28.5-40.6-78.9-37.9-140.9-21.6c-2.9,5.2-6.6,9-6.6,9l147.6,18V249.6z"/>
		<path fill="#939598" d="M243.6,436.4c-9.7,3.1-15.1,3.1-24.8,0c0-63,0-126.1,0-189.1c9.7,3.1,15.1,3.1,24.8,0
			C243.6,310.3,243.6,373.3,243.6,436.4z"/>
		<path fill="#D1D3D4" d="M243.6,281.5c-9.7,3.1-15.1,3.1-24.8,0c0-4.7,0-7.1,0-11.8c9.7,3.1,15.1,3.1,24.8,0
			C243.6,274.4,243.6,276.7,243.6,281.5z"/>
		<path fill="#D1D3D4" d="M243.6,406c-9.7,3.1-15.1,3.1-24.8,0c0-4.7,0-7.1,0-11.8c9.7,3.1,15.1,3.1,24.8,0
			C243.6,399,243.6,401.3,243.6,406z"/>
		<path fill="#D1D3D4" d="M243.6,345.4c-9.7,3.1-15.1,3.1-24.8,0c0-4.7,0-7.1,0-11.8c9.7,3.1,15.1,3.1,24.8,0
			C243.6,338.3,243.6,340.7,243.6,345.4z"/>
		<polygon points="78.8,425.6 218.9,436.2 218.9,247.3 78.8,236.7 		"/>
		<path fill="#58595B" d="M89,230.3c0,0,2.3-0.5,6.2-1.5c4-0.9,9.6-2.4,16.5-3.8c6.9-1.3,14.9-2.8,23.7-3.7
			c8.7-0.8,18.1-1.3,27.5-0.9c9.4,0.5,18.8,1.8,27.3,4.2c4.3,1.1,8.3,2.6,12,4.2c3.7,1.6,7.1,3.4,10.1,5.2c3,1.9,5.7,3.7,7.8,5.6
			c2.3,1.8,3.9,3.6,5.4,5c1.4,1.5,2.4,2.8,3.1,3.6c0.7,0.8,1.1,1.3,1.1,1.3s-1.7-1.6-4.7-4.4c-1.6-1.3-3.4-2.9-5.8-4.5
			c-2.3-1.7-5-3.3-8-5c-3-1.6-6.4-3.2-10.1-4.6c-3.7-1.4-7.7-2.6-11.8-3.6c-8.3-2.1-17.5-3.3-26.7-3.6c-9.2-0.6-18.4-0.2-27.1,0.4
			c-8.6,0.7-16.7,1.6-23.6,2.6c-6.9,1-12.6,1.9-16.7,2.5C91.3,230.1,89,230.3,89,230.3z"/>
		<path fill="#58595B" d="M86.1,234.3c0,0,2.2-0.4,6-1c3.8-0.6,9.2-1.6,15.8-2.6c6.5-1,14.2-2.1,22.5-2.8c4.1-0.3,8.4-0.6,12.8-0.7
			c4.4-0.2,8.8-0.1,13.3,0c4.4,0.4,8.9,0.5,13.2,1.2c4.4,0.5,8.6,1.2,12.7,2c4.1,0.7,8,2,11.7,2.9c3.6,1.2,7,2.4,10.2,3.5
			c3.1,1.2,5.9,2.5,8.3,3.6c2.5,1,4.5,2.3,6.2,3.2c3.4,1.9,5.3,2.9,5.3,2.9s-2-0.8-5.6-2.3c-1.8-0.7-3.9-1.8-6.4-2.6
			c-2.5-0.9-5.4-1.9-8.5-2.9c-3.2-0.9-6.6-1.9-10.2-2.8c-3.7-0.7-7.5-1.7-11.6-2.4c-4-0.7-8.2-1.4-12.5-1.8c-4.3-0.6-8.6-0.6-13-0.9
			c-4.4-0.1-8.7-0.4-13-0.2c-4.3,0-8.5,0.2-12.7,0.4c-4.1,0.3-8.1,0.5-11.8,0.8c-3.8,0.3-7.3,0.6-10.6,0.9c-6.6,0.7-12.1,1-15.9,1.3
			C88.3,234.2,86.1,234.3,86.1,234.3z"/>
		<path opacity="0.2" fill="#939598" d="M243.6,436.4c0-62.3,0-124.5,0-186.7h-12.4c0,0,0,0,0,0v189.1
			C235,438.7,238.8,437.9,243.6,436.4z"/>
		<polygon fill="#939598" points="278.9,308.7 269.2,303 259.5,310 259.5,246.1 278.9,244.8 		"/>
		<polygon fill="#D1D3D4" points="270.4,245.3 269.2,245.4 269.2,303 278.9,308.7 278.9,244.8 		"/>
	</g>
	<g>
		<path fill="#BCBEC0" d="M157.3,170l-2.7,4.8c0,0-5.9-2.1-15.7-5.7c-1.2-0.4-2.5-0.9-3.8-1.4l-1-0.4l-0.8-0.2
			c-0.6-0.2-1.1-0.3-1.7-0.4l-0.9-0.1c-0.3,0-0.5,0-0.8,0l-0.8,0l-1.1,0.1l-0.6,0.1l-0.2,0c0,0,0,0-0.1,0l-0.1,0l-1.2,0.2
			c-0.8,0.1-1.6,0.2-2.4,0.4c-6,1-12.4,2.1-18.8,3.1c-0.4,0.1-0.9,0.1-1.4,0.2c-1.3,0.2-2.7,0.5-4,0.7c-18,3-35.4,5.9-44.5,7.3
			c-2.5,0.4-4.4,0.7-5.4,0.9l-0.5-1.8c-1.3-4.4,0.4-9,3.8-11.6c5.7-0.6,15-1.4,25.8-2.5c5.6-0.5,11.6-1.1,17.7-1.7
			c2-0.2,4-0.4,6-0.6c0,0,0,0,0.1,0c6.9-0.6,13.8-1.3,20.4-1.9c0.8-0.1,1.6-0.1,2.4-0.2l1.2-0.1l0.4,0l0.2,0l0.3,0l0.6,0l1.2,0
			l1.5,0.1c0.5,0.1,1,0.1,1.5,0.1l1.3,0.3c0.9,0.2,1.7,0.4,2.5,0.8l1.2,0.4l1,0.4c1.3,0.6,2.5,1.1,3.7,1.6
			C151,167.1,157.3,170,157.3,170z"/>
		<path fill="#D1D3D4" d="M69.4,194.9l4.8,2.7c0,0,3.9-4.9,10.4-13.1c0.8-1,1.7-2.1,2.6-3.2l0.6-0.8l0.6-0.7
			c0.4-0.4,0.8-0.9,1.3-1.2l0.7-0.6c0.2-0.2,0.4-0.3,0.7-0.5l0.6-0.4l1-0.5l0.5-0.3l0.2-0.1c0,0,0,0,0,0l0.1,0l1.1-0.4
			c0.8-0.3,1.5-0.6,2.2-0.9c5.6-2.3,11.6-4.7,17.6-7.2c0.4-0.2,0.9-0.4,1.3-0.5c1.3-0.5,2.5-1,3.8-1.6c16.9-6.9,33.2-13.7,41.7-17.1
			c2.4-1,4.1-1.7,5.1-2.1l-0.5-1.8c-1.2-4.4-5-7.4-9.3-7.9c-5.1,2.5-13.5,6.6-23.2,11.4c-5,2.5-10.4,5.2-15.9,7.9
			c-1.8,0.9-3.6,1.8-5.4,2.7c0,0,0,0,0,0c-6.2,3.1-12.5,6.2-18.3,9c-0.7,0.4-1.5,0.7-2.2,1.1l-1.1,0.5l-0.3,0.2l-0.1,0.1l-0.3,0.2
			l-0.5,0.3l-1,0.6l-1.3,0.9c-0.4,0.3-0.8,0.6-1.2,0.9l-1,1c-0.7,0.6-1.2,1.3-1.8,2l-0.8,1l-0.6,0.9c-0.8,1.2-1.6,2.3-2.3,3.3
			C73.3,189.2,69.4,194.9,69.4,194.9z"/>
		<path fill="#6D6E71" d="M102,161.5c-2-5.1-7.7-8-13.1-6.4l-32.6,9.3c-1.4,0.4-2.7,1-3.7,1.9c-3.4,2.7-5.1,7.2-3.8,11.6l4.2,14.7
			c1.6,5.8,7.7,9.2,13.5,7.5l32.6-9.2c5.8-1.6,9.2-7.7,7.5-13.5l-4.2-14.7C102.3,162.2,102.2,161.9,102,161.5z M101.3,178.8
			c0.8,2.9-0.9,5.9-3.8,6.8L65,194.8c-2.9,0.8-5.9-0.9-6.7-3.8l-4.2-14.7c-0.8-2.9,0.9-5.9,3.8-6.7l32.6-9.2
			c2.1-0.6,4.3,0.2,5.6,1.7c0.5,0.6,0.9,1.2,1.1,2L101.3,178.8z"/>
		<path fill="#6D6E71" d="M153.8,142.3c2.9-0.8,5.9,0.9,6.8,3.8l4.2,14.7c0.8,2.9-0.9,5.9-3.8,6.8l-32.6,9.2
			c-2.9,0.8-5.9-0.9-6.7-3.8l-4.2-14.7c-0.8-2.9,0.9-5.9,3.8-6.8L153.8,142.3L153.8,142.3z M152.3,137.1l-32.6,9.2
			c-5.8,1.7-9.2,7.7-7.5,13.5l4.2,14.7c1.6,5.8,7.7,9.2,13.5,7.5l32.6-9.2c5.8-1.6,9.2-7.7,7.5-13.5l-4.2-14.7
			C164.2,138.8,158.1,135.4,152.3,137.1L152.3,137.1z"/>
		<polygon fill="#6D6E71" points="117.3,163 101.3,167.6 99.5,161.2 115.5,156.7 		"/>
		<path opacity="0.5" fill="#FFFFFF" d="M101.3,178.8c0.8,2.9-0.9,5.9-3.8,6.8L65,194.8c-2.9,0.8-5.9-0.9-6.7-3.8l-4.2-14.7
			c-0.8-2.9,0.9-5.9,3.8-6.7l32.6-9.2c2.1-0.6,4.3,0.2,5.6,1.7c0.5,0.6,0.9,1.2,1.1,2L101.3,178.8z"/>
		<path opacity="0.5" fill="#FFFFFF" d="M164.8,160.8c0.8,2.9-0.9,5.9-3.8,6.8l-32.6,9.2c-2.9,0.8-5.9-0.9-6.7-3.7l-4.2-14.7
			c-0.8-2.9,0.9-5.9,3.8-6.7l32.6-9.3c2.1-0.6,4.3,0.2,5.6,1.7c0.5,0.6,0.9,1.3,1.1,2L164.8,160.8z"/>
		<path opacity="0.5" fill="#FFFFFF" d="M90.4,160.3l-20.2,5.7l30.5,17c0.7-1.3,1-2.8,0.6-4.3l-4.2-14.7c-0.2-0.8-0.6-1.5-1.1-2
			C94.7,160.5,92.5,159.7,90.4,160.3z"/>
		<path opacity="0.5" fill="#FFFFFF" d="M153.8,142.3l-20.2,5.7l30.5,17c0.7-1.2,1-2.8,0.6-4.3l-4.2-14.7c-0.2-0.8-0.6-1.5-1.1-2
			C158.1,142.5,156,141.7,153.8,142.3z"/>
	</g>
	<g>
		<g>
			<rect x="300.5" y="359.9" fill="#BCBEC0" width="170.5" height="37.6"/>
			<rect x="434.7" y="357.2" fill="#6D6E71" width="8.5" height="40.3"/>
			<rect x="312.4" y="370.1" fill="#6D6E71" width="94" height="18.1"/>
			<rect x="300.4" y="379.1" opacity="0.3" fill="#EF5423" width="170.3" height="18.4"/>
		</g>
		<g>
			<rect x="316.8" y="330.5" fill="#6D6E71" width="134.9" height="29.4"/>
			<rect x="316.8" y="336.1" opacity="0.3" fill="#EF5423" width="57.2" height="17.5"/>
			<rect x="316.8" y="330.5" opacity="0.2" fill="#026579" width="134.7" height="14.4"/>
		</g>
		<g>
			<g>
				<path fill="#6D6E71" d="M473.5,432.7H379v-29.1h94.5C468.7,403.6,468.7,432.7,473.5,432.7z"/>
				<path fill="#58595B" d="M393.5,418.1c0,8-6.5,14.5-14.5,14.5c-8,0-14.5-6.5-14.5-14.5c0-8,6.5-14.5,14.5-14.5
					C387,403.6,393.5,410.1,393.5,418.1z"/>
			</g>
			<g>
				<path fill="#58595B" d="M321.2,418.1c0,11.4-9.4,20.6-21,20.6c-11.6,0-21-9.2-21-20.6c0-11.4,9.4-20.6,21-20.6
					C311.8,397.5,321.2,406.7,321.2,418.1z"/>
				<path fill="#BCBEC0" d="M473.5,397.5H300.2v41.2h173.3v-6.1H379c-8,0-14.5-6.5-14.5-14.5c0-8,6.5-14.5,14.5-14.5h94.5V397.5z"/>
			</g>
		</g>
	</g>
	<g>
		<g>
			<rect x="214.1" y="180.8" fill="#D1D3D4" width="1.9" height="12.4"/>
			<rect x="220" y="180.8" fill="#D1D3D4" width="1.9" height="12.4"/>
			<rect x="226" y="180.8" fill="#D1D3D4" width="1.9" height="12.4"/>
			<rect x="231.9" y="180.8" fill="#D1D3D4" width="1.9" height="12.4"/>
		</g>
		<path fill="#808285" d="M264.1,117.6c0,1.8-0.1,3.6-0.3,5.4c-0.8,7-2.9,14.3-6.4,21.3c-0.6,1.2-1.3,2.4-2,3.6
			c-3.7,6.4-8.8,12.6-15.1,18c-6.2,5.3-6.2,15.9-6.2,15.9h-20.4c0,0,0-10.6-6.2-15.9c-6.3-5.4-11.3-11.6-15.1-18
			c-0.7-1.2-1.3-2.4-2-3.6c-3.5-7-5.6-14.2-6.4-21.3c-0.2-1.8-0.3-3.6-0.3-5.4c-0.1-6,0.9-11.8,2.8-17.1c0.4-1.2,0.9-2.4,1.5-3.6
			c6-12.8,18.1-21.7,35.9-21.7c17.8,0,29.9,8.9,35.9,21.7c0.5,1.2,1,2.3,1.5,3.6C263.3,105.8,264.2,111.6,264.1,117.6z"/>
		<rect x="213.8" y="191.5" fill="#808285" width="20.4" height="15.6"/>
		<path fill="#D1D3D4" d="M234.2,181.8c0,0,0-10.6,6.2-15.9c6.3-5.4,11.3-11.6,15.1-18c0.7-1.2,1.4-2.4,2-3.6
			c3.5-7,5.6-14.2,6.4-21.3c0.2-1.8,0.3-3.6,0.3-5.4c0.1-6-0.9-11.8-2.8-17.1c-0.4-1.2-0.9-2.4-1.5-3.6c-6-12.8-18.1-21.7-35.9-21.7
			v106.5H234.2z"/>
		<path fill="#A7A9AC" d="M261.4,100.5h-74.7c0.4-1.2,0.9-2.4,1.5-3.6h71.8C260.4,98.1,261,99.3,261.4,100.5z"/>
		<path fill="#A7A9AC" d="M264.1,117.6c0,1.8-0.1,3.6-0.3,5.4h-79.6c-0.2-1.8-0.3-3.6-0.3-5.4H264.1z"/>
		<path fill="#A7A9AC" d="M257.4,144.3c-0.6,1.2-1.3,2.4-2,3.6h-62.9c-0.7-1.2-1.3-2.4-2-3.6H257.4z"/>
		<rect x="224" y="191.5" fill="#808285" width="10.2" height="15.6"/>
		<path fill="#FFFFFF" d="M226,79.6c0,0,1.2-0.1,3.3-0.1c1.1,0.1,2.4,0.3,3.9,0.5c0.7,0.2,1.5,0.4,2.3,0.6c0.4,0.1,0.8,0.2,1.3,0.4
			c0.4,0.2,0.8,0.4,1.2,0.5c0.8,0.4,1.8,0.7,2.7,1.2c0.9,0.5,1.8,1.1,2.7,1.6c0.9,0.5,1.7,1.3,2.7,2c0.4,0.4,0.9,0.7,1.3,1.1
			c0.4,0.4,0.8,0.8,1.2,1.3c1.7,1.6,3.2,3.6,4.6,5.6c0.6,1.1,1.2,2.2,1.9,3.2c0.3,0.5,0.6,1.1,0.8,1.7l0.7,1.7l0.7,1.8
			c0.2,0.6,0.4,1.2,0.5,1.8c0.3,1.2,0.7,2.4,1,3.6c0.2,1.2,0.4,2.4,0.6,3.6c0.1,0.6,0.2,1.2,0.3,1.8c0.1,0.6,0.1,1.2,0.1,1.7
			c0.1,2.3,0.2,4.6-0.1,6.7c-0.2,2.1-0.3,4.1-0.7,5.9c-0.4,1.8-0.7,3.4-1,4.9c-0.4,1.4-0.9,2.6-1.2,3.6c-0.7,2-1.1,3.1-1.1,3.1
			s0.1-1.2,0.4-3.3c0.2-1,0.3-2.3,0.5-3.7c0.1-1.4,0.2-3.1,0.3-4.9c0.2-1.8,0.1-3.7,0.1-5.7c0.1-2-0.2-4.1-0.4-6.3
			c-0.1-0.5-0.1-1.1-0.2-1.6c-0.1-0.5-0.2-1.1-0.3-1.6c-0.2-1.1-0.4-2.2-0.6-3.3c-0.3-1.1-0.7-2.2-1-3.3c-0.2-0.6-0.3-1.1-0.5-1.6
			l-0.7-1.6l-0.7-1.6c-0.2-0.5-0.4-1.1-0.7-1.5c-0.6-1-1.1-2-1.6-3c-1.3-1.8-2.5-3.8-4-5.3c-0.4-0.4-0.7-0.8-1.1-1.2
			c-0.4-0.4-0.8-0.7-1.1-1.1c-0.8-0.7-1.5-1.5-2.3-2c-0.8-0.6-1.6-1.2-2.3-1.7c-0.8-0.5-1.6-0.9-2.3-1.4c-0.4-0.2-0.7-0.4-1.1-0.7
			c-0.4-0.2-0.8-0.3-1.1-0.5c-0.7-0.3-1.4-0.6-2.1-0.9c-1.3-0.4-2.5-0.8-3.5-1.1C227.1,79.8,226,79.6,226,79.6z"/>
	</g>
	<g>
		<path fill="#58595B" d="M351,142.9c7.2-12.5,2.9-28.6-9.6-35.8c-12.6-7.3-28.6-2.9-35.8,9.6c-10.6,18.4,2.3,28.3-7.1,44.6l8.1,4.7
			l0.7,0.4l8.1,4.6c7.2-12.5,17.8-11.7,27.1-19.1C345.8,149.7,348.8,146.7,351,142.9z"/>
		<path fill="#797979" d="M310.4,190c-1.7,3-5.6,4.1-8.6,2.3l-14.2-8.2c-3-1.7-4.1-5.6-2.3-8.6l6.3-10.9c1.7-3,5.6-4.1,8.6-2.3
			l14.2,8.2c3,1.7,4,5.6,2.3,8.6L310.4,190z"/>
		<path fill="#D1D3D4" d="M304.7,164.9l-1.6-1c8.2-13.9,11.1-34,11.1-34.2l1.9,0.3C316,130.2,313,150.7,304.7,164.9z"/>
		<path fill="#D1D3D4" d="M309.4,167.6c8.1-14.3,24.4-27.2,24.6-27.3l1.2,1.5c-0.2,0.1-16.1,12.7-24.1,26.7L309.4,167.6z"/>
		<path fill="#D1D3D4" d="M320.2,140.6c-0.1-0.1-0.3-0.2-0.3-0.3c-0.5-0.8,0.1-1.9,0.7-2.9c0.2-0.3,0.3-0.6,0.5-0.8
			c0.7-1.3,0.6-1.7,0.6-1.8c-0.2-0.3-1.1-0.3-1.7-0.3c-0.2,0-0.4,0-0.5,0c-1.5-0.1-2.9,0.1-4.4,0.3c-0.9,0.1-1.8,0.2-2.7,0.3
			l-0.1-1.3c0.9-0.1,1.7-0.2,2.6-0.3c1.5-0.2,3-0.3,4.6-0.3c0.1,0,0.3,0,0.5,0c0.9,0,2.3-0.1,2.8,1c0.5,0.9-0.2,2.2-0.5,2.9
			c-0.2,0.3-0.3,0.6-0.5,0.9c-0.3,0.4-0.7,1.2-0.7,1.5c0,0,0.3,0,0.9-0.1c0.3,0,0.7-0.2,1.1-0.4c0.7-0.3,1.3-0.7,2-0.6
			c1.4,0.1,1.4,1.1,1.5,1.7c0,0.2,0,0.4,0.1,0.6c0.1,0.8,0.3,1,0.8,1.2c2.4,1,6.3,1.4,8.7,1.1l0.1,1.3c-2.5,0.2-6.7-0.1-9.3-1.2
			c-1.1-0.5-1.4-1.1-1.6-2.2c-0.1-0.3-0.1-0.5-0.1-0.7c0-0.2,0-0.4-0.1-0.5c0,0-0.1,0-0.2,0c-0.4,0-0.9,0.2-1.5,0.5
			c-0.5,0.2-1,0.5-1.5,0.5C321.5,140.9,320.7,140.9,320.2,140.6z"/>
		<path fill="#8C8C8C" d="M301.8,192.4c3,1.8,6.9,0.7,8.6-2.3l6.3-10.9c1.7-3,0.7-6.9-2.3-8.6l-7.2-4.1l-12.6,21.8L301.8,192.4z"/>
		<g>
			<polygon fill="#797979" points="315.4,178 293.1,165.2 294.4,163 316.7,175.9 			"/>
			<polygon fill="#797979" points="312.8,182.6 290.5,169.8 291.7,167.6 314,180.4 			"/>
			<polygon fill="#797979" points="310.1,187.2 287.8,174.3 289.1,172.1 311.4,185 			"/>
			<polygon fill="#797979" points="307.5,191.8 285.2,178.9 286.4,176.7 308.7,189.6 			"/>
		</g>
		<path fill="#D1D3D4" d="M349,142.7l-2.2-1.3c9.3-16-1.7-27-6.7-29.9l1.3-2.2C347,112.6,359.3,124.9,349,142.7z"/>
	</g>
</g>
</svg>
