<?xml version="1.0" encoding="utf-8"?>
<!-- Generator: Adobe Illustrator 18.0.0, SVG Export Plug-In . SVG Version: 6.00 Build 0)  -->
<!DOCTYPE svg PUBLIC "-//W3C//DTD SVG 1.1//EN" "http://www.w3.org/Graphics/SVG/1.1/DTD/svg11.dtd">
<svg version="1.1" id="Layer_1" xmlns="http://www.w3.org/2000/svg" xmlns:xlink="http://www.w3.org/1999/xlink" x="0px" y="0px"
	 viewBox="0 0 512 512" enable-background="new 0 0 512 512" xml:space="preserve">
<g>
	<polygon fill="#2D2C2A" points="71.7,197.7 122.4,171.1 378.8,171.1 439.9,197.7 435.9,308.5 406.5,326.2 103.9,326.2 75.8,308.5 	
		"/>
	<path fill="#FFFFFF" d="M266.2,422.4c-3.4,0.2-6.9,0.3-10.4,0.3C259.3,422.7,262.8,422.6,266.2,422.4z"/>
	<path fill="#2695C6" d="M394.3,354.4c-1.6,2.8-0.5,1.9,8.4-11.8c-2.2,3.4-4.5,6.7-6.9,9.9C395.3,353.1,394.8,353.8,394.3,354.4z"/>
	<path d="M407.5,172.5c-4-1.4-8.4-0.8-12.4-2c-2.4-0.7-2.3-2.2-2.3-4.3c0-2.8-2.3-4.3-4.7-5.2c-3.7-1.5-6.5-3.8-8.5-7.2
		c-1.4-2.4-6.7-10.2-9.3-4.8c-2.5,5.2-4.7,9.8-11.5,9.5c-5.5-0.2-9.8-5.5-9.9-10.9c-0.1-6.5,8.7-6.2,8-13.1
		c-0.8-7.6-9.6-11.9-15.5-15.2c-0.3-0.2-4.2-2.3-3.7-2.7c1.9-1.3,7,0.8,8.7,1.7c3.6,1.9,8.8,9.6,13.6,6.6c4.9-3-5.4-11.2-7.7-12.4
		c-2.4-1.2-6-0.9-7.8-3.1c-1.5-1.9-1.5-4.7-2.4-6.9c-2.5-5.8-10.3-9.8-16.3-10.9c-4.5-0.8-10.5-3.5-11-8.6c-1.5-0.6-3-1.1-4.5-1.6
		c-5.4,2.5-10.4,5.7-15.8,8.1c-2.4,1.1-7.1,3.5-9.7,1.7c-4.3-2.8,0.8-11.3-2.6-15c-2.5-2.7-8.2-0.4-11.3-0.4c-0.8,0-3.7-1-4.2,0.1
		c-0.4,1,0.6,2.5,0.9,3.4c1.5,3.4,1.2,6.5-3.5,5.8c-3.5-0.5-6.5-3.3-8.5-6.1l-7.7,3.3c4.3,10.3-22.5-0.7-23.9,4.6
		c-0.4,1.7,2.7,3.7,4.2,3.7c1,0,2.8-1.9,3.6-1.2c1.7,1.5,1.8,5.9,2,8c0,0.3-0.2,3.1,0.5,2.5c4.3-4,9.8-6.2,14.2-10.2
		c1.4-1.2,2.9-3,4.7-3.5c2.4-0.6,4.8,1.7,6.3,3.2c5.7,5.5,12.1,13.7,11.2,22.2c-0.1,1.3-0.7,3.9-2.5,3.6c-2.5-0.4-3.9-4.8-5.5-6.4
		c-3.4-3.4-12.4-7.4-15.2-1c-1.8,4.3,4.4,6.5,7.3,7.9c1,0.5,3.2,1.2,3.5,2.5c0.4,1.8-3.7,2.8-4.7,2.9c-5.5,0.8-9.6-3.8-13.4-7
		c-3.5-3-1.7,3-0.4,4.6c0.4,0.4,1.8,1.5,1.3,2.2c-0.9,1.4-5.1,1.3-6.4,1.4c-8.4,0.8-15.4,2.9-22.4,7.9c-4.4,3.1-8.4,6.8-11.9,10.9
		c-0.2,0.3-0.5,0.6-0.7,0.8c-1.6,6.2-3.1,12.7-5.8,18.5c-1.5,3.2-2.2,1.3-2.3-1.3c-0.2-6,1.5-13.2-2.3-18.5c-6.9-9.4-22.3,4-27.4,9
		c-4.1,4-11,12.3-6.1,18.3c4.8,5.8,9.9-2.6,14.8-3.1c2-0.2,4,0.2,5.7,1.3c-2.9,2.7-6,5.1-8.9,7.7c-1.4,1.2-2.2,2.4,0,3.1
		c2.2,0.6,5.8,0.3,7.4,2.1c1.4,1.6-0.2,4.6-0.7,6.2c-1.4,3.9-3.9,12.8,0,16.1c2.9,2.4,10-0.7,13-1.4c15-3.3,31.5-2.7,40.4,11.6
		c1.4,2.3,2.2,4.8,4.3,6.6c2.2,1.9,5,3,7.6,4.1c1.9,0.8,4.2,1.7,5.3,3.5c1.7,2.8-1.2,6.3-2.5,8.7c-2,3.8-6.3,10.2-5.5,14.9
		c0.2,1,1,1.5,2,1.1c11.4,0.4,24.5,3.7,33.9,10.5c3.5,2.5,7.1,6.2,6.9,10.8c-0.3,6.5-7.1,10.5-11.4,14.3c-7.6,6.7-12.9,13.3-15,23.2
		c-1.8,8.9-10,12.3-18.3,13.5c-7.3,25.5-24.1,21.5-24.1,21.5c-1.8,4.6-4.7,12.7-10.3,14.1c-2.3,0.6-5-0.6-6.7,1.5
		c-3.6,4.2-1.9,11.2-1,16c0.5,2.7,3.3,11.9-1.4,12.6c-4.3,0.7-8.1-2.6-9.4-6.5c-2.1-6.5-1-14.1-0.5-20.8c0.8-8.9,0.1-16.9-2.4-25.5
		c-1.4-5-4.6-11.7-2.6-16.9c1-2.6,3.5-3.8,5.3-5.7c2.5-2.7,4.1-6.2,5-9.8c1.2-4.8,1.7-12.3-2.8-15.8c-3.9-3.1-10.7-4.3-13.2-9
		c-1.5-2.8,0.9-5.1,2.3-7.4c2.3-3.8,2.6-8,0.6-12c-2.8-5.8-10-9.9-11.5-16.3c-1.6-7.2,7.3-13.7,11.6-17.9c3.3-3.2,6.5-6.4,9.6-9.9
		c2.1-2.4,4.7-5,6-8c0.8-1.9-0.4-2.5-2.2-2.1c-4.1,0.7-7.5,2.2-11.8,1.4c-3.4-0.6-6.8-2.3-9.1-4.9c-0.4-3.7-0.8-7.4-1.7-11
		c-0.3-1.3-0.8-3-2-3.8c-2.2-1.5-3.8-1.5-5.4-4.3c-1.3-2.3-2.2-4.8-4.1-6.7c-1.7-1.7-3.7-3-5.8-4.2c-3.7-2.1-6.7-4.3-6-9
		c1.1-8.1,7-14.8,8.8-22.8c0.5-2.3,0.8-8.8-3-5c-2,2-3.3,4.6-4.4,7.1c-0.7,1.4-1.6,3.8-3.2,4.5c-2.6,1.2-0.7-6.8-0.5-7.4
		c4.4-14.5,17-22.4,27.9-31.8c0.9-0.8,7.6-5.8,6.6-7.4c-3.1,0-5.5-1-7.5-2.4c-31,18.5-55.9,46.6-70.5,79.6
		c-14.6,33.1-18.6,70.6-11.3,106c12.6,61,58.5,112,117.7,131.1c33.7,10.9,70.6,11.2,104.5,0.9c34.7-10.6,65.6-32.1,87.7-60.8
		c1.9-3.5,7.7-12.5,8.4-11.8c-2-2.2-3.9-4.3-7-2.8c-2.6,1.3-4.8,3.7-6.7,5.8c-5.8,6.2-11,13-17.1,18.9c-3,2.9-6.3,5.5-9.2,8.6
		c-1.9,2-3.6,4.5-5.9,6.1c-4.3,3.1-7.5-8.3-8-10.7c-1.3-6.7,2.5-12.2,7.3-16.4c3.1-2.8,11-6.6,11.4-11.3c0.4-4.9-5.3-9.5-3.5-14.4
		c1.1-3,4.9-3.9,7-6.1c2.4-2.5,3.5-5.8,4.2-9.1c0.6-2.4,0.8-5.2,2.2-7.4c1.2-2.1,3.5-3.4,4.9-5.5c3.2-4.9,5.5-12.4,1.1-17.4
		c-1.5-1.7-4.9-2.7-5.6-5.1c-0.5-1.8,1.5-3.2,2.7-4.2c3.7-3,8.3-6.2,6.8-11.6c-1.3-4.6-5.5,0.8-8.1,0.6c-3.6-0.3-2.5-7.7-3.1-10.1
		c-0.6-2.7-9.7,1.1-11,1.5c-5.5,1.5-13.6,4.2-18.4-0.5c-4-3.9-4.6-10.4-6.7-15.4c-2.7-6.4-7.7-10.9-11.5-16.5
		c-3-4.4,3.9-3.1,6.5-4.1c5.2-2,6-8.1,6.1-13c0-4.4-0.7-8.8-1-13.2c-0.1-2.6-0.4-5.7,0.8-8.1c1.8-3.5,6.9-2.2,9.9-3.6
		c2.4-1,2.4-3.5,2.7-5.7c0.5-3.4,2.7-4,5.7-4.8c5.9-1.5,11.6-5.4,17.8-5.4c2.4,0,4.2,1.1,4.8,3.5c0.4,1.7-0.3,5.4,1,6.8
		c0.5,0.5,2.1,0.4,2.8,0.8c3.6,1.8,6.1,5.7,8.5,8.7c0.8,1,2.4,3.9,3.9,4c1.3,0.1,3.2-2.1,4.3-2.7c2.8-1.8,6.9-2.6,8.9-5.4
		C413.1,175,409.5,173.2,407.5,172.5z"/>
	<path fill="#2695C6" d="M394.3,354.4c0.5-0.6,1-1.2,1.5-1.9c2.4-3.2,4.7-6.5,6.9-9.9C402,341.8,396.2,350.9,394.3,354.4z"/>
	<path fill="#FFFFFF" d="M99.4,169.4c-1,2-2,4-2.9,6C97.4,173.4,98.4,171.4,99.4,169.4z"/>
	<path fill="#FFFFFF" d="M99.7,168.8c-0.1,0.2-0.2,0.4-0.3,0.6C99.5,169.2,99.6,169,99.7,168.8z"/>
	<path fill="#FFFFFF" d="M96.5,175.5c-0.1,0.3-0.3,0.6-0.4,1C96.2,176.1,96.4,175.8,96.5,175.5z"/>
	<path fill="#FFFFFF" d="M93.1,183.4c-0.9,2.3-1.8,4.7-2.6,7C91.3,188.1,92.2,185.7,93.1,183.4z"/>
	<path fill="#FFFFFF" d="M96.1,176.4c-0.9,2-1.7,4-2.5,6C94.3,180.4,95.2,178.4,96.1,176.4z"/>
	<path fill="#E5E5E5" d="M99.7,168.8c15-29.5,38.2-54.3,66.5-71.2c1.9,1.4,4.4,2.4,7.5,2.4c0,0,3.4,0-18.1,16.7
		c-21.5,16.8-19.5,40-12.7,25.4c6.7-14.6,12.7-9.3,2,11.5c-10.7,20.8,5.6,14.1,11.2,26.8c5.6,12.7,7.6-2.7,10.3,21.5
		c0,0,6.7,8,18.8,4c12.1-4-2,10.7-14.7,22.8c-12.7,12.1-8.7,16.1-2,23.5c6.7,7.4,9.4,13.4,3.4,21.5c-6,8,9.4,10.7,13.4,15.4
		c4,4.7,3.3,20.1-6,26.8c-9.4,6.7,4.7,21.4,2.7,42.2c-2,20.8-1.5,29.5,8,30.8c9.5,1.3-1.2-18.1,2.8-26.8c4-8.7,8.7,6,18.1-17.4
		c0,0,16.8,4,24.1-21.5c0,0,14.7-2,17.4-10.1c2.7-8-0.7-13.4,20.8-30.8c21.4-17.4-14.8-30.8-34.2-31.5c0,0-7.1,2.9,5.4-19.4
		c5.4-9.8-10.7-7.4-14.8-16.1c-4-8.7-13.4-18.8-32.2-16.8c-18.8,2-24.2,8.7-24.8-2.7c-0.7-11.4,8-16.8-1.4-18.1
		c-9.4-1.3-4.7-2,5.4-11.4c0,0-6-4-12.1,2c-6,6-16.8-3.3-4-16.7c12.8-13.4,32.8-23.5,31.5,2c-1.3,25.5,8.1-11.5,8.1-11.5
		s14.1-18,31.5-19.3c17.4-1.3,6.7-2,6.7-8.1c0-6,8,10.1,17.8,6c9.7-4-10.4-5.4-8.4-12.1c2-6.7,13.4-4.7,18.1,4
		c4.7,8.7,10.1-4.7-2-18.8c-12.1-14.1-10.1-5.3-21.5,0.7c-11.4,6-6.7,9.4-8.7-0.7c-2-10-2.7,0.7-8-4.7c-5.4-5.4,9.6-2.9,17.4-2
		c7.9,0.9,5.4-4.7,5.4-4.7l7.7-3.3c0,0,5,7.4,11.1,6c6-1.3-4-10.7,2-9.4c6,1.3,14.1-4,14.8,4c0.7,8-4.7,18.8,17.4,6.7
		c4.5-2.4,7.4-4,9.5-5c-17.2-5.7-35.6-8.8-54.7-8.8C187.6,72.8,128.5,111.9,99.7,168.8z"/>
	<path fill="#FFFFFF" d="M93.5,182.4c-0.1,0.3-0.3,0.7-0.4,1C93.2,183.1,93.4,182.7,93.5,182.4z"/>
	<path fill="#E5E5E5" d="M315,83.2c0.1,1.6,0.7,3.7,3.5,5.4c8.7,5.3,6,0.7,17.4,7.4c11.4,6.7,4,14.1,12.7,15.4
		c8.7,1.3,16.8,13.4,10.1,14.1c-6.7,0.7-7.4-7.4-17.4-8.7c-10.1-1.3,4,3.3,10.7,9.4c6.7,6,6.7,13.2,0,16c-6.7,2.8-1.7,18.2,9.2,16.2
		c10.9-2,6.9-13.4,12.9-10.7c6,2.7,4,9.4,14.1,13.4c10.1,4-1.3,9.4,10.7,10c12.1,0.7,18.1,5.4,7.4,10.1c-10.7,4.7-5.3,8.7-14.7-2.7
		c-9.4-11.4-8.5-0.5-9.4-11.4c-0.9-10.9-16.1-0.7-24.1,0.7c-8.1,1.3-1.3,9.4-8.7,10.7c-7.4,1.3-10.7-0.7-8.7,16.8
		c2,17.4-2.7,21.4-10.7,21.4c-8,0,6.7,9.4,10.7,21.5c4,12.1,4.7,19.4,22.1,14.8c17.4-4.7,12.1-4.7,14.1,4.7c2,9.4,9.4-5.4,10.7,4
		c1.3,9.4-16.7,11.4-6.7,17.4c10.1,6,2.7,20.1-2,23.5c-4.7,3.4-1.3,15.4-11.4,20.8c-10.1,5.4,4.7,14.7-1.3,20.8
		c-6,6-22.1,13.4-16.1,28.2c6.1,14.7,6.1,6,18.8-4.7c12.7-10.7,23.5-28.8,29.5-28.1c2.2,0.2,3.2,1.9,4.5,3.3
		c-19.5,30.1-48,53.8-81.6,67.4c64.2-25.9,109.6-88.8,109.6-162.3C430.7,172,382.4,107.5,315,83.2z"/>
	<path fill="#FFFFFF" d="M312,82.1c1,0.3,2,0.7,2.9,1.1c0,0,0,0,0,0C314,82.8,313,82.5,312,82.1z"/>
	<path opacity="0.55" fill="#CECFCF" d="M82,267.8c0.6,5.2,1.4,10.3,2.4,15.5c12.6,61,58.5,112,117.7,131.1
		c33.7,10.9,70.6,11.2,104.5,0.9c5.5-1.7,11-3.7,16.3-5.9c-0.6,0.3-1.2,0.6-1.8,0.8c0.7-0.3,1.3-0.6,1.9-0.9
		c2.1-0.9,4.1-1.8,6.1-2.7c2.1-1,4.2-2,6.2-3c1.2-0.6,2.4-1.2,3.6-1.9c19.4-10.5,36.5-24.6,50.6-41.3c0.4-0.5,0.9-1,1.3-1.5
		c1.1-1.3,2.2-2.6,3.3-4c-1.1,2-0.1,1.1,5.7-7.8c15.9-23,26.4-50,29.7-79.2H82z"/>
	<path opacity="0.55" fill="#9A9AA1" d="M410.1,330c7.1-13.3,12.6-27.5,16.1-42.6H85.5c3.5,15,9,29.3,16.2,42.6H410.1z"/>
	<g>
		<path fill="#666766" d="M75.8,308.5h360.2c7.7-18.9,12-39.4,12-60.7c0-17.4-2.8-34.2-8-50.1H71.7c-9.1,27.6-10.6,57.2-4.1,85.5
			C69.5,291.9,72.3,300.3,75.8,308.5z"/>
		<g>
			<path fill="#CCCCCC" d="M155.1,285.6l-29.5-52.2c0.6,5.1,0.9,9.1,0.9,12.2v40h-12.6v-67.8H130l30,52.6c-0.6-4.8-0.9-9.3-0.9-13.2
				v-39.4h12.6v67.8H155.1z"/>
			<path fill="#CCCCCC" d="M185,285.6v-67.8h53.3v11h-39.1v17h36.2v11h-36.2v17.9h41.1v11H185z"/>
			<path fill="#CCCCCC" d="M319.5,285.6h-16.8l-9.2-39.2c-1.1-4.6-2.1-9.4-2.8-14.5c-0.8,4.2-1.4,7.4-1.9,9.6
				c-0.5,2.2-3.9,16.9-10.2,44.1h-16.8l-17.5-67.8h14.4l9.8,43.8l2.2,10.6c0.9-4.5,1.8-8.7,2.6-12.8c0.9-4.1,4.1-17.9,9.6-41.6h15.9
				l8.6,36.1c0.7,2.7,1.8,8.8,3.4,18.3l1.2-5.6l2.6-11.1l8.2-37.7h14.4L319.5,285.6z"/>
			<path fill="#CCCCCC" d="M399,266c0,6.6-2.5,11.7-7.4,15.2c-4.9,3.5-12.1,5.3-21.7,5.3c-8.7,0-15.5-1.5-20.4-4.6
				c-4.9-3.1-8.1-7.8-9.5-14l13.7-2.3c0.9,3.6,2.7,6.2,5.4,7.8c2.7,1.6,6.4,2.4,11.2,2.4c9.9,0,14.9-3,14.9-9c0-1.9-0.6-3.5-1.7-4.8
				c-1.1-1.3-2.7-2.3-4.8-3.1c-2.1-0.8-6-1.8-11.9-3c-5.1-1.2-8.6-2.1-10.6-2.9c-2-0.7-3.8-1.6-5.4-2.6c-1.6-1-3-2.2-4.1-3.5
				c-1.1-1.4-2-3-2.6-4.9c-0.6-1.9-0.9-4-0.9-6.4c0-6.1,2.3-10.8,6.9-14.1c4.6-3.3,11.3-4.9,20.1-4.9c8.4,0,14.7,1.3,18.9,3.9
				c4.2,2.6,6.9,7,8.2,13l-13.8,1.9c-0.7-2.9-2.1-5.1-4.3-6.6c-2.2-1.5-5.3-2.2-9.3-2.2c-8.6,0-12.9,2.7-12.9,8.1
				c0,1.8,0.5,3.2,1.4,4.3c0.9,1.1,2.3,2.1,4.1,2.9c1.8,0.8,5.4,1.8,10.9,3c6.5,1.4,11.2,2.7,14,3.8c2.8,1.2,5,2.5,6.7,4.1
				c1.6,1.6,2.9,3.4,3.8,5.6C398.6,260.7,399,263.2,399,266z"/>
		</g>
	</g>
</g>
</svg>
