<?xml version="1.0" encoding="utf-8"?>
<!-- Generator: Adobe Illustrator 18.0.0, SVG Export Plug-In . SVG Version: 6.00 Build 0)  -->
<!DOCTYPE svg PUBLIC "-//W3C//DTD SVG 1.1//EN" "http://www.w3.org/Graphics/SVG/1.1/DTD/svg11.dtd">
<svg version="1.1" id="Layer_1" xmlns="http://www.w3.org/2000/svg" xmlns:xlink="http://www.w3.org/1999/xlink" x="0px" y="0px"
	 viewBox="0 0 512 512" enable-background="new 0 0 512 512" xml:space="preserve">
<g>
	<path fill="#676767" d="M262.4,243.3c8.7,0,15.7,7,15.7,15.7c0,8.7-7,15.7-15.7,15.7c-8.7,0-15.7-7-15.7-15.7
		C246.7,250.3,253.7,243.3,262.4,243.3z"/>
	<path fill="#989898" d="M341,78.3c8.7,0,15.7,7,15.7,15.7s-7,15.7-15.7,15.7c-8.7,0-15.7-7-15.7-15.7S332.3,78.3,341,78.3z"/>
	<path fill="#989898" d="M427.4,314c8.7,0,15.7,7,15.7,15.7c0,8.7-7,15.7-15.7,15.7c-8.7,0-15.7-7-15.7-15.7
		C411.7,321,418.7,314,427.4,314z"/>
	<path fill="#989898" d="M195.6,400.4c10.9,0,19.6,8.8,19.6,19.6c0,10.8-8.8,19.6-19.6,19.6c-10.8,0-19.6-8.8-19.6-19.6
		C176,409.2,184.8,400.4,195.6,400.4z"/>
	<path fill="#989898" d="M89.6,172.6c8.7,0,15.7,7,15.7,15.7s-7,15.7-15.7,15.7c-8.7,0-15.7-7-15.7-15.7S80.9,172.6,89.6,172.6z"/>
	<path fill="#CDCCCC" d="M427.4,369c4.3,0,7.9,3.5,7.9,7.9c0,4.3-3.5,7.9-7.9,7.9c-4.3,0-7.9-3.5-7.9-7.9
		C419.5,372.5,423,369,427.4,369z"/>
	<path fill="#CDCCCC" d="M411.7,188.3c4.3,0,7.9,3.5,7.9,7.9s-3.5,7.9-7.9,7.9c-4.3,0-7.9-3.5-7.9-7.9S407.3,188.3,411.7,188.3z"/>
	<path fill="#CDCCCC" d="M333.1,400.4c4.3,0,7.9,3.5,7.9,7.9c0,4.3-3.5,7.9-7.9,7.9c-4.3,0-7.9-3.5-7.9-7.9
		C325.3,403.9,328.8,400.4,333.1,400.4z"/>
	<path fill="#CDCCCC" d="M199.6,101.9c4.3,0,7.9,3.5,7.9,7.9c0,4.3-3.5,7.9-7.9,7.9c-4.3,0-7.9-3.5-7.9-7.9
		C191.7,105.4,195.2,101.9,199.6,101.9z"/>
	<path fill="#CDCCCC" d="M128.9,86.2c4.3,0,7.9,3.5,7.9,7.9c0,4.3-3.5,7.9-7.9,7.9c-4.3,0-7.9-3.5-7.9-7.9
		C121,89.7,124.6,86.2,128.9,86.2z"/>
	<path fill="#CDCCCC" d="M105.3,314c4.3,0,7.9,3.5,7.9,7.9c0,4.3-3.5,7.9-7.9,7.9c-4.3,0-7.9-3.5-7.9-7.9
		C97.5,317.5,101,314,105.3,314z"/>
	<g>
		<path fill="#231F20" d="M262.4,443.6c-26.5,0-39.4-61.3-43.8-87.7c-2.6-15.8-4.5-32.9-5.8-51c-0.6-8.5-1-17.4-1.3-26.4
			c-0.2-6.6-0.3-13.2-0.3-19.5c0-6.4,0.1-12.9,0.3-19.5c0.3-9,0.7-17.9,1.3-26.4c1.2-18.1,3.2-35.3,5.8-51
			c4.3-26.4,17.3-87.7,43.8-87.7c26.5,0,39.4,61.3,43.8,87.7c2.6,15.8,4.5,33,5.8,51c0.6,8.5,1,17.4,1.3,26.4
			c0.2,6.6,0.3,13.2,0.3,19.5c0,6.4-0.1,12.9-0.3,19.5c-0.3,9-0.7,17.8-1.3,26.4c-1.2,18.1-3.2,35.2-5.8,51
			C301.8,382.3,288.9,443.6,262.4,443.6z M262.4,82.3c-10.5,0-26.2,21.2-36,81.1c-2.6,15.5-4.5,32.4-5.7,50.3
			c-0.6,8.4-1,17.2-1.2,26c-0.2,6.5-0.3,13-0.3,19.3c0,6.3,0.1,12.8,0.3,19.3c0.3,8.9,0.7,17.6,1.2,26c1.2,17.9,3.1,34.8,5.7,50.3
			c9.8,59.8,25.5,81.1,36,81.1c10.5,0,26.2-21.2,36-81.1c2.6-15.6,4.5-32.5,5.7-50.3c0.6-8.4,1-17.2,1.2-26c0.2-6.5,0.3-13,0.3-19.3
			c0-6.3-0.1-12.8-0.3-19.3c-0.2-8.9-0.7-17.6-1.2-26c-1.2-17.8-3.1-34.7-5.7-50.3C288.6,103.5,272.9,82.3,262.4,82.3z"/>
	</g>
	<g>
		<path fill="#231F20" d="M147.2,395c-6.6,0-11.7-1.8-15.3-5.5c-18.7-18.7,15.5-71.2,31-92.9c9.4-13.1,20.1-26.6,32-40.2
			c5.7-6.5,11.7-13.1,17.7-19.5c4.4-4.6,9-9.4,13.6-14c4.6-4.6,9.3-9.2,14-13.6c6.4-6.1,13-12.1,19.5-17.8
			c13.6-11.9,27.2-22.7,40.2-32c32.8-23.5,60.4-36.5,77.6-36.5c6.6,0,11.7,1.8,15.3,5.5c18.7,18.7-15.5,71.2-31,92.9
			c-9.4,13.1-20.2,26.6-32,40.2c-5.7,6.5-11.7,13.1-17.8,19.5c-4.4,4.6-9,9.4-13.6,14c-4.6,4.6-9.3,9.2-14,13.6
			c-6.5,6.1-13.1,12.1-19.5,17.8c-13.7,11.9-27.2,22.7-40.2,32C192,382,164.5,395,147.2,395z M377.6,130.9c-15.4,0-42,12.8-73,35
			c-12.8,9.2-26.1,19.8-39.6,31.5c-6.5,5.6-12.9,11.5-19.3,17.5c-4.6,4.3-9.2,8.9-13.8,13.5c-4.6,4.6-9.1,9.3-13.5,13.8
			c-6,6.4-11.9,12.8-17.5,19.3c-11.7,13.4-22.3,26.7-31.5,39.6c-35.3,49.3-39.3,75.4-31.9,82.8c2.1,2.1,5.4,3.2,9.8,3.2
			c15.4,0,42-12.8,73-35c12.8-9.2,26.1-19.8,39.6-31.5c6.4-5.6,12.9-11.5,19.3-17.5c4.6-4.3,9.2-8.9,13.8-13.5
			c4.6-4.6,9.1-9.2,13.5-13.8c6-6.3,11.9-12.8,17.5-19.3c11.7-13.4,22.3-26.7,31.5-39.6c35.3-49.3,39.3-75.4,31.9-82.8
			C385.3,131.9,382,130.9,377.6,130.9z"/>
	</g>
	<g>
		<path fill="#231F20" d="M262.4,310.1c-6.4,0-12.9-0.1-19.5-0.3c-9-0.3-17.9-0.7-26.4-1.3c-18.1-1.2-35.3-3.2-51-5.8
			c-26.4-4.3-87.7-17.3-87.7-43.7c0-26.5,61.3-39.4,87.7-43.8c15.8-2.6,33-4.6,51-5.8c8.5-0.6,17.4-1,26.4-1.3
			c6.6-0.2,13.2-0.3,19.5-0.3c6.4,0,12.9,0.1,19.5,0.3c9,0.3,17.9,0.7,26.4,1.3c18.1,1.2,35.3,3.2,51,5.8
			c26.4,4.3,87.7,17.3,87.7,43.8c0,26.5-61.3,39.4-87.7,43.7c-15.8,2.6-33,4.6-51.1,5.8c-8.5,0.6-17.4,1-26.4,1.3
			C275.4,310,268.8,310.1,262.4,310.1z M262.4,215.8c-6.3,0-12.8,0.1-19.3,0.3c-8.9,0.2-17.6,0.7-26,1.2
			c-17.8,1.2-34.8,3.1-50.3,5.7c-59.9,9.8-81.1,25.5-81.1,36c0,10.5,21.2,26.2,81.1,36c15.5,2.6,32.5,4.5,50.3,5.7
			c8.4,0.6,17.2,1,26,1.2c6.5,0.2,13,0.3,19.3,0.3c6.3,0,12.8-0.1,19.3-0.3c8.9-0.3,17.6-0.7,26-1.2c17.8-1.2,34.8-3.1,50.3-5.7
			c59.8-9.8,81.1-25.5,81.1-36c0-10.5-21.2-26.2-81.1-36c-15.5-2.6-32.5-4.5-50.3-5.7c-8.4-0.6-17.2-1-26-1.2
			C275.2,215.9,268.7,215.8,262.4,215.8z"/>
	</g>
	<g>
		<path fill="#231F20" d="M377.6,395c-17.2,0-44.8-13-77.6-36.5c-13-9.3-26.5-20.1-40.2-32c-6.5-5.7-13.1-11.7-19.5-17.8
			c-4.6-4.4-9.4-9-14-13.6c-4.7-4.7-9.2-9.4-13.6-14c-6.1-6.4-12-13-17.7-19.5c-11.9-13.6-22.6-27.1-32-40.2
			c-15.6-21.7-49.8-74.2-31-92.9c3.6-3.6,8.8-5.5,15.3-5.5c17.2,0,44.8,13,77.6,36.5c13,9.3,26.5,20.1,40.2,32
			c6.5,5.6,13,11.6,19.5,17.8c4.6,4.4,9.3,9,14,13.6c4.6,4.6,9.2,9.4,13.6,14c6.1,6.4,12.1,13,17.8,19.5
			c11.9,13.6,22.6,27.1,32,40.2c15.6,21.7,49.8,74.2,31,92.9C389.3,393.1,384.2,395,377.6,395z M147.2,130.9c-4.4,0-7.7,1.1-9.8,3.2
			c-7.4,7.4-3.5,33.5,31.9,82.8c9.2,12.9,19.8,26.2,31.5,39.6c5.6,6.5,11.5,12.9,17.5,19.3c4.3,4.6,8.9,9.2,13.5,13.8
			c4.6,4.6,9.2,9.1,13.8,13.5c6.4,6,12.9,11.9,19.3,17.5c13.5,11.7,26.8,22.4,39.6,31.5c31,22.3,57.6,35,73,35
			c4.4,0,7.7-1.1,9.8-3.2c7.4-7.4,3.5-33.5-31.9-82.8c-9.2-12.9-19.8-26.2-31.5-39.6c-5.6-6.4-11.5-12.9-17.5-19.3
			c-4.3-4.6-8.9-9.2-13.5-13.8c-4.6-4.6-9.2-9.1-13.8-13.5c-6.4-6.1-12.9-12-19.3-17.5c-13.5-11.7-26.8-22.4-39.6-31.5
			C189.2,143.6,162.6,130.9,147.2,130.9z"/>
	</g>
</g>
</svg>
