<?xml version="1.0" encoding="utf-8"?>
<!-- Generator: Adobe Illustrator 18.0.0, SVG Export Plug-In . SVG Version: 6.00 Build 0)  -->
<!DOCTYPE svg PUBLIC "-//W3C//DTD SVG 1.1//EN" "http://www.w3.org/Graphics/SVG/1.1/DTD/svg11.dtd">
<svg version="1.1" id="Layer_1" xmlns="http://www.w3.org/2000/svg" xmlns:xlink="http://www.w3.org/1999/xlink" x="0px" y="0px"
	 viewBox="0 0 512 512" enable-background="new 0 0 512 512" xml:space="preserve">
<g>
	<g>
		<polygon fill="#4E5154" points="380.4,274.5 352.1,274.5 330.8,200.6 364.9,200.6 381.4,245.7 		"/>
		<polygon fill="#4E5154" points="254.7,259.7 271.7,200.6 256.4,200.6 239.9,245.7 240.4,259.7 		"/>
		<polygon fill="#A5A5A7" points="214.7,210.9 266.8,215.3 375.2,215.3 381.4,186.4 214.7,191.3 		"/>
		<path fill="#4E5154" d="M395.5,305.4l-14.1-59.7h-168c-1.6,0-3.1,0.2-4.6,0.5l-47.6,10.6l-77.5-14.3c-4-0.7-8.1-0.4-11.9,1.2
			c-3.4,1.5-7,4.2-8.7,9.1h8.6v80.8h-9.1c0.1,0.4,0.3,0.7,0.4,1.1c2.8,6.6,9.8,10.4,16.9,9.4l56.2-8c13.2-2.7,23.8-11.5,27.2-16
			c0,0,0,0,0,0l32.8-1.8c2.9,0,6.2,13.5,9.6,19.4c2.2,3.8,6.2,6.1,10.6,6.3l145,6.1c10.1,0.4,19.6-4.8,24.7-13.5l6.6-11.3
			C396,319.2,397.1,312.1,395.5,305.4z"/>
		<path fill="#A5A5A7" d="M161.1,256.8l-0.4-0.1c0,0,1.9,64.1,2.5,63.2c0,0,0,0,0,0l32.8-1.8l12-71.8L161.1,256.8z"/>
		<path fill="#A5A5A7" d="M83.7,242.5c-4-0.7-8.1-0.4-11.9,1.2c-3.4,1.5-7,4.2-8.7,9.1l8.6,7v68.2l-9.1,5.6c0.1,0.4,0.3,0.7,0.4,1.1
			c2.8,6.6,9.8,10.4,16.9,9.4l20.1-2.9v-95.6L83.7,242.5z"/>
		<g>
			<path fill="#A5A5A7" d="M313.5,310.6l-75.2-11.3c-5.7-0.9-10-5.8-10-11.6v-6.4c0-5.8,4.2-10.7,10-11.6l75.2-11.3
				c7.1-1.1,13.4,4.4,13.4,11.6v29C327,306.1,320.6,311.6,313.5,310.6z"/>
			<path fill="#4E5154" d="M315.2,284.5c0,7.3-5.9,13.1-13.1,13.1c-7.2,0-13.1-5.9-13.1-13.1c0-7.2,5.9-13.1,13.1-13.1
				C309.3,271.4,315.2,277.2,315.2,284.5z"/>
		</g>
		<path fill="#4E5154" d="M422.8,177.6l-6.8,6.4l-54.4,2.5v33.3h53.9l7.9,6.3c3.8,3,9.1,3.5,13.3,1.2l12-6.5
			c3.9-2.1,6.4-6.2,6.4-10.7v-15.9c0-4.2-2.1-8-5.7-10.3l-11.9-7.6C432.9,173.3,426.8,173.9,422.8,177.6z"/>
		<polygon fill="#A5A5A7" points="401.9,184.6 378.2,185.7 378.2,219.8 401.9,219.8 		"/>
		<path fill="#4E5154" d="M213.5,220h-71.8c-8.2,0-14.8-6.6-14.8-14.8v-16.9c0-8.2,6.6-14.8,14.8-14.8h71.8
			c8.2,0,14.8,6.6,14.8,14.8v16.9C228.3,213.4,221.7,220,213.5,220z"/>
		<path fill="#CBCBCB" d="M168.6,206.4l-60.6-4.8c-8.5-0.7-15-7.7-15-16.2v-0.3c0-8.5,6.5-15.6,15-16.2l60.6-4.8
			c9.5-0.7,17.6,6.7,17.6,16.2v9.9C186.2,199.6,178.1,207.1,168.6,206.4z"/>
		<path fill="#A5A5A7" d="M145.4,165.9l-37.3,2.9c-8.5,0.7-15,7.7-15,16.2v0.3c0,8.5,6.5,15.6,15,16.2l37.3,2.9V165.9z"/>
		<g>
			<polygon fill="#A5A5A7" points="361.5,335.6 222.1,328.9 212.5,306.3 221.4,306.3 228.8,322.3 356.1,328.9 367.3,306.2 
				358.3,272.2 364.6,270.2 374.1,305.8 			"/>
		</g>
	</g>
	<path fill="#A5A5A7" d="M127.1,206.9c0.9,7.4,7.1,13.1,14.6,13.1h71.8c5.7,0,10.7-3.3,13.1-8.1l24.8,2.1l-11.5,31.5h18.9l8.7-30.2
		h67.6l8.7,30.2h37.5l-9.4-25.8h43.5l7.9,6.3c3.8,3,9.1,3.5,13.3,1.2l12-6.5c3.9-2.1,6.4-6.2,6.4-10.7v-3.1H127.1z"/>
	<path opacity="0.75" fill="#A5A5A7" d="M395.5,305.4l-4.9-20.7H71.7v42.9l-9.1,5.9c0.1,0.4,0.3,0.7,0.4,1.1
		c2.8,6.6,9.8,10.4,16.9,9.4l56.2-8c13.2-2.7,23.8-11.5,27.2-16c0,0,0,0,0,0l32.8-1.8c2.9,0,6.2,13.5,9.6,19.4
		c2.2,3.8,6.2,6.1,10.6,6.3l145,6.1c10.1,0.4,19.6-4.8,24.7-13.5l6.6-11.3C396,319.2,397.1,312.1,395.5,305.4z"/>
	<circle fill="#FFFFFF" cx="106.6" cy="176.9" r="5.5"/>
	<rect x="200.6" y="182.4" fill="#EC5926" width="11.9" height="11.9"/>
</g>
</svg>
